<svg xmlns="http://www.w3.org/2000/svg" viewBox="0 0 800 600" width="800" height="600">
<rect x="60" y="50" width="80" height="40" fill="#fff" stroke="#000"/>
<text x="100" y="75">UserService</text>
<line x1="100" y1="100" x2="100" y2="500" class="dashed" stroke="#000"/>
<rect x="210" y="50" width="80" height="40" fill="#fff" stroke="#000"/>
<text x="250" y="75">UserDB</text>
<line x1="250" y1="100" x2="250" y2="500" stroke="#000" class="dashed"/>
<line x1="100" y1="120" x2="250" y2="120" stroke="#000"/>
<polygon points="250,120 242,123 242,116" fill="#000"/>
<text x="175" y="115">findByEmail</text>
<line x1="100" y1="160" x2="250" y2="160" stroke="#000"/>
<polygon points="250,160 242,163 242,156" fill="#000"/>
<text x="175" y="155">insert</text>
<line x1="100" y1="200" x2="250" y2="200" stroke="#000"/>
<polygon points="250,200 242,203 242,196" fill="#000"/>
<text x="175" y="195">commit</text>
<rect x="50" y="230" width="700" height="20" stroke="#000" fill="none"/>
<text x="60" y="240">[alt] condition</text>
</svg>