<svg xmlns="http://www.w3.org/2000/svg" viewBox="0 0 800 600" width="800" height="600">
<rect x="350" y="50" width="100" height="40" rx="20" ry="20" fill="#fff" stroke="#000"/>
<text x="400" y="75">Start</text>
<rect x="350" y="130" width="100" height="40" fill="#fff" stroke="#000"/>
<text x="400" y="155">existing = ...</text>
<polygon points="400,210 440,230 400,250 360,230" stroke="#000" fill="#fff"/>
<text x="400" y="235">condition?</text>
<rect x="350" y="290" width="100" height="40" fill="#fff" stroke="#000"/>
<text x="400" y="315">user = ...</text>
<rect x="350" y="370" width="100" height="40" fill="#fff" stroke="#000"/>
<text x="400" y="395">commit()</text>
<rect x="350" y="450" width="100" height="40" rx="20" ry="20" fill="#fff" stroke="#000"/>
<text x="400" y="475">return</text>
<rect x="350" y="530" width="100" height="40" rx="20" ry="20" stroke="#000" fill="#fff"/>
<text x="400" y="555">throw UserExistsError</text>
<rect x="350" y="610" width="100" height="40" rx="20" ry="20" fill="#fff" stroke="#000"/>
<text x="400" y="635">End</text>
</svg>