<svg xmlns="http://www.w3.org/2000/svg" viewBox="0 0 800 600" width="800" height="600">
<defs>
<style>text { font-family: -apple-system, "Segoe UI", "Helvetica Neue", Arial, sans-serif; }</style>
<filter id="drop-shadow" x="-5%" y="-5%" width="115%" height="115%"><feGaussianBlur in="SourceAlpha" stdDeviation="2" result="blur"/><feOffset in="blur" dx="1" dy="2" result="offsetBlur"/><feComponentTransfer in="offsetBlur" result="shadow"><feFuncA type="linear" slope="0.12"/></feComponentTransfer><feMerge><feMergeNode in="shadow"/><feMergeNode in="SourceGraphic"/></feMerge></filter>
<symbol id="actor" viewBox="0 0 40 70" preserveAspectRatio="none"><circle cx="20" cy="10" r="10" fill="#fafbfc" stroke="#2d3748" stroke-width="1.5"/><line x1="20" y1="20" x2="20" y2="45" stroke="#2d3748" stroke-width="1.5"/><line x1="5" y1="30" x2="35" y2="30" stroke="#2d3748" stroke-width="1.5"/><line x1="20" y1="45" x2="5" y2="65" stroke="#2d3748" stroke-width="1.5"/><line x1="20" y1="45" x2="35" y2="65" stroke="#2d3748" stroke-width="1.5"/></symbol>
<symbol id="initial-state" viewBox="0 0 20 20" preserveAspectRatio="none"><circle cx="10" cy="10" r="10" fill="#1a202c"/></symbol>
<symbol id="final-state" viewBox="0 0 24 24" preserveAspectRatio="none"><circle cx="12" cy="12" r="12" fill="none" stroke="#2d3748" stroke-width="2"/><circle cx="12" cy="12" r="8" fill="#1a202c"/></symbol>
</defs>
<rect x="50" y="50" width="113" height="40" fill="#fafbfc" stroke="#2d3748" stroke-width="2" filter="url(#drop-shadow)"/>
<text x="106" y="75" font-weight="bold" text-anchor="middle" fill="#1a202c">BusinessLogic</text>
<line x1="106" y1="100" x2="106" y2="500" stroke="#2d3748" stroke-dasharray="5,5"/>
<rect x="193" y="50" width="80" height="40" fill="#fafbfc" stroke="#2d3748" stroke-width="2" filter="url(#drop-shadow)"/>
<text x="233" y="75" text-anchor="middle" fill="#1a202c" font-weight="bold">self</text>
<line x1="233" y1="100" x2="233" y2="500" stroke="#2d3748" stroke-dasharray="5,5"/>
<line x1="106" y1="120" x2="233" y2="120" stroke="#2d3748"/>
<polygon points="233,120 225,123 225,116" fill="#000"/>
<text x="169" y="115" text-anchor="middle" fill="#1a202c">fetchData</text>
<line x1="106" y1="160" x2="233" y2="160" stroke="#2d3748"/>
<polygon points="233,160 225,163 225,156" fill="#000"/>
<text x="169" y="155" text-anchor="middle" fill="#1a202c">transform</text>
<line x1="106" y1="200" x2="233" y2="200" stroke="#2d3748"/>
<polygon points="233,200 225,203 225,196" fill="#000"/>
<text x="169" y="195" text-anchor="middle" fill="#1a202c">save</text>
<rect x="126" y="230" width="135" height="25" fill="#c6f6d5" stroke="#276749"/>
<text x="136" y="245" fill="#1a202c">return processed</text>
<rect x="228" y="120" width="10" height="150" fill="#e2e8f0" stroke="#2d3748"/>
</svg>