<svg xmlns="http://www.w3.org/2000/svg" viewBox="0 0 800 600" width="800" height="600">
<defs>
<style>text { font-family: -apple-system, "Segoe UI", "Helvetica Neue", Arial, sans-serif; }</style>
<filter id="drop-shadow" x="-5%" y="-5%" width="115%" height="115%"><feGaussianBlur in="SourceAlpha" stdDeviation="2" result="blur"/><feOffset in="blur" dx="1" dy="2" result="offsetBlur"/><feComponentTransfer in="offsetBlur" result="shadow"><feFuncA type="linear" slope="0.12"/></feComponentTransfer><feMerge><feMergeNode in="shadow"/><feMergeNode in="SourceGraphic"/></feMerge></filter>
<symbol id="actor" viewBox="0 0 40 70" preserveAspectRatio="none"><circle cx="20" cy="10" r="10" fill="#fafbfc" stroke="#2d3748" stroke-width="1.5"/><line x1="20" y1="20" x2="20" y2="45" stroke="#2d3748" stroke-width="1.5"/><line x1="5" y1="30" x2="35" y2="30" stroke="#2d3748" stroke-width="1.5"/><line x1="20" y1="45" x2="5" y2="65" stroke="#2d3748" stroke-width="1.5"/><line x1="20" y1="45" x2="35" y2="65" stroke="#2d3748" stroke-width="1.5"/></symbol>
<symbol id="initial-state" viewBox="0 0 20 20" preserveAspectRatio="none"><circle cx="10" cy="10" r="10" fill="#1a202c"/></symbol>
<symbol id="final-state" viewBox="0 0 24 24" preserveAspectRatio="none"><circle cx="12" cy="12" r="12" fill="none" stroke="#2d3748" stroke-width="2"/><circle cx="12" cy="12" r="8" fill="#1a202c"/></symbol>
</defs>
<rect x="50" y="50" width="99" height="40" fill="#fafbfc" stroke="#2d3748" stroke-width="2" filter="url(#drop-shadow)"/>
<text x="99" y="75" text-anchor="middle" fill="#1a202c" font-weight="bold">RateLimiter</text>
<line x1="99" y1="100" x2="99" y2="500" stroke="#2d3748" stroke-dasharray="5,5"/>
<rect x="179" y="50" width="113" height="40" fill="#fafbfc" stroke="#2d3748" stroke-width="2" filter="url(#drop-shadow)"/>
<text x="235" y="75" text-anchor="middle" fill="#1a202c" font-weight="bold">BusinessLogic</text>
<line x1="235" y1="100" x2="235" y2="500" stroke="#2d3748" stroke-dasharray="5,5"/>
<rect x="322" y="50" width="80" height="40" fill="#fafbfc" stroke="#2d3748" stroke-width="2" filter="url(#drop-shadow)"/>
<text x="362" y="75" text-anchor="middle" fill="#1a202c" font-weight="bold">self</text>
<line x1="362" y1="100" x2="362" y2="500" stroke-dasharray="5,5" stroke="#2d3748"/>
<line x1="99" y1="120" x2="362" y2="120" stroke="#2d3748"/>
<polygon points="362,120 354,123 354,116" fill="#000"/>
<text x="230" y="115" text-anchor="middle" fill="#1a202c">getCurrentCount</text>
<line x1="99" y1="160" x2="362" y2="160" stroke="#2d3748"/>
<polygon points="362,160 354,163 354,156" fill="#000"/>
<text x="230" y="155" text-anchor="middle" fill="#1a202c">incrementCount</text>
<line x1="99" y1="200" x2="235" y2="200" stroke="#2d3748"/>
<polygon points="235,200 227,203 227,196" fill="#000"/>
<text x="167" y="195" text-anchor="middle" fill="#1a202c">process</text>
<rect x="119" y="230" width="113" height="25" fill="#c6f6d5" stroke="#276749"/>
<text x="129" y="245" fill="#1a202c">return result</text>
<rect x="230" y="200" width="10" height="70" fill="#e2e8f0" stroke="#2d3748"/>
<rect x="357" y="160" width="10" height="110" fill="#e2e8f0" stroke="#2d3748"/>
<text x="60" y="285" fill="#4a5568">[else]</text>
<rect x="119" y="280" width="185" height="25" stroke="#c53030" fill="#fed7d7"/>
<text x="129" y="295" fill="#1a202c">throw RateLimitExceeded</text>
<rect x="50" y="150" width="700" height="180" fill="none" stroke="#2d3748"/>
<text x="60" y="160" fill="#4a5568" font-weight="bold">[alt] condition</text>
<line x1="50" y1="275" x2="750" y2="275" stroke="#2d3748" stroke-dasharray="5,5"/>
<rect x="357" y="120" width="10" height="200" fill="#e2e8f0" stroke="#2d3748"/>
</svg>