<svg xmlns="http://www.w3.org/2000/svg" viewBox="0 0 800 600" width="800" height="600">
<rect x="50" y="50" width="200" height="120" fill="#fff" stroke="#000" stroke-width="1"/>
<text x="150" y="70">&lt;&lt;component&gt;&gt;</text>
<text x="150" y="90">UserService</text>
<line x1="50" y1="105" x2="250" y2="105" stroke="#000"/>
<text x="60" y="115">+ GetUser()</text>
<text x="60" y="135">+ CreateUser()</text>
<text x="60" y="155">+ DeleteUser()</text>
<rect x="300" y="50" width="200" height="140" fill="#fff" stroke="#000" stroke-width="1"/>
<text x="400" y="70">User</text>
<line x1="300" y1="85" x2="500" y2="85" stroke="#000"/>
<text x="310" y="95">+ id: string</text>
<text x="310" y="115">+ name: string</text>
<text x="310" y="135">+ email: string</text>
<text x="310" y="155">+ createdAt: string</text>
<rect x="550" y="50" width="200" height="100" fill="#fff" stroke="#000" stroke-width="1"/>
<text x="650" y="70">CreateUserRequest</text>
<line x1="550" y1="85" x2="750" y2="85" stroke="#000"/>
<text x="560" y="95">+ name: string</text>
<text x="560" y="115">+ email: string</text>
<rect x="50" y="250" width="200" height="100" stroke="#000" stroke-width="1" fill="#fff"/>
<text x="150" y="270">&lt;&lt;component&gt;&gt;</text>
<text x="150" y="290">Database</text>
<line x1="50" y1="305" x2="250" y2="305" stroke="#000"/>
<text x="60" y="315">+ Query()</text>
<text x="60" y="335">+ Execute()</text>
<rect x="300" y="250" width="200" height="120" fill="#fff" stroke="#000" stroke-width="1"/>
<text x="400" y="270">Connection</text>
<line x1="300" y1="285" x2="500" y2="285" stroke="#000"/>
<text x="310" y="295">+ host: string</text>
<text x="310" y="315">+ port: int</text>
<text x="310" y="335">+ database: string</text>
<rect x="550" y="250" width="200" height="120" fill="#fff" stroke="#000" stroke-width="1"/>
<text x="650" y="270">&lt;&lt;component&gt;&gt;</text>
<text x="650" y="290">Logger</text>
<line x1="550" y1="305" x2="750" y2="305" stroke="#000"/>
<text x="560" y="315">+ Info()</text>
<text x="560" y="335">+ Error()</text>
<text x="560" y="355">+ Debug()</text>
<rect x="50" y="450" width="200" height="120" stroke="#000" stroke-width="1" fill="#fff"/>
<text x="150" y="470">LogEntry</text>
<line x1="50" y1="485" x2="250" y2="485" stroke="#000"/>
<text x="60" y="495">+ level: string</text>
<text x="60" y="515">+ message: string</text>
<text x="60" y="535">+ timestamp: string</text>
<line x1="150" y1="100" x2="50" y2="300" stroke="#000" class="dashed"/>
<line x1="150" y1="100" x2="550" y2="300" stroke="#000" class="dashed"/>
</svg>