<svg xmlns="http://www.w3.org/2000/svg" viewBox="0 0 1135 600" width="1135" height="600">
<defs>
<style>text { font-family: -apple-system, "Segoe UI", "Helvetica Neue", Arial, sans-serif; }</style>
<filter id="drop-shadow" x="-5%" y="-5%" width="115%" height="115%"><feGaussianBlur in="SourceAlpha" stdDeviation="2" result="blur"/><feOffset in="blur" dx="1" dy="2" result="offsetBlur"/><feComponentTransfer in="offsetBlur" result="shadow"><feFuncA type="linear" slope="0.12"/></feComponentTransfer><feMerge><feMergeNode in="shadow"/><feMergeNode in="SourceGraphic"/></feMerge></filter>
<symbol id="actor" viewBox="0 0 40 70" preserveAspectRatio="none"><circle cx="20" cy="10" r="10" fill="#fafbfc" stroke="#2d3748" stroke-width="1.5"/><line x1="20" y1="20" x2="20" y2="45" stroke="#2d3748" stroke-width="1.5"/><line x1="5" y1="30" x2="35" y2="30" stroke="#2d3748" stroke-width="1.5"/><line x1="20" y1="45" x2="5" y2="65" stroke="#2d3748" stroke-width="1.5"/><line x1="20" y1="45" x2="35" y2="65" stroke="#2d3748" stroke-width="1.5"/></symbol>
<symbol id="initial-state" viewBox="0 0 20 20" preserveAspectRatio="none"><circle cx="10" cy="10" r="10" fill="#1a202c"/></symbol>
<symbol id="final-state" viewBox="0 0 24 24" preserveAspectRatio="none"><circle cx="12" cy="12" r="12" fill="none" stroke="#2d3748" stroke-width="2"/><circle cx="12" cy="12" r="8" fill="#1a202c"/></symbol>
</defs>
<rect x="50" y="50" width="188" height="140" fill="#fafbfc" stroke="#2d3748" stroke-width="2" filter="url(#drop-shadow)"/>
<text x="144" y="77" fill="#4a5568" font-style="italic" text-anchor="middle">&lt;&lt;component&gt;&gt;</text>
<text x="144" y="97" fill="#1a202c" font-weight="bold" text-anchor="middle">House</text>
<line x1="50" y1="112" x2="238" y2="112" stroke="#cbd5e0"/>
<text x="60" y="127" fill="#1a202c">+ GetAddress(): string</text>
<text x="60" y="147" fill="#1a202c">+ GetValue(): float</text>
<text x="60" y="167" fill="#1a202c">+ Inspect(): bool</text>
<rect x="278" y="50" width="152" height="120" fill="#fafbfc" stroke="#2d3748" stroke-width="2" filter="url(#drop-shadow)"/>
<text x="354" y="77" text-anchor="middle" fill="#1a202c" font-weight="bold">HouseData</text>
<line x1="278" y1="92" x2="430" y2="92" stroke="#cbd5e0"/>
<text x="288" y="107" fill="#1a202c">+ address: string</text>
<text x="288" y="127" fill="#1a202c">+ sqft: int</text>
<text x="288" y="147" fill="#1a202c">+ yearBuilt: int</text>
<rect x="195" y="250" width="202" height="100" fill="#fafbfc" stroke="#2d3748" stroke-width="2" filter="url(#drop-shadow)"/>
<text x="296" y="277" text-anchor="middle" fill="#4a5568" font-style="italic">&lt;&lt;component&gt;&gt;</text>
<text x="296" y="297" font-weight="bold" text-anchor="middle" fill="#1a202c">Foundation</text>
<line x1="195" y1="312" x2="397" y2="312" stroke="#cbd5e0"/>
<text x="205" y="327" fill="#1a202c">+ CheckIntegrity(): bool</text>
<rect x="470" y="50" width="202" height="120" fill="#fafbfc" stroke="#2d3748" stroke-width="2" filter="url(#drop-shadow)"/>
<text x="571" y="77" text-anchor="middle" fill="#1a202c" font-weight="bold">FoundationData</text>
<line x1="470" y1="92" x2="672" y2="92" stroke="#cbd5e0"/>
<text x="480" y="107" fill="#1a202c">+ foundationType: string</text>
<text x="480" y="127" fill="#1a202c">+ depth: float</text>
<text x="480" y="147" fill="#1a202c">+ material: string</text>
<rect x="437" y="250" width="245" height="100" stroke="#2d3748" stroke-width="2" filter="url(#drop-shadow)" fill="#fafbfc"/>
<text x="559" y="277" text-anchor="middle" fill="#4a5568" font-style="italic">&lt;&lt;component&gt;&gt;</text>
<text x="559" y="297" text-anchor="middle" fill="#1a202c" font-weight="bold">Walls</text>
<line x1="437" y1="312" x2="682" y2="312" stroke="#cbd5e0"/>
<text x="447" y="327" fill="#1a202c">+ GetInsulationRating(): float</text>
<rect x="712" y="50" width="174" height="120" fill="#fafbfc" stroke="#2d3748" stroke-width="2" filter="url(#drop-shadow)"/>
<text x="799" y="77" font-weight="bold" text-anchor="middle" fill="#1a202c">WallsData</text>
<line x1="712" y1="92" x2="886" y2="92" stroke="#cbd5e0"/>
<text x="722" y="107" fill="#1a202c">+ material: string</text>
<text x="722" y="127" fill="#1a202c">+ insulation: string</text>
<text x="722" y="147" fill="#1a202c">+ thickness: float</text>
<rect x="722" y="250" width="217" height="120" fill="#fafbfc" stroke="#2d3748" stroke-width="2" filter="url(#drop-shadow)"/>
<text x="830" y="277" fill="#4a5568" font-style="italic" text-anchor="middle">&lt;&lt;component&gt;&gt;</text>
<text x="830" y="297" text-anchor="middle" fill="#1a202c" font-weight="bold">Roof</text>
<line x1="722" y1="312" x2="939" y2="312" stroke="#cbd5e0"/>
<text x="732" y="327" fill="#1a202c">+ NeedsReplacement(): bool</text>
<text x="732" y="347" fill="#1a202c">+ GetAge(): int</text>
<rect x="926" y="50" width="159" height="120" filter="url(#drop-shadow)" fill="#fafbfc" stroke="#2d3748" stroke-width="2"/>
<text x="1005" y="77" text-anchor="middle" fill="#1a202c" font-weight="bold">RoofData</text>
<line x1="926" y1="92" x2="1085" y2="92" stroke="#cbd5e0"/>
<text x="936" y="107" fill="#1a202c">+ style: string</text>
<text x="936" y="127" fill="#1a202c">+ material: string</text>
<text x="936" y="147" fill="#1a202c">+ age: int</text>
<line x1="97" y1="190" x2="196" y2="190" stroke="#2d3748"/>
<line x1="196" y1="190" x2="196" y2="250" stroke="#2d3748"/>
<line x1="196" y1="250" x2="296" y2="250" stroke="#2d3748"/>
<polygon points="97,190 107,195 117,190 107,185" fill="#2d3748"/>
<line x1="238" y1="120" x2="238" y2="210" stroke="#2d3748"/>
<line x1="238" y1="210" x2="437" y2="210" stroke="#2d3748"/>
<line x1="437" y1="210" x2="437" y2="300" stroke="#2d3748"/>
<polygon points="238,120 233,130 238,140 243,130" fill="#2d3748"/>
<line x1="238" y1="148" x2="238" y2="229" stroke="#2d3748"/>
<line x1="238" y1="229" x2="722" y2="229" stroke="#2d3748"/>
<line x1="722" y1="229" x2="722" y2="310" stroke="#2d3748"/>
<polygon points="238,148 233,158 238,168 243,158" fill="#2d3748"/>
</svg>