<svg xmlns="http://www.w3.org/2000/svg" viewBox="0 0 800 600" width="800" height="600">
<rect x="60" y="50" width="80" height="40" fill="#fff" stroke="#000"/>
<text x="100" y="75">Client</text>
<line x1="100" y1="100" x2="100" y2="500" stroke="#000" class="dashed"/>
<rect x="210" y="50" width="80" height="40" fill="#fff" stroke="#000"/>
<text x="250" y="75">Parser</text>
<line x1="250" y1="100" x2="250" y2="500" class="dashed" stroke="#000"/>
<rect x="360" y="50" width="80" height="40" fill="#fff" stroke="#000"/>
<text x="400" y="75">Lexer</text>
<line x1="400" y1="100" x2="400" y2="500" class="dashed" stroke="#000"/>
<rect x="510" y="50" width="80" height="40" fill="#fff" stroke="#000"/>
<text x="550" y="75">ClassTransformer</text>
<line x1="550" y1="100" x2="550" y2="500" stroke="#000" class="dashed"/>
<rect x="660" y="50" width="80" height="40" stroke="#000" fill="#fff"/>
<text x="700" y="75">SequenceTransformer</text>
<line x1="700" y1="100" x2="700" y2="500" stroke="#000" class="dashed"/>
<rect x="810" y="50" width="80" height="40" fill="#fff" stroke="#000"/>
<text x="850" y="75">StateTransformer</text>
<line x1="850" y1="100" x2="850" y2="500" stroke="#000" class="dashed"/>
<rect x="960" y="50" width="80" height="40" fill="#fff" stroke="#000"/>
<text x="1000" y="75">FlowTransformer</text>
<line x1="1000" y1="100" x2="1000" y2="500" stroke="#000" class="dashed"/>
<rect x="1110" y="50" width="80" height="40" fill="#fff" stroke="#000"/>
<text x="1150" y="75">ClassRenderer</text>
<line x1="1150" y1="100" x2="1150" y2="500" stroke="#000" class="dashed"/>
<rect x="1260" y="50" width="80" height="40" stroke="#000" fill="#fff"/>
<text x="1300" y="75">SequenceRenderer</text>
<line x1="1300" y1="100" x2="1300" y2="500" stroke="#000" class="dashed"/>
<rect x="1410" y="50" width="80" height="40" fill="#fff" stroke="#000"/>
<text x="1450" y="75">StateRenderer</text>
<line x1="1450" y1="100" x2="1450" y2="500" stroke="#000" class="dashed"/>
<rect x="1560" y="50" width="80" height="40" fill="#fff" stroke="#000"/>
<text x="1600" y="75">FlowRenderer</text>
<line x1="1600" y1="100" x2="1600" y2="500" stroke="#000" class="dashed"/>
<line x1="100" y1="120" x2="400" y2="120" stroke="#000"/>
<polygon points="400,120 392,123 392,116" fill="#000"/>
<text x="250" y="115">New</text>
<line x1="100" y1="160" x2="250" y2="160" stroke="#000"/>
<polygon points="250,160 242,163 242,156" fill="#000"/>
<text x="175" y="155">New</text>
<rect x="50" y="190" width="700" height="20" stroke="#000" fill="none"/>
<text x="60" y="200">[alt] condition</text>
</svg>