<svg xmlns="http://www.w3.org/2000/svg" viewBox="0 0 800 600" width="800" height="600">
<rect x="50" y="50" width="200" height="400" stroke-width="1" fill="#fff" stroke="#000"/>
<text x="150" y="70">&lt;&lt;component&gt;&gt;</text>
<text x="150" y="90">Canvas</text>
<line x1="50" y1="105" x2="250" y2="105" stroke="#000"/>
<text x="60" y="115">+ New()</text>
<text x="60" y="135">+ SetSize()</text>
<text x="60" y="155">+ Rect()</text>
<text x="60" y="175">+ RoundRect()</text>
<text x="60" y="195">+ Circle()</text>
<text x="60" y="215">+ Ellipse()</text>
<text x="60" y="235">+ Line()</text>
<text x="60" y="255">+ Path()</text>
<text x="60" y="275">+ Polygon()</text>
<text x="60" y="295">+ Text()</text>
<text x="60" y="315">+ AddDef()</text>
<text x="60" y="335">+ WriteTo()</text>
<text x="60" y="355">+ String()</text>
<text x="60" y="375">+ Fill()</text>
<text x="60" y="395">+ Stroke()</text>
<text x="60" y="415">+ StrokeWidth()</text>
<text x="60" y="435">+ Class()</text>
<rect x="300" y="50" width="200" height="140" fill="#fff" stroke="#000" stroke-width="1"/>
<text x="400" y="70">Canvas</text>
<line x1="300" y1="85" x2="500" y2="85" stroke="#000"/>
<text x="310" y="95">+ width: int</text>
<text x="310" y="115">+ height: int</text>
<text x="310" y="135">+ elements: string</text>
<text x="310" y="155">+ defs: string</text>
<rect x="550" y="50" width="200" height="60" fill="#fff" stroke="#000" stroke-width="1"/>
<text x="650" y="70">Option</text>
</svg>