<svg xmlns="http://www.w3.org/2000/svg" viewBox="0 0 800 600" width="800" height="600">
<circle cx="100" cy="50" r="10" fill="#000"/>
<circle cx="300" cy="50" r="12" stroke="#000" stroke-width="2"/>
<circle cx="300" cy="50" r="8" fill="#000"/>
<circle cx="500" cy="50" r="12" stroke="#000" stroke-width="2"/>
<circle cx="500" cy="50" r="8" fill="#000"/>
<rect x="60" y="180" width="80" height="40" rx="10" ry="10" fill="#fff" stroke="#000"/>
<text x="100" y="205">Open</text>
<rect x="260" y="180" width="80" height="40" rx="10" ry="10" fill="#fff" stroke="#000"/>
<text x="300" y="205">Assigned</text>
<rect x="460" y="180" width="80" height="40" rx="10" ry="10" fill="#fff" stroke="#000"/>
<text x="500" y="205">InProgress</text>
<rect x="60" y="330" width="80" height="40" rx="10" ry="10" fill="#fff" stroke="#000"/>
<text x="100" y="355">OnHold</text>
<rect x="260" y="330" width="80" height="40" rx="10" ry="10" fill="#fff" stroke="#000"/>
<text x="300" y="355">Resolved</text>
<rect x="460" y="330" width="80" height="40" rx="10" ry="10" fill="#fff" stroke="#000"/>
<text x="500" y="355">Closed</text>
</svg>