<svg xmlns="http://www.w3.org/2000/svg" viewBox="0 0 800 600" width="800" height="600">
<circle cx="100" cy="50" r="10" fill="#000"/>
<rect x="260" y="30" width="80" height="40" rx="10" ry="10" fill="#fff" stroke="#000"/>
<text x="300" y="55">Receiving</text>
<rect x="460" y="30" width="80" height="40" rx="10" ry="10" fill="#fff" stroke="#000"/>
<text x="500" y="55">ProcessingA</text>
<rect x="60" y="180" width="80" height="40" rx="10" ry="10" fill="#fff" stroke="#000"/>
<text x="100" y="205">ProcessingB</text>
<rect x="260" y="180" width="80" height="40" rx="10" ry="10" stroke="#000" fill="#fff"/>
<text x="300" y="205">ProcessingC</text>
<rect x="460" y="180" width="80" height="40" rx="10" ry="10" fill="#fff" stroke="#000"/>
<text x="500" y="205">Error</text>
<line x1="300" y1="50" x2="500" y2="50" stroke="#000"/>
<polygon points="500,50 492,53 492,46" fill="#000"/>
<text x="400" y="45">routeA</text>
<line x1="300" y1="50" x2="100" y2="200" stroke="#000"/>
<polygon points="100,200 103,192 108,198" fill="#000"/>
<text x="200" y="120">routeB</text>
<line x1="300" y1="50" x2="300" y2="200" stroke="#000"/>
<polygon points="300,200 296,192 303,192" fill="#000"/>
<text x="300" y="120">routeC</text>
<line x1="300" y1="50" x2="500" y2="200" stroke="#000"/>
<polygon points="500,200 491,198 496,192" fill="#000"/>
<text x="400" y="120">invalidRoute</text>
</svg>