<svg xmlns="http://www.w3.org/2000/svg" viewBox="0 0 800 600" width="800" height="600">
<circle cx="100" cy="50" r="10" fill="#000"/>
<circle cx="300" cy="50" r="12" stroke-width="2" stroke="#000"/>
<circle cx="300" cy="50" r="8" fill="#000"/>
<rect x="460" y="30" width="80" height="40" rx="10" ry="10" fill="#fff" stroke="#000"/>
<text x="500" y="55">Idle</text>
<rect x="60" y="180" width="80" height="40" rx="10" ry="10" fill="#fff" stroke="#000"/>
<text x="100" y="205">SourceA</text>
<rect x="260" y="180" width="80" height="40" rx="10" ry="10" fill="#fff" stroke="#000"/>
<text x="300" y="205">SourceB</text>
<rect x="460" y="180" width="80" height="40" rx="10" ry="10" fill="#fff" stroke="#000"/>
<text x="500" y="205">SourceC</text>
<rect x="60" y="330" width="80" height="40" rx="10" ry="10" stroke="#000" fill="#fff"/>
<text x="100" y="355">Complete</text>
<line x1="500" y1="50" x2="100" y2="200" stroke="#000"/>
<polygon points="100,200 105,193 108,200" fill="#000"/>
<text x="300" y="120">startA</text>
<line x1="500" y1="50" x2="300" y2="200" stroke="#000"/>
<polygon points="300,200 303,192 308,198" fill="#000"/>
<text x="400" y="120">startB</text>
<line x1="500" y1="50" x2="500" y2="200" stroke="#000"/>
<polygon points="500,200 496,192 503,192" fill="#000"/>
<text x="500" y="120">startC</text>
<line x1="100" y1="200" x2="100" y2="350" stroke="#000"/>
<polygon points="100,350 96,342 103,342" fill="#000"/>
<text x="100" y="270">finish</text>
<line x1="300" y1="200" x2="100" y2="350" stroke="#000"/>
<polygon points="100,350 103,342 108,348" fill="#000"/>
<text x="200" y="270">finish</text>
<line x1="500" y1="200" x2="100" y2="350" stroke="#000"/>
<polygon points="100,350 105,343 108,350" fill="#000"/>
<text x="300" y="270">finish</text>
</svg>