<svg xmlns="http://www.w3.org/2000/svg" viewBox="0 0 800 600" width="800" height="600">
<circle cx="100" cy="50" r="10" fill="#000"/>
<rect x="260" y="30" width="80" height="40" rx="10" ry="10" stroke="#000" fill="#fff"/>
<text x="300" y="55">Validating</text>
<rect x="460" y="30" width="80" height="40" rx="10" ry="10" fill="#fff" stroke="#000"/>
<text x="500" y="55">Processing</text>
<rect x="60" y="180" width="80" height="40" rx="10" ry="10" stroke="#000" fill="#fff"/>
<text x="100" y="205">Approved</text>
<rect x="260" y="180" width="80" height="40" rx="10" ry="10" fill="#fff" stroke="#000"/>
<text x="300" y="205">Rejected</text>
<rect x="460" y="180" width="80" height="40" rx="10" ry="10" fill="#fff" stroke="#000"/>
<text x="500" y="205">Pending</text>
<line x1="300" y1="50" x2="500" y2="50" stroke="#000"/>
<polygon points="500,50 492,53 492,46" fill="#000"/>
<text x="400" y="45">validationPassed</text>
<line x1="300" y1="50" x2="300" y2="200" stroke="#000"/>
<polygon points="300,200 296,192 303,192" fill="#000"/>
<text x="300" y="120">validationFailed</text>
<line x1="500" y1="50" x2="100" y2="200" stroke="#000"/>
<polygon points="100,200 105,193 108,200" fill="#000"/>
<text x="300" y="120">amountWithinLimit</text>
<line x1="500" y1="50" x2="500" y2="200" stroke="#000"/>
<polygon points="500,200 496,192 503,192" fill="#000"/>
<text x="500" y="120">amountExceedsLimit</text>
<line x1="500" y1="200" x2="100" y2="200" stroke="#000"/>
<polygon points="100,200 107,196 107,203" fill="#000"/>
<text x="300" y="195">manualApproval</text>
<line x1="500" y1="200" x2="300" y2="200" stroke="#000"/>
<polygon points="300,200 307,196 307,203" fill="#000"/>
<text x="400" y="195">manualRejection</text>
</svg>