<svg xmlns="http://www.w3.org/2000/svg" viewBox="0 0 800 600" width="800" height="600">
<circle cx="100" cy="50" r="10" fill="#000"/>
<rect x="260" y="30" width="80" height="40" rx="10" ry="10" fill="#fff" stroke="#000"/>
<text x="300" y="55">Idle</text>
<rect x="460" y="30" width="80" height="40" rx="10" ry="10" stroke="#000" fill="#fff"/>
<text x="500" y="55">Walking</text>
<rect x="60" y="180" width="80" height="40" rx="10" ry="10" fill="#fff" stroke="#000"/>
<text x="100" y="205">Running</text>
<rect x="260" y="180" width="80" height="40" rx="10" ry="10" stroke="#000" fill="#fff"/>
<text x="300" y="205">Jumping</text>
<rect x="460" y="180" width="80" height="40" rx="10" ry="10" stroke="#000" fill="#fff"/>
<text x="500" y="205">Falling</text>
<rect x="60" y="330" width="80" height="40" rx="10" ry="10" fill="#fff" stroke="#000"/>
<text x="100" y="355">Attacking</text>
<rect x="260" y="330" width="80" height="40" rx="10" ry="10" fill="#fff" stroke="#000"/>
<text x="300" y="355">Blocking</text>
<rect x="460" y="330" width="80" height="40" rx="10" ry="10" fill="#fff" stroke="#000"/>
<text x="500" y="355">Stunned</text>
<rect x="60" y="480" width="80" height="40" rx="10" ry="10" fill="#fff" stroke="#000"/>
<text x="100" y="505">Dead</text>
<line x1="300" y1="50" x2="500" y2="50" stroke="#000"/>
<polygon points="500,50 492,53 492,46" fill="#000"/>
<text x="400" y="45">moveStart</text>
<line x1="300" y1="50" x2="100" y2="200" stroke="#000"/>
<polygon points="100,200 103,192 108,198" fill="#000"/>
<text x="200" y="120">sprint</text>
<line x1="300" y1="50" x2="300" y2="200" stroke="#000"/>
<polygon points="300,200 296,192 303,192" fill="#000"/>
<text x="300" y="120">jump</text>
<line x1="300" y1="50" x2="100" y2="350" stroke="#000"/>
<polygon points="100,350 101,341 107,345" fill="#000"/>
<text x="200" y="195">attack</text>
<line x1="300" y1="50" x2="300" y2="350" stroke="#000"/>
<polygon points="300,350 296,342 303,342" fill="#000"/>
<text x="300" y="195">block</text>
<line x1="500" y1="50" x2="300" y2="50" stroke="#000"/>
<polygon points="300,50 307,46 307,53" fill="#000"/>
<text x="400" y="45">stop</text>
<line x1="500" y1="50" x2="100" y2="200" stroke="#000"/>
<polygon points="100,200 105,193 108,200" fill="#000"/>
<text x="300" y="120">sprint</text>
<line x1="500" y1="50" x2="300" y2="200" stroke="#000"/>
<polygon points="300,200 303,192 308,198" fill="#000"/>
<text x="400" y="120">jump</text>
<line x1="500" y1="50" x2="100" y2="350" stroke="#000"/>
<polygon points="100,350 103,342 108,348" fill="#000"/>
<text x="300" y="195">attack</text>
<line x1="100" y1="200" x2="300" y2="50" stroke="#000"/>
<polygon points="300,50 296,57 291,51" fill="#000"/>
<text x="200" y="120">stop</text>
<line x1="100" y1="200" x2="500" y2="50" stroke="#000"/>
<polygon points="500,50 494,56 491,49" fill="#000"/>
<text x="300" y="120">slowDown</text>
<line x1="100" y1="200" x2="300" y2="200" stroke="#000"/>
<polygon points="300,200 292,203 292,196" fill="#000"/>
<text x="200" y="195">jump</text>
<line x1="100" y1="200" x2="100" y2="350" stroke="#000"/>
<polygon points="100,350 96,342 103,342" fill="#000"/>
<text x="100" y="270">attack</text>
<line x1="300" y1="200" x2="500" y2="200" stroke="#000"/>
<polygon points="500,200 492,203 492,196" fill="#000"/>
<text x="400" y="195">apexReached</text>
<line x1="500" y1="200" x2="300" y2="50" stroke="#000"/>
<polygon points="300,50 308,51 303,57" fill="#000"/>
<text x="400" y="120">land</text>
<line x1="500" y1="200" x2="500" y2="350" stroke="#000"/>
<polygon points="500,350 496,342 503,342" fill="#000"/>
<text x="500" y="270">hardLand</text>
<line x1="100" y1="350" x2="300" y2="50" stroke="#000"/>
<polygon points="300,50 298,58 292,54" fill="#000"/>
<text x="200" y="195">attackEnd</text>
<line x1="100" y1="350" x2="500" y2="350" stroke="#000"/>
<polygon points="500,350 492,353 492,346" fill="#000"/>
<text x="300" y="345">interrupted</text>
<line x1="300" y1="350" x2="300" y2="50" stroke="#000"/>
<polygon points="300,50 303,57 296,57" fill="#000"/>
<text x="300" y="195">releaseBlock</text>
<line x1="300" y1="350" x2="500" y2="350" stroke="#000"/>
<polygon points="500,350 492,353 492,346" fill="#000"/>
<text x="400" y="345">guardBreak</text>
<line x1="500" y1="350" x2="300" y2="50" stroke="#000"/>
<polygon points="300,50 307,54 301,58" fill="#000"/>
<text x="400" y="195">recover</text>
<line x1="500" y1="350" x2="100" y2="500" stroke="#000"/>
<polygon points="100,500 105,493 108,500" fill="#000"/>
<text x="300" y="420">fatal</text>
<line x1="100" y1="500" x2="300" y2="50" stroke="#000"/>
<polygon points="300,50 300,58 293,55" fill="#000"/>
<text x="200" y="270">respawn</text>
</svg>