<svg xmlns="http://www.w3.org/2000/svg" viewBox="0 0 800 600" width="800" height="600">
<circle cx="100" cy="50" r="10" fill="#000"/>
<circle cx="300" cy="50" r="12" stroke="#000" stroke-width="2"/>
<circle cx="300" cy="50" r="8" fill="#000"/>
<rect x="460" y="30" width="80" height="40" rx="10" ry="10" fill="#fff" stroke="#000"/>
<text x="500" y="55">Idle</text>
<rect x="60" y="180" width="80" height="40" rx="10" ry="10" fill="#fff" stroke="#000"/>
<text x="100" y="205">Ringing</text>
<rect x="260" y="180" width="80" height="40" rx="10" ry="10" fill="#fff" stroke="#000"/>
<text x="300" y="205">Connected</text>
<rect x="460" y="180" width="80" height="40" rx="10" ry="10" fill="#fff" stroke="#000"/>
<text x="500" y="205">ConnectedActive</text>
<rect x="60" y="330" width="80" height="40" rx="10" ry="10" fill="#fff" stroke="#000"/>
<text x="100" y="355">ConnectedOnHold</text>
<rect x="260" y="330" width="80" height="40" rx="10" ry="10" fill="#fff" stroke="#000"/>
<text x="300" y="355">ConnectedMuted</text>
<rect x="460" y="330" width="80" height="40" rx="10" ry="10" fill="#fff" stroke="#000"/>
<text x="500" y="355">Terminated</text>
<line x1="500" y1="50" x2="100" y2="200" stroke="#000"/>
<polygon points="100,200 105,193 108,200" fill="#000"/>
<text x="300" y="120">incomingCall</text>
<line x1="100" y1="200" x2="300" y2="200" stroke="#000"/>
<polygon points="300,200 292,203 292,196" fill="#000"/>
<text x="200" y="195">answer</text>
<line x1="100" y1="200" x2="500" y2="350" stroke="#000"/>
<polygon points="500,350 491,350 494,343" fill="#000"/>
<text x="300" y="270">reject</text>
<line x1="300" y1="200" x2="500" y2="200" stroke="#000"/>
<polygon points="500,200 492,203 492,196" fill="#000"/>
<text x="400" y="195">startTalking</text>
<line x1="500" y1="200" x2="100" y2="350" stroke="#000"/>
<polygon points="100,350 105,343 108,350" fill="#000"/>
<text x="300" y="270">holdPressed</text>
<line x1="100" y1="350" x2="500" y2="200" stroke="#000"/>
<polygon points="500,200 494,206 491,199" fill="#000"/>
<text x="300" y="270">resumePressed</text>
<line x1="500" y1="200" x2="300" y2="350" stroke="#000"/>
<polygon points="300,350 303,342 308,348" fill="#000"/>
<text x="400" y="270">mutePressed</text>
<line x1="300" y1="350" x2="500" y2="200" stroke="#000"/>
<polygon points="500,200 496,207 491,201" fill="#000"/>
<text x="400" y="270">unmutePressed</text>
<line x1="500" y1="200" x2="500" y2="350" stroke="#000"/>
<polygon points="500,350 496,342 503,342" fill="#000"/>
<text x="500" y="270">hangup</text>
<line x1="100" y1="350" x2="500" y2="350" stroke="#000"/>
<polygon points="500,350 492,353 492,346" fill="#000"/>
<text x="300" y="345">hangup</text>
<line x1="300" y1="350" x2="500" y2="350" stroke="#000"/>
<polygon points="500,350 492,353 492,346" fill="#000"/>
<text x="400" y="345">hangup</text>
</svg>