<svg xmlns="http://www.w3.org/2000/svg" viewBox="0 0 800 600" width="800" height="600">
<circle cx="100" cy="50" r="10" fill="#000"/>
<circle cx="300" cy="50" r="12" stroke="#000" stroke-width="2"/>
<circle cx="300" cy="50" r="8" fill="#000"/>
<rect x="460" y="30" width="80" height="40" rx="10" ry="10" fill="#fff" stroke="#000"/>
<text x="500" y="55">Off</text>
<rect x="60" y="180" width="80" height="40" rx="10" ry="10" fill="#fff" stroke="#000"/>
<text x="100" y="205">OnIdle</text>
<rect x="260" y="180" width="80" height="40" rx="10" ry="10" fill="#fff" stroke="#000"/>
<text x="300" y="205">WashingFilling</text>
<rect x="460" y="180" width="80" height="40" rx="10" ry="10" fill="#fff" stroke="#000"/>
<text x="500" y="205">WashingAgitating</text>
<rect x="60" y="330" width="80" height="40" rx="10" ry="10" fill="#fff" stroke="#000"/>
<text x="100" y="355">WashingDraining</text>
<rect x="260" y="330" width="80" height="40" rx="10" ry="10" fill="#fff" stroke="#000"/>
<text x="300" y="355">RinseFilling</text>
<rect x="460" y="330" width="80" height="40" rx="10" ry="10" fill="#fff" stroke="#000"/>
<text x="500" y="355">RinseAgitating</text>
<rect x="60" y="480" width="80" height="40" rx="10" ry="10" fill="#fff" stroke="#000"/>
<text x="100" y="505">RinseDraining</text>
<rect x="260" y="480" width="80" height="40" rx="10" ry="10" fill="#fff" stroke="#000"/>
<text x="300" y="505">SpinningLow</text>
<rect x="460" y="480" width="80" height="40" rx="10" ry="10" fill="#fff" stroke="#000"/>
<text x="500" y="505">SpinningHigh</text>
<rect x="60" y="630" width="80" height="40" rx="10" ry="10" fill="#fff" stroke="#000"/>
<text x="100" y="655">Complete</text>
<line x1="500" y1="50" x2="100" y2="200" stroke="#000"/>
<polygon points="100,200 105,193 108,200" fill="#000"/>
<text x="300" y="120">powerOn</text>
<line x1="100" y1="200" x2="300" y2="200" stroke="#000"/>
<polygon points="300,200 292,203 292,196" fill="#000"/>
<text x="200" y="195">startWash</text>
<line x1="300" y1="200" x2="500" y2="200" stroke="#000"/>
<polygon points="500,200 492,203 492,196" fill="#000"/>
<text x="400" y="195">waterFull</text>
<line x1="500" y1="200" x2="100" y2="350" stroke="#000"/>
<polygon points="100,350 105,343 108,350" fill="#000"/>
<text x="300" y="270">washComplete</text>
<line x1="100" y1="350" x2="300" y2="350" stroke="#000"/>
<polygon points="300,350 292,353 292,346" fill="#000"/>
<text x="200" y="345">drainComplete</text>
<line x1="300" y1="350" x2="500" y2="350" stroke="#000"/>
<polygon points="500,350 492,353 492,346" fill="#000"/>
<text x="400" y="345">waterFull</text>
<line x1="500" y1="350" x2="100" y2="500" stroke="#000"/>
<polygon points="100,500 105,493 108,500" fill="#000"/>
<text x="300" y="420">rinseComplete</text>
<line x1="100" y1="500" x2="300" y2="500" stroke="#000"/>
<polygon points="300,500 292,503 292,496" fill="#000"/>
<text x="200" y="495">drainComplete</text>
<line x1="300" y1="500" x2="500" y2="500" stroke="#000"/>
<polygon points="500,500 492,503 492,496" fill="#000"/>
<text x="400" y="495">spinUp</text>
<line x1="500" y1="500" x2="100" y2="650" stroke="#000"/>
<polygon points="100,650 105,643 108,650" fill="#000"/>
<text x="300" y="570">cycleComplete</text>
<line x1="100" y1="650" x2="500" y2="50" stroke="#000"/>
<polygon points="500,50 499,57 493,53" fill="#000"/>
<text x="300" y="345">powerOff</text>
<line x1="100" y1="200" x2="500" y2="50" stroke="#000"/>
<polygon points="500,50 494,56 491,49" fill="#000"/>
<text x="300" y="120">powerOff</text>
</svg>