<svg xmlns="http://www.w3.org/2000/svg" viewBox="0 0 800 600" width="800" height="600">
<circle cx="100" cy="50" r="10" fill="#000"/>
<circle cx="300" cy="50" r="12" stroke="#000" stroke-width="2"/>
<circle cx="300" cy="50" r="8" fill="#000"/>
<circle cx="500" cy="50" r="12" stroke="#000" stroke-width="2"/>
<circle cx="500" cy="50" r="8" fill="#000"/>
<rect x="60" y="180" width="80" height="40" rx="10" ry="10" stroke="#000" fill="#fff"/>
<text x="100" y="205">Validating</text>
<rect x="260" y="180" width="80" height="40" rx="10" ry="10" fill="#fff" stroke="#000"/>
<text x="300" y="205">CheckingBalance</text>
<rect x="460" y="180" width="80" height="40" rx="10" ry="10" fill="#fff" stroke="#000"/>
<text x="500" y="205">CheckingFraud</text>
<rect x="60" y="330" width="80" height="40" rx="10" ry="10" fill="#fff" stroke="#000"/>
<text x="100" y="355">Processing</text>
<rect x="260" y="330" width="80" height="40" rx="10" ry="10" fill="#fff" stroke="#000"/>
<text x="300" y="355">PendingApproval</text>
<rect x="460" y="330" width="80" height="40" rx="10" ry="10" fill="#fff" stroke="#000"/>
<text x="500" y="355">Success</text>
<rect x="60" y="480" width="80" height="40" rx="10" ry="10" fill="#fff" stroke="#000"/>
<text x="100" y="505">Rejected</text>
<line x1="100" y1="200" x2="300" y2="200" stroke="#000"/>
<polygon points="300,200 292,203 292,196" fill="#000"/>
<text x="200" y="195">validated</text>
<line x1="100" y1="200" x2="100" y2="500" stroke="#000"/>
<polygon points="100,500 96,492 103,492" fill="#000"/>
<text x="100" y="345">validated</text>
<line x1="300" y1="200" x2="500" y2="200" stroke="#000"/>
<polygon points="500,200 492,203 492,196" fill="#000"/>
<text x="400" y="195">balanceChecked</text>
<line x1="300" y1="200" x2="100" y2="500" stroke="#000"/>
<polygon points="100,500 101,491 107,495" fill="#000"/>
<text x="200" y="345">balanceChecked</text>
<line x1="500" y1="200" x2="100" y2="350" stroke="#000"/>
<polygon points="100,350 105,343 108,350" fill="#000"/>
<text x="300" y="270">fraudChecked</text>
<line x1="500" y1="200" x2="300" y2="350" stroke="#000"/>
<polygon points="300,350 303,342 308,348" fill="#000"/>
<text x="400" y="270">fraudChecked</text>
<line x1="500" y1="200" x2="100" y2="500" stroke="#000"/>
<polygon points="100,500 103,492 108,498" fill="#000"/>
<text x="300" y="345">fraudChecked</text>
<line x1="100" y1="350" x2="500" y2="350" stroke="#000"/>
<polygon points="500,350 492,353 492,346" fill="#000"/>
<text x="300" y="345">processed</text>
<line x1="100" y1="350" x2="300" y2="350" stroke="#000"/>
<polygon points="300,350 292,353 292,346" fill="#000"/>
<text x="200" y="345">processed</text>
<line x1="300" y1="350" x2="500" y2="350" stroke="#000"/>
<polygon points="500,350 492,353 492,346" fill="#000"/>
<text x="400" y="345">approved</text>
<line x1="300" y1="350" x2="100" y2="500" stroke="#000"/>
<polygon points="100,500 103,492 108,498" fill="#000"/>
<text x="200" y="420">denied</text>
</svg>