<svg xmlns="http://www.w3.org/2000/svg" viewBox="0 0 800 600" width="800" height="600">
<circle cx="100" cy="50" r="10" fill="#000"/>
<circle cx="300" cy="50" r="12" stroke="#000" stroke-width="2"/>
<circle cx="300" cy="50" r="8" fill="#000"/>
<rect x="460" y="30" width="80" height="40" rx="10" ry="10" fill="#fff" stroke="#000"/>
<text x="500" y="55">Idle</text>
<rect x="60" y="180" width="80" height="40" rx="10" ry="10" fill="#fff" stroke="#000"/>
<text x="100" y="205">Editing</text>
<rect x="260" y="180" width="80" height="40" rx="10" ry="10" fill="#fff" stroke="#000"/>
<text x="300" y="205">Closed</text>
<rect x="460" y="180" width="80" height="40" rx="10" ry="10" fill="#fff" stroke="#000"/>
<text x="500" y="205">EditingText</text>
<rect x="60" y="330" width="80" height="40" rx="10" ry="10" fill="#fff" stroke="#000"/>
<text x="100" y="355">EditingFormat</text>
<rect x="260" y="330" width="80" height="40" rx="10" ry="10" fill="#fff" stroke="#000"/>
<text x="300" y="355">EditingSave</text>
<rect x="460" y="330" width="80" height="40" rx="10" ry="10" fill="#fff" stroke="#000"/>
<text x="500" y="355">EditingTextTyping</text>
<rect x="60" y="480" width="80" height="40" rx="10" ry="10" fill="#fff" stroke="#000"/>
<text x="100" y="505">EditingTextSelecting</text>
<rect x="260" y="480" width="80" height="40" rx="10" ry="10" fill="#fff" stroke="#000"/>
<text x="300" y="505">EditingTextCopying</text>
<rect x="460" y="480" width="80" height="40" rx="10" ry="10" fill="#fff" stroke="#000"/>
<text x="500" y="505">EditingFormatFont</text>
<rect x="60" y="630" width="80" height="40" rx="10" ry="10" fill="#fff" stroke="#000"/>
<text x="100" y="655">EditingFormatParagraph</text>
<rect x="260" y="630" width="80" height="40" rx="10" ry="10" fill="#fff" stroke="#000"/>
<text x="300" y="655">EditingFormatStyle</text>
<rect x="460" y="630" width="80" height="40" rx="10" ry="10" fill="#fff" stroke="#000"/>
<text x="500" y="655">EditingSaveLocal</text>
<rect x="60" y="780" width="80" height="40" rx="10" ry="10" fill="#fff" stroke="#000"/>
<text x="100" y="805">EditingSaveCloud</text>
<rect x="260" y="780" width="80" height="40" rx="10" ry="10" fill="#fff" stroke="#000"/>
<text x="300" y="805">EditingSaveExport</text>
<line x1="500" y1="50" x2="100" y2="200" stroke="#000"/>
<polygon points="100,200 105,193 108,200" fill="#000"/>
<text x="300" y="120">openDocument</text>
<line x1="100" y1="200" x2="300" y2="200" stroke="#000"/>
<polygon points="300,200 292,203 292,196" fill="#000"/>
<text x="200" y="195">closeDocument</text>
<line x1="100" y1="200" x2="500" y2="200" stroke="#000"/>
<polygon points="500,200 492,203 492,196" fill="#000"/>
<text x="300" y="195">startTyping</text>
<line x1="100" y1="200" x2="100" y2="350" stroke="#000"/>
<polygon points="100,350 96,342 103,342" fill="#000"/>
<text x="100" y="270">openFormatMenu</text>
<line x1="100" y1="200" x2="300" y2="350" stroke="#000"/>
<polygon points="300,350 291,348 296,342" fill="#000"/>
<text x="200" y="270">saveRequested</text>
<line x1="500" y1="200" x2="100" y2="350" stroke="#000"/>
<polygon points="100,350 105,343 108,350" fill="#000"/>
<text x="300" y="270">formatSelected</text>
<line x1="100" y1="350" x2="500" y2="200" stroke="#000"/>
<polygon points="500,200 494,206 491,199" fill="#000"/>
<text x="300" y="270">formatApplied</text>
<line x1="300" y1="350" x2="500" y2="200" stroke="#000"/>
<polygon points="500,200 496,207 491,201" fill="#000"/>
<text x="400" y="270">saveComplete</text>
<line x1="500" y1="200" x2="500" y2="350" stroke="#000"/>
<polygon points="500,350 496,342 503,342" fill="#000"/>
<text x="500" y="270">keyPress</text>
<line x1="500" y1="350" x2="100" y2="500" stroke="#000"/>
<polygon points="100,500 105,493 108,500" fill="#000"/>
<text x="300" y="420">shiftClick</text>
<line x1="100" y1="500" x2="300" y2="500" stroke="#000"/>
<polygon points="300,500 292,503 292,496" fill="#000"/>
<text x="200" y="495">copyCommand</text>
<line x1="300" y1="500" x2="500" y2="350" stroke="#000"/>
<polygon points="500,350 496,357 491,351" fill="#000"/>
<text x="400" y="420">copyComplete</text>
<line x1="100" y1="500" x2="500" y2="350" stroke="#000"/>
<polygon points="500,350 494,356 491,349" fill="#000"/>
<text x="300" y="420">escapePressed</text>
<line x1="100" y1="350" x2="500" y2="500" stroke="#000"/>
<polygon points="500,500 491,500 494,493" fill="#000"/>
<text x="300" y="420">fontMenu</text>
<line x1="100" y1="350" x2="100" y2="650" stroke="#000"/>
<polygon points="100,650 96,642 103,642" fill="#000"/>
<text x="100" y="495">paragraphMenu</text>
<line x1="100" y1="350" x2="300" y2="650" stroke="#000"/>
<polygon points="300,650 292,645 298,641" fill="#000"/>
<text x="200" y="495">styleMenu</text>
<line x1="500" y1="500" x2="100" y2="350" stroke="#000"/>
<polygon points="100,350 108,349 105,356" fill="#000"/>
<text x="300" y="420">fontApplied</text>
<line x1="100" y1="650" x2="100" y2="350" stroke="#000"/>
<polygon points="100,350 103,357 96,357" fill="#000"/>
<text x="100" y="495">paragraphApplied</text>
<line x1="300" y1="650" x2="100" y2="350" stroke="#000"/>
<polygon points="100,350 107,354 101,358" fill="#000"/>
<text x="200" y="495">styleApplied</text>
<line x1="300" y1="350" x2="500" y2="650" stroke="#000"/>
<polygon points="500,650 492,645 498,641" fill="#000"/>
<text x="400" y="495">saveLocal</text>
<line x1="300" y1="350" x2="100" y2="800" stroke="#000"/>
<polygon points="100,800 99,791 106,794" fill="#000"/>
<text x="200" y="570">saveCloud</text>
<line x1="300" y1="350" x2="300" y2="800" stroke="#000"/>
<polygon points="300,800 296,792 303,792" fill="#000"/>
<text x="300" y="570">exportFile</text>
<line x1="500" y1="650" x2="300" y2="350" stroke="#000"/>
<polygon points="300,350 307,354 301,358" fill="#000"/>
<text x="400" y="495">localSaved</text>
<line x1="100" y1="800" x2="300" y2="350" stroke="#000"/>
<polygon points="300,350 300,358 293,355" fill="#000"/>
<text x="200" y="570">cloudSaved</text>
<line x1="300" y1="800" x2="300" y2="350" stroke="#000"/>
<polygon points="300,350 303,357 296,357" fill="#000"/>
<text x="300" y="570">exported</text>
<line x1="500" y1="350" x2="500" y2="650" stroke="#000"/>
<polygon points="500,650 496,642 503,642" fill="#000"/>
<text x="500" y="495">autoSave</text>
<line x1="300" y1="650" x2="500" y2="50" stroke="#000"/>
<polygon points="500,50 501,58 494,55" fill="#000"/>
<text x="400" y="345">discardChanges</text>
</svg>