<svg xmlns="http://www.w3.org/2000/svg" viewBox="0 0 800 600" width="800" height="600">
<circle cx="100" cy="50" r="10" fill="#000"/>
<circle cx="300" cy="50" r="12" stroke="#000" stroke-width="2"/>
<circle cx="300" cy="50" r="8" fill="#000"/>
<circle cx="500" cy="50" r="12" stroke-width="2" stroke="#000"/>
<circle cx="500" cy="50" r="8" fill="#000"/>
<rect x="60" y="180" width="80" height="40" rx="10" ry="10" stroke="#000" fill="#fff"/>
<text x="100" y="205">Pending</text>
<rect x="260" y="180" width="80" height="40" rx="10" ry="10" fill="#fff" stroke="#000"/>
<text x="300" y="205">Processing</text>
<rect x="460" y="180" width="80" height="40" rx="10" ry="10" fill="#fff" stroke="#000"/>
<text x="500" y="205">Shipping</text>
<rect x="60" y="330" width="80" height="40" rx="10" ry="10" fill="#fff" stroke="#000"/>
<text x="100" y="355">Delivered</text>
<rect x="260" y="330" width="80" height="40" rx="10" ry="10" fill="#fff" stroke="#000"/>
<text x="300" y="355">Completed</text>
<rect x="460" y="330" width="80" height="40" rx="10" ry="10" fill="#fff" stroke="#000"/>
<text x="500" y="355">Cancelled</text>
<line x1="100" y1="200" x2="300" y2="200" stroke="#000"/>
<polygon points="300,200 292,203 292,196" fill="#000"/>
<text x="200" y="195">confirm</text>
<line x1="300" y1="200" x2="500" y2="200" stroke="#000"/>
<polygon points="500,200 492,203 492,196" fill="#000"/>
<text x="400" y="195">ship</text>
<line x1="500" y1="200" x2="100" y2="350" stroke="#000"/>
<polygon points="100,350 105,343 108,350" fill="#000"/>
<text x="300" y="270">deliver</text>
<line x1="100" y1="350" x2="300" y2="350" stroke="#000"/>
<polygon points="300,350 292,353 292,346" fill="#000"/>
<text x="200" y="345">complete</text>
<line x1="100" y1="200" x2="500" y2="350" stroke="#000"/>
<polygon points="500,350 491,350 494,343" fill="#000"/>
<text x="300" y="270">cancel</text>
<line x1="300" y1="200" x2="500" y2="350" stroke="#000"/>
<polygon points="500,350 491,348 496,342" fill="#000"/>
<text x="400" y="270">cancel</text>
</svg>