<svg xmlns="http://www.w3.org/2000/svg" viewBox="0 0 800 600" width="800" height="600">
<circle cx="100" cy="50" r="10" fill="#000"/>
<rect x="260" y="30" width="80" height="40" rx="10" ry="10" fill="#fff" stroke="#000"/>
<text x="300" y="55">Idle</text>
<rect x="460" y="30" width="80" height="40" rx="10" ry="10" fill="#fff" stroke="#000"/>
<text x="500" y="55">Sleep</text>
<rect x="60" y="180" width="80" height="40" rx="10" ry="10" fill="#fff" stroke="#000"/>
<text x="100" y="205">Active</text>
<rect x="260" y="180" width="80" height="40" rx="10" ry="10" fill="#fff" stroke="#000"/>
<text x="300" y="205">Active</text>
<line x1="300" y1="50" x2="300" y2="200" stroke="#000"/>
<polygon points="300,200 296,192 303,192" fill="#000"/>
<text x="300" y="120">activate</text>
<line x1="300" y1="200" x2="300" y2="50" stroke="#000"/>
<polygon points="300,50 303,57 296,57" fill="#000"/>
<text x="300" y="120">deactivate</text>
<line x1="300" y1="200" x2="500" y2="50" stroke="#000"/>
<polygon points="500,50 496,57 491,51" fill="#000"/>
<text x="400" y="120">nightTime</text>
<line x1="500" y1="50" x2="300" y2="200" stroke="#000"/>
<polygon points="300,200 303,192 308,198" fill="#000"/>
<text x="400" y="120">wakeUp</text>
<line x1="300" y1="50" x2="500" y2="50" stroke="#000"/>
<polygon points="500,50 492,53 492,46" fill="#000"/>
<text x="400" y="45">nightTime</text>
<line x1="500" y1="50" x2="300" y2="50" stroke="#000"/>
<polygon points="300,50 307,46 307,53" fill="#000"/>
<text x="400" y="45">wakeUp</text>
</svg>