<svg xmlns="http://www.w3.org/2000/svg" viewBox="0 0 800 600" width="800" height="600">
<rect x="50" y="50" width="200" height="120" fill="#fff" stroke="#000" stroke-width="1"/>
<text x="150" y="70">&lt;&lt;component&gt;&gt;</text>
<text x="150" y="90">User</text>
<line x1="50" y1="105" x2="250" y2="105" stroke="#000"/>
<text x="60" y="115">+ GetUser()</text>
<text x="60" y="135">+ UpdateProfile()</text>
<text x="60" y="155">+ GetAddresses()</text>
<rect x="300" y="50" width="200" height="160" fill="#fff" stroke="#000" stroke-width="1"/>
<text x="400" y="70">Address</text>
<line x1="300" y1="85" x2="500" y2="85" stroke="#000"/>
<text x="310" y="95">+ street: string</text>
<text x="310" y="115">+ city: string</text>
<text x="310" y="135">+ province: string</text>
<text x="310" y="155">+ zipCode: string</text>
<text x="310" y="175">+ country: string</text>
<rect x="550" y="50" width="200" height="160" fill="#fff" stroke="#000" stroke-width="1"/>
<text x="650" y="70">UserProfile</text>
<line x1="550" y1="85" x2="750" y2="85" stroke="#000"/>
<text x="560" y="95">+ id: string</text>
<text x="560" y="115">+ email: string</text>
<text x="560" y="135">+ name: string</text>
<text x="560" y="155">+ shippingAddress: Address</text>
<text x="560" y="175">+ billingAddress: Address</text>
<rect x="50" y="250" width="200" height="140" fill="#fff" stroke="#000" stroke-width="1"/>
<text x="150" y="270">&lt;&lt;component&gt;&gt;</text>
<text x="150" y="290">Product</text>
<line x1="50" y1="305" x2="250" y2="305" stroke="#000"/>
<text x="60" y="315">+ GetProduct()</text>
<text x="60" y="335">+ SearchProducts()</text>
<text x="60" y="355">+ CheckStock()</text>
<text x="60" y="375">+ UpdateStock()</text>
<rect x="300" y="250" width="200" height="180" fill="#fff" stroke="#000" stroke-width="1"/>
<text x="400" y="270">ProductDetails</text>
<line x1="300" y1="285" x2="500" y2="285" stroke="#000"/>
<text x="310" y="295">+ id: string</text>
<text x="310" y="315">+ name: string</text>
<text x="310" y="335">+ description: string</text>
<text x="310" y="355">+ price: float</text>
<text x="310" y="375">+ stock: int</text>
<text x="310" y="395">+ category: string</text>
<rect x="550" y="250" width="200" height="160" fill="#fff" stroke="#000" stroke-width="1"/>
<text x="650" y="270">&lt;&lt;component&gt;&gt;</text>
<text x="650" y="290">Cart</text>
<line x1="550" y1="305" x2="750" y2="305" stroke="#000"/>
<text x="560" y="315">+ GetCart()</text>
<text x="560" y="335">+ AddItem()</text>
<text x="560" y="355">+ RemoveItem()</text>
<text x="560" y="375">+ UpdateQuantity()</text>
<text x="560" y="395">+ ClearCart()</text>
<rect x="50" y="450" width="200" height="160" fill="#fff" stroke="#000" stroke-width="1"/>
<text x="150" y="470">CartItem</text>
<line x1="50" y1="485" x2="250" y2="485" stroke="#000"/>
<text x="60" y="495">+ productId: string</text>
<text x="60" y="515">+ productName: string</text>
<text x="60" y="535">+ quantity: int</text>
<text x="60" y="555">+ unitPrice: float</text>
<text x="60" y="575">+ subtotal: float</text>
<rect x="300" y="450" width="200" height="140" fill="#fff" stroke="#000" stroke-width="1"/>
<text x="400" y="470">ShoppingCart</text>
<line x1="300" y1="485" x2="500" y2="485" stroke="#000"/>
<text x="310" y="495">+ userId: string</text>
<text x="310" y="515">+ items: CartItem</text>
<text x="310" y="535">+ total: float</text>
<text x="310" y="555">+ itemCount: int</text>
<rect x="550" y="450" width="200" height="160" fill="#fff" stroke="#000" stroke-width="1"/>
<text x="650" y="470">&lt;&lt;component&gt;&gt;</text>
<text x="650" y="490">Order</text>
<line x1="550" y1="505" x2="750" y2="505" stroke="#000"/>
<text x="560" y="515">+ CreateOrder()</text>
<text x="560" y="535">+ GetOrder()</text>
<text x="560" y="555">+ GetUserOrders()</text>
<text x="560" y="575">+ UpdateStatus()</text>
<text x="560" y="595">+ CancelOrder()</text>
<rect x="50" y="650" width="200" height="160" fill="#fff" stroke="#000" stroke-width="1"/>
<text x="150" y="670">OrderItem</text>
<line x1="50" y1="685" x2="250" y2="685" stroke="#000"/>
<text x="60" y="695">+ productId: string</text>
<text x="60" y="715">+ productName: string</text>
<text x="60" y="735">+ quantity: int</text>
<text x="60" y="755">+ unitPrice: float</text>
<text x="60" y="775">+ subtotal: float</text>
<rect x="300" y="650" width="200" height="260" stroke-width="1" fill="#fff" stroke="#000"/>
<text x="400" y="670">OrderRecord</text>
<line x1="300" y1="685" x2="500" y2="685" stroke="#000"/>
<text x="310" y="695">+ id: string</text>
<text x="310" y="715">+ userId: string</text>
<text x="310" y="735">+ items: OrderItem</text>
<text x="310" y="755">+ subtotal: float</text>
<text x="310" y="775">+ tax: float</text>
<text x="310" y="795">+ shipping: float</text>
<text x="310" y="815">+ total: float</text>
<text x="310" y="835">+ status: string</text>
<text x="310" y="855">+ createdAt: string</text>
<text x="310" y="875">+ updatedAt: string</text>
<rect x="550" y="650" width="200" height="120" fill="#fff" stroke="#000" stroke-width="1"/>
<text x="650" y="670">&lt;&lt;component&gt;&gt;</text>
<text x="650" y="690">Payment</text>
<line x1="550" y1="705" x2="750" y2="705" stroke="#000"/>
<text x="560" y="715">+ ProcessPayment()</text>
<text x="560" y="735">+ RefundPayment()</text>
<text x="560" y="755">+ GetPaymentStatus()</text>
<rect x="50" y="850" width="200" height="180" stroke="#000" stroke-width="1" fill="#fff"/>
<text x="150" y="870">PaymentDetails</text>
<line x1="50" y1="885" x2="250" y2="885" stroke="#000"/>
<text x="60" y="895">+ orderId: string</text>
<text x="60" y="915">+ amount: float</text>
<text x="60" y="935">+ method: string</text>
<text x="60" y="955">+ cardLast4: string</text>
<text x="60" y="975">+ transactionId: string</text>
<text x="60" y="995">+ status: string</text>
<rect x="300" y="850" width="200" height="120" fill="#fff" stroke="#000" stroke-width="1"/>
<text x="400" y="870">&lt;&lt;interface&gt;&gt;</text>
<text x="400" y="890">ExternalPaymentProvider</text>
<line x1="300" y1="905" x2="500" y2="905" stroke="#000"/>
<text x="310" y="915">+ Authorize()</text>
<text x="310" y="935">+ Capture()</text>
<text x="310" y="955">+ Void()</text>
<rect x="550" y="850" width="200" height="60" fill="#fff" stroke="#000" stroke-width="1"/>
<text x="650" y="870">&lt;&lt;component&gt;&gt;</text>
<text x="650" y="890">Checkout</text>
<line x1="650" y1="300" x2="50" y2="300" stroke="#000" class="dashed"/>
<line x1="650" y1="500" x2="550" y2="300" stroke="#000" class="dashed"/>
<line x1="650" y1="500" x2="50" y2="300" stroke="#000" class="dashed"/>
<line x1="650" y1="500" x2="550" y2="700" class="dashed" stroke="#000"/>
<line x1="650" y1="700" x2="50" y2="100" stroke="#000" class="dashed"/>
<line x1="650" y1="900" x2="50" y2="100" stroke="#000" class="dashed"/>
<line x1="650" y1="900" x2="550" y2="300" stroke="#000" class="dashed"/>
<line x1="650" y1="900" x2="50" y2="300" stroke="#000" class="dashed"/>
<line x1="650" y1="900" x2="550" y2="500" stroke="#000" class="dashed"/>
<line x1="650" y1="900" x2="550" y2="700" stroke="#000" class="dashed"/>
</svg>