<svg xmlns="http://www.w3.org/2000/svg" viewBox="0 0 800 600" width="800" height="600">
<rect x="60" y="50" width="80" height="40" fill="#fff" stroke="#000"/>
<text x="100" y="75">Checkout</text>
<line x1="100" y1="100" x2="100" y2="500" stroke="#000" class="dashed"/>
<rect x="210" y="50" width="80" height="40" fill="#fff" stroke="#000"/>
<text x="250" y="75">User</text>
<line x1="250" y1="100" x2="250" y2="500" stroke="#000" class="dashed"/>
<rect x="360" y="50" width="80" height="40" fill="#fff" stroke="#000"/>
<text x="400" y="75">Cart</text>
<line x1="400" y1="100" x2="400" y2="500" stroke="#000" class="dashed"/>
<rect x="510" y="50" width="80" height="40" fill="#fff" stroke="#000"/>
<text x="550" y="75">Product</text>
<line x1="550" y1="100" x2="550" y2="500" stroke="#000" class="dashed"/>
<rect x="660" y="50" width="80" height="40" fill="#fff" stroke="#000"/>
<text x="700" y="75">Order</text>
<line x1="700" y1="100" x2="700" y2="500" stroke="#000" class="dashed"/>
<rect x="810" y="50" width="80" height="40" fill="#fff" stroke="#000"/>
<text x="850" y="75">Payment</text>
<line x1="850" y1="100" x2="850" y2="500" stroke="#000" class="dashed"/>
<line x1="100" y1="120" x2="250" y2="120" stroke="#000"/>
<polygon points="250,120 242,123 242,116" fill="#000"/>
<text x="175" y="115">GetUser</text>
<line x1="100" y1="160" x2="400" y2="160" stroke="#000"/>
<polygon points="400,160 392,163 392,156" fill="#000"/>
<text x="250" y="155">GetCart</text>
<line x1="100" y1="200" x2="550" y2="200" stroke="#000"/>
<polygon points="550,200 542,203 542,196" fill="#000"/>
<text x="325" y="195">CheckStock</text>
<rect x="50" y="230" width="700" height="20" stroke="#000" fill="none"/>
<text x="60" y="240">[alt] condition</text>
<rect x="50" y="230" width="700" height="20" stroke="#000" fill="none"/>
<text x="60" y="240">[loop] for item</text>
<line x1="100" y1="240" x2="700" y2="240" stroke="#000"/>
<polygon points="700,240 692,243 692,236" fill="#000"/>
<text x="400" y="235">CreateOrder</text>
<line x1="100" y1="280" x2="850" y2="280" stroke="#000"/>
<polygon points="850,280 842,283 842,276" fill="#000"/>
<text x="475" y="275">ProcessPayment</text>
<line x1="100" y1="320" x2="700" y2="320" stroke="#000"/>
<polygon points="700,320 692,323 692,316" fill="#000"/>
<text x="400" y="315">UpdateStatus</text>
<line x1="100" y1="360" x2="550" y2="360" stroke="#000"/>
<polygon points="550,360 542,363 542,356" fill="#000"/>
<text x="325" y="355">UpdateStock</text>
<rect x="50" y="390" width="700" height="20" stroke="#000" fill="none"/>
<text x="60" y="400">[loop] for item</text>
<line x1="100" y1="400" x2="400" y2="400" stroke="#000"/>
<polygon points="400,400 392,403 392,396" fill="#000"/>
<text x="250" y="395">ClearCart</text>
<line x1="100" y1="440" x2="700" y2="440" stroke="#000"/>
<polygon points="700,440 692,443 692,436" fill="#000"/>
<text x="400" y="435">UpdateStatus</text>
<rect x="50" y="470" width="700" height="20" stroke="#000" fill="none"/>
<text x="60" y="480">[alt] condition</text>
<rect x="50" y="470" width="700" height="20" stroke="#000" fill="none"/>
<text x="60" y="480">[alt] condition</text>
<rect x="50" y="470" width="700" height="20" stroke="#000" fill="none"/>
<text x="60" y="480">[alt] condition</text>
</svg>