<svg xmlns="http://www.w3.org/2000/svg" viewBox="0 0 800 2180" width="800" height="2180">
<rect x="350" y="50" width="100" height="40" rx="20" ry="20" fill="#fff" stroke="#000"/>
<text x="400" y="75">Start</text>
<rect x="350" y="130" width="100" height="40" fill="#fff" stroke="#000"/>
<text x="400" y="155">user = ...</text>
<rect x="350" y="210" width="100" height="40" fill="#fff" stroke="#000"/>
<text x="400" y="235">cart = ...</text>
<polygon points="400,290 440,310 400,330 360,310" stroke="#000" fill="#fff"/>
<text x="400" y="315">condition?</text>
<rect x="350" y="370" width="100" height="40" fill="#fff" stroke="#000"/>
<text x="400" y="395">validated = ...</text>
<polygon points="400,450 440,470 400,490 360,470" fill="#fff" stroke="#000"/>
<text x="400" y="475">condition?</text>
<polygon points="400,530 440,550 400,570 360,550" fill="#fff" stroke="#000"/>
<text x="400" y="555">for item</text>
<rect x="350" y="610" width="100" height="40" fill="#fff" stroke="#000"/>
<text x="400" y="635">stock = ...</text>
<polygon points="400,690 440,710 400,730 360,710" fill="#fff" stroke="#000"/>
<text x="400" y="715">condition?</text>
<rect x="350" y="770" width="100" height="40" rx="20" ry="20" fill="#fff" stroke="#000"/>
<text x="400" y="795">throw InsufficientStockError</text>
<rect x="350" y="850" width="100" height="40" fill="#fff" stroke="#000"/>
<text x="400" y="875">order = ...</text>
<rect x="350" y="930" width="100" height="40" fill="#fff" stroke="#000"/>
<text x="400" y="955">payment = ...</text>
<polygon points="400,1010 440,1030 400,1050 360,1030" fill="#fff" stroke="#000"/>
<text x="400" y="1035">condition?</text>
<rect x="350" y="1090" width="100" height="40" fill="#fff" stroke="#000"/>
<text x="400" y="1115">UpdateStatus()</text>
<polygon points="400,1170 440,1190 400,1210 360,1190" fill="#fff" stroke="#000"/>
<text x="400" y="1195">for item</text>
<rect x="350" y="1250" width="100" height="40" fill="#fff" stroke="#000"/>
<text x="400" y="1275">UpdateStock()</text>
<rect x="350" y="1330" width="100" height="40" stroke="#000" fill="#fff"/>
<text x="400" y="1355">ClearCart()</text>
<rect x="350" y="1410" width="100" height="40" fill="#fff" stroke="#000"/>
<text x="400" y="1435">sendConfirmationEmail()</text>
<rect x="350" y="1490" width="100" height="40" rx="20" ry="20" fill="#fff" stroke="#000"/>
<text x="400" y="1515">return</text>
<rect x="350" y="1570" width="100" height="40" fill="#fff" stroke="#000"/>
<text x="400" y="1595">UpdateStatus()</text>
<rect x="350" y="1650" width="100" height="40" rx="20" ry="20" fill="#fff" stroke="#000"/>
<text x="400" y="1675">throw PaymentFailedError</text>
<rect x="350" y="1730" width="100" height="40" rx="20" ry="20" fill="#fff" stroke="#000"/>
<text x="400" y="1755">throw InvalidCartError</text>
<rect x="350" y="1810" width="100" height="40" fill="#fff" stroke="#000"/>
<rect x="350" y="1890" width="100" height="40" rx="20" ry="20" fill="#fff" stroke="#000"/>
<text x="400" y="1915">throw EmptyCartError</text>
<rect x="350" y="1970" width="100" height="40" stroke="#000" fill="#fff"/>
<rect x="350" y="2050" width="100" height="40" rx="20" ry="20" fill="#fff" stroke="#000"/>
<text x="400" y="2075">End</text>
<line x1="400" y1="90" x2="400" y2="130" stroke="#000"/>
<polygon points="400,130 396,122 404,122" fill="#000"/>
<line x1="400" y1="170" x2="400" y2="210" stroke="#000"/>
<polygon points="400,210 396,202 404,202" fill="#000"/>
<line x1="400" y1="250" x2="400" y2="290" stroke="#000"/>
<polygon points="400,290 396,282 404,282" fill="#000"/>
<line x1="400" y1="330" x2="400" y2="370" stroke="#000"/>
<polygon points="400,370 396,362 404,362" fill="#000"/>
<text x="410" y="350">Yes</text>
<line x1="400" y1="410" x2="400" y2="450" stroke="#000"/>
<polygon points="400,450 396,442 404,442" fill="#000"/>
<line x1="400" y1="490" x2="400" y2="530" stroke="#000"/>
<polygon points="400,530 396,522 404,522" fill="#000"/>
<line x1="400" y1="570" x2="400" y2="610" stroke="#000"/>
<polygon points="400,610 396,602 404,602" fill="#000"/>
<line x1="400" y1="650" x2="400" y2="690" stroke="#000"/>
<polygon points="400,690 396,682 404,682" fill="#000"/>
<line x1="400" y1="730" x2="400" y2="770" stroke="#000"/>
<polygon points="400,770 396,762 404,762" fill="#000"/>
<line x1="400" y1="730" x2="400" y2="530" stroke="#000"/>
<polygon points="400,530 403,537 396,537" fill="#000"/>
<line x1="400" y1="570" x2="400" y2="850" stroke="#000"/>
<polygon points="400,850 396,842 403,842" fill="#000"/>
<line x1="400" y1="890" x2="400" y2="930" stroke="#000"/>
<polygon points="400,930 396,922 404,922" fill="#000"/>
<line x1="400" y1="970" x2="400" y2="1010" stroke="#000"/>
<polygon points="400,1010 396,1002 404,1002" fill="#000"/>
<line x1="400" y1="1050" x2="400" y2="1090" stroke="#000"/>
<polygon points="400,1090 396,1082 404,1082" fill="#000"/>
<text x="410" y="1070">Yes</text>
<line x1="400" y1="1130" x2="400" y2="1170" stroke="#000"/>
<polygon points="400,1170 396,1162 404,1162" fill="#000"/>
<line x1="400" y1="1210" x2="400" y2="1250" stroke="#000"/>
<polygon points="400,1250 396,1242 404,1242" fill="#000"/>
<line x1="400" y1="1290" x2="400" y2="1170" stroke="#000"/>
<polygon points="400,1170 403,1177 396,1177" fill="#000"/>
<line x1="400" y1="1210" x2="400" y2="1330" stroke="#000"/>
<polygon points="400,1330 396,1322 403,1322" fill="#000"/>
<line x1="400" y1="1370" x2="400" y2="1410" stroke="#000"/>
<polygon points="400,1410 396,1402 404,1402" fill="#000"/>
<line x1="400" y1="1450" x2="400" y2="1490" stroke="#000"/>
<polygon points="400,1490 396,1482 404,1482" fill="#000"/>
<line x1="400" y1="1050" x2="400" y2="1570" stroke="#000"/>
<polygon points="400,1570 396,1562 403,1562" fill="#000"/>
<text x="410" y="1310">No</text>
<line x1="400" y1="1610" x2="400" y2="1650" stroke="#000"/>
<polygon points="400,1650 396,1642 404,1642" fill="#000"/>
<line x1="400" y1="490" x2="400" y2="1730" stroke="#000"/>
<polygon points="400,1730 397,1724 402,1724" fill="#000"/>
<line x1="400" y1="1050" x2="400" y2="1810" stroke="#000"/>
<polygon points="400,1810 396,1803 403,1803" fill="#000"/>
<line x1="400" y1="330" x2="400" y2="1890" stroke="#000"/>
<polygon points="400,1890 397,1885 402,1885" fill="#000"/>
<line x1="400" y1="1850" x2="400" y2="1970" stroke="#000"/>
<polygon points="400,1970 396,1962 403,1962" fill="#000"/>
<line x1="400" y1="2010" x2="400" y2="2050" stroke="#000"/>
<polygon points="400,2050 396,2042 404,2042" fill="#000"/>
</svg>