<svg xmlns="http://www.w3.org/2000/svg" viewBox="0 0 800 600" width="800" height="600">
<rect x="50" y="50" width="200" height="120" fill="#fff" stroke="#000" stroke-width="1"/>
<text x="150" y="70">&lt;&lt;component&gt;&gt;</text>
<text x="150" y="90">Gateway</text>
<line x1="50" y1="105" x2="250" y2="105" stroke="#000"/>
<text x="60" y="115">+ HandleRequest()</text>
<text x="60" y="135">+ HealthCheck()</text>
<text x="60" y="155">+ GetMetrics()</text>
<rect x="300" y="50" width="200" height="180" fill="#fff" stroke="#000" stroke-width="1"/>
<text x="400" y="70">APIRequest</text>
<line x1="300" y1="85" x2="500" y2="85" stroke="#000"/>
<text x="310" y="95">+ method: string</text>
<text x="310" y="115">+ path: string</text>
<text x="310" y="135">+ headers: string</text>
<text x="310" y="155">+ body: string</text>
<text x="310" y="175">+ clientId: string</text>
<text x="310" y="195">+ timestamp: string</text>
<rect x="550" y="50" width="200" height="140" fill="#fff" stroke="#000" stroke-width="1"/>
<text x="650" y="70">APIResponse</text>
<line x1="550" y1="85" x2="750" y2="85" stroke="#000"/>
<text x="560" y="95">+ statusCode: int</text>
<text x="560" y="115">+ headers: string</text>
<text x="560" y="135">+ body: string</text>
<text x="560" y="155">+ latencyMs: int</text>
<rect x="50" y="250" width="200" height="160" fill="#fff" stroke="#000" stroke-width="1"/>
<text x="150" y="270">RateLimitInfo</text>
<line x1="50" y1="285" x2="250" y2="285" stroke="#000"/>
<text x="60" y="295">+ clientId: string</text>
<text x="60" y="315">+ requestCount: int</text>
<text x="60" y="335">+ windowStart: string</text>
<text x="60" y="355">+ limit: int</text>
<text x="60" y="375">+ remaining: int</text>
<rect x="300" y="250" width="200" height="100" stroke-width="1" fill="#fff" stroke="#000"/>
<text x="400" y="270">&lt;&lt;interface&gt;&gt;</text>
<text x="400" y="290">LoadBalancer</text>
<line x1="300" y1="305" x2="500" y2="305" stroke="#000"/>
<text x="310" y="315">+ GetNextInstance()</text>
<text x="310" y="335">+ ReportHealth()</text>
<rect x="550" y="250" width="200" height="120" fill="#fff" stroke="#000" stroke-width="1"/>
<text x="650" y="270">&lt;&lt;interface&gt;&gt;</text>
<text x="650" y="290">CircuitBreaker</text>
<line x1="550" y1="305" x2="750" y2="305" stroke="#000"/>
<text x="560" y="315">+ IsOpen()</text>
<text x="560" y="335">+ RecordSuccess()</text>
<text x="560" y="355">+ RecordFailure()</text>
<rect x="50" y="450" width="200" height="160" fill="#fff" stroke="#000" stroke-width="1"/>
<text x="150" y="470">&lt;&lt;component&gt;&gt;</text>
<text x="150" y="490">UserService</text>
<line x1="50" y1="505" x2="250" y2="505" stroke="#000"/>
<text x="60" y="515">+ CreateUser()</text>
<text x="60" y="535">+ GetUser()</text>
<text x="60" y="555">+ UpdateUser()</text>
<text x="60" y="575">+ DeleteUser()</text>
<text x="60" y="595">+ SearchUsers()</text>
<rect x="300" y="450" width="200" height="160" fill="#fff" stroke="#000" stroke-width="1"/>
<text x="400" y="470">UserDTO</text>
<line x1="300" y1="485" x2="500" y2="485" stroke="#000"/>
<text x="310" y="495">+ id: string</text>
<text x="310" y="515">+ email: string</text>
<text x="310" y="535">+ name: string</text>
<text x="310" y="555">+ createdAt: string</text>
<text x="310" y="575">+ preferences: string</text>
<rect x="550" y="450" width="200" height="120" fill="#fff" stroke="#000" stroke-width="1"/>
<text x="650" y="470">CreateUserRequest</text>
<line x1="550" y1="485" x2="750" y2="485" stroke="#000"/>
<text x="560" y="495">+ email: string</text>
<text x="560" y="515">+ name: string</text>
<text x="560" y="535">+ password: string</text>
<rect x="50" y="650" width="200" height="160" stroke="#000" stroke-width="1" fill="#fff"/>
<text x="150" y="670">&lt;&lt;interface&gt;&gt;</text>
<text x="150" y="690">UserRepository</text>
<line x1="50" y1="705" x2="250" y2="705" stroke="#000"/>
<text x="60" y="715">+ Save()</text>
<text x="60" y="735">+ FindById()</text>
<text x="60" y="755">+ FindByEmail()</text>
<text x="60" y="775">+ Update()</text>
<text x="60" y="795">+ Delete()</text>
<rect x="300" y="650" width="200" height="160" fill="#fff" stroke="#000" stroke-width="1"/>
<text x="400" y="670">&lt;&lt;component&gt;&gt;</text>
<text x="400" y="690">OrderService</text>
<line x1="300" y1="705" x2="500" y2="705" stroke="#000"/>
<text x="310" y="715">+ CreateOrder()</text>
<text x="310" y="735">+ GetOrder()</text>
<text x="310" y="755">+ GetUserOrders()</text>
<text x="310" y="775">+ UpdateOrderStatus()</text>
<text x="310" y="795">+ CancelOrder()</text>
<rect x="550" y="650" width="200" height="200" fill="#fff" stroke="#000" stroke-width="1"/>
<text x="650" y="670">OrderDTO</text>
<line x1="550" y1="685" x2="750" y2="685" stroke="#000"/>
<text x="560" y="695">+ id: string</text>
<text x="560" y="715">+ userId: string</text>
<text x="560" y="735">+ items: OrderItemDTO</text>
<text x="560" y="755">+ status: string</text>
<text x="560" y="775">+ total: float</text>
<text x="560" y="795">+ createdAt: string</text>
<text x="560" y="815">+ updatedAt: string</text>
<rect x="50" y="850" width="200" height="120" stroke-width="1" fill="#fff" stroke="#000"/>
<text x="150" y="870">OrderItemDTO</text>
<line x1="50" y1="885" x2="250" y2="885" stroke="#000"/>
<text x="60" y="895">+ productId: string</text>
<text x="60" y="915">+ quantity: int</text>
<text x="60" y="935">+ price: float</text>
<rect x="300" y="850" width="200" height="120" fill="#fff" stroke="#000" stroke-width="1"/>
<text x="400" y="870">CreateOrderRequest</text>
<line x1="300" y1="885" x2="500" y2="885" stroke="#000"/>
<text x="310" y="895">+ userId: string</text>
<text x="310" y="915">+ items: OrderItemDTO</text>
<text x="310" y="935">+ shippingAddress: string</text>
<rect x="550" y="850" width="200" height="140" fill="#fff" stroke="#000" stroke-width="1"/>
<text x="650" y="870">&lt;&lt;interface&gt;&gt;</text>
<text x="650" y="890">OrderRepository</text>
<line x1="550" y1="905" x2="750" y2="905" stroke="#000"/>
<text x="560" y="915">+ Save()</text>
<text x="560" y="935">+ FindById()</text>
<text x="560" y="955">+ FindByUserId()</text>
<text x="560" y="975">+ Update()</text>
<rect x="50" y="1050" width="200" height="100" stroke-width="1" fill="#fff" stroke="#000"/>
<text x="150" y="1070">&lt;&lt;interface&gt;&gt;</text>
<text x="150" y="1090">EventBus</text>
<line x1="50" y1="1105" x2="250" y2="1105" stroke="#000"/>
<text x="60" y="1115">+ Publish()</text>
<text x="60" y="1135">+ Subscribe()</text>
<rect x="300" y="1050" width="200" height="180" fill="#fff" stroke="#000" stroke-width="1"/>
<text x="400" y="1070">&lt;&lt;component&gt;&gt;</text>
<text x="400" y="1090">ProductService</text>
<line x1="300" y1="1105" x2="500" y2="1105" stroke="#000"/>
<text x="310" y="1115">+ GetProduct()</text>
<text x="310" y="1135">+ SearchProducts()</text>
<text x="310" y="1155">+ CheckAvailability()</text>
<text x="310" y="1175">+ ReserveStock()</text>
<text x="310" y="1195">+ ReleaseStock()</text>
<text x="310" y="1215">+ UpdateStock()</text>
<rect x="550" y="1050" width="200" height="180" fill="#fff" stroke="#000" stroke-width="1"/>
<text x="650" y="1070">ProductDTO</text>
<line x1="550" y1="1085" x2="750" y2="1085" stroke="#000"/>
<text x="560" y="1095">+ id: string</text>
<text x="560" y="1115">+ name: string</text>
<text x="560" y="1135">+ description: string</text>
<text x="560" y="1155">+ price: float</text>
<text x="560" y="1175">+ stock: int</text>
<text x="560" y="1195">+ category: string</text>
<rect x="50" y="1250" width="200" height="120" fill="#fff" stroke="#000" stroke-width="1"/>
<text x="150" y="1270">&lt;&lt;interface&gt;&gt;</text>
<text x="150" y="1290">ProductRepository</text>
<line x1="50" y1="1305" x2="250" y2="1305" stroke="#000"/>
<text x="60" y="1315">+ FindById()</text>
<text x="60" y="1335">+ Search()</text>
<text x="60" y="1355">+ Update()</text>
<rect x="300" y="1250" width="200" height="140" fill="#fff" stroke="#000" stroke-width="1"/>
<text x="400" y="1270">&lt;&lt;interface&gt;&gt;</text>
<text x="400" y="1290">InventoryCache</text>
<line x1="300" y1="1305" x2="500" y2="1305" stroke="#000"/>
<text x="310" y="1315">+ Get()</text>
<text x="310" y="1335">+ Set()</text>
<text x="310" y="1355">+ Decrement()</text>
<text x="310" y="1375">+ Increment()</text>
<rect x="550" y="1250" width="200" height="160" fill="#fff" stroke="#000" stroke-width="1"/>
<text x="650" y="1270">&lt;&lt;component&gt;&gt;</text>
<text x="650" y="1290">NotificationService</text>
<line x1="550" y1="1305" x2="750" y2="1305" stroke="#000"/>
<text x="560" y="1315">+ SendWelcomeEmail()</text>
<text x="560" y="1335">+ SendOrderConfirmation()</text>
<text x="560" y="1355">+ SendPaymentFailure()</text>
<text x="560" y="1375">+ SendShippingUpdate()</text>
<text x="560" y="1395">+ SendPushNotification()</text>
<rect x="50" y="1450" width="200" height="140" fill="#fff" stroke="#000" stroke-width="1"/>
<text x="150" y="1470">EmailMessage</text>
<line x1="50" y1="1485" x2="250" y2="1485" stroke="#000"/>
<text x="60" y="1495">+ to: string</text>
<text x="60" y="1515">+ subject: string</text>
<text x="60" y="1535">+ body: string</text>
<text x="60" y="1555">+ templateId: string</text>
<rect x="300" y="1450" width="200" height="140" fill="#fff" stroke="#000" stroke-width="1"/>
<text x="400" y="1470">PushNotification</text>
<line x1="300" y1="1485" x2="500" y2="1485" stroke="#000"/>
<text x="310" y="1495">+ userId: string</text>
<text x="310" y="1515">+ title: string</text>
<text x="310" y="1535">+ body: string</text>
<text x="310" y="1555">+ data: string</text>
<rect x="550" y="1450" width="200" height="100" stroke="#000" stroke-width="1" fill="#fff"/>
<text x="650" y="1470">&lt;&lt;interface&gt;&gt;</text>
<text x="650" y="1490">EmailProvider</text>
<line x1="550" y1="1505" x2="750" y2="1505" stroke="#000"/>
<text x="560" y="1515">+ Send()</text>
<text x="560" y="1535">+ SendBatch()</text>
<rect x="50" y="1650" width="200" height="80" stroke-width="1" fill="#fff" stroke="#000"/>
<text x="150" y="1670">&lt;&lt;interface&gt;&gt;</text>
<text x="150" y="1690">PushProvider</text>
<line x1="50" y1="1705" x2="250" y2="1705" stroke="#000"/>
<text x="60" y="1715">+ Send()</text>
<rect x="300" y="1650" width="200" height="100" fill="#fff" stroke="#000" stroke-width="1"/>
<text x="400" y="1670">&lt;&lt;interface&gt;&gt;</text>
<text x="400" y="1690">MessageQueue</text>
<line x1="300" y1="1705" x2="500" y2="1705" stroke="#000"/>
<text x="310" y="1715">+ Enqueue()</text>
<text x="310" y="1735">+ Dequeue()</text>
<rect x="550" y="1650" width="200" height="120" fill="#fff" stroke="#000" stroke-width="1"/>
<text x="650" y="1670">&lt;&lt;component&gt;&gt;</text>
<text x="650" y="1690">AuthService</text>
<line x1="550" y1="1705" x2="750" y2="1705" stroke="#000"/>
<text x="560" y="1715">+ ValidateToken()</text>
<text x="560" y="1735">+ GetUserIdFromToken()</text>
<text x="560" y="1755">+ RefreshToken()</text>
<rect x="50" y="1850" width="200" height="120" fill="#fff" stroke="#000" stroke-width="1"/>
<text x="150" y="1870">&lt;&lt;component&gt;&gt;</text>
<text x="150" y="1890">PaymentService</text>
<line x1="50" y1="1905" x2="250" y2="1905" stroke="#000"/>
<text x="60" y="1915">+ ProcessPayment()</text>
<text x="60" y="1935">+ RefundPayment()</text>
<text x="60" y="1955">+ GetPaymentStatus()</text>
<rect x="300" y="1850" width="200" height="140" fill="#fff" stroke="#000" stroke-width="1"/>
<text x="400" y="1870">PaymentResult</text>
<line x1="300" y1="1885" x2="500" y2="1885" stroke="#000"/>
<text x="310" y="1895">+ success: bool</text>
<text x="310" y="1915">+ transactionId: string</text>
<text x="310" y="1935">+ errorCode: string</text>
<text x="310" y="1955">+ errorMessage: string</text>
<rect x="550" y="1850" width="200" height="100" stroke="#000" stroke-width="1" fill="#fff"/>
<text x="650" y="1870">&lt;&lt;interface&gt;&gt;</text>
<text x="650" y="1890">PaymentGateway</text>
<line x1="550" y1="1905" x2="750" y2="1905" stroke="#000"/>
<text x="560" y="1915">+ Charge()</text>
<text x="560" y="1935">+ Refund()</text>
<line x1="150" y1="100" x2="50" y2="500" class="dashed" stroke="#000"/>
<line x1="150" y1="100" x2="300" y2="700" class="dashed" stroke="#000"/>
<line x1="150" y1="100" x2="300" y2="1100" stroke="#000" class="dashed"/>
<line x1="150" y1="100" x2="550" y2="1300" stroke="#000" class="dashed"/>
<line x1="150" y1="100" x2="550" y2="1700" stroke="#000" class="dashed"/>
<line x1="150" y1="500" x2="550" y2="1300" class="dashed" stroke="#000"/>
<line x1="400" y1="700" x2="50" y2="500" class="dashed" stroke="#000"/>
<line x1="400" y1="700" x2="300" y2="1100" stroke="#000" class="dashed"/>
<line x1="400" y1="700" x2="550" y2="1300" stroke="#000" class="dashed"/>
<line x1="400" y1="700" x2="50" y2="1900" stroke="#000" class="dashed"/>
</svg>