<svg xmlns="http://www.w3.org/2000/svg" viewBox="0 0 800 600" width="800" height="600">
<rect x="50" y="50" width="200" height="60" stroke="#000" stroke-width="1" fill="#fff"/>
<text x="150" y="70">&lt;&lt;component&gt;&gt;</text>
<text x="150" y="90">Message</text>
<rect x="300" y="50" width="200" height="240" fill="#fff" stroke="#000" stroke-width="1"/>
<text x="400" y="70">MessageEnvelope</text>
<line x1="300" y1="85" x2="500" y2="85" stroke="#000"/>
<text x="310" y="95">+ id: string</text>
<text x="310" y="115">+ correlationId: string</text>
<text x="310" y="135">+ messageType: string</text>
<text x="310" y="155">+ payload: string</text>
<text x="310" y="175">+ headers: string</text>
<text x="310" y="195">+ priority: int</text>
<text x="310" y="215">+ ttl: int</text>
<text x="310" y="235">+ createdAt: string</text>
<text x="310" y="255">+ scheduledFor: string</text>
<rect x="550" y="50" width="200" height="200" fill="#fff" stroke="#000" stroke-width="1"/>
<text x="650" y="70">MessageMetadata</text>
<line x1="550" y1="85" x2="750" y2="85" stroke="#000"/>
<text x="560" y="95">+ id: string</text>
<text x="560" y="115">+ attempts: int</text>
<text x="560" y="135">+ maxAttempts: int</text>
<text x="560" y="155">+ lastAttemptAt: string</text>
<text x="560" y="175">+ nextRetryAt: string</text>
<text x="560" y="195">+ errorMessage: string</text>
<text x="560" y="215">+ processingTime: int</text>
<rect x="50" y="250" width="200" height="180" fill="#fff" stroke="#000" stroke-width="1"/>
<text x="150" y="270">DeadLetterEntry</text>
<line x1="50" y1="285" x2="250" y2="285" stroke="#000"/>
<text x="60" y="295">+ messageId: string</text>
<text x="60" y="315">+ queueName: string</text>
<text x="60" y="335">+ reason: string</text>
<text x="60" y="355">+ originalPayload: string</text>
<text x="60" y="375">+ failedAt: string</text>
<text x="60" y="395">+ retryable: bool</text>
<rect x="300" y="250" width="200" height="260" stroke-width="1" fill="#fff" stroke="#000"/>
<text x="400" y="270">&lt;&lt;component&gt;&gt;</text>
<text x="400" y="290">Queue</text>
<line x1="300" y1="305" x2="500" y2="305" stroke="#000"/>
<text x="310" y="315">+ CreateQueue()</text>
<text x="310" y="335">+ DeleteQueue()</text>
<text x="310" y="355">+ GetQueueStats()</text>
<text x="310" y="375">+ PurgeQueue()</text>
<text x="310" y="395">+ ListQueues()</text>
<text x="310" y="415">+ Enqueue()</text>
<text x="310" y="435">+ Dequeue()</text>
<text x="310" y="455">+ Acknowledge()</text>
<text x="310" y="475">+ Reject()</text>
<text x="310" y="495">+ ExtendVisibility()</text>
<rect x="550" y="250" width="200" height="200" fill="#fff" stroke="#000" stroke-width="1"/>
<text x="650" y="270">QueueConfig</text>
<line x1="550" y1="285" x2="750" y2="285" stroke="#000"/>
<text x="560" y="295">+ name: string</text>
<text x="560" y="315">+ maxSize: int</text>
<text x="560" y="335">+ maxRetries: int</text>
<text x="560" y="355">+ retryDelayMs: int</text>
<text x="560" y="375">+ visibilityTimeout: int</text>
<text x="560" y="395">+ deadLetterQueue: string</text>
<text x="560" y="415">+ fifo: bool</text>
<rect x="50" y="450" width="200" height="200" fill="#fff" stroke="#000" stroke-width="1"/>
<text x="150" y="470">QueueStats</text>
<line x1="50" y1="485" x2="250" y2="485" stroke="#000"/>
<text x="60" y="495">+ name: string</text>
<text x="60" y="515">+ size: int</text>
<text x="60" y="535">+ inFlight: int</text>
<text x="60" y="555">+ completed: int</text>
<text x="60" y="575">+ failed: int</text>
<text x="60" y="595">+ deadLettered: int</text>
<text x="60" y="615">+ avgProcessingTime: float</text>
<rect x="300" y="450" width="200" height="120" fill="#fff" stroke="#000" stroke-width="1"/>
<text x="400" y="470">QueueMessage</text>
<line x1="300" y1="485" x2="500" y2="485" stroke="#000"/>
<text x="310" y="495">+ message: MessageEnvelope</text>
<text x="310" y="515">+ metadata: MessageMetadata</text>
<text x="310" y="535">+ receiptHandle: string</text>
<rect x="550" y="450" width="200" height="180" fill="#fff" stroke="#000" stroke-width="1"/>
<text x="650" y="470">&lt;&lt;interface&gt;&gt;</text>
<text x="650" y="490">StorageBackend</text>
<line x1="550" y1="505" x2="750" y2="505" stroke="#000"/>
<text x="560" y="515">+ Put()</text>
<text x="560" y="535">+ Get()</text>
<text x="560" y="555">+ Delete()</text>
<text x="560" y="575">+ List()</text>
<text x="560" y="595">+ Lock()</text>
<text x="560" y="615">+ Unlock()</text>
<rect x="50" y="650" width="200" height="160" fill="#fff" stroke="#000" stroke-width="1"/>
<text x="150" y="670">&lt;&lt;component&gt;&gt;</text>
<text x="150" y="690">Producer</text>
<line x1="50" y1="705" x2="250" y2="705" stroke="#000"/>
<text x="60" y="715">+ Publish()</text>
<text x="60" y="735">+ PublishWithOptions()</text>
<text x="60" y="755">+ PublishBatch()</text>
<text x="60" y="775">+ PublishToTopic()</text>
<text x="60" y="795">+ ScheduleMessage()</text>
<rect x="300" y="650" width="200" height="160" fill="#fff" stroke="#000" stroke-width="1"/>
<text x="400" y="670">PublishOptions</text>
<line x1="300" y1="685" x2="500" y2="685" stroke="#000"/>
<text x="310" y="695">+ priority: int</text>
<text x="310" y="715">+ delay: int</text>
<text x="310" y="735">+ ttl: int</text>
<text x="310" y="755">+ correlationId: string</text>
<text x="310" y="775">+ headers: string</text>
<rect x="550" y="650" width="200" height="140" fill="#fff" stroke="#000" stroke-width="1"/>
<text x="650" y="670">PublishResult</text>
<line x1="550" y1="685" x2="750" y2="685" stroke="#000"/>
<text x="560" y="695">+ messageId: string</text>
<text x="560" y="715">+ queueName: string</text>
<text x="560" y="735">+ timestamp: string</text>
<text x="560" y="755">+ scheduled: bool</text>
<rect x="50" y="850" width="200" height="100" fill="#fff" stroke="#000" stroke-width="1"/>
<text x="150" y="870">BatchPublishResult</text>
<line x1="50" y1="885" x2="250" y2="885" stroke="#000"/>
<text x="60" y="895">+ successful: PublishResult</text>
<text x="60" y="915">+ failed: string</text>
<rect x="300" y="850" width="200" height="160" stroke-width="1" fill="#fff" stroke="#000"/>
<text x="400" y="870">&lt;&lt;component&gt;&gt;</text>
<text x="400" y="890">Consumer</text>
<line x1="300" y1="905" x2="500" y2="905" stroke="#000"/>
<text x="310" y="915">+ StartConsumer()</text>
<text x="310" y="935">+ StopConsumer()</text>
<text x="310" y="955">+ PauseConsumer()</text>
<text x="310" y="975">+ ResumeConsumer()</text>
<text x="310" y="995">+ GetConsumerStats()</text>
<rect x="550" y="850" width="200" height="180" stroke="#000" stroke-width="1" fill="#fff"/>
<text x="650" y="870">ConsumerConfig</text>
<line x1="550" y1="885" x2="750" y2="885" stroke="#000"/>
<text x="560" y="895">+ queueName: string</text>
<text x="560" y="915">+ batchSize: int</text>
<text x="560" y="935">+ pollInterval: int</text>
<text x="560" y="955">+ concurrency: int</text>
<text x="560" y="975">+ autoAcknowledge: bool</text>
<text x="560" y="995">+ visibilityTimeout: int</text>
<rect x="50" y="1050" width="200" height="140" fill="#fff" stroke="#000" stroke-width="1"/>
<text x="150" y="1070">ProcessingContext</text>
<line x1="50" y1="1085" x2="250" y2="1085" stroke="#000"/>
<text x="60" y="1095">+ message: QueueMessage</text>
<text x="60" y="1115">+ attempt: int</text>
<text x="60" y="1135">+ startedAt: string</text>
<text x="60" y="1155">+ consumerGroup: string</text>
<rect x="300" y="1050" width="200" height="180" fill="#fff" stroke="#000" stroke-width="1"/>
<text x="400" y="1070">ConsumerStats</text>
<line x1="300" y1="1085" x2="500" y2="1085" stroke="#000"/>
<text x="310" y="1095">+ consumerId: string</text>
<text x="310" y="1115">+ queueName: string</text>
<text x="310" y="1135">+ processed: int</text>
<text x="310" y="1155">+ failed: int</text>
<text x="310" y="1175">+ avgLatency: float</text>
<text x="310" y="1195">+ lastActivity: string</text>
<rect x="550" y="1050" width="200" height="120" fill="#fff" stroke="#000" stroke-width="1"/>
<text x="650" y="1070">&lt;&lt;interface&gt;&gt;</text>
<text x="650" y="1090">MessageHandler</text>
<line x1="550" y1="1105" x2="750" y2="1105" stroke="#000"/>
<text x="560" y="1115">+ Process()</text>
<text x="560" y="1135">+ OnError()</text>
<text x="560" y="1155">+ OnComplete()</text>
<rect x="50" y="1250" width="200" height="160" fill="#fff" stroke="#000" stroke-width="1"/>
<text x="150" y="1270">&lt;&lt;component&gt;&gt;</text>
<text x="150" y="1290">DeadLetterHandler</text>
<line x1="50" y1="1305" x2="250" y2="1305" stroke="#000"/>
<text x="60" y="1315">+ HandleFailure()</text>
<text x="60" y="1335">+ GetDeadLetters()</text>
<text x="60" y="1355">+ RequeueMessage()</text>
<text x="60" y="1375">+ DeleteDeadLetter()</text>
<text x="60" y="1395">+ RequeueAll()</text>
<rect x="300" y="1250" width="200" height="180" fill="#fff" stroke="#000" stroke-width="1"/>
<text x="400" y="1270">&lt;&lt;component&gt;&gt;</text>
<text x="400" y="1290">MessageRouter</text>
<line x1="300" y1="1305" x2="500" y2="1305" stroke="#000"/>
<text x="310" y="1315">+ Subscribe()</text>
<text x="310" y="1335">+ Unsubscribe()</text>
<text x="310" y="1355">+ GetQueuesForTopic()</text>
<text x="310" y="1375">+ AddRoutingRule()</text>
<text x="310" y="1395">+ RemoveRoutingRule()</text>
<text x="310" y="1415">+ RouteMessage()</text>
<rect x="550" y="1250" width="200" height="140" fill="#fff" stroke="#000" stroke-width="1"/>
<text x="650" y="1270">TopicSubscription</text>
<line x1="550" y1="1285" x2="750" y2="1285" stroke="#000"/>
<text x="560" y="1295">+ topic: string</text>
<text x="560" y="1315">+ queueName: string</text>
<text x="560" y="1335">+ filter: string</text>
<text x="560" y="1355">+ createdAt: string</text>
<rect x="50" y="1450" width="200" height="180" stroke="#000" stroke-width="1" fill="#fff"/>
<text x="150" y="1470">RoutingRule</text>
<line x1="50" y1="1485" x2="250" y2="1485" stroke="#000"/>
<text x="60" y="1495">+ id: string</text>
<text x="60" y="1515">+ sourcePattern: string</text>
<text x="60" y="1535">+ destinationQueue: string</text>
<text x="60" y="1555">+ condition: string</text>
<text x="60" y="1575">+ transform: string</text>
<text x="60" y="1595">+ priority: int</text>
<rect x="300" y="1450" width="200" height="200" fill="#fff" stroke="#000" stroke-width="1"/>
<text x="400" y="1470">&lt;&lt;component&gt;&gt;</text>
<text x="400" y="1490">MetricsCollector</text>
<line x1="300" y1="1505" x2="500" y2="1505" stroke="#000"/>
<text x="310" y="1515">+ RecordEnqueue()</text>
<text x="310" y="1535">+ RecordDequeue()</text>
<text x="310" y="1555">+ RecordSuccess()</text>
<text x="310" y="1575">+ RecordFailure()</text>
<text x="310" y="1595">+ RecordRetry()</text>
<text x="310" y="1615">+ GetMetrics()</text>
<text x="310" y="1635">+ GetDashboard()</text>
<rect x="550" y="1450" width="200" height="260" fill="#fff" stroke="#000" stroke-width="1"/>
<text x="650" y="1470">QueueMetrics</text>
<line x1="550" y1="1485" x2="750" y2="1485" stroke="#000"/>
<text x="560" y="1495">+ queueName: string</text>
<text x="560" y="1515">+ enqueued: int</text>
<text x="560" y="1535">+ dequeued: int</text>
<text x="560" y="1555">+ processed: int</text>
<text x="560" y="1575">+ failed: int</text>
<text x="560" y="1595">+ retried: int</text>
<text x="560" y="1615">+ deadLettered: int</text>
<text x="560" y="1635">+ avgLatency: float</text>
<text x="560" y="1655">+ p99Latency: float</text>
<text x="560" y="1675">+ timestamp: string</text>
<rect x="50" y="1650" width="200" height="100" fill="#fff" stroke="#000" stroke-width="1"/>
<text x="150" y="1670">&lt;&lt;interface&gt;&gt;</text>
<text x="150" y="1690">MetricsStore</text>
<line x1="50" y1="1705" x2="250" y2="1705" stroke="#000"/>
<text x="60" y="1715">+ Write()</text>
<text x="60" y="1735">+ Query()</text>
<rect x="300" y="1650" width="200" height="120" fill="#fff" stroke="#000" stroke-width="1"/>
<text x="400" y="1670">&lt;&lt;component&gt;&gt;</text>
<text x="400" y="1690">AlertService</text>
<line x1="300" y1="1705" x2="500" y2="1705" stroke="#000"/>
<text x="310" y="1715">+ SendAlert()</text>
<text x="310" y="1735">+ GetActiveAlerts()</text>
<text x="310" y="1755">+ AcknowledgeAlert()</text>
<rect x="550" y="1650" width="200" height="180" stroke="#000" stroke-width="1" fill="#fff"/>
<text x="650" y="1670">Alert</text>
<line x1="550" y1="1685" x2="750" y2="1685" stroke="#000"/>
<text x="560" y="1695">+ id: string</text>
<text x="560" y="1715">+ severity: string</text>
<text x="560" y="1735">+ source: string</text>
<text x="560" y="1755">+ message: string</text>
<text x="560" y="1775">+ timestamp: string</text>
<text x="560" y="1795">+ acknowledged: bool</text>
<rect x="50" y="1850" width="200" height="120" stroke="#000" stroke-width="1" fill="#fff"/>
<text x="150" y="1870">&lt;&lt;interface&gt;&gt;</text>
<text x="150" y="1890">NotificationChannel</text>
<line x1="50" y1="1905" x2="250" y2="1905" stroke="#000"/>
<text x="60" y="1915">+ SendEmail()</text>
<text x="60" y="1935">+ SendSlack()</text>
<text x="60" y="1955">+ SendPagerDuty()</text>
<line x1="150" y1="700" x2="300" y2="300" stroke="#000" class="dashed"/>
<line x1="150" y1="700" x2="300" y2="1300" stroke="#000" class="dashed"/>
<line x1="400" y1="900" x2="300" y2="300" stroke="#000" class="dashed"/>
<line x1="400" y1="900" x2="50" y2="1300" stroke="#000" class="dashed"/>
<line x1="400" y1="900" x2="300" y2="1500" stroke="#000" class="dashed"/>
<line x1="150" y1="1300" x2="300" y2="300" stroke="#000" class="dashed"/>
<line x1="150" y1="1300" x2="300" y2="1700" stroke="#000" class="dashed"/>
</svg>