<svg xmlns="http://www.w3.org/2000/svg" viewBox="0 0 988 620" width="988" height="620">
<defs>
<style>text { font-family: -apple-system, "Segoe UI", "Helvetica Neue", Arial, sans-serif; }</style>
<filter id="drop-shadow" x="-5%" y="-5%" width="115%" height="115%"><feGaussianBlur in="SourceAlpha" stdDeviation="2" result="blur"/><feOffset in="blur" dx="1" dy="2" result="offsetBlur"/><feComponentTransfer in="offsetBlur" result="shadow"><feFuncA type="linear" slope="0.12"/></feComponentTransfer><feMerge><feMergeNode in="shadow"/><feMergeNode in="SourceGraphic"/></feMerge></filter>
<symbol id="actor" viewBox="0 0 40 70" preserveAspectRatio="none"><circle cx="20" cy="10" r="10" fill="#fafbfc" stroke="#2d3748" stroke-width="1.5"/><line x1="20" y1="20" x2="20" y2="45" stroke="#2d3748" stroke-width="1.5"/><line x1="5" y1="30" x2="35" y2="30" stroke="#2d3748" stroke-width="1.5"/><line x1="20" y1="45" x2="5" y2="65" stroke="#2d3748" stroke-width="1.5"/><line x1="20" y1="45" x2="35" y2="65" stroke="#2d3748" stroke-width="1.5"/></symbol>
<symbol id="initial-state" viewBox="0 0 20 20" preserveAspectRatio="none"><circle cx="10" cy="10" r="10" fill="#1a202c"/></symbol>
<symbol id="final-state" viewBox="0 0 24 24" preserveAspectRatio="none"><circle cx="12" cy="12" r="12" fill="none" stroke="#2d3748" stroke-width="2"/><circle cx="12" cy="12" r="8" fill="#1a202c"/></symbol>
</defs>
<rect x="161" y="50" width="188" height="100" stroke-width="2" filter="url(#drop-shadow)" fill="#fafbfc" stroke="#2d3748"/>
<text x="255" y="77" fill="#4a5568" font-style="italic" text-anchor="middle">&lt;&lt;component&gt;&gt;</text>
<text x="255" y="97" text-anchor="middle" fill="#1a202c" font-weight="bold">WebUI</text>
<line x1="161" y1="112" x2="349" y2="112" stroke="#cbd5e0"/>
<text x="171" y="127" fill="#1a202c">+ RenderPage(): string</text>
<rect x="389" y="50" width="188" height="100" fill="#fafbfc" stroke="#2d3748" stroke-width="2" filter="url(#drop-shadow)"/>
<text x="483" y="77" text-anchor="middle" fill="#4a5568" font-style="italic">&lt;&lt;component&gt;&gt;</text>
<text x="483" y="97" text-anchor="middle" fill="#1a202c" font-weight="bold">MobileApp</text>
<line x1="389" y1="112" x2="577" y2="112" stroke="#cbd5e0"/>
<text x="399" y="127" fill="#1a202c">+ ShowScreen(): string</text>
<rect x="617" y="50" width="209" height="100" stroke-width="2" filter="url(#drop-shadow)" fill="#fafbfc" stroke="#2d3748"/>
<text x="721" y="77" font-style="italic" text-anchor="middle" fill="#4a5568">&lt;&lt;component&gt;&gt;</text>
<text x="721" y="97" font-weight="bold" text-anchor="middle" fill="#1a202c">AdminPanel</text>
<line x1="617" y1="112" x2="826" y2="112" stroke="#cbd5e0"/>
<text x="627" y="127" fill="#1a202c">+ ShowDashboard(): string</text>
<rect x="96" y="210" width="260" height="120" fill="#fafbfc" stroke="#2d3748" stroke-width="2" filter="url(#drop-shadow)"/>
<text x="226" y="237" text-anchor="middle" fill="#4a5568" font-style="italic">&lt;&lt;component&gt;&gt;</text>
<text x="226" y="257" text-anchor="middle" fill="#1a202c" font-weight="bold">ProductService</text>
<line x1="96" y1="272" x2="356" y2="272" stroke="#cbd5e0"/>
<text x="106" y="287" fill="#1a202c">+ GetProduct(id: string): string</text>
<text x="106" y="307" fill="#1a202c">+ ListProducts(): string</text>
<rect x="396" y="210" width="238" height="120" fill="#fafbfc" stroke="#2d3748" stroke-width="2" filter="url(#drop-shadow)"/>
<text x="515" y="237" text-anchor="middle" fill="#4a5568" font-style="italic">&lt;&lt;component&gt;&gt;</text>
<text x="515" y="257" fill="#1a202c" font-weight="bold" text-anchor="middle">CartService</text>
<line x1="396" y1="272" x2="634" y2="272" stroke="#cbd5e0"/>
<text x="406" y="287" fill="#1a202c">+ AddItem(item: string): bool</text>
<text x="406" y="307" fill="#1a202c">+ GetCart(): string</text>
<rect x="674" y="210" width="217" height="120" fill="#fafbfc" stroke="#2d3748" stroke-width="2" filter="url(#drop-shadow)"/>
<text x="782" y="237" text-anchor="middle" fill="#4a5568" font-style="italic">&lt;&lt;component&gt;&gt;</text>
<text x="782" y="257" text-anchor="middle" fill="#1a202c" font-weight="bold">ReportService</text>
<line x1="674" y1="272" x2="891" y2="272" stroke="#cbd5e0"/>
<text x="684" y="287" fill="#1a202c">+ GenerateReport(): string</text>
<text x="684" y="307" fill="#1a202c">+ GetStats(): string</text>
<rect x="50" y="390" width="267" height="120" fill="#fafbfc" stroke="#2d3748" stroke-width="2" filter="url(#drop-shadow)"/>
<text x="183" y="417" fill="#4a5568" font-style="italic" text-anchor="middle">&lt;&lt;component&gt;&gt;</text>
<text x="183" y="437" text-anchor="middle" fill="#1a202c" font-weight="bold">ProductRepo</text>
<line x1="50" y1="452" x2="317" y2="452" stroke="#cbd5e0"/>
<text x="60" y="467" fill="#1a202c">+ FindProduct(id: string): string</text>
<text x="60" y="487" fill="#1a202c">+ SaveProduct(data: string): bool</text>
<rect x="357" y="390" width="267" height="120" stroke="#2d3748" stroke-width="2" filter="url(#drop-shadow)" fill="#fafbfc"/>
<text x="490" y="417" text-anchor="middle" fill="#4a5568" font-style="italic">&lt;&lt;component&gt;&gt;</text>
<text x="490" y="437" font-weight="bold" text-anchor="middle" fill="#1a202c">CartRepo</text>
<line x1="357" y1="452" x2="624" y2="452" stroke="#cbd5e0"/>
<text x="367" y="467" fill="#1a202c">+ GetCart(userId: string): string</text>
<text x="367" y="487" fill="#1a202c">+ UpdateCart(data: string): bool</text>
<rect x="664" y="390" width="274" height="120" fill="#fafbfc" stroke="#2d3748" stroke-width="2" filter="url(#drop-shadow)"/>
<text x="801" y="417" text-anchor="middle" fill="#4a5568" font-style="italic">&lt;&lt;component&gt;&gt;</text>
<text x="801" y="437" text-anchor="middle" fill="#1a202c" font-weight="bold">ReportRepo</text>
<line x1="664" y1="452" x2="938" y2="452" stroke="#cbd5e0"/>
<text x="674" y="467" fill="#1a202c">+ QueryData(query: string): string</text>
<text x="674" y="487" fill="#1a202c">+ AggregateData(): string</text>
<line x1="255" y1="150" x2="226" y2="150" stroke="#2d3748" stroke-dasharray="5,5"/>
<line x1="226" y1="150" x2="226" y2="210" stroke="#2d3748" stroke-dasharray="5,5"/>
<polygon points="226,210 221,200 230,200" fill="#2d3748"/>
<line x1="483" y1="150" x2="515" y2="150" stroke="#2d3748" stroke-dasharray="5,5"/>
<line x1="515" y1="150" x2="515" y2="210" stroke="#2d3748" stroke-dasharray="5,5"/>
<polygon points="515,210 510,200 520,200" fill="#2d3748"/>
<line x1="721" y1="150" x2="721" y2="210" stroke="#2d3748" stroke-dasharray="5,5"/>
<line x1="721" y1="210" x2="782" y2="210" stroke="#2d3748" stroke-dasharray="5,5"/>
<polygon points="782,210 772,214 772,205" fill="#2d3748"/>
<line x1="226" y1="330" x2="183" y2="330" stroke="#2d3748" stroke-dasharray="5,5"/>
<line x1="183" y1="330" x2="183" y2="390" stroke="#2d3748" stroke-dasharray="5,5"/>
<polygon points="183,390 178,380 187,380" fill="#2d3748"/>
<line x1="515" y1="330" x2="490" y2="330" stroke-dasharray="5,5" stroke="#2d3748"/>
<line x1="490" y1="330" x2="490" y2="390" stroke="#2d3748" stroke-dasharray="5,5"/>
<polygon points="490,390 485,380 495,380" fill="#2d3748"/>
<line x1="782" y1="330" x2="801" y2="330" stroke="#2d3748" stroke-dasharray="5,5"/>
<line x1="801" y1="330" x2="801" y2="390" stroke="#2d3748" stroke-dasharray="5,5"/>
<polygon points="801,390 796,380 806,380" fill="#2d3748"/>
</svg>