<svg xmlns="http://www.w3.org/2000/svg" viewBox="0 0 1134 600" width="1134" height="600">
<defs>
<style>text { font-family: -apple-system, "Segoe UI", "Helvetica Neue", Arial, sans-serif; }</style>
<filter id="drop-shadow" x="-5%" y="-5%" width="115%" height="115%"><feGaussianBlur in="SourceAlpha" stdDeviation="2" result="blur"/><feOffset in="blur" dx="1" dy="2" result="offsetBlur"/><feComponentTransfer in="offsetBlur" result="shadow"><feFuncA type="linear" slope="0.12"/></feComponentTransfer><feMerge><feMergeNode in="shadow"/><feMergeNode in="SourceGraphic"/></feMerge></filter>
<symbol id="actor" viewBox="0 0 40 70" preserveAspectRatio="none"><circle cx="20" cy="10" r="10" fill="#fafbfc" stroke="#2d3748" stroke-width="1.5"/><line x1="20" y1="20" x2="20" y2="45" stroke="#2d3748" stroke-width="1.5"/><line x1="5" y1="30" x2="35" y2="30" stroke="#2d3748" stroke-width="1.5"/><line x1="20" y1="45" x2="5" y2="65" stroke="#2d3748" stroke-width="1.5"/><line x1="20" y1="45" x2="35" y2="65" stroke="#2d3748" stroke-width="1.5"/></symbol>
<symbol id="initial-state" viewBox="0 0 20 20" preserveAspectRatio="none"><circle cx="10" cy="10" r="10" fill="#1a202c"/></symbol>
<symbol id="final-state" viewBox="0 0 24 24" preserveAspectRatio="none"><circle cx="12" cy="12" r="12" fill="none" stroke="#2d3748" stroke-width="2"/><circle cx="12" cy="12" r="8" fill="#1a202c"/></symbol>
</defs>
<rect x="50" y="50" width="202" height="140" stroke-width="2" filter="url(#drop-shadow)" fill="#fafbfc" stroke="#2d3748"/>
<text x="151" y="77" text-anchor="middle" fill="#4a5568" font-style="italic">&lt;&lt;component&gt;&gt;</text>
<text x="151" y="97" text-anchor="middle" fill="#1a202c" font-weight="bold">Vehicle</text>
<line x1="50" y1="112" x2="252" y2="112" stroke="#cbd5e0"/>
<text x="60" y="127" fill="#1a202c">+ Start(): bool</text>
<text x="60" y="147" fill="#1a202c">+ Stop(): bool</text>
<text x="60" y="167" fill="#1a202c">+ GetInfo(): VehicleData</text>
<rect x="292" y="50" width="188" height="120" fill="#fafbfc" stroke="#2d3748" stroke-width="2" filter="url(#drop-shadow)"/>
<text x="386" y="77" text-anchor="middle" fill="#1a202c" font-weight="bold">VehicleData</text>
<line x1="292" y1="92" x2="480" y2="92" stroke="#cbd5e0"/>
<text x="302" y="107" fill="#1a202c">+ id: string</text>
<text x="302" y="127" fill="#1a202c">+ manufacturer: string</text>
<text x="302" y="147" fill="#1a202c">+ year: int</text>
<rect x="296" y="250" width="137" height="120" fill="#fafbfc" stroke="#2d3748" stroke-width="2" filter="url(#drop-shadow)"/>
<text x="364" y="277" text-anchor="middle" fill="#4a5568" font-style="italic">&lt;&lt;component&gt;&gt;</text>
<text x="364" y="297" text-anchor="middle" fill="#1a202c" font-weight="bold">Car</text>
<line x1="296" y1="312" x2="433" y2="312" stroke="#cbd5e0"/>
<text x="306" y="327" fill="#1a202c">+ Drive(): bool</text>
<text x="306" y="347" fill="#1a202c">+ Park(): bool</text>
<rect x="520" y="50" width="159" height="100" stroke-width="2" filter="url(#drop-shadow)" fill="#fafbfc" stroke="#2d3748"/>
<text x="599" y="77" fill="#1a202c" font-weight="bold" text-anchor="middle">CarData</text>
<line x1="520" y1="92" x2="679" y2="92" stroke="#cbd5e0"/>
<text x="530" y="107" fill="#1a202c">+ numDoors: int</text>
<text x="530" y="127" fill="#1a202c">+ fuelType: string</text>
<rect x="473" y="250" width="159" height="120" fill="#fafbfc" stroke="#2d3748" stroke-width="2" filter="url(#drop-shadow)"/>
<text x="552" y="277" fill="#4a5568" font-style="italic" text-anchor="middle">&lt;&lt;component&gt;&gt;</text>
<text x="552" y="297" text-anchor="middle" fill="#1a202c" font-weight="bold">Motorcycle</text>
<line x1="473" y1="312" x2="632" y2="312" stroke="#cbd5e0"/>
<text x="483" y="327" fill="#1a202c">+ Wheelie(): bool</text>
<text x="483" y="347" fill="#1a202c">+ LeanAngle(): int</text>
<rect x="719" y="50" width="137" height="100" fill="#fafbfc" stroke="#2d3748" stroke-width="2" filter="url(#drop-shadow)"/>
<text x="787" y="77" text-anchor="middle" fill="#1a202c" font-weight="bold">MotorcycleData</text>
<line x1="719" y1="92" x2="856" y2="92" stroke="#cbd5e0"/>
<text x="729" y="107" fill="#1a202c">+ engineCC: int</text>
<text x="729" y="127" fill="#1a202c">+ hasABS: bool</text>
<rect x="672" y="250" width="166" height="120" filter="url(#drop-shadow)" fill="#fafbfc" stroke="#2d3748" stroke-width="2"/>
<text x="755" y="277" fill="#4a5568" font-style="italic" text-anchor="middle">&lt;&lt;component&gt;&gt;</text>
<text x="755" y="297" text-anchor="middle" fill="#1a202c" font-weight="bold">Truck</text>
<line x1="672" y1="312" x2="838" y2="312" stroke="#cbd5e0"/>
<text x="682" y="327" fill="#1a202c">+ LoadCargo(): bool</text>
<text x="682" y="347" fill="#1a202c">+ Haul(): bool</text>
<rect x="896" y="50" width="188" height="100" stroke="#2d3748" stroke-width="2" filter="url(#drop-shadow)" fill="#fafbfc"/>
<text x="990" y="77" font-weight="bold" text-anchor="middle" fill="#1a202c">TruckData</text>
<line x1="896" y1="92" x2="1084" y2="92" stroke="#cbd5e0"/>
<text x="906" y="107" fill="#1a202c">+ cargoCapacity: float</text>
<text x="906" y="127" fill="#1a202c">+ numAxles: int</text>
<line x1="364" y1="250" x2="364" y2="220" stroke="#2d3748"/>
<line x1="364" y1="220" x2="71" y2="220" stroke="#2d3748"/>
<line x1="71" y1="220" x2="71" y2="190" stroke="#2d3748"/>
<polygon points="71,190 76,200 66,200" stroke="#2d3748" fill="#fafbfc"/>
<line x1="552" y1="250" x2="552" y2="220" stroke="#2d3748"/>
<line x1="552" y1="220" x2="151" y2="220" stroke="#2d3748"/>
<line x1="151" y1="220" x2="151" y2="190" stroke="#2d3748"/>
<polygon points="151,190 156,200 146,200" fill="#fafbfc" stroke="#2d3748"/>
<line x1="755" y1="250" x2="755" y2="220" stroke="#2d3748"/>
<line x1="755" y1="220" x2="231" y2="220" stroke="#2d3748"/>
<line x1="231" y1="220" x2="231" y2="190" stroke="#2d3748"/>
<polygon points="231,190 236,200 226,200" fill="#fafbfc" stroke="#2d3748"/>
</svg>