<svg xmlns="http://www.w3.org/2000/svg" viewBox="0 0 800 600" width="800" height="600">
<defs>
<style>text { font-family: -apple-system, "Segoe UI", "Helvetica Neue", Arial, sans-serif; }</style>
<filter id="drop-shadow" x="-5%" y="-5%" width="115%" height="115%"><feGaussianBlur in="SourceAlpha" stdDeviation="2" result="blur"/><feOffset in="blur" dx="1" dy="2" result="offsetBlur"/><feComponentTransfer in="offsetBlur" result="shadow"><feFuncA type="linear" slope="0.12"/></feComponentTransfer><feMerge><feMergeNode in="shadow"/><feMergeNode in="SourceGraphic"/></feMerge></filter>
<symbol id="actor" viewBox="0 0 40 70" preserveAspectRatio="none"><circle cx="20" cy="10" r="10" fill="#fafbfc" stroke="#2d3748" stroke-width="1.5"/><line x1="20" y1="20" x2="20" y2="45" stroke="#2d3748" stroke-width="1.5"/><line x1="5" y1="30" x2="35" y2="30" stroke="#2d3748" stroke-width="1.5"/><line x1="20" y1="45" x2="5" y2="65" stroke="#2d3748" stroke-width="1.5"/><line x1="20" y1="45" x2="35" y2="65" stroke="#2d3748" stroke-width="1.5"/></symbol>
<symbol id="initial-state" viewBox="0 0 20 20" preserveAspectRatio="none"><circle cx="10" cy="10" r="10" fill="#1a202c"/></symbol>
<symbol id="final-state" viewBox="0 0 24 24" preserveAspectRatio="none"><circle cx="12" cy="12" r="12" fill="none" stroke="#2d3748" stroke-width="2"/><circle cx="12" cy="12" r="8" fill="#1a202c"/></symbol>
</defs>
<use href="#initial-state" x="129" y="40" width="20" height="20"/>
<rect x="50" y="100" width="178" height="75" rx="10" ry="10" fill="#fafbfc" stroke="#2d3748" stroke-width="2" filter="url(#drop-shadow)"/>
<text x="139" y="125" text-anchor="middle" fill="#1a202c" font-weight="bold">Processing</text>
<line x1="50" y1="135" x2="228" y2="135" stroke="#cbd5e0"/>
<text x="55" y="150" fill="#1a202c">entry/ initiatePayment</text>
<use href="#final-state" x="127" y="268" width="24" height="24"/>
<use href="#final-state" x="277" y="268" width="24" height="24"/>
<line x1="139" y1="60" x2="139" y2="83" stroke="#2d3748"/>
<polygon points="139,83 135,75 143,75" fill="#000"/>
<line x1="139" y1="157" x2="139" y2="268" stroke="#2d3748"/>
<polygon points="139,268 135,260 142,260" fill="#000"/>
<text x="139" y="207" text-anchor="middle" fill="#4a5568">success</text>
<line x1="139" y1="157" x2="289" y2="157" stroke="#2d3748"/>
<line x1="289" y1="157" x2="289" y2="268" stroke="#2d3748"/>
<polygon points="289,268 285,260 292,260" fill="#000"/>
<text x="214" y="122" fill="#4a5568" text-anchor="middle">error</text>
</svg>