<svg xmlns="http://www.w3.org/2000/svg" viewBox="0 0 1084 600" width="1084" height="600">
<rect x="50" y="50" width="130" height="70" fill="#fff" stroke="#000" stroke-width="1"/>
<text x="115" y="77" text-anchor="middle">&lt;&lt;component&gt;&gt;</text>
<text x="115" y="97" text-anchor="middle">OrderProcessor</text>
<rect x="220" y="50" width="174" height="160" fill="#fff" stroke="#000" stroke-width="1"/>
<text x="307" y="77" text-anchor="middle">Order</text>
<line x1="220" y1="92" x2="394" y2="92" stroke="#000"/>
<text x="230" y="107">+ id: string</text>
<text x="230" y="127">+ customerId: string</text>
<text x="230" y="147">+ items: string</text>
<text x="230" y="167">+ total: float</text>
<text x="230" y="187">+ status: string</text>
<rect x="434" y="50" width="195" height="100" fill="#fff" stroke="#000" stroke-width="1"/>
<text x="531" y="77" text-anchor="middle">PaymentResult</text>
<line x1="434" y1="92" x2="629" y2="92" stroke="#000"/>
<text x="444" y="107">+ success: bool</text>
<text x="444" y="127">+ transactionId: string</text>
<rect x="87" y="270" width="303" height="120" fill="#fff" stroke="#000" stroke-width="1"/>
<text x="238" y="297" text-anchor="middle">&lt;&lt;component&gt;&gt;</text>
<text x="238" y="317" text-anchor="middle">PaymentGateway</text>
<line x1="87" y1="332" x2="390" y2="332" stroke="#000"/>
<text x="97" y="347">+ Charge(amount: float): PaymentResult</text>
<text x="97" y="367">+ Refund(orderId: string): bool</text>
<rect x="669" y="50" width="159" height="100" fill="#fff" stroke="#000" stroke-width="1"/>
<text x="748" y="77" text-anchor="middle">ChargeRequest</text>
<line x1="669" y1="92" x2="828" y2="92" stroke="#000"/>
<text x="679" y="107">+ amount: float</text>
<text x="679" y="127">+ currency: string</text>
<rect x="430" y="270" width="267" height="140" fill="#fff" stroke="#000" stroke-width="1"/>
<text x="563" y="297" text-anchor="middle">&lt;&lt;component&gt;&gt;</text>
<text x="563" y="317" text-anchor="middle">InventoryService</text>
<line x1="430" y1="332" x2="697" y2="332" stroke="#000"/>
<text x="440" y="347">+ CheckStock(items: string): bool</text>
<text x="440" y="367">+ Reserve(items: string): bool</text>
<text x="440" y="387">+ Release(items: string): bool</text>
<rect x="868" y="50" width="166" height="100" stroke-width="1" fill="#fff" stroke="#000"/>
<text x="951" y="77" text-anchor="middle">StockItem</text>
<line x1="868" y1="92" x2="1034" y2="92" stroke="#000"/>
<text x="878" y="107">+ productId: string</text>
<text x="878" y="127">+ quantity: int</text>
<rect x="737" y="270" width="260" height="120" fill="#fff" stroke="#000" stroke-width="1"/>
<text x="867" y="297" text-anchor="middle">&lt;&lt;component&gt;&gt;</text>
<text x="867" y="317" text-anchor="middle">NotificationService</text>
<line x1="737" y1="332" x2="997" y2="332" stroke="#000"/>
<text x="747" y="347">+ SendConfirmation(order: Order)</text>
<text x="747" y="367">+ SendCancellation(order: Order)</text>
<line x1="63" y1="120" x2="63" y2="270" stroke="#000" stroke-dasharray="5,5"/>
<line x1="63" y1="270" x2="238" y2="270" stroke="#000" stroke-dasharray="5,5"/>
<polygon points="238,270 228,274 228,265" fill="#000"/>
<line x1="180" y1="85" x2="180" y2="212" stroke="#000" stroke-dasharray="5,5"/>
<line x1="180" y1="212" x2="430" y2="212" stroke="#000" stroke-dasharray="5,5"/>
<line x1="430" y1="212" x2="430" y2="340" stroke-dasharray="5,5" stroke="#000"/>
<polygon points="430,340 425,330 434,330" fill="#000"/>
<line x1="180" y1="106" x2="180" y2="430" stroke="#000" stroke-dasharray="5,5"/>
<line x1="180" y1="430" x2="737" y2="430" stroke-dasharray="5,5" stroke="#000"/>
<line x1="737" y1="430" x2="737" y2="330" stroke-dasharray="5,5" stroke="#000"/>
<polygon points="737,330 741,339 732,339" fill="#000"/>
</svg>