<svg xmlns="http://www.w3.org/2000/svg" viewBox="0 0 800 1220" width="800" height="1220">
<rect x="350" y="50" width="100" height="40" rx="20" ry="20" fill="#fff" stroke="#000"/>
<text x="400" y="75" text-anchor="middle">Start</text>
<rect x="267" y="130" width="267" height="40" fill="#fff" stroke="#000"/>
<text x="400" y="155" text-anchor="middle">ticket = self.getTicket(ticketId)</text>
<polygon points="400,210 451,230 400,250 349,230" fill="#fff" stroke="#000"/>
<text x="400" y="235" text-anchor="middle">condition?</text>
<rect x="213" y="290" width="375" height="40" fill="#fff" stroke="#000"/>
<text x="400" y="315" text-anchor="middle">agent = self.findAvailableAgent(ticket.priority)</text>
<polygon points="400,370 451,390 400,410 349,390" fill="#fff" stroke="#000"/>
<text x="400" y="395" text-anchor="middle">condition?</text>
<rect x="332" y="450" width="137" height="40" fill="#fff" stroke="#000"/>
<text x="400" y="475" text-anchor="middle">assignToAgent()</text>
<rect x="339" y="530" width="123" height="40" fill="#fff" stroke="#000"/>
<text x="400" y="555" text-anchor="middle">notifyAgent()</text>
<rect x="350" y="610" width="100" height="40" rx="20" ry="20" fill="#fff" stroke="#000"/>
<text x="400" y="635" text-anchor="middle">return</text>
<rect x="499" y="690" width="102" height="40" stroke="#000" fill="#fff"/>
<text x="550" y="715" text-anchor="middle">escalate()</text>
<rect x="288" y="770" width="224" height="40" rx="20" ry="20" fill="#fff" stroke="#000"/>
<text x="400" y="795" text-anchor="middle">throw NoAgentAvailableError</text>
<rect x="350" y="850" width="100" height="40" fill="#fff" stroke="#000"/>
<rect x="303" y="930" width="195" height="40" rx="20" ry="20" fill="#fff" stroke="#000"/>
<text x="400" y="955" text-anchor="middle">throw InvalidStateError</text>
<rect x="350" y="1010" width="100" height="40" stroke="#000" fill="#fff"/>
<rect x="350" y="1090" width="100" height="40" rx="20" ry="20" fill="#fff" stroke="#000"/>
<text x="400" y="1115" text-anchor="middle">End</text>
<line x1="400" y1="90" x2="400" y2="130" stroke="#000"/>
<polygon points="400,130 396,122 404,122" fill="#000"/>
<line x1="400" y1="170" x2="400" y2="210" stroke="#000"/>
<polygon points="400,210 396,202 404,202" fill="#000"/>
<line x1="400" y1="250" x2="400" y2="290" stroke="#000"/>
<polygon points="400,290 396,282 404,282" fill="#000"/>
<text x="410" y="270">Yes</text>
<line x1="400" y1="330" x2="400" y2="370" stroke="#000"/>
<polygon points="400,370 396,362 404,362" fill="#000"/>
<line x1="400" y1="410" x2="400" y2="450" stroke="#000"/>
<polygon points="400,450 396,442 404,442" fill="#000"/>
<text x="410" y="430">Yes</text>
<line x1="400" y1="490" x2="400" y2="530" stroke="#000"/>
<polygon points="400,530 396,522 404,522" fill="#000"/>
<line x1="400" y1="570" x2="400" y2="610" stroke="#000"/>
<polygon points="400,610 396,602 404,602" fill="#000"/>
<line x1="440" y1="390" x2="550" y2="390" stroke="#000"/>
<line x1="550" y1="390" x2="550" y2="690" stroke="#000"/>
<polygon points="550,690 546,682 553,682" fill="#000"/>
<text x="460" y="385">No</text>
<line x1="550" y1="730" x2="550" y2="750" stroke="#000"/>
<line x1="550" y1="750" x2="400" y2="750" stroke="#000"/>
<line x1="400" y1="750" x2="400" y2="770" stroke="#000"/>
<polygon points="400,770 396,762 404,762" fill="#000"/>
<line x1="400" y1="650" x2="400" y2="850" stroke="#000"/>
<polygon points="400,850 396,842 403,842" fill="#000"/>
<line x1="400" y1="250" x2="400" y2="930" stroke="#000"/>
<polygon points="400,930 396,922 403,922" fill="#000"/>
<line x1="400" y1="890" x2="400" y2="1010" stroke="#000"/>
<polygon points="400,1010 396,1002 403,1002" fill="#000"/>
<line x1="400" y1="1050" x2="400" y2="1090" stroke="#000"/>
<polygon points="400,1090 396,1082 404,1082" fill="#000"/>
</svg>