<svg xmlns="http://www.w3.org/2000/svg" viewBox="0 0 800 600" width="800" height="600">
<rect x="350" y="50" width="100" height="40" rx="20" ry="20" fill="#fff" stroke="#000"/>
<text x="400" y="75">Start</text>
<rect x="350" y="130" width="100" height="40" fill="#fff" stroke="#000"/>
<text x="400" y="155">result = ...</text>
<polygon points="400,210 440,230 400,250 360,230" fill="#fff" stroke="#000"/>
<text x="400" y="235">condition?</text>
<rect x="350" y="290" width="100" height="40" fill="#fff" stroke="#000"/>
<text x="400" y="315">processed = ...</text>
<rect x="350" y="370" width="100" height="40" fill="#fff" stroke="#000"/>
<text x="400" y="395">saveResult()</text>
<rect x="350" y="450" width="100" height="40" rx="20" ry="20" fill="#fff" stroke="#000"/>
<text x="400" y="475">return</text>
<rect x="350" y="530" width="100" height="40" fill="#fff" stroke="#000"/>
<text x="400" y="555">logError()</text>
<rect x="350" y="610" width="100" height="40" fill="#fff" stroke="#000"/>
<text x="400" y="635">notifyFailure()</text>
<rect x="350" y="690" width="100" height="40" rx="20" ry="20" fill="#fff" stroke="#000"/>
<text x="400" y="715">throw ServiceError</text>
<rect x="350" y="770" width="100" height="40" rx="20" ry="20" fill="#fff" stroke="#000"/>
<text x="400" y="795">End</text>
</svg>