<svg xmlns="http://www.w3.org/2000/svg" viewBox="0 0 800 600" width="800" height="600">
<rect x="350" y="50" width="100" height="40" rx="20" ry="20" fill="#fff" stroke="#000"/>
<text x="400" y="75">Start</text>
<rect x="350" y="130" width="100" height="40" fill="#fff" stroke="#000"/>
<text x="400" y="155">user = ...</text>
<rect x="350" y="210" width="100" height="40" fill="#fff" stroke="#000"/>
<text x="400" y="235">permissions = ...</text>
<rect x="350" y="290" width="100" height="40" fill="#fff" stroke="#000"/>
<text x="400" y="315">resource = ...</text>
<polygon points="400,370 440,390 400,410 360,390" fill="#fff" stroke="#000"/>
<text x="400" y="395">condition?</text>
<polygon points="400,450 440,470 400,490 360,470" fill="#fff" stroke="#000"/>
<text x="400" y="475">condition?</text>
<polygon points="400,530 440,550 400,570 360,550" fill="#fff" stroke="#000"/>
<text x="400" y="555">condition?</text>
<polygon points="400,610 440,630 400,650 360,630" fill="#fff" stroke="#000"/>
<text x="400" y="635">condition?</text>
<rect x="350" y="690" width="100" height="40" fill="#fff" stroke="#000"/>
<text x="400" y="715">result = ...</text>
<rect x="350" y="770" width="100" height="40" fill="#fff" stroke="#000"/>
<text x="400" y="795">logAccess()</text>
<rect x="350" y="850" width="100" height="40" rx="20" ry="20" fill="#fff" stroke="#000"/>
<text x="400" y="875">return</text>
<rect x="350" y="930" width="100" height="40" rx="20" ry="20" fill="#fff" stroke="#000"/>
<text x="400" y="955">throw QuotaExceededError</text>
<rect x="350" y="1010" width="100" height="40" rx="20" ry="20" fill="#fff" stroke="#000"/>
<text x="400" y="1035">throw ResourceUnavailableError</text>
<rect x="350" y="1090" width="100" height="40" fill="#fff" stroke="#000"/>
<rect x="350" y="1170" width="100" height="40" rx="20" ry="20" fill="#fff" stroke="#000"/>
<text x="400" y="1195">throw PermissionDeniedError</text>
<rect x="350" y="1250" width="100" height="40" fill="#fff" stroke="#000"/>
<rect x="350" y="1330" width="100" height="40" rx="20" ry="20" fill="#fff" stroke="#000"/>
<text x="400" y="1355">throw UserInactiveError</text>
<rect x="350" y="1410" width="100" height="40" fill="#fff" stroke="#000"/>
<rect x="350" y="1490" width="100" height="40" rx="20" ry="20" fill="#fff" stroke="#000"/>
<text x="400" y="1515">End</text>
</svg>