<svg xmlns="http://www.w3.org/2000/svg" viewBox="0 0 800 600" width="800" height="600">
<rect x="60" y="50" width="80" height="40" fill="#fff" stroke="#000"/>
<text x="100" y="75">ChainedMethodService</text>
<line x1="100" y1="100" x2="100" y2="500" class="dashed" stroke="#000"/>
<rect x="210" y="50" width="80" height="40" stroke="#000" fill="#fff"/>
<text x="250" y="75">DataService</text>
<line x1="250" y1="100" x2="250" y2="500" stroke="#000" class="dashed"/>
<rect x="360" y="50" width="80" height="40" stroke="#000" fill="#fff"/>
<text x="400" y="75">TransformService</text>
<line x1="400" y1="100" x2="400" y2="500" stroke="#000" class="dashed"/>
<rect x="510" y="50" width="80" height="40" fill="#fff" stroke="#000"/>
<text x="550" y="75">ValidationService</text>
<line x1="550" y1="100" x2="550" y2="500" stroke="#000" class="dashed"/>
<line x1="100" y1="120" x2="250" y2="120" stroke="#000"/>
<polygon points="250,120 242,123 242,116" fill="#000"/>
<text x="175" y="115">fetch</text>
<line x1="100" y1="160" x2="400" y2="160" stroke="#000"/>
<polygon points="400,160 392,163 392,156" fill="#000"/>
<text x="250" y="155">apply</text>
<line x1="100" y1="200" x2="550" y2="200" stroke="#000"/>
<polygon points="550,200 542,203 542,196" fill="#000"/>
<text x="325" y="195">check</text>
</svg>