<svg xmlns="http://www.w3.org/2000/svg" viewBox="0 0 800 600" width="800" height="600">
<rect x="350" y="50" width="100" height="40" rx="20" ry="20" fill="#fff" stroke="#000"/>
<text x="400" y="75">Start</text>
<rect x="350" y="130" width="100" height="40" stroke="#000" fill="#fff"/>
<text x="400" y="155">config = ...</text>
<rect x="350" y="210" width="100" height="40" fill="#fff" stroke="#000"/>
<text x="400" y="235">connectionString = ...</text>
<rect x="350" y="290" width="100" height="40" fill="#fff" stroke="#000"/>
<text x="400" y="315">connection = ...</text>
<rect x="350" y="370" width="100" height="40" fill="#fff" stroke="#000"/>
<text x="400" y="395">query = ...</text>
<rect x="350" y="450" width="100" height="40" fill="#fff" stroke="#000"/>
<text x="400" y="475">result = ...</text>
<rect x="350" y="530" width="100" height="40" fill="#fff" stroke="#000"/>
<text x="400" y="555">formatted = ...</text>
<rect x="350" y="610" width="100" height="40" rx="20" ry="20" fill="#fff" stroke="#000"/>
<text x="400" y="635">return</text>
<rect x="350" y="690" width="100" height="40" rx="20" ry="20" fill="#fff" stroke="#000"/>
<text x="400" y="715">End</text>
</svg>