<svg xmlns="http://www.w3.org/2000/svg" viewBox="0 0 800 600" width="800" height="600">
<rect x="60" y="50" width="80" height="40" fill="#fff" stroke="#000"/>
<text x="100" y="75">ManyStatementsService</text>
<line x1="100" y1="100" x2="100" y2="500" stroke="#000" class="dashed"/>
<rect x="210" y="50" width="80" height="40" fill="#fff" stroke="#000"/>
<text x="250" y="75">LogService</text>
<line x1="250" y1="100" x2="250" y2="500" stroke="#000" class="dashed"/>
<rect x="360" y="50" width="80" height="40" fill="#fff" stroke="#000"/>
<text x="400" y="75">MetricsService</text>
<line x1="400" y1="100" x2="400" y2="500" stroke="#000" class="dashed"/>
<rect x="510" y="50" width="80" height="40" fill="#fff" stroke="#000"/>
<text x="550" y="75">CacheService</text>
<line x1="550" y1="100" x2="550" y2="500" stroke="#000" class="dashed"/>
<line x1="100" y1="120" x2="250" y2="120" stroke="#000"/>
<polygon points="250,120 242,123 242,116" fill="#000"/>
<text x="175" y="115">info</text>
<line x1="100" y1="160" x2="400" y2="160" stroke="#000"/>
<polygon points="400,160 392,163 392,156" fill="#000"/>
<text x="250" y="155">startTimer</text>
<line x1="100" y1="200" x2="550" y2="200" stroke="#000"/>
<polygon points="550,200 542,203 542,196" fill="#000"/>
<text x="325" y="195">get</text>
<line x1="100" y1="240" x2="550" y2="240" stroke="#000"/>
<polygon points="550,240 542,243 542,236" fill="#000"/>
<text x="325" y="235">set</text>
<line x1="100" y1="280" x2="400" y2="280" stroke="#000"/>
<polygon points="400,280 392,283 392,276" fill="#000"/>
<text x="250" y="275">stopTimer</text>
<line x1="100" y1="320" x2="250" y2="320" stroke="#000"/>
<polygon points="250,320 242,323 242,316" fill="#000"/>
<text x="175" y="315">info</text>
</svg>