<svg xmlns="http://www.w3.org/2000/svg" viewBox="0 0 800 600" width="800" height="600">
<rect x="60" y="50" width="80" height="40" fill="#fff" stroke="#000"/>
<text x="100" y="75">DeepNestingService</text>
<line x1="100" y1="100" x2="100" y2="500" class="dashed" stroke="#000"/>
<rect x="210" y="50" width="80" height="40" fill="#fff" stroke="#000"/>
<text x="250" y="75">SecurityService</text>
<line x1="250" y1="100" x2="250" y2="500" stroke="#000" class="dashed"/>
<rect x="360" y="50" width="80" height="40" fill="#fff" stroke="#000"/>
<text x="400" y="75">ValidationService</text>
<line x1="400" y1="100" x2="400" y2="500" stroke="#000" class="dashed"/>
<rect x="510" y="50" width="80" height="40" fill="#fff" stroke="#000"/>
<text x="550" y="75">ConfigService</text>
<line x1="550" y1="100" x2="550" y2="500" stroke="#000" class="dashed"/>
<line x1="100" y1="120" x2="250" y2="120" stroke="#000"/>
<polygon points="250,120 242,123 242,116" fill="#000"/>
<text x="175" y="115">getContext</text>
<line x1="100" y1="160" x2="250" y2="160" stroke="#000"/>
<polygon points="250,160 242,163 242,156" fill="#000"/>
<text x="175" y="155">authenticate</text>
<line x1="100" y1="200" x2="250" y2="200" stroke="#000"/>
<polygon points="250,200 242,203 242,196" fill="#000"/>
<text x="175" y="195">getPermissions</text>
<line x1="100" y1="240" x2="400" y2="240" stroke="#000"/>
<polygon points="400,240 392,243 392,236" fill="#000"/>
<text x="250" y="235">validate</text>
<line x1="100" y1="280" x2="550" y2="280" stroke="#000"/>
<polygon points="550,280 542,283 542,276" fill="#000"/>
<text x="325" y="275">getConfig</text>
<rect x="50" y="310" width="700" height="20" stroke="#000" fill="none"/>
<text x="60" y="320">[alt] condition</text>
<line x1="100" y1="320" x2="400" y2="320" stroke="#000"/>
<polygon points="400,320 392,323 392,316" fill="#000"/>
<text x="250" y="315">getErrors</text>
<rect x="50" y="350" width="700" height="20" stroke="#000" fill="none"/>
<text x="60" y="360">[alt] condition</text>
<rect x="50" y="350" width="700" height="20" stroke="#000" fill="none"/>
<text x="60" y="360">[alt] condition</text>
<rect x="50" y="350" width="700" height="20" stroke="#000" fill="none"/>
<text x="60" y="360">[alt] condition</text>
<rect x="50" y="350" width="700" height="20" stroke="#000" fill="none"/>
<text x="60" y="360">[alt] condition</text>
</svg>