<svg xmlns="http://www.w3.org/2000/svg" viewBox="0 0 800 2500" width="800" height="2500">
<rect x="350" y="50" width="100" height="40" rx="20" ry="20" fill="#fff" stroke="#000"/>
<text x="400" y="75">Start</text>
<rect x="350" y="130" width="100" height="40" fill="#fff" stroke="#000"/>
<text x="400" y="155">securityContext = ...</text>
<polygon points="400,210 440,230 400,250 360,230" fill="#fff" stroke="#000"/>
<text x="400" y="235">condition?</text>
<rect x="350" y="290" width="100" height="40" fill="#fff" stroke="#000"/>
<text x="400" y="315">authResult = ...</text>
<polygon points="400,370 440,390 400,410 360,390" fill="#fff" stroke="#000"/>
<text x="400" y="395">condition?</text>
<rect x="350" y="450" width="100" height="40" fill="#fff" stroke="#000"/>
<text x="400" y="475">permissions = ...</text>
<polygon points="400,530 440,550 400,570 360,550" fill="#fff" stroke="#000"/>
<text x="400" y="555">condition?</text>
<rect x="350" y="610" width="100" height="40" stroke="#000" fill="#fff"/>
<text x="400" y="635">validationResult = ...</text>
<polygon points="400,690 440,710 400,730 360,710" fill="#fff" stroke="#000"/>
<text x="400" y="715">condition?</text>
<rect x="350" y="770" width="100" height="40" fill="#fff" stroke="#000"/>
<text x="400" y="795">config = ...</text>
<polygon points="400,850 440,870 400,890 360,870" fill="#fff" stroke="#000"/>
<text x="400" y="875">condition?</text>
<rect x="350" y="930" width="100" height="40" fill="#fff" stroke="#000"/>
<text x="400" y="955">result = ...</text>
<rect x="350" y="1010" width="100" height="40" stroke="#000" fill="#fff"/>
<text x="400" y="1035">auditLog = ...</text>
<rect x="350" y="1090" width="100" height="40" rx="20" ry="20" fill="#fff" stroke="#000"/>
<text x="400" y="1115">return</text>
<rect x="350" y="1170" width="100" height="40" stroke="#000" fill="#fff"/>
<text x="400" y="1195">logConfigError()</text>
<rect x="350" y="1250" width="100" height="40" rx="20" ry="20" stroke="#000" fill="#fff"/>
<text x="400" y="1275">throw ConfigurationError</text>
<rect x="350" y="1330" width="100" height="40" fill="#fff" stroke="#000"/>
<text x="400" y="1355">errors = ...</text>
<rect x="350" y="1410" width="100" height="40" fill="#fff" stroke="#000"/>
<text x="400" y="1435">logValidationErrors()</text>
<rect x="350" y="1490" width="100" height="40" rx="20" ry="20" fill="#fff" stroke="#000"/>
<text x="400" y="1515">throw ValidationError</text>
<rect x="350" y="1570" width="100" height="40" fill="#fff" stroke="#000"/>
<rect x="350" y="1650" width="100" height="40" stroke="#000" fill="#fff"/>
<text x="400" y="1675">logAuthorizationFailure()</text>
<rect x="350" y="1730" width="100" height="40" rx="20" ry="20" fill="#fff" stroke="#000"/>
<text x="400" y="1755">throw AuthorizationError</text>
<rect x="350" y="1810" width="100" height="40" fill="#fff" stroke="#000"/>
<rect x="350" y="1890" width="100" height="40" fill="#fff" stroke="#000"/>
<text x="400" y="1915">logAuthenticationFailure()</text>
<rect x="350" y="1970" width="100" height="40" rx="20" ry="20" fill="#fff" stroke="#000"/>
<text x="400" y="1995">throw AuthenticationError</text>
<rect x="350" y="2050" width="100" height="40" fill="#fff" stroke="#000"/>
<rect x="350" y="2130" width="100" height="40" fill="#fff" stroke="#000"/>
<text x="400" y="2155">logSecurityBypass()</text>
<rect x="350" y="2210" width="100" height="40" rx="20" ry="20" fill="#fff" stroke="#000"/>
<text x="400" y="2235">throw SecurityDisabledError</text>
<rect x="350" y="2290" width="100" height="40" fill="#fff" stroke="#000"/>
<rect x="350" y="2370" width="100" height="40" rx="20" ry="20" fill="#fff" stroke="#000"/>
<text x="400" y="2395">End</text>
<line x1="400" y1="90" x2="400" y2="130" stroke="#000"/>
<polygon points="400,130 396,122 404,122" fill="#000"/>
<line x1="400" y1="170" x2="400" y2="210" stroke="#000"/>
<polygon points="400,210 396,202 404,202" fill="#000"/>
<line x1="400" y1="250" x2="400" y2="290" stroke="#000"/>
<polygon points="400,290 396,282 404,282" fill="#000"/>
<text x="410" y="270">Yes</text>
<line x1="400" y1="330" x2="400" y2="370" stroke="#000"/>
<polygon points="400,370 396,362 404,362" fill="#000"/>
<line x1="400" y1="410" x2="400" y2="450" stroke="#000"/>
<polygon points="400,450 396,442 404,442" fill="#000"/>
<text x="410" y="430">Yes</text>
<line x1="400" y1="490" x2="400" y2="530" stroke="#000"/>
<polygon points="400,530 396,522 404,522" fill="#000"/>
<line x1="400" y1="570" x2="400" y2="610" stroke="#000"/>
<polygon points="400,610 396,602 404,602" fill="#000"/>
<text x="410" y="590">Yes</text>
<line x1="400" y1="650" x2="400" y2="690" stroke="#000"/>
<polygon points="400,690 396,682 404,682" fill="#000"/>
<line x1="400" y1="730" x2="400" y2="770" stroke="#000"/>
<polygon points="400,770 396,762 404,762" fill="#000"/>
<text x="410" y="750">Yes</text>
<line x1="400" y1="810" x2="400" y2="850" stroke="#000"/>
<polygon points="400,850 396,842 404,842" fill="#000"/>
<line x1="400" y1="890" x2="400" y2="930" stroke="#000"/>
<polygon points="400,930 396,922 404,922" fill="#000"/>
<text x="410" y="910">Yes</text>
<line x1="400" y1="970" x2="400" y2="1010" stroke="#000"/>
<polygon points="400,1010 396,1002 404,1002" fill="#000"/>
<line x1="400" y1="1050" x2="400" y2="1090" stroke="#000"/>
<polygon points="400,1090 396,1082 404,1082" fill="#000"/>
<line x1="400" y1="890" x2="400" y2="1170" stroke="#000"/>
<polygon points="400,1170 396,1162 403,1162" fill="#000"/>
<text x="410" y="1030">No</text>
<line x1="400" y1="1210" x2="400" y2="1250" stroke="#000"/>
<polygon points="400,1250 396,1242 404,1242" fill="#000"/>
<line x1="400" y1="730" x2="400" y2="1330" stroke="#000"/>
<polygon points="400,1330 396,1322 403,1322" fill="#000"/>
<text x="410" y="1030">No</text>
<line x1="400" y1="1370" x2="400" y2="1410" stroke="#000"/>
<polygon points="400,1410 396,1402 404,1402" fill="#000"/>
<line x1="400" y1="1450" x2="400" y2="1490" stroke="#000"/>
<polygon points="400,1490 396,1482 404,1482" fill="#000"/>
<line x1="400" y1="890" x2="400" y2="1570" stroke="#000"/>
<polygon points="400,1570 396,1562 403,1562" fill="#000"/>
<line x1="400" y1="570" x2="400" y2="1650" stroke="#000"/>
<polygon points="400,1650 397,1644 402,1644" fill="#000"/>
<text x="410" y="1110">No</text>
<line x1="400" y1="1690" x2="400" y2="1730" stroke="#000"/>
<polygon points="400,1730 396,1722 404,1722" fill="#000"/>
<line x1="400" y1="1610" x2="400" y2="1810" stroke="#000"/>
<polygon points="400,1810 396,1802 403,1802" fill="#000"/>
<line x1="400" y1="410" x2="400" y2="1890" stroke="#000"/>
<polygon points="400,1890 397,1885 402,1885" fill="#000"/>
<text x="410" y="1150">No</text>
<line x1="400" y1="1930" x2="400" y2="1970" stroke="#000"/>
<polygon points="400,1970 396,1962 404,1962" fill="#000"/>
<line x1="400" y1="1850" x2="400" y2="2050" stroke="#000"/>
<polygon points="400,2050 396,2042 403,2042" fill="#000"/>
<line x1="400" y1="250" x2="400" y2="2130" stroke="#000"/>
<polygon points="400,2130 398,2126 401,2126" fill="#000"/>
<text x="410" y="1190">No</text>
<line x1="400" y1="2170" x2="400" y2="2210" stroke="#000"/>
<polygon points="400,2210 396,2202 404,2202" fill="#000"/>
<line x1="400" y1="2090" x2="400" y2="2290" stroke="#000"/>
<polygon points="400,2290 396,2282 403,2282" fill="#000"/>
<line x1="400" y1="2330" x2="400" y2="2370" stroke="#000"/>
<polygon points="400,2370 396,2362 404,2362" fill="#000"/>
</svg>