<svg xmlns="http://www.w3.org/2000/svg" viewBox="0 0 800 600" width="800" height="600">
<rect x="60" y="50" width="80" height="40" fill="#fff" stroke="#000"/>
<text x="100" y="75">ComplexLoopService</text>
<line x1="100" y1="100" x2="100" y2="500" stroke="#000" class="dashed"/>
<rect x="210" y="50" width="80" height="40" fill="#fff" stroke="#000"/>
<text x="250" y="75">BatchProcessor</text>
<line x1="250" y1="100" x2="250" y2="500" class="dashed" stroke="#000"/>
<rect x="360" y="50" width="80" height="40" fill="#fff" stroke="#000"/>
<text x="400" y="75">ItemService</text>
<line x1="400" y1="100" x2="400" y2="500" stroke="#000" class="dashed"/>
<line x1="100" y1="120" x2="250" y2="120" stroke="#000"/>
<polygon points="250,120 242,123 242,116" fill="#000"/>
<text x="175" y="115">getItems</text>
<line x1="100" y1="160" x2="400" y2="160" stroke="#000"/>
<polygon points="400,160 392,163 392,156" fill="#000"/>
<text x="250" y="155">validate</text>
<line x1="100" y1="200" x2="400" y2="200" stroke="#000"/>
<polygon points="400,200 392,203 392,196" fill="#000"/>
<text x="250" y="195">process</text>
<rect x="50" y="230" width="700" height="20" stroke="#000" fill="none"/>
<text x="60" y="240">[alt] condition</text>
<rect x="50" y="230" width="700" height="20" stroke="#000" fill="none"/>
<text x="60" y="240">[loop] for item</text>
<line x1="100" y1="240" x2="400" y2="240" stroke="#000"/>
<polygon points="400,240 392,243 392,236" fill="#000"/>
<text x="250" y="235">retry</text>
<rect x="50" y="270" width="700" height="20" stroke="#000" fill="none"/>
<text x="60" y="280">[alt] condition</text>
<rect x="50" y="270" width="700" height="20" stroke="#000" fill="none"/>
<text x="60" y="280">[loop] for failedItem</text>
<rect x="50" y="270" width="700" height="20" stroke="#000" fill="none"/>
<text x="60" y="280">[loop] while</text>
<line x1="100" y1="280" x2="250" y2="280" stroke="#000"/>
<polygon points="250,280 242,283 242,276" fill="#000"/>
<text x="175" y="275">saveBatchResult</text>
<rect x="50" y="310" width="700" height="20" stroke="#000" fill="none"/>
<text x="60" y="320">[loop] for batch</text>
</svg>