<svg xmlns="http://www.w3.org/2000/svg" viewBox="0 0 800 600" width="800" height="600">
<rect x="60" y="50" width="80" height="40" fill="#fff" stroke="#000"/>
<text x="100" y="75">MultipleReturnsService</text>
<line x1="100" y1="100" x2="100" y2="500" stroke="#000" class="dashed"/>
<rect x="210" y="50" width="80" height="40" fill="#fff" stroke="#000"/>
<text x="250" y="75">CacheService</text>
<line x1="250" y1="100" x2="250" y2="500" stroke="#000" class="dashed"/>
<rect x="360" y="50" width="80" height="40" fill="#fff" stroke="#000"/>
<text x="400" y="75">DatabaseService</text>
<line x1="400" y1="100" x2="400" y2="500" stroke="#000" class="dashed"/>
<rect x="510" y="50" width="80" height="40" fill="#fff" stroke="#000"/>
<text x="550" y="75">ExternalApi</text>
<line x1="550" y1="100" x2="550" y2="500" stroke="#000" class="dashed"/>
<line x1="100" y1="120" x2="250" y2="120" stroke="#000"/>
<polygon points="250,120 242,123 242,116" fill="#000"/>
<text x="175" y="115">get</text>
<rect x="50" y="150" width="700" height="20" fill="none" stroke="#000"/>
<text x="60" y="160">[alt] condition</text>
<line x1="100" y1="160" x2="400" y2="160" stroke="#000"/>
<polygon points="400,160 392,163 392,156" fill="#000"/>
<text x="250" y="155">findLocal</text>
<line x1="100" y1="200" x2="250" y2="200" stroke="#000"/>
<polygon points="250,200 242,203 242,196" fill="#000"/>
<text x="175" y="195">set</text>
<rect x="50" y="230" width="700" height="20" stroke="#000" fill="none"/>
<text x="60" y="240">[alt] condition</text>
<line x1="100" y1="240" x2="400" y2="240" stroke="#000"/>
<polygon points="400,240 392,243 392,236" fill="#000"/>
<text x="250" y="235">findReplica</text>
<line x1="100" y1="280" x2="250" y2="280" stroke="#000"/>
<polygon points="250,280 242,283 242,276" fill="#000"/>
<text x="175" y="275">set</text>
<rect x="50" y="310" width="700" height="20" stroke="#000" fill="none"/>
<text x="60" y="320">[alt] condition</text>
<line x1="100" y1="320" x2="550" y2="320" stroke="#000"/>
<polygon points="550,320 542,323 542,316" fill="#000"/>
<text x="325" y="315">healthCheck</text>
<line x1="100" y1="360" x2="550" y2="360" stroke="#000"/>
<polygon points="550,360 542,363 542,356" fill="#000"/>
<text x="325" y="355">fetch</text>
<line x1="100" y1="400" x2="400" y2="400" stroke="#000"/>
<polygon points="400,400 392,403 392,396" fill="#000"/>
<text x="250" y="395">save</text>
<line x1="100" y1="440" x2="250" y2="440" stroke="#000"/>
<polygon points="250,440 242,443 242,436" fill="#000"/>
<text x="175" y="435">set</text>
<rect x="50" y="470" width="700" height="20" stroke="#000" fill="none"/>
<text x="60" y="480">[alt] condition</text>
<rect x="50" y="470" width="700" height="20" stroke="#000" fill="none"/>
<text x="60" y="480">[alt] condition</text>
<line x1="100" y1="480" x2="250" y2="480" stroke="#000"/>
<polygon points="250,480 242,483 242,476" fill="#000"/>
<text x="175" y="475">getStale</text>
<rect x="50" y="510" width="700" height="20" stroke="#000" fill="none"/>
<text x="60" y="520">[alt] condition</text>
</svg>