<svg xmlns="http://www.w3.org/2000/svg" viewBox="0 0 800 600" width="800" height="600">
<rect x="60" y="50" width="80" height="40" fill="#fff" stroke="#000"/>
<text x="100" y="75">ErrorHandlingService</text>
<line x1="100" y1="100" x2="100" y2="500" stroke="#000" class="dashed"/>
<rect x="210" y="50" width="80" height="40" fill="#fff" stroke="#000"/>
<text x="250" y="75">InputValidator</text>
<line x1="250" y1="100" x2="250" y2="500" stroke="#000" class="dashed"/>
<rect x="360" y="50" width="80" height="40" stroke="#000" fill="#fff"/>
<text x="400" y="75">ResourceManager</text>
<line x1="400" y1="100" x2="400" y2="500" stroke="#000" class="dashed"/>
<rect x="510" y="50" width="80" height="40" stroke="#000" fill="#fff"/>
<text x="550" y="75">NetworkClient</text>
<line x1="550" y1="100" x2="550" y2="500" stroke="#000" class="dashed"/>
<rect x="660" y="50" width="80" height="40" fill="#fff" stroke="#000"/>
<text x="700" y="75">DataProcessor</text>
<line x1="700" y1="100" x2="700" y2="500" stroke="#000" class="dashed"/>
<line x1="100" y1="120" x2="250" y2="120" stroke="#000"/>
<polygon points="250,120 242,123 242,116" fill="#000"/>
<text x="175" y="115">checkFormat</text>
<rect x="50" y="150" width="700" height="20" fill="none" stroke="#000"/>
<text x="60" y="160">[alt] condition</text>
<line x1="100" y1="160" x2="250" y2="160" stroke="#000"/>
<polygon points="250,160 242,163 242,156" fill="#000"/>
<text x="175" y="155">checkSize</text>
<rect x="50" y="190" width="700" height="20" fill="none" stroke="#000"/>
<text x="60" y="200">[alt] condition</text>
<line x1="100" y1="200" x2="400" y2="200" stroke="#000"/>
<polygon points="400,200 392,203 392,196" fill="#000"/>
<text x="250" y="195">checkAvailability</text>
<rect x="50" y="230" width="700" height="20" stroke="#000" fill="none"/>
<text x="60" y="240">[alt] condition</text>
<line x1="100" y1="240" x2="400" y2="240" stroke="#000"/>
<polygon points="400,240 392,243 392,236" fill="#000"/>
<text x="250" y="235">acquire</text>
<rect x="50" y="270" width="700" height="20" stroke="#000" fill="none"/>
<text x="60" y="280">[alt] condition</text>
<line x1="100" y1="280" x2="550" y2="280" stroke="#000"/>
<polygon points="550,280 542,283 542,276" fill="#000"/>
<text x="325" y="275">connect</text>
<line x1="100" y1="320" x2="400" y2="320" stroke="#000"/>
<polygon points="400,320 392,323 392,316" fill="#000"/>
<text x="250" y="315">release</text>
<rect x="50" y="350" width="700" height="20" fill="none" stroke="#000"/>
<text x="60" y="360">[alt] condition</text>
<line x1="100" y1="360" x2="550" y2="360" stroke="#000"/>
<polygon points="550,360 542,363 542,356" fill="#000"/>
<text x="325" y="355">send</text>
<line x1="100" y1="400" x2="550" y2="400" stroke="#000"/>
<polygon points="550,400 542,403 542,396" fill="#000"/>
<text x="325" y="395">disconnect</text>
<line x1="100" y1="440" x2="400" y2="440" stroke="#000"/>
<polygon points="400,440 392,443 392,436" fill="#000"/>
<text x="250" y="435">release</text>
<rect x="50" y="470" width="700" height="20" stroke="#000" fill="none"/>
<text x="60" y="480">[alt] condition</text>
<line x1="100" y1="480" x2="700" y2="480" stroke="#000"/>
<polygon points="700,480 692,483 692,476" fill="#000"/>
<text x="400" y="475">process</text>
<line x1="100" y1="520" x2="550" y2="520" stroke="#000"/>
<polygon points="550,520 542,523 542,516" fill="#000"/>
<text x="325" y="515">disconnect</text>
<line x1="100" y1="560" x2="400" y2="560" stroke="#000"/>
<polygon points="400,560 392,563 392,556" fill="#000"/>
<text x="250" y="555">release</text>
<rect x="50" y="590" width="700" height="20" stroke="#000" fill="none"/>
<text x="60" y="600">[alt] condition</text>
<line x1="100" y1="600" x2="700" y2="600" stroke="#000"/>
<polygon points="700,600 692,603 692,596" fill="#000"/>
<text x="400" y="595">validate</text>
<line x1="100" y1="640" x2="550" y2="640" stroke="#000"/>
<polygon points="550,640 542,643 542,636" fill="#000"/>
<text x="325" y="635">disconnect</text>
<line x1="100" y1="680" x2="400" y2="680" stroke="#000"/>
<polygon points="400,680 392,683 392,676" fill="#000"/>
<text x="250" y="675">release</text>
<rect x="50" y="710" width="700" height="20" fill="none" stroke="#000"/>
<text x="60" y="720">[alt] condition</text>
<line x1="100" y1="720" x2="550" y2="720" stroke="#000"/>
<polygon points="550,720 542,723 542,716" fill="#000"/>
<text x="325" y="715">disconnect</text>
<line x1="100" y1="760" x2="400" y2="760" stroke="#000"/>
<polygon points="400,760 392,763 392,756" fill="#000"/>
<text x="250" y="755">release</text>
</svg>