<svg xmlns="http://www.w3.org/2000/svg" viewBox="0 0 800 2980" width="800" height="2980">
<rect x="350" y="50" width="100" height="40" rx="20" ry="20" fill="#fff" stroke="#000"/>
<text x="400" y="75">Start</text>
<rect x="350" y="130" width="100" height="40" fill="#fff" stroke="#000"/>
<text x="400" y="155">formatValid = ...</text>
<polygon points="400,210 440,230 400,250 360,230" fill="#fff" stroke="#000"/>
<text x="400" y="235">condition?</text>
<rect x="350" y="290" width="100" height="40" rx="20" ry="20" fill="#fff" stroke="#000"/>
<text x="400" y="315">throw InvalidFormatError</text>
<rect x="350" y="370" width="100" height="40" fill="#fff" stroke="#000"/>
<text x="400" y="395">sizeValid = ...</text>
<polygon points="400,450 440,470 400,490 360,470" fill="#fff" stroke="#000"/>
<text x="400" y="475">condition?</text>
<rect x="350" y="530" width="100" height="40" rx="20" ry="20" fill="#fff" stroke="#000"/>
<text x="400" y="555">throw SizeLimitExceededError</text>
<rect x="350" y="610" width="100" height="40" fill="#fff" stroke="#000"/>
<text x="400" y="635">resourceAvailable = ...</text>
<polygon points="400,690 440,710 400,730 360,710" fill="#fff" stroke="#000"/>
<text x="400" y="715">condition?</text>
<rect x="350" y="770" width="100" height="40" rx="20" ry="20" stroke="#000" fill="#fff"/>
<text x="400" y="795">throw ResourceUnavailableError</text>
<rect x="350" y="850" width="100" height="40" fill="#fff" stroke="#000"/>
<text x="400" y="875">resource = ...</text>
<polygon points="400,930 440,950 400,970 360,950" fill="#fff" stroke="#000"/>
<text x="400" y="955">condition?</text>
<rect x="350" y="1010" width="100" height="40" rx="20" ry="20" fill="#fff" stroke="#000"/>
<text x="400" y="1035">throw ResourceTimeoutError</text>
<rect x="350" y="1090" width="100" height="40" fill="#fff" stroke="#000"/>
<text x="400" y="1115">connection = ...</text>
<polygon points="400,1170 440,1190 400,1210 360,1190" fill="#fff" stroke="#000"/>
<text x="400" y="1195">condition?</text>
<rect x="350" y="1250" width="100" height="40" fill="#fff" stroke="#000"/>
<text x="400" y="1275">release()</text>
<rect x="350" y="1330" width="100" height="40" rx="20" ry="20" fill="#fff" stroke="#000"/>
<text x="400" y="1355">throw NetworkConnectionError</text>
<rect x="350" y="1410" width="100" height="40" fill="#fff" stroke="#000"/>
<text x="400" y="1435">response = ...</text>
<polygon points="400,1490 440,1510 400,1530 360,1510" fill="#fff" stroke="#000"/>
<text x="400" y="1515">condition?</text>
<rect x="350" y="1570" width="100" height="40" fill="#fff" stroke="#000"/>
<text x="400" y="1595">disconnect()</text>
<rect x="350" y="1650" width="100" height="40" stroke="#000" fill="#fff"/>
<text x="400" y="1675">release()</text>
<rect x="350" y="1730" width="100" height="40" rx="20" ry="20" fill="#fff" stroke="#000"/>
<text x="400" y="1755">throw NetworkSendError</text>
<rect x="350" y="1810" width="100" height="40" fill="#fff" stroke="#000"/>
<text x="400" y="1835">processed = ...</text>
<polygon points="400,1890 440,1910 400,1930 360,1910" fill="#fff" stroke="#000"/>
<text x="400" y="1915">condition?</text>
<rect x="350" y="1970" width="100" height="40" fill="#fff" stroke="#000"/>
<text x="400" y="1995">disconnect()</text>
<rect x="350" y="2050" width="100" height="40" stroke="#000" fill="#fff"/>
<text x="400" y="2075">release()</text>
<rect x="350" y="2130" width="100" height="40" rx="20" ry="20" stroke="#000" fill="#fff"/>
<text x="400" y="2155">throw DataProcessingError</text>
<rect x="350" y="2210" width="100" height="40" fill="#fff" stroke="#000"/>
<text x="400" y="2235">resultValid = ...</text>
<polygon points="400,2290 440,2310 400,2330 360,2310" fill="#fff" stroke="#000"/>
<text x="400" y="2315">condition?</text>
<rect x="350" y="2370" width="100" height="40" fill="#fff" stroke="#000"/>
<text x="400" y="2395">disconnect()</text>
<rect x="350" y="2450" width="100" height="40" fill="#fff" stroke="#000"/>
<text x="400" y="2475">release()</text>
<rect x="350" y="2530" width="100" height="40" rx="20" ry="20" fill="#fff" stroke="#000"/>
<text x="400" y="2555">throw ResultValidationError</text>
<rect x="350" y="2610" width="100" height="40" fill="#fff" stroke="#000"/>
<text x="400" y="2635">disconnect()</text>
<rect x="350" y="2690" width="100" height="40" fill="#fff" stroke="#000"/>
<text x="400" y="2715">release()</text>
<rect x="350" y="2770" width="100" height="40" rx="20" ry="20" fill="#fff" stroke="#000"/>
<text x="400" y="2795">return</text>
<rect x="350" y="2850" width="100" height="40" rx="20" ry="20" fill="#fff" stroke="#000"/>
<text x="400" y="2875">End</text>
<line x1="400" y1="90" x2="400" y2="130" stroke="#000"/>
<polygon points="400,130 396,122 404,122" fill="#000"/>
<line x1="400" y1="170" x2="400" y2="210" stroke="#000"/>
<polygon points="400,210 396,202 404,202" fill="#000"/>
<line x1="400" y1="250" x2="400" y2="290" stroke="#000"/>
<polygon points="400,290 396,282 404,282" fill="#000"/>
<line x1="400" y1="250" x2="400" y2="370" stroke="#000"/>
<polygon points="400,370 396,362 403,362" fill="#000"/>
<line x1="400" y1="410" x2="400" y2="450" stroke="#000"/>
<polygon points="400,450 396,442 404,442" fill="#000"/>
<line x1="400" y1="490" x2="400" y2="530" stroke="#000"/>
<polygon points="400,530 396,522 404,522" fill="#000"/>
<line x1="400" y1="490" x2="400" y2="610" stroke="#000"/>
<polygon points="400,610 396,602 403,602" fill="#000"/>
<line x1="400" y1="650" x2="400" y2="690" stroke="#000"/>
<polygon points="400,690 396,682 404,682" fill="#000"/>
<line x1="400" y1="730" x2="400" y2="770" stroke="#000"/>
<polygon points="400,770 396,762 404,762" fill="#000"/>
<line x1="400" y1="730" x2="400" y2="850" stroke="#000"/>
<polygon points="400,850 396,842 403,842" fill="#000"/>
<line x1="400" y1="890" x2="400" y2="930" stroke="#000"/>
<polygon points="400,930 396,922 404,922" fill="#000"/>
<line x1="400" y1="970" x2="400" y2="1010" stroke="#000"/>
<polygon points="400,1010 396,1002 404,1002" fill="#000"/>
<line x1="400" y1="970" x2="400" y2="1090" stroke="#000"/>
<polygon points="400,1090 396,1082 403,1082" fill="#000"/>
<line x1="400" y1="1130" x2="400" y2="1170" stroke="#000"/>
<polygon points="400,1170 396,1162 404,1162" fill="#000"/>
<line x1="400" y1="1210" x2="400" y2="1250" stroke="#000"/>
<polygon points="400,1250 396,1242 404,1242" fill="#000"/>
<text x="410" y="1230">Yes</text>
<line x1="400" y1="1290" x2="400" y2="1330" stroke="#000"/>
<polygon points="400,1330 396,1322 404,1322" fill="#000"/>
<line x1="400" y1="1210" x2="400" y2="1410" stroke="#000"/>
<polygon points="400,1410 396,1402 403,1402" fill="#000"/>
<line x1="400" y1="1450" x2="400" y2="1490" stroke="#000"/>
<polygon points="400,1490 396,1482 404,1482" fill="#000"/>
<line x1="400" y1="1530" x2="400" y2="1570" stroke="#000"/>
<polygon points="400,1570 396,1562 404,1562" fill="#000"/>
<text x="410" y="1550">Yes</text>
<line x1="400" y1="1610" x2="400" y2="1650" stroke="#000"/>
<polygon points="400,1650 396,1642 404,1642" fill="#000"/>
<line x1="400" y1="1690" x2="400" y2="1730" stroke="#000"/>
<polygon points="400,1730 396,1722 404,1722" fill="#000"/>
<line x1="400" y1="1530" x2="400" y2="1810" stroke="#000"/>
<polygon points="400,1810 396,1802 403,1802" fill="#000"/>
<line x1="400" y1="1850" x2="400" y2="1890" stroke="#000"/>
<polygon points="400,1890 396,1882 404,1882" fill="#000"/>
<line x1="400" y1="1930" x2="400" y2="1970" stroke="#000"/>
<polygon points="400,1970 396,1962 404,1962" fill="#000"/>
<text x="410" y="1950">Yes</text>
<line x1="400" y1="2010" x2="400" y2="2050" stroke="#000"/>
<polygon points="400,2050 396,2042 404,2042" fill="#000"/>
<line x1="400" y1="2090" x2="400" y2="2130" stroke="#000"/>
<polygon points="400,2130 396,2122 404,2122" fill="#000"/>
<line x1="400" y1="1930" x2="400" y2="2210" stroke="#000"/>
<polygon points="400,2210 396,2202 403,2202" fill="#000"/>
<line x1="400" y1="2250" x2="400" y2="2290" stroke="#000"/>
<polygon points="400,2290 396,2282 404,2282" fill="#000"/>
<line x1="400" y1="2330" x2="400" y2="2370" stroke="#000"/>
<polygon points="400,2370 396,2362 404,2362" fill="#000"/>
<text x="410" y="2350">Yes</text>
<line x1="400" y1="2410" x2="400" y2="2450" stroke="#000"/>
<polygon points="400,2450 396,2442 404,2442" fill="#000"/>
<line x1="400" y1="2490" x2="400" y2="2530" stroke="#000"/>
<polygon points="400,2530 396,2522 404,2522" fill="#000"/>
<line x1="400" y1="2330" x2="400" y2="2610" stroke="#000"/>
<polygon points="400,2610 396,2602 403,2602" fill="#000"/>
<line x1="400" y1="2650" x2="400" y2="2690" stroke="#000"/>
<polygon points="400,2690 396,2682 404,2682" fill="#000"/>
<line x1="400" y1="2730" x2="400" y2="2770" stroke="#000"/>
<polygon points="400,2770 396,2762 404,2762" fill="#000"/>
</svg>