<svg xmlns="http://www.w3.org/2000/svg" viewBox="0 0 800 600" width="800" height="600">
<rect x="60" y="50" width="80" height="40" fill="#fff" stroke="#000"/>
<text x="100" y="75">CheckoutService</text>
<line x1="100" y1="100" x2="100" y2="500" stroke="#000" class="dashed"/>
<rect x="210" y="50" width="80" height="40" fill="#fff" stroke="#000"/>
<text x="250" y="75">CartService</text>
<line x1="250" y1="100" x2="250" y2="500" stroke="#000" class="dashed"/>
<rect x="360" y="50" width="80" height="40" fill="#fff" stroke="#000"/>
<text x="400" y="75">InventoryService</text>
<line x1="400" y1="100" x2="400" y2="500" stroke="#000" class="dashed"/>
<rect x="510" y="50" width="80" height="40" fill="#fff" stroke="#000"/>
<text x="550" y="75">PricingService</text>
<line x1="550" y1="100" x2="550" y2="500" stroke="#000" class="dashed"/>
<rect x="660" y="50" width="80" height="40" fill="#fff" stroke="#000"/>
<text x="700" y="75">PaymentService</text>
<line x1="700" y1="100" x2="700" y2="500" stroke="#000" class="dashed"/>
<rect x="810" y="50" width="80" height="40" fill="#fff" stroke="#000"/>
<text x="850" y="75">OrderService</text>
<line x1="850" y1="100" x2="850" y2="500" stroke="#000" class="dashed"/>
<rect x="960" y="50" width="80" height="40" fill="#fff" stroke="#000"/>
<text x="1000" y="75">NotificationService</text>
<line x1="1000" y1="100" x2="1000" y2="500" stroke="#000" class="dashed"/>
<rect x="1110" y="50" width="80" height="40" fill="#fff" stroke="#000"/>
<text x="1150" y="75">FraudService</text>
<line x1="1150" y1="100" x2="1150" y2="500" stroke="#000" class="dashed"/>
<line x1="100" y1="120" x2="250" y2="120" stroke="#000"/>
<polygon points="250,120 242,123 242,116" fill="#000"/>
<text x="175" y="115">getCart</text>
<rect x="50" y="150" width="700" height="20" stroke="#000" fill="none"/>
<text x="60" y="160">[alt] condition</text>
<line x1="100" y1="160" x2="250" y2="160" stroke="#000"/>
<polygon points="250,160 242,163 242,156" fill="#000"/>
<text x="175" y="155">validate</text>
<line x1="100" y1="200" x2="250" y2="200" stroke="#000"/>
<polygon points="250,200 242,203 242,196" fill="#000"/>
<text x="175" y="195">getValidationErrors</text>
<rect x="50" y="230" width="700" height="20" stroke="#000" fill="none"/>
<text x="60" y="240">[alt] condition</text>
<line x1="100" y1="240" x2="400" y2="240" stroke="#000"/>
<polygon points="400,240 392,243 392,236" fill="#000"/>
<text x="250" y="235">checkStock</text>
<line x1="100" y1="280" x2="1000" y2="280" stroke="#000"/>
<polygon points="1000,280 993,283 993,276" fill="#000"/>
<text x="550" y="275">sendOutOfStockAlert</text>
<rect x="50" y="310" width="700" height="20" fill="none" stroke="#000"/>
<text x="60" y="320">[alt] condition</text>
<rect x="50" y="310" width="700" height="20" fill="none" stroke="#000"/>
<text x="60" y="320">[loop] for item</text>
<line x1="100" y1="320" x2="550" y2="320" stroke="#000"/>
<polygon points="550,320 542,323 542,316" fill="#000"/>
<text x="325" y="315">calculateSubtotal</text>
<line x1="100" y1="360" x2="550" y2="360" stroke="#000"/>
<polygon points="550,360 542,363 542,356" fill="#000"/>
<text x="325" y="355">applyDiscounts</text>
<line x1="100" y1="400" x2="550" y2="400" stroke="#000"/>
<polygon points="550,400 542,403 542,396" fill="#000"/>
<text x="325" y="395">calculateTaxes</text>
<line x1="100" y1="440" x2="550" y2="440" stroke="#000"/>
<polygon points="550,440 542,443 542,436" fill="#000"/>
<text x="325" y="435">calculateShipping</text>
<line x1="100" y1="480" x2="550" y2="480" stroke="#000"/>
<polygon points="550,480 542,483 542,476" fill="#000"/>
<text x="325" y="475">calculateTotal</text>
<line x1="100" y1="520" x2="1150" y2="520" stroke="#000"/>
<polygon points="1150,520 1143,523 1143,516" fill="#000"/>
<text x="625" y="515">analyze</text>
<line x1="100" y1="560" x2="1150" y2="560" stroke="#000"/>
<polygon points="1150,560 1143,563 1143,556" fill="#000"/>
<text x="625" y="555">flagTransaction</text>
<line x1="100" y1="600" x2="1000" y2="600" stroke="#000"/>
<polygon points="1000,600 993,603 993,596" fill="#000"/>
<text x="550" y="595">sendFraudAlert</text>
<rect x="50" y="630" width="700" height="20" stroke="#000" fill="none"/>
<text x="60" y="640">[alt] condition</text>
<line x1="100" y1="640" x2="400" y2="640" stroke="#000"/>
<polygon points="400,640 392,643 392,636" fill="#000"/>
<text x="250" y="635">reserve</text>
<line x1="100" y1="680" x2="400" y2="680" stroke="#000"/>
<polygon points="400,680 392,683 392,676" fill="#000"/>
<text x="250" y="675">releaseAllReservations</text>
<rect x="50" y="710" width="700" height="20" stroke="#000" fill="none"/>
<text x="60" y="720">[alt] condition</text>
<rect x="50" y="710" width="700" height="20" stroke="#000" fill="none"/>
<text x="60" y="720">[loop] for item</text>
<line x1="100" y1="720" x2="700" y2="720" stroke="#000"/>
<polygon points="700,720 692,723 692,716" fill="#000"/>
<text x="400" y="715">authorize</text>
<line x1="100" y1="760" x2="400" y2="760" stroke="#000"/>
<polygon points="400,760 392,763 392,756" fill="#000"/>
<text x="250" y="755">releaseAllReservations</text>
<rect x="50" y="790" width="700" height="20" stroke="#000" fill="none"/>
<text x="60" y="800">[alt] condition</text>
<line x1="100" y1="800" x2="700" y2="800" stroke="#000"/>
<polygon points="700,800 692,803 692,796" fill="#000"/>
<text x="400" y="795">capture</text>
<line x1="100" y1="840" x2="700" y2="840" stroke="#000"/>
<polygon points="700,840 692,843 692,836" fill="#000"/>
<text x="400" y="835">voidAuthorization</text>
<line x1="100" y1="880" x2="400" y2="880" stroke="#000"/>
<polygon points="400,880 392,883 392,876" fill="#000"/>
<text x="250" y="875">releaseAllReservations</text>
<rect x="50" y="910" width="700" height="20" fill="none" stroke="#000"/>
<text x="60" y="920">[alt] condition</text>
<line x1="100" y1="920" x2="850" y2="920" stroke="#000"/>
<polygon points="850,920 842,923 842,916" fill="#000"/>
<text x="475" y="915">create</text>
<line x1="100" y1="960" x2="700" y2="960" stroke="#000"/>
<polygon points="700,960 692,963 692,956" fill="#000"/>
<text x="400" y="955">refund</text>
<line x1="100" y1="1000" x2="400" y2="1000" stroke="#000"/>
<polygon points="400,1000 392,1003 392,996" fill="#000"/>
<text x="250" y="995">releaseAllReservations</text>
<rect x="50" y="1030" width="700" height="20" stroke="#000" fill="none"/>
<text x="60" y="1040">[alt] condition</text>
<line x1="100" y1="1040" x2="400" y2="1040" stroke="#000"/>
<polygon points="400,1040 392,1043 392,1036" fill="#000"/>
<text x="250" y="1035">commitReservation</text>
<rect x="50" y="1070" width="700" height="20" stroke="#000" fill="none"/>
<text x="60" y="1080">[loop] for item</text>
<line x1="100" y1="1080" x2="250" y2="1080" stroke="#000"/>
<polygon points="250,1080 242,1083 242,1076" fill="#000"/>
<text x="175" y="1075">clear</text>
<line x1="100" y1="1120" x2="1000" y2="1120" stroke="#000"/>
<polygon points="1000,1120 993,1123 993,1116" fill="#000"/>
<text x="550" y="1115">sendOrderConfirmation</text>
<line x1="100" y1="1160" x2="1000" y2="1160" stroke="#000"/>
<polygon points="1000,1160 993,1163 993,1156" fill="#000"/>
<text x="550" y="1155">sendReceipt</text>
</svg>