<svg xmlns="http://www.w3.org/2000/svg" viewBox="0 0 800 600" width="800" height="600">
<rect x="50" y="50" width="200" height="140" fill="#fff" stroke="#000" stroke-width="1"/>
<text x="150" y="70">&lt;&lt;component&gt;&gt;</text>
<text x="150" y="90">PaymentService</text>
<line x1="50" y1="105" x2="250" y2="105" stroke="#000"/>
<text x="60" y="115">+ processPayment()</text>
<text x="60" y="135">+ refund()</text>
<text x="60" y="155">+ validateCard()</text>
<text x="60" y="175">+ transferFunds()</text>
<rect x="300" y="50" width="200" height="100" stroke="#000" stroke-width="1" fill="#fff"/>
<text x="400" y="70">PaymentError</text>
<line x1="300" y1="85" x2="500" y2="85" stroke="#000"/>
<text x="310" y="95">+ code: string</text>
<text x="310" y="115">+ message: string</text>
<rect x="550" y="50" width="200" height="100" fill="#fff" stroke="#000" stroke-width="1"/>
<text x="650" y="70">&lt;&lt;interface&gt;&gt;</text>
<text x="650" y="90">Logging</text>
<line x1="550" y1="105" x2="750" y2="105" stroke="#000"/>
<text x="560" y="115">+ log()</text>
<text x="560" y="135">+ logError()</text>
<line x1="150" y1="100" x2="0" y2="50" class="dashed" stroke="#000"/>
<line x1="150" y1="100" x2="0" y2="50" stroke="#000" class="dashed"/>
</svg>