<svg xmlns="http://www.w3.org/2000/svg" viewBox="0 0 800 1300" width="800" height="1300">
<rect x="350" y="50" width="100" height="40" rx="20" ry="20" fill="#fff" stroke="#000"/>
<text x="400" y="75">Start</text>
<polygon points="400,130 440,150 400,170 360,150" stroke="#000" fill="#fff"/>
<text x="400" y="155">for item</text>
<rect x="350" y="210" width="100" height="40" fill="#fff" stroke="#000"/>
<text x="400" y="235">process()</text>
<rect x="350" y="290" width="100" height="40" fill="#fff" stroke="#000"/>
<text x="400" y="315">total = ...</text>
<polygon points="400,370 440,390 400,410 360,390" fill="#fff" stroke="#000"/>
<text x="400" y="395">for value</text>
<rect x="350" y="450" width="100" height="40" fill="#fff" stroke="#000"/>
<text x="400" y="475">total = ...</text>
<polygon points="400,530 440,550 400,570 360,550" fill="#fff" stroke="#000"/>
<text x="400" y="555">for row</text>
<polygon points="400,610 440,630 400,650 360,630" fill="#fff" stroke="#000"/>
<text x="400" y="635">for cell</text>
<rect x="350" y="690" width="100" height="40" fill="#fff" stroke="#000"/>
<text x="400" y="715">processCell()</text>
<polygon points="400,770 440,790 400,810 360,790" fill="#fff" stroke="#000"/>
<text x="400" y="795">for user</text>
<polygon points="400,850 440,870 400,890 360,870" fill="#fff" stroke="#000"/>
<text x="400" y="875">condition?</text>
<rect x="350" y="930" width="100" height="40" fill="#fff" stroke="#000"/>
<text x="400" y="955">processActiveUser()</text>
<rect x="350" y="1010" width="100" height="40" fill="#fff" stroke="#000"/>
<rect x="350" y="1090" width="100" height="40" rx="20" ry="20" fill="#fff" stroke="#000"/>
<text x="400" y="1115">return</text>
<rect x="350" y="1170" width="100" height="40" rx="20" ry="20" stroke="#000" fill="#fff"/>
<text x="400" y="1195">End</text>
<line x1="400" y1="90" x2="400" y2="130" stroke="#000"/>
<polygon points="400,130 396,122 404,122" fill="#000"/>
<line x1="400" y1="170" x2="400" y2="210" stroke="#000"/>
<polygon points="400,210 396,202 404,202" fill="#000"/>
<line x1="400" y1="250" x2="400" y2="130" stroke="#000"/>
<polygon points="400,130 403,137 396,137" fill="#000"/>
<line x1="400" y1="170" x2="400" y2="290" stroke="#000"/>
<polygon points="400,290 396,282 403,282" fill="#000"/>
<line x1="400" y1="330" x2="400" y2="370" stroke="#000"/>
<polygon points="400,370 396,362 404,362" fill="#000"/>
<line x1="400" y1="410" x2="400" y2="450" stroke="#000"/>
<polygon points="400,450 396,442 404,442" fill="#000"/>
<line x1="400" y1="490" x2="400" y2="370" stroke="#000"/>
<polygon points="400,370 403,377 396,377" fill="#000"/>
<line x1="400" y1="410" x2="400" y2="530" stroke="#000"/>
<polygon points="400,530 396,522 403,522" fill="#000"/>
<line x1="400" y1="570" x2="400" y2="610" stroke="#000"/>
<polygon points="400,610 396,602 404,602" fill="#000"/>
<line x1="400" y1="650" x2="400" y2="690" stroke="#000"/>
<polygon points="400,690 396,682 404,682" fill="#000"/>
<line x1="400" y1="730" x2="400" y2="610" stroke="#000"/>
<polygon points="400,610 403,617 396,617" fill="#000"/>
<line x1="400" y1="650" x2="400" y2="530" stroke="#000"/>
<polygon points="400,530 403,537 396,537" fill="#000"/>
<line x1="400" y1="570" x2="400" y2="770" stroke="#000"/>
<polygon points="400,770 396,762 403,762" fill="#000"/>
<line x1="400" y1="810" x2="400" y2="850" stroke="#000"/>
<polygon points="400,850 396,842 404,842" fill="#000"/>
<line x1="400" y1="890" x2="400" y2="930" stroke="#000"/>
<polygon points="400,930 396,922 404,922" fill="#000"/>
<text x="410" y="910">Yes</text>
<line x1="400" y1="970" x2="400" y2="1010" stroke="#000"/>
<polygon points="400,1010 396,1002 404,1002" fill="#000"/>
<line x1="400" y1="890" x2="400" y2="1010" stroke="#000"/>
<polygon points="400,1010 396,1002 403,1002" fill="#000"/>
<text x="410" y="950">No</text>
<line x1="400" y1="1050" x2="400" y2="770" stroke="#000"/>
<polygon points="400,770 403,777 396,777" fill="#000"/>
<line x1="400" y1="810" x2="400" y2="1090" stroke="#000"/>
<polygon points="400,1090 396,1082 403,1082" fill="#000"/>
</svg>