<svg xmlns="http://www.w3.org/2000/svg" viewBox="0 0 800 1220" width="800" height="1220">
<defs>
<style>text { font-family: -apple-system, "Segoe UI", "Helvetica Neue", Arial, sans-serif; }</style>
<filter id="drop-shadow" x="-5%" y="-5%" width="115%" height="115%"><feGaussianBlur in="SourceAlpha" stdDeviation="2" result="blur"/><feOffset in="blur" dx="1" dy="2" result="offsetBlur"/><feComponentTransfer in="offsetBlur" result="shadow"><feFuncA type="linear" slope="0.12"/></feComponentTransfer><feMerge><feMergeNode in="shadow"/><feMergeNode in="SourceGraphic"/></feMerge></filter>
<symbol id="actor" viewBox="0 0 40 70" preserveAspectRatio="none"><circle cx="20" cy="10" r="10" fill="#fafbfc" stroke="#2d3748" stroke-width="1.5"/><line x1="20" y1="20" x2="20" y2="45" stroke="#2d3748" stroke-width="1.5"/><line x1="5" y1="30" x2="35" y2="30" stroke="#2d3748" stroke-width="1.5"/><line x1="20" y1="45" x2="5" y2="65" stroke="#2d3748" stroke-width="1.5"/><line x1="20" y1="45" x2="35" y2="65" stroke="#2d3748" stroke-width="1.5"/></symbol>
<symbol id="initial-state" viewBox="0 0 20 20" preserveAspectRatio="none"><circle cx="10" cy="10" r="10" fill="#1a202c"/></symbol>
<symbol id="final-state" viewBox="0 0 24 24" preserveAspectRatio="none"><circle cx="12" cy="12" r="12" fill="none" stroke="#2d3748" stroke-width="2"/><circle cx="12" cy="12" r="8" fill="#1a202c"/></symbol>
</defs>
<rect x="350" y="50" width="100" height="40" rx="20" ry="20" fill="#fafbfc" stroke="#2d3748" stroke-width="2" filter="url(#drop-shadow)"/>
<text x="400" y="75" text-anchor="middle" fill="#1a202c">Start</text>
<rect x="234" y="130" width="332" height="40" fill="#fafbfc" stroke="#2d3748" stroke-width="2" filter="url(#drop-shadow)"/>
<text x="400" y="155" text-anchor="middle" fill="#1a202c">credentials = self.getCredentials(request)</text>
<rect x="234" y="210" width="332" height="40" stroke="#2d3748" stroke-width="2" filter="url(#drop-shadow)" fill="#fafbfc"/>
<text x="400" y="235" text-anchor="middle" fill="#1a202c">user = self.findUser(credentials.username)</text>
<polygon points="400,290 451,310 400,330 349,310" fill="#fafbfc" stroke="#2d3748" stroke-width="2" filter="url(#drop-shadow)"/>
<text x="400" y="315" text-anchor="middle" fill="#1a202c">condition?</text>
<rect x="180" y="370" width="440" height="40" stroke-width="2" filter="url(#drop-shadow)" fill="#fafbfc" stroke="#2d3748"/>
<text x="400" y="395" text-anchor="middle" fill="#1a202c">valid = self.validatePassword(user, credentials.password)</text>
<polygon points="400,450 451,470 400,490 349,470" fill="#fafbfc" stroke="#2d3748" stroke-width="2" filter="url(#drop-shadow)"/>
<text x="400" y="475" text-anchor="middle" fill="#1a202c">condition?</text>
<rect x="270" y="530" width="260" height="40" fill="#fafbfc" stroke="#2d3748" stroke-width="2" filter="url(#drop-shadow)"/>
<text x="400" y="555" text-anchor="middle" fill="#1a202c">token = self.generateToken(user)</text>
<rect x="252" y="610" width="296" height="40" fill="#fafbfc" stroke="#2d3748" stroke-width="2" filter="url(#drop-shadow)"/>
<text x="400" y="635" text-anchor="middle" fill="#1a202c">result = self.createAuthResult(token)</text>
<rect x="350" y="690" width="100" height="40" rx="20" ry="20" fill="#fafbfc" stroke="#2d3748" stroke-width="2" filter="url(#drop-shadow)"/>
<text x="400" y="715" text-anchor="middle" fill="#1a202c">return</text>
<rect x="292" y="770" width="217" height="40" rx="20" ry="20" fill="#fafbfc" stroke="#2d3748" stroke-width="2" filter="url(#drop-shadow)"/>
<text x="400" y="795" text-anchor="middle" fill="#1a202c">throw InvalidPasswordError</text>
<rect x="350" y="850" width="100" height="40" fill="#fafbfc" stroke="#2d3748" stroke-width="2" filter="url(#drop-shadow)"/>
<rect x="303" y="930" width="195" height="40" rx="20" ry="20" stroke="#2d3748" stroke-width="2" filter="url(#drop-shadow)" fill="#fafbfc"/>
<text x="400" y="955" text-anchor="middle" fill="#1a202c">throw UserNotFoundError</text>
<rect x="350" y="1010" width="100" height="40" fill="#fafbfc" stroke="#2d3748" stroke-width="2" filter="url(#drop-shadow)"/>
<rect x="350" y="1090" width="100" height="40" rx="20" ry="20" stroke-width="2" filter="url(#drop-shadow)" fill="#fafbfc" stroke="#2d3748"/>
<text x="400" y="1115" fill="#1a202c" text-anchor="middle">End</text>
<line x1="400" y1="90" x2="400" y2="130" stroke="#2d3748"/>
<polygon points="400,130 396,122 404,122" fill="#000"/>
<line x1="400" y1="170" x2="400" y2="210" stroke="#2d3748"/>
<polygon points="400,210 396,202 404,202" fill="#000"/>
<line x1="400" y1="250" x2="400" y2="290" stroke="#2d3748"/>
<polygon points="400,290 396,282 404,282" fill="#000"/>
<line x1="400" y1="330" x2="400" y2="370" stroke="#2d3748"/>
<polygon points="400,370 396,362 404,362" fill="#000"/>
<text x="410" y="350" fill="#4a5568">Yes</text>
<line x1="400" y1="410" x2="400" y2="450" stroke="#2d3748"/>
<polygon points="400,450 396,442 404,442" fill="#000"/>
<line x1="400" y1="490" x2="400" y2="530" stroke="#2d3748"/>
<polygon points="400,530 396,522 404,522" fill="#000"/>
<text x="410" y="510" fill="#4a5568">Yes</text>
<line x1="400" y1="570" x2="400" y2="610" stroke="#2d3748"/>
<polygon points="400,610 396,602 404,602" fill="#000"/>
<line x1="400" y1="650" x2="400" y2="690" stroke="#2d3748"/>
<polygon points="400,690 396,682 404,682" fill="#000"/>
<line x1="400" y1="490" x2="400" y2="770" stroke="#2d3748"/>
<polygon points="400,770 396,762 403,762" fill="#000"/>
<line x1="400" y1="730" x2="400" y2="850" stroke="#2d3748"/>
<polygon points="400,850 396,842 403,842" fill="#000"/>
<line x1="400" y1="330" x2="400" y2="930" stroke="#2d3748"/>
<polygon points="400,930 396,922 403,922" fill="#000"/>
<line x1="400" y1="890" x2="400" y2="1010" stroke="#2d3748"/>
<polygon points="400,1010 396,1002 403,1002" fill="#000"/>
<line x1="400" y1="1050" x2="400" y2="1090" stroke="#2d3748"/>
<polygon points="400,1090 396,1082 404,1082" fill="#000"/>
</svg>