<svg xmlns="http://www.w3.org/2000/svg" viewBox="0 0 800 600" width="800" height="600">
<defs>
<style>text { font-family: -apple-system, "Segoe UI", "Helvetica Neue", Arial, sans-serif; }</style>
<filter id="drop-shadow" x="-5%" y="-5%" width="115%" height="115%"><feGaussianBlur in="SourceAlpha" stdDeviation="2" result="blur"/><feOffset in="blur" dx="1" dy="2" result="offsetBlur"/><feComponentTransfer in="offsetBlur" result="shadow"><feFuncA type="linear" slope="0.12"/></feComponentTransfer><feMerge><feMergeNode in="shadow"/><feMergeNode in="SourceGraphic"/></feMerge></filter>
<symbol id="actor" viewBox="0 0 40 70" preserveAspectRatio="none"><circle cx="20" cy="10" r="10" fill="#fafbfc" stroke="#2d3748" stroke-width="1.5"/><line x1="20" y1="20" x2="20" y2="45" stroke="#2d3748" stroke-width="1.5"/><line x1="5" y1="30" x2="35" y2="30" stroke="#2d3748" stroke-width="1.5"/><line x1="20" y1="45" x2="5" y2="65" stroke="#2d3748" stroke-width="1.5"/><line x1="20" y1="45" x2="35" y2="65" stroke="#2d3748" stroke-width="1.5"/></symbol>
<symbol id="initial-state" viewBox="0 0 20 20" preserveAspectRatio="none"><circle cx="10" cy="10" r="10" fill="#1a202c"/></symbol>
<symbol id="final-state" viewBox="0 0 24 24" preserveAspectRatio="none"><circle cx="12" cy="12" r="12" fill="none" stroke="#2d3748" stroke-width="2"/><circle cx="12" cy="12" r="8" fill="#1a202c"/></symbol>
</defs>
<use href="#initial-state" x="114" y="40" width="20" height="20"/>
<rect x="57" y="100" width="135" height="75" rx="10" ry="10" fill="#fafbfc" stroke="#2d3748" stroke-width="2" filter="url(#drop-shadow)"/>
<text x="124" y="125" text-anchor="middle" fill="#1a202c" font-weight="bold">Idle</text>
<line x1="57" y1="135" x2="191" y2="135" stroke="#cbd5e0"/>
<text x="62" y="150" fill="#1a202c">entry/ showReady</text>
<rect x="239" y="100" width="164" height="90" rx="10" ry="10" fill="#fafbfc" stroke="#2d3748" stroke-width="2" filter="url(#drop-shadow)"/>
<text x="321" y="125" text-anchor="middle" fill="#1a202c" font-weight="bold">Playing</text>
<line x1="239" y1="135" x2="403" y2="135" stroke="#cbd5e0"/>
<text x="244" y="150" fill="#1a202c">entry/ startPlayback</text>
<text x="244" y="165" fill="#1a202c">exit/ updatePosition</text>
<rect x="443" y="100" width="164" height="75" rx="10" ry="10" stroke="#2d3748" stroke-width="2" filter="url(#drop-shadow)" fill="#fafbfc"/>
<text x="525" y="125" text-anchor="middle" fill="#1a202c" font-weight="bold">Paused</text>
<line x1="443" y1="135" x2="607" y2="135" stroke="#cbd5e0"/>
<text x="448" y="150" fill="#1a202c">entry/ pausePlayback</text>
<rect x="50" y="220" width="149" height="75" rx="10" ry="10" stroke-width="2" filter="url(#drop-shadow)" fill="#fafbfc" stroke="#2d3748"/>
<text x="124" y="245" text-anchor="middle" fill="#1a202c" font-weight="bold">Buffering</text>
<line x1="50" y1="255" x2="198" y2="255" stroke="#cbd5e0"/>
<text x="55" y="270" fill="#1a202c">entry/ showLoading</text>
<rect x="254" y="220" width="135" height="75" rx="10" ry="10" fill="#fafbfc" stroke="#2d3748" stroke-width="2" filter="url(#drop-shadow)"/>
<text x="321" y="245" text-anchor="middle" fill="#1a202c" font-weight="bold">Error</text>
<line x1="254" y1="255" x2="388" y2="255" stroke="#cbd5e0"/>
<text x="259" y="270" fill="#1a202c">entry/ showError</text>
<line x1="124" y1="60" x2="124" y2="83" stroke="#2d3748"/>
<polygon points="124,83 120,75 128,75" fill="#000"/>
<line x1="191" y1="120" x2="239" y2="120" stroke="#2d3748"/>
<polygon points="239,120 231,124 231,116" fill="#000"/>
<text x="215" y="115" text-anchor="middle" fill="#4a5568">play</text>
<line x1="124" y1="157" x2="124" y2="203" stroke="#2d3748"/>
<polygon points="124,203 120,195 128,195" fill="#000"/>
<text x="124" y="175" text-anchor="middle" fill="#4a5568">load</text>
<line x1="403" y1="120" x2="443" y2="120" stroke="#2d3748"/>
<polygon points="443,120 435,124 435,116" fill="#000"/>
<text x="423" y="115" fill="#4a5568" text-anchor="middle">pause</text>
<line x1="239" y1="120" x2="191" y2="120" stroke="#2d3748"/>
<polygon points="191,120 199,116 199,124" fill="#000"/>
<text x="215" y="80" text-anchor="middle" fill="#4a5568">stop</text>
<line x1="321" y1="165" x2="321" y2="203" stroke="#2d3748"/>
<polygon points="321,203 317,195 325,195" fill="#000"/>
<text x="321" y="199" fill="#4a5568" text-anchor="middle">playbackError</text>
<line x1="443" y1="120" x2="403" y2="120" stroke="#2d3748"/>
<polygon points="403,120 411,116 411,124" fill="#000"/>
<text x="423" y="60" text-anchor="middle" fill="#4a5568">resume</text>
<line x1="443" y1="120" x2="443" y2="10" stroke="#2d3748"/>
<line x1="443" y1="10" x2="191" y2="10" stroke="#2d3748"/>
<line x1="191" y1="10" x2="191" y2="120" stroke="#2d3748"/>
<polygon points="191,120 187,112 194,112" fill="#000"/>
<text x="317" y="5" text-anchor="middle" fill="#4a5568">stop</text>
<line x1="198" y1="240" x2="198" y2="120" stroke="#2d3748"/>
<line x1="198" y1="120" x2="239" y2="120" stroke="#2d3748"/>
<polygon points="239,120 231,124 231,116" fill="#000"/>
<text x="198" y="195" text-anchor="middle" fill="#4a5568">bufferComplete</text>
<line x1="198" y1="240" x2="254" y2="240" stroke="#2d3748"/>
<polygon points="254,240 246,244 246,236" fill="#000"/>
<text x="226" y="205" text-anchor="middle" fill="#4a5568">bufferError</text>
<line x1="254" y1="240" x2="254" y2="180" stroke="#2d3748"/>
<line x1="254" y1="180" x2="191" y2="180" stroke="#2d3748"/>
<line x1="191" y1="180" x2="191" y2="120" stroke="#2d3748"/>
<polygon points="191,120 195,127 187,127" fill="#000"/>
<text x="222" y="195" fill="#4a5568" text-anchor="middle">reset</text>
</svg>