<svg xmlns="http://www.w3.org/2000/svg" viewBox="0 0 800 600" width="800" height="600">
<rect x="50" y="50" width="200" height="180" stroke-width="1" fill="#fff" stroke="#000"/>
<text x="150" y="70">&lt;&lt;component&gt;&gt;</text>
<text x="150" y="90">AllFeaturesCombined</text>
<line x1="50" y1="105" x2="250" y2="105" stroke="#000"/>
<text x="60" y="115">+ simpleMethod()</text>
<text x="60" y="135">+ methodWithParams()</text>
<text x="60" y="155">+ methodWithNullable()</text>
<text x="60" y="175">+ methodWithArray()</text>
<text x="60" y="195">+ asyncMethod()</text>
<text x="60" y="215">+ methodWithThrows()</text>
<rect x="300" y="50" width="200" height="300" fill="#fff" stroke="#000" stroke-width="1"/>
<text x="400" y="70">CompleteType</text>
<line x1="300" y1="85" x2="500" y2="85" stroke="#000"/>
<text x="310" y="95">+ publicString: string</text>
<text x="310" y="115">+ publicInt: int</text>
<text x="310" y="135">+ publicFloat: float</text>
<text x="310" y="155">+ publicBool: bool</text>
<text x="310" y="175">- privateField: string</text>
<text x="310" y="195"># protectedField: int</text>
<text x="310" y="215">~ packageField: bool</text>
<text x="310" y="235">+ nullableString: string</text>
<text x="310" y="255">+ arrayField: string</text>
<text x="310" y="275">+ complexType: NestedType</text>
<text x="310" y="295">+ complexNullable: NestedType</text>
<text x="310" y="315">+ complexArray: NestedType</text>
<rect x="550" y="50" width="200" height="60" fill="#fff" stroke="#000" stroke-width="1"/>
<text x="650" y="70">&lt;&lt;enum&gt;&gt;</text>
<text x="650" y="90">Status</text>
<rect x="50" y="250" width="200" height="100" fill="#fff" stroke="#000" stroke-width="1"/>
<text x="150" y="270">&lt;&lt;interface&gt;&gt;</text>
<text x="150" y="290">ExternalDependency</text>
<line x1="50" y1="305" x2="250" y2="305" stroke="#000"/>
<text x="60" y="315">+ fetch()</text>
<text x="60" y="335">+ fetchAsync()</text>
<line x1="150" y1="100" x2="0" y2="50" stroke="#000"/>
<polygon points="" fill="#fff" stroke="#000"/>
<line x1="150" y1="100" x2="0" y2="50" stroke="#000" class="dashed"/>
<polygon points="" fill="#fff" stroke="#000"/>
<line x1="150" y1="100" x2="0" y2="50" stroke="#000" class="dashed"/>
<line x1="150" y1="100" x2="0" y2="50" stroke="#000" class="dashed"/>
<line x1="150" y1="100" x2="0" y2="50" stroke="#000"/>
<polygon points="" fill="#000"/>
<line x1="150" y1="100" x2="0" y2="50" stroke="#000"/>
<polygon points="" fill="#fff" stroke="#000"/>
</svg>