<svg xmlns="http://www.w3.org/2000/svg" viewBox="0 0 1070 640" width="1070" height="640">
<defs>
<style>text { font-family: -apple-system, "Segoe UI", "Helvetica Neue", Arial, sans-serif; }</style>
<filter id="drop-shadow" x="-5%" y="-5%" width="115%" height="115%"><feGaussianBlur in="SourceAlpha" stdDeviation="2" result="blur"/><feOffset in="blur" dx="1" dy="2" result="offsetBlur"/><feComponentTransfer in="offsetBlur" result="shadow"><feFuncA type="linear" slope="0.12"/></feComponentTransfer><feMerge><feMergeNode in="shadow"/><feMergeNode in="SourceGraphic"/></feMerge></filter>
<symbol id="actor" viewBox="0 0 40 70" preserveAspectRatio="none"><circle cx="20" cy="10" r="10" fill="#fafbfc" stroke="#2d3748" stroke-width="1.5"/><line x1="20" y1="20" x2="20" y2="45" stroke="#2d3748" stroke-width="1.5"/><line x1="5" y1="30" x2="35" y2="30" stroke="#2d3748" stroke-width="1.5"/><line x1="20" y1="45" x2="5" y2="65" stroke="#2d3748" stroke-width="1.5"/><line x1="20" y1="45" x2="35" y2="65" stroke="#2d3748" stroke-width="1.5"/></symbol>
<symbol id="initial-state" viewBox="0 0 20 20" preserveAspectRatio="none"><circle cx="10" cy="10" r="10" fill="#1a202c"/></symbol>
<symbol id="final-state" viewBox="0 0 24 24" preserveAspectRatio="none"><circle cx="12" cy="12" r="12" fill="none" stroke="#2d3748" stroke-width="2"/><circle cx="12" cy="12" r="8" fill="#1a202c"/></symbol>
</defs>
<rect x="441" y="410" width="188" height="120" fill="#fafbfc" stroke="#2d3748" stroke-width="2" filter="url(#drop-shadow)"/>
<text x="535" y="437" text-anchor="middle" fill="#4a5568" font-style="italic">&lt;&lt;component&gt;&gt;</text>
<text x="535" y="457" text-anchor="middle" fill="#1a202c" font-weight="bold">Application</text>
<line x1="441" y1="472" x2="629" y2="472" stroke="#cbd5e0"/>
<text x="451" y="487" fill="#1a202c">+ Run(): bool</text>
<text x="451" y="507" fill="#1a202c">+ GetVersion(): string</text>
<rect x="50" y="50" width="152" height="100" stroke-width="2" filter="url(#drop-shadow)" fill="#fafbfc" stroke="#2d3748"/>
<text x="126" y="77" text-anchor="middle" fill="#1a202c" font-weight="bold">AppData</text>
<line x1="50" y1="92" x2="202" y2="92" stroke="#cbd5e0"/>
<text x="60" y="107" fill="#1a202c">+ name: string</text>
<text x="60" y="127" fill="#1a202c">+ version: string</text>
<rect x="341" y="250" width="174" height="100" filter="url(#drop-shadow)" fill="#fafbfc" stroke="#2d3748" stroke-width="2"/>
<text x="428" y="277" fill="#4a5568" font-style="italic" text-anchor="middle">&lt;&lt;component&gt;&gt;</text>
<text x="428" y="297" text-anchor="middle" fill="#1a202c" font-weight="bold">ServiceA</text>
<line x1="341" y1="312" x2="515" y2="312" stroke="#cbd5e0"/>
<text x="351" y="327" fill="#1a202c">+ ProcessA(): string</text>
<rect x="470" y="50" width="152" height="80" stroke="#2d3748" stroke-width="2" filter="url(#drop-shadow)" fill="#fafbfc"/>
<text x="546" y="77" text-anchor="middle" fill="#1a202c" font-weight="bold">ServiceAData</text>
<line x1="470" y1="92" x2="622" y2="92" stroke="#cbd5e0"/>
<text x="480" y="107" fill="#1a202c">+ configA: string</text>
<rect x="555" y="250" width="174" height="100" fill="#fafbfc" stroke="#2d3748" stroke-width="2" filter="url(#drop-shadow)"/>
<text x="642" y="277" fill="#4a5568" font-style="italic" text-anchor="middle">&lt;&lt;component&gt;&gt;</text>
<text x="642" y="297" fill="#1a202c" font-weight="bold" text-anchor="middle">ServiceB</text>
<line x1="555" y1="312" x2="729" y2="312" stroke="#cbd5e0"/>
<text x="565" y="327" fill="#1a202c">+ ProcessB(): string</text>
<rect x="662" y="50" width="152" height="80" stroke-width="2" filter="url(#drop-shadow)" fill="#fafbfc" stroke="#2d3748"/>
<text x="738" y="77" font-weight="bold" text-anchor="middle" fill="#1a202c">ServiceBData</text>
<line x1="662" y1="92" x2="814" y2="92" stroke="#cbd5e0"/>
<text x="672" y="107" fill="#1a202c">+ configB: string</text>
<rect x="242" y="50" width="188" height="140" fill="#fafbfc" stroke="#2d3748" stroke-width="2" filter="url(#drop-shadow)"/>
<text x="336" y="77" text-anchor="middle" fill="#4a5568" font-style="italic">&lt;&lt;component&gt;&gt;</text>
<text x="336" y="97" font-weight="bold" text-anchor="middle" fill="#1a202c">CoreLibrary</text>
<line x1="242" y1="112" x2="430" y2="112" stroke="#cbd5e0"/>
<text x="252" y="127" fill="#1a202c">+ Initialize(): bool</text>
<text x="252" y="147" fill="#1a202c">+ GetVersion(): string</text>
<text x="252" y="167" fill="#1a202c">+ Cleanup(): bool</text>
<rect x="854" y="50" width="166" height="100" fill="#fafbfc" stroke="#2d3748" stroke-width="2" filter="url(#drop-shadow)"/>
<text x="937" y="77" text-anchor="middle" fill="#1a202c" font-weight="bold">CoreData</text>
<line x1="854" y1="92" x2="1020" y2="92" stroke="#cbd5e0"/>
<text x="864" y="107" fill="#1a202c">+ version: string</text>
<text x="864" y="127" fill="#1a202c">+ initialized: bool</text>
<line x1="385" y1="410" x2="385" y2="350" stroke="#2d3748" stroke-dasharray="5,5"/>
<line x1="385" y1="350" x2="428" y2="350" stroke="#2d3748" stroke-dasharray="5,5"/>
<polygon points="428,350 418,355 418,345" fill="#2d3748"/>
<line x1="535" y1="410" x2="535" y2="350" stroke="#2d3748" stroke-dasharray="5,5"/>
<line x1="535" y1="350" x2="642" y2="350" stroke="#2d3748" stroke-dasharray="5,5"/>
<polygon points="642,350 632,354 632,345" fill="#2d3748"/>
<line x1="428" y1="250" x2="428" y2="190" stroke="#2d3748" stroke-dasharray="5,5"/>
<line x1="428" y1="190" x2="186" y2="190" stroke="#2d3748" stroke-dasharray="5,5"/>
<polygon points="186,190 195,185 195,194" fill="#2d3748"/>
<line x1="555" y1="300" x2="555" y2="120" stroke="#2d3748" stroke-dasharray="5,5"/>
<line x1="555" y1="120" x2="430" y2="120" stroke="#2d3748" stroke-dasharray="5,5"/>
<polygon points="430,120 439,115 439,124" fill="#2d3748"/>
</svg>