<svg xmlns="http://www.w3.org/2000/svg" viewBox="0 0 1666 620" width="1666" height="620">
<defs>
<style>text { font-family: -apple-system, "Segoe UI", "Helvetica Neue", Arial, sans-serif; }</style>
<filter id="drop-shadow" x="-5%" y="-5%" width="115%" height="115%"><feGaussianBlur in="SourceAlpha" stdDeviation="2" result="blur"/><feOffset in="blur" dx="1" dy="2" result="offsetBlur"/><feComponentTransfer in="offsetBlur" result="shadow"><feFuncA type="linear" slope="0.12"/></feComponentTransfer><feMerge><feMergeNode in="shadow"/><feMergeNode in="SourceGraphic"/></feMerge></filter>
<symbol id="actor" viewBox="0 0 40 70" preserveAspectRatio="none"><circle cx="20" cy="10" r="10" fill="#fafbfc" stroke="#2d3748" stroke-width="1.5"/><line x1="20" y1="20" x2="20" y2="45" stroke="#2d3748" stroke-width="1.5"/><line x1="5" y1="30" x2="35" y2="30" stroke="#2d3748" stroke-width="1.5"/><line x1="20" y1="45" x2="5" y2="65" stroke="#2d3748" stroke-width="1.5"/><line x1="20" y1="45" x2="35" y2="65" stroke="#2d3748" stroke-width="1.5"/></symbol>
<symbol id="initial-state" viewBox="0 0 20 20" preserveAspectRatio="none"><circle cx="10" cy="10" r="10" fill="#1a202c"/></symbol>
<symbol id="final-state" viewBox="0 0 24 24" preserveAspectRatio="none"><circle cx="12" cy="12" r="12" fill="none" stroke="#2d3748" stroke-width="2"/><circle cx="12" cy="12" r="8" fill="#1a202c"/></symbol>
</defs>
<rect x="618" y="410" width="209" height="100" fill="#fafbfc" stroke="#2d3748" stroke-width="2" filter="url(#drop-shadow)"/>
<text x="722" y="437" font-style="italic" text-anchor="middle" fill="#4a5568">&lt;&lt;component&gt;&gt;</text>
<text x="722" y="457" font-weight="bold" text-anchor="middle" fill="#1a202c">WebController</text>
<line x1="618" y1="472" x2="827" y2="472" stroke="#cbd5e0"/>
<text x="628" y="487" fill="#1a202c">+ HandleRequest(): string</text>
<rect x="50" y="50" width="145" height="100" fill="#fafbfc" stroke="#2d3748" stroke-width="2" filter="url(#drop-shadow)"/>
<text x="122" y="77" text-anchor="middle" fill="#1a202c" font-weight="bold">RequestData</text>
<line x1="50" y1="92" x2="195" y2="92" stroke="#cbd5e0"/>
<text x="60" y="107" fill="#1a202c">+ path: string</text>
<text x="60" y="127" fill="#1a202c">+ method: string</text>
<rect x="867" y="410" width="181" height="100" fill="#fafbfc" stroke="#2d3748" stroke-width="2" filter="url(#drop-shadow)"/>
<text x="957" y="437" text-anchor="middle" fill="#4a5568" font-style="italic">&lt;&lt;component&gt;&gt;</text>
<text x="957" y="457" text-anchor="middle" fill="#1a202c" font-weight="bold">APIController</text>
<line x1="867" y1="472" x2="1048" y2="472" stroke="#cbd5e0"/>
<text x="877" y="487" fill="#1a202c">+ HandleAPI(): string</text>
<rect x="777" y="50" width="159" height="100" filter="url(#drop-shadow)" fill="#fafbfc" stroke="#2d3748" stroke-width="2"/>
<text x="856" y="77" text-anchor="middle" fill="#1a202c" font-weight="bold">APIRequestData</text>
<line x1="777" y1="92" x2="936" y2="92" stroke="#cbd5e0"/>
<text x="787" y="107" fill="#1a202c">+ endpoint: string</text>
<text x="787" y="127" fill="#1a202c">+ payload: string</text>
<rect x="549" y="230" width="260" height="120" fill="#fafbfc" stroke="#2d3748" stroke-width="2" filter="url(#drop-shadow)"/>
<text x="679" y="257" text-anchor="middle" fill="#4a5568" font-style="italic">&lt;&lt;component&gt;&gt;</text>
<text x="679" y="277" fill="#1a202c" font-weight="bold" text-anchor="middle">UserService</text>
<line x1="549" y1="292" x2="809" y2="292" stroke="#cbd5e0"/>
<text x="559" y="307" fill="#1a202c">+ GetUser(id: string): string</text>
<text x="559" y="327" fill="#1a202c">+ CreateUser(data: string): bool</text>
<rect x="976" y="50" width="130" height="100" fill="#fafbfc" stroke="#2d3748" stroke-width="2" filter="url(#drop-shadow)"/>
<text x="1041" y="77" text-anchor="middle" fill="#1a202c" font-weight="bold">UserData</text>
<line x1="976" y1="92" x2="1106" y2="92" stroke="#cbd5e0"/>
<text x="986" y="107" fill="#1a202c">+ id: string</text>
<text x="986" y="127" fill="#1a202c">+ name: string</text>
<rect x="849" y="230" width="267" height="120" stroke-width="2" filter="url(#drop-shadow)" fill="#fafbfc" stroke="#2d3748"/>
<text x="982" y="257" fill="#4a5568" font-style="italic" text-anchor="middle">&lt;&lt;component&gt;&gt;</text>
<text x="982" y="277" text-anchor="middle" fill="#1a202c" font-weight="bold">OrderService</text>
<line x1="849" y1="292" x2="1116" y2="292" stroke="#cbd5e0"/>
<text x="859" y="307" fill="#1a202c">+ GetOrder(id: string): string</text>
<text x="859" y="327" fill="#1a202c">+ CreateOrder(data: string): bool</text>
<rect x="1146" y="50" width="130" height="100" fill="#fafbfc" stroke="#2d3748" stroke-width="2" filter="url(#drop-shadow)"/>
<text x="1211" y="77" text-anchor="middle" fill="#1a202c" font-weight="bold">OrderData</text>
<line x1="1146" y1="92" x2="1276" y2="92" stroke="#cbd5e0"/>
<text x="1156" y="107" fill="#1a202c">+ id: string</text>
<text x="1156" y="127" fill="#1a202c">+ total: float</text>
<rect x="235" y="50" width="231" height="120" fill="#fafbfc" stroke="#2d3748" stroke-width="2" filter="url(#drop-shadow)"/>
<text x="350" y="77" text-anchor="middle" fill="#4a5568" font-style="italic">&lt;&lt;component&gt;&gt;</text>
<text x="350" y="97" fill="#1a202c" font-weight="bold" text-anchor="middle">UserRepository</text>
<line x1="235" y1="112" x2="466" y2="112" stroke="#cbd5e0"/>
<text x="245" y="127" fill="#1a202c">+ Find(id: string): string</text>
<text x="245" y="147" fill="#1a202c">+ Save(entity: string): bool</text>
<rect x="1316" y="50" width="130" height="100" fill="#fafbfc" stroke="#2d3748" stroke-width="2" filter="url(#drop-shadow)"/>
<text x="1381" y="77" text-anchor="middle" fill="#1a202c" font-weight="bold">UserEntity</text>
<line x1="1316" y1="92" x2="1446" y2="92" stroke="#cbd5e0"/>
<text x="1326" y="107" fill="#1a202c">+ id: string</text>
<text x="1326" y="127" fill="#1a202c">+ data: string</text>
<rect x="506" y="50" width="231" height="120" fill="#fafbfc" stroke="#2d3748" stroke-width="2" filter="url(#drop-shadow)"/>
<text x="621" y="77" text-anchor="middle" fill="#4a5568" font-style="italic">&lt;&lt;component&gt;&gt;</text>
<text x="621" y="97" text-anchor="middle" fill="#1a202c" font-weight="bold">OrderRepository</text>
<line x1="506" y1="112" x2="737" y2="112" stroke="#cbd5e0"/>
<text x="516" y="127" fill="#1a202c">+ Find(id: string): string</text>
<text x="516" y="147" fill="#1a202c">+ Save(entity: string): bool</text>
<rect x="1486" y="50" width="130" height="100" fill="#fafbfc" stroke="#2d3748" stroke-width="2" filter="url(#drop-shadow)"/>
<text x="1551" y="77" text-anchor="middle" fill="#1a202c" font-weight="bold">OrderEntity</text>
<line x1="1486" y1="92" x2="1616" y2="92" stroke="#cbd5e0"/>
<text x="1496" y="107" fill="#1a202c">+ id: string</text>
<text x="1496" y="127" fill="#1a202c">+ data: string</text>
<line x1="722" y1="410" x2="722" y2="350" stroke="#2d3748" stroke-dasharray="5,5"/>
<line x1="722" y1="350" x2="679" y2="350" stroke="#2d3748" stroke-dasharray="5,5"/>
<polygon points="679,350 689,345 689,355" fill="#2d3748"/>
<line x1="957" y1="410" x2="957" y2="350" stroke="#2d3748" stroke-dasharray="5,5"/>
<line x1="957" y1="350" x2="982" y2="350" stroke="#2d3748" stroke-dasharray="5,5"/>
<polygon points="982,350 972,355 972,345" fill="#2d3748"/>
<line x1="549" y1="290" x2="549" y2="110" stroke="#2d3748" stroke-dasharray="5,5"/>
<line x1="549" y1="110" x2="466" y2="110" stroke="#2d3748" stroke-dasharray="5,5"/>
<polygon points="466,110 475,105 475,114" fill="#2d3748"/>
<line x1="849" y1="290" x2="849" y2="200" stroke="#2d3748" stroke-dasharray="5,5"/>
<line x1="849" y1="200" x2="737" y2="200" stroke="#2d3748" stroke-dasharray="5,5"/>
<line x1="737" y1="200" x2="737" y2="110" stroke="#2d3748" stroke-dasharray="5,5"/>
<polygon points="737,110 741,119 732,119" fill="#2d3748"/>
</svg>