<svg xmlns="http://www.w3.org/2000/svg" viewBox="0 0 2131 600" width="2131" height="600">
<rect x="50" y="50" width="548" height="260" stroke="#000" stroke-width="1" fill="#fff"/>
<text x="324" y="70" text-anchor="middle">&lt;&lt;component&gt;&gt;</text>
<text x="324" y="90" text-anchor="middle">Client</text>
<line x1="50" y1="105" x2="598" y2="105" stroke="#000"/>
<text x="60" y="115">+ ParseFile(filePath: string): SpecFile</text>
<text x="60" y="135">+ ParseString(content: string): SpecFile</text>
<text x="60" y="155">+ ToClassDiagram(spec: SpecFile): ClassDiagram</text>
<text x="60" y="175">+ ToSequenceDiagram(spec: SpecFile, flowName: string): SequenceDiagram</text>
<text x="60" y="195">+ ToStateDiagram(spec: SpecFile, statesName: string): StateDiagram</text>
<text x="60" y="215">+ ToFlowchart(spec: SpecFile, flowName: string): FlowDiagram</text>
<text x="60" y="235">+ RenderClassDiagram(diagram: ClassDiagram, writer: Writer): error</text>
<text x="60" y="255">+ RenderSequenceDiagram(diagram: SequenceDiagram, writer: Writer): error</text>
<text x="60" y="275">+ RenderStateDiagram(diagram: StateDiagram, writer: Writer): error</text>
<text x="60" y="295">+ RenderFlowchart(diagram: FlowDiagram, writer: Writer): error</text>
<rect x="638" y="50" width="260" height="140" fill="#fff" stroke="#000" stroke-width="1"/>
<text x="768" y="70" text-anchor="middle">SpecFile</text>
<line x1="638" y1="85" x2="898" y2="85" stroke="#000"/>
<text x="648" y="95">+ path: string</text>
<text x="648" y="115">+ imports: Import</text>
<text x="648" y="135">+ singleComponent: ComponentDecl</text>
<text x="648" y="155">+ components: ComponentDecl</text>
<rect x="938" y="50" width="181" height="100" fill="#fff" stroke="#000" stroke-width="1"/>
<text x="1028" y="70" text-anchor="middle">ComponentDecl</text>
<line x1="938" y1="85" x2="1119" y2="85" stroke="#000"/>
<text x="948" y="95">+ name: string</text>
<text x="948" y="115">+ body: ComponentBody</text>
<rect x="1159" y="50" width="224" height="160" fill="#fff" stroke="#000" stroke-width="1"/>
<text x="1271" y="70" text-anchor="middle">ComponentBody</text>
<line x1="1159" y1="85" x2="1383" y2="85" stroke="#000"/>
<text x="1169" y="95">+ types: TypeDecl</text>
<text x="1169" y="115">+ relations: RelationDecl</text>
<text x="1169" y="135">+ interfaces: InterfaceDecl</text>
<text x="1169" y="155">+ statesBlocks: StatesDecl</text>
<text x="1169" y="175">+ flows: FlowDecl</text>
<rect x="1423" y="50" width="145" height="100" fill="#fff" stroke="#000" stroke-width="1"/>
<text x="1495" y="70" text-anchor="middle">RelationDecl</text>
<line x1="1423" y1="85" x2="1568" y2="85" stroke="#000"/>
<text x="1433" y="95">+ kind: string</text>
<text x="1433" y="115">+ target: string</text>
<rect x="1608" y="50" width="195" height="100" fill="#fff" stroke="#000" stroke-width="1"/>
<text x="1705" y="70" text-anchor="middle">FlowDecl</text>
<line x1="1608" y1="85" x2="1803" y2="85" stroke="#000"/>
<text x="1618" y="95">+ name: string</text>
<text x="1618" y="115">+ statements: Statement</text>
<rect x="1843" y="50" width="238" height="120" stroke="#000" stroke-width="1" fill="#fff"/>
<text x="1962" y="70" text-anchor="middle">StatesDecl</text>
<line x1="1843" y1="85" x2="2081" y2="85" stroke="#000"/>
<text x="1853" y="95">+ name: string</text>
<text x="1853" y="115">+ statesBlocks: StateDecl</text>
<text x="1853" y="135">+ transitions: TransitionDecl</text>
</svg>