<svg xmlns="http://www.w3.org/2000/svg" viewBox="0 0 800 600" width="800" height="600">
<circle cx="100" cy="50" r="10" fill="#000"/>
<rect x="60" y="100" width="80" height="40" rx="10" ry="10" fill="#fff" stroke="#000"/>
<text x="100" y="125" text-anchor="middle">Pending</text>
<rect x="260" y="100" width="80" height="40" rx="10" ry="10" stroke="#000" fill="#fff"/>
<text x="300" y="125" text-anchor="middle">InProgress</text>
<circle cx="100" cy="280" r="12" stroke="#000" stroke-width="2"/>
<circle cx="100" cy="280" r="8" fill="#000"/>
<circle cx="250" cy="280" r="12" stroke-width="2" stroke="#000"/>
<circle cx="250" cy="280" r="8" fill="#000"/>
<line x1="100" y1="50" x2="100" y2="120" stroke="#000"/>
<polygon points="100,120 96,112 103,112" fill="#000"/>
<line x1="100" y1="120" x2="300" y2="120" stroke="#000"/>
<polygon points="300,120 292,123 292,116" fill="#000"/>
<text x="200" y="110" text-anchor="middle">startResolve</text>
<line x1="300" y1="120" x2="100" y2="280" stroke="#000"/>
<polygon points="100,280 103,271 108,278" fill="#000"/>
<text x="200" y="190" text-anchor="middle">resolveSuccess</text>
<line x1="300" y1="120" x2="250" y2="280" stroke="#000"/>
<polygon points="250,280 248,271 256,273" fill="#000"/>
<text x="275" y="190" text-anchor="middle">cycleDetected</text>
<line x1="300" y1="120" x2="250" y2="280" stroke="#000"/>
<polygon points="250,280 248,271 256,273" fill="#000"/>
<text x="275" y="175" text-anchor="middle">fileNotFound</text>
<line x1="300" y1="120" x2="250" y2="280" stroke="#000"/>
<polygon points="250,280 248,271 256,273" fill="#000"/>
<text x="275" y="160" text-anchor="middle">parseError</text>
</svg>