<svg xmlns="http://www.w3.org/2000/svg" viewBox="0 0 1084 600" width="1084" height="600">
<rect x="50" y="50" width="130" height="60" fill="#fff" stroke="#000" stroke-width="1"/>
<text x="115" y="70" text-anchor="middle">&lt;&lt;component&gt;&gt;</text>
<text x="115" y="90" text-anchor="middle">OrderProcessor</text>
<rect x="220" y="50" width="174" height="160" fill="#fff" stroke="#000" stroke-width="1"/>
<text x="307" y="70" text-anchor="middle">Order</text>
<line x1="220" y1="85" x2="394" y2="85" stroke="#000"/>
<text x="230" y="95">+ id: string</text>
<text x="230" y="115">+ customerId: string</text>
<text x="230" y="135">+ items: string</text>
<text x="230" y="155">+ total: float</text>
<text x="230" y="175">+ status: string</text>
<rect x="434" y="50" width="195" height="100" fill="#fff" stroke="#000" stroke-width="1"/>
<text x="531" y="70" text-anchor="middle">PaymentResult</text>
<line x1="434" y1="85" x2="629" y2="85" stroke="#000"/>
<text x="444" y="95">+ success: bool</text>
<text x="444" y="115">+ transactionId: string</text>
<rect x="87" y="270" width="303" height="100" fill="#fff" stroke="#000" stroke-width="1"/>
<text x="238" y="290" text-anchor="middle">&lt;&lt;component&gt;&gt;</text>
<text x="238" y="310" text-anchor="middle">PaymentGateway</text>
<line x1="87" y1="325" x2="390" y2="325" stroke="#000"/>
<text x="97" y="335">+ Charge(amount: float): PaymentResult</text>
<text x="97" y="355">+ Refund(orderId: string): bool</text>
<rect x="669" y="50" width="159" height="100" fill="#fff" stroke="#000" stroke-width="1"/>
<text x="748" y="70" text-anchor="middle">ChargeRequest</text>
<line x1="669" y1="85" x2="828" y2="85" stroke="#000"/>
<text x="679" y="95">+ amount: float</text>
<text x="679" y="115">+ currency: string</text>
<rect x="430" y="270" width="267" height="120" stroke-width="1" fill="#fff" stroke="#000"/>
<text x="563" y="290" text-anchor="middle">&lt;&lt;component&gt;&gt;</text>
<text x="563" y="310" text-anchor="middle">InventoryService</text>
<line x1="430" y1="325" x2="697" y2="325" stroke="#000"/>
<text x="440" y="335">+ CheckStock(items: string): bool</text>
<text x="440" y="355">+ Reserve(items: string): bool</text>
<text x="440" y="375">+ Release(items: string): bool</text>
<rect x="868" y="50" width="166" height="100" stroke-width="1" fill="#fff" stroke="#000"/>
<text x="951" y="70" text-anchor="middle">StockItem</text>
<line x1="868" y1="85" x2="1034" y2="85" stroke="#000"/>
<text x="878" y="95">+ productId: string</text>
<text x="878" y="115">+ quantity: int</text>
<rect x="737" y="270" width="260" height="100" fill="#fff" stroke="#000" stroke-width="1"/>
<text x="867" y="290" text-anchor="middle">&lt;&lt;component&gt;&gt;</text>
<text x="867" y="310" text-anchor="middle">NotificationService</text>
<line x1="737" y1="325" x2="997" y2="325" stroke="#000"/>
<text x="747" y="335">+ SendConfirmation(order: Order)</text>
<text x="747" y="355">+ SendCancellation(order: Order)</text>
<line x1="63" y1="110" x2="63" y2="270" stroke="#000" stroke-dasharray="5,5"/>
<line x1="63" y1="270" x2="238" y2="270" stroke="#000" stroke-dasharray="5,5"/>
<polygon points="238,270 228,274 228,265" fill="#000"/>
<line x1="180" y1="80" x2="180" y2="390" stroke="#000" stroke-dasharray="5,5"/>
<line x1="180" y1="390" x2="430" y2="390" stroke="#000" stroke-dasharray="5,5"/>
<line x1="430" y1="390" x2="430" y2="330" stroke="#000" stroke-dasharray="5,5"/>
<polygon points="430,330 435,339 425,339" fill="#000"/>
<line x1="180" y1="98" x2="180" y2="410" stroke="#000" stroke-dasharray="5,5"/>
<line x1="180" y1="410" x2="737" y2="410" stroke="#000" stroke-dasharray="5,5"/>
<line x1="737" y1="410" x2="737" y2="320" stroke-dasharray="5,5" stroke="#000"/>
<polygon points="737,320 741,329 732,329" fill="#000"/>
</svg>