<svg xmlns="http://www.w3.org/2000/svg" viewBox="0 0 842 600" width="842" height="600">
<defs>
<style>text { font-family: -apple-system, "Segoe UI", "Helvetica Neue", Arial, sans-serif; }</style>
<filter id="drop-shadow" x="-5%" y="-5%" width="115%" height="115%"><feGaussianBlur in="SourceAlpha" stdDeviation="2" result="blur"/><feOffset in="blur" dx="1" dy="2" result="offsetBlur"/><feComponentTransfer in="offsetBlur" result="shadow"><feFuncA type="linear" slope="0.12"/></feComponentTransfer><feMerge><feMergeNode in="shadow"/><feMergeNode in="SourceGraphic"/></feMerge></filter>
<symbol id="actor" viewBox="0 0 40 70" preserveAspectRatio="none"><circle cx="20" cy="10" r="10" fill="#fafbfc" stroke="#2d3748" stroke-width="1.5"/><line x1="20" y1="20" x2="20" y2="45" stroke="#2d3748" stroke-width="1.5"/><line x1="5" y1="30" x2="35" y2="30" stroke="#2d3748" stroke-width="1.5"/><line x1="20" y1="45" x2="5" y2="65" stroke="#2d3748" stroke-width="1.5"/><line x1="20" y1="45" x2="35" y2="65" stroke="#2d3748" stroke-width="1.5"/></symbol>
<symbol id="initial-state" viewBox="0 0 20 20" preserveAspectRatio="none"><circle cx="10" cy="10" r="10" fill="#1a202c"/></symbol>
<symbol id="final-state" viewBox="0 0 24 24" preserveAspectRatio="none"><circle cx="12" cy="12" r="12" fill="none" stroke="#2d3748" stroke-width="2"/><circle cx="12" cy="12" r="8" fill="#1a202c"/></symbol>
</defs>
<rect x="50" y="50" width="195" height="120" stroke-width="2" filter="url(#drop-shadow)" fill="#fafbfc" stroke="#2d3748"/>
<text x="147" y="77" text-anchor="middle" fill="#4a5568" font-style="italic">&lt;&lt;component&gt;&gt;</text>
<text x="147" y="97" text-anchor="middle" fill="#1a202c" font-weight="bold">Animal</text>
<line x1="50" y1="112" x2="245" y2="112" stroke="#cbd5e0"/>
<text x="60" y="127" fill="#1a202c">+ GetInfo(): AnimalData</text>
<text x="60" y="147" fill="#1a202c">+ MakeSound(): string</text>
<rect x="285" y="50" width="130" height="100" fill="#fafbfc" stroke="#2d3748" stroke-width="2" filter="url(#drop-shadow)"/>
<text x="350" y="77" text-anchor="middle" fill="#1a202c" font-weight="bold">AnimalData</text>
<line x1="285" y1="92" x2="415" y2="92" stroke="#cbd5e0"/>
<text x="295" y="107" fill="#1a202c">+ name: string</text>
<text x="295" y="127" fill="#1a202c">+ age: int</text>
<rect x="256" y="230" width="145" height="120" filter="url(#drop-shadow)" fill="#fafbfc" stroke="#2d3748" stroke-width="2"/>
<text x="328" y="257" fill="#4a5568" font-style="italic" text-anchor="middle">&lt;&lt;component&gt;&gt;</text>
<text x="328" y="277" text-anchor="middle" fill="#1a202c" font-weight="bold">Dog</text>
<line x1="256" y1="292" x2="401" y2="292" stroke="#cbd5e0"/>
<text x="266" y="307" fill="#1a202c">+ Bark(): string</text>
<text x="266" y="327" fill="#1a202c">+ Fetch(): bool</text>
<rect x="455" y="50" width="152" height="100" fill="#fafbfc" stroke="#2d3748" stroke-width="2" filter="url(#drop-shadow)"/>
<text x="531" y="77" text-anchor="middle" fill="#1a202c" font-weight="bold">DogData</text>
<line x1="455" y1="92" x2="607" y2="92" stroke="#cbd5e0"/>
<text x="465" y="107" fill="#1a202c">+ breed: string</text>
<text x="465" y="127" fill="#1a202c">+ isGoodBoy: bool</text>
<rect x="441" y="230" width="145" height="120" stroke-width="2" filter="url(#drop-shadow)" fill="#fafbfc" stroke="#2d3748"/>
<text x="513" y="257" text-anchor="middle" fill="#4a5568" font-style="italic">&lt;&lt;component&gt;&gt;</text>
<text x="513" y="277" font-weight="bold" text-anchor="middle" fill="#1a202c">Cat</text>
<line x1="441" y1="292" x2="586" y2="292" stroke="#cbd5e0"/>
<text x="451" y="307" fill="#1a202c">+ Meow(): string</text>
<text x="451" y="327" fill="#1a202c">+ Purr(): bool</text>
<rect x="647" y="50" width="145" height="100" fill="#fafbfc" stroke="#2d3748" stroke-width="2" filter="url(#drop-shadow)"/>
<text x="719" y="77" text-anchor="middle" fill="#1a202c" font-weight="bold">CatData</text>
<line x1="647" y1="92" x2="792" y2="92" stroke="#cbd5e0"/>
<text x="657" y="107" fill="#1a202c">+ color: string</text>
<text x="657" y="127" fill="#1a202c">+ isIndoor: bool</text>
<line x1="328" y1="230" x2="328" y2="200" stroke="#2d3748"/>
<line x1="328" y1="200" x2="99" y2="200" stroke="#2d3748"/>
<line x1="99" y1="200" x2="99" y2="170" stroke="#2d3748"/>
<polygon points="99,170 104,180 94,180" fill="#fafbfc" stroke="#2d3748"/>
<line x1="513" y1="230" x2="513" y2="200" stroke="#2d3748"/>
<line x1="513" y1="200" x2="195" y2="200" stroke="#2d3748"/>
<line x1="195" y1="200" x2="195" y2="170" stroke="#2d3748"/>
<polygon points="195,170 200,180 190,180" fill="#fafbfc" stroke="#2d3748"/>
</svg>