<svg xmlns="http://www.w3.org/2000/svg" viewBox="0 0 1365 600" width="1365" height="600">
<defs>
<style>text { font-family: -apple-system, "Segoe UI", "Helvetica Neue", Arial, sans-serif; }</style>
<filter id="drop-shadow" x="-5%" y="-5%" width="115%" height="115%"><feGaussianBlur in="SourceAlpha" stdDeviation="2" result="blur"/><feOffset in="blur" dx="1" dy="2" result="offsetBlur"/><feComponentTransfer in="offsetBlur" result="shadow"><feFuncA type="linear" slope="0.12"/></feComponentTransfer><feMerge><feMergeNode in="shadow"/><feMergeNode in="SourceGraphic"/></feMerge></filter>
<symbol id="actor" viewBox="0 0 40 70" preserveAspectRatio="none"><circle cx="20" cy="10" r="10" fill="#fafbfc" stroke="#2d3748" stroke-width="1.5"/><line x1="20" y1="20" x2="20" y2="45" stroke="#2d3748" stroke-width="1.5"/><line x1="5" y1="30" x2="35" y2="30" stroke="#2d3748" stroke-width="1.5"/><line x1="20" y1="45" x2="5" y2="65" stroke="#2d3748" stroke-width="1.5"/><line x1="20" y1="45" x2="35" y2="65" stroke="#2d3748" stroke-width="1.5"/></symbol>
<symbol id="initial-state" viewBox="0 0 20 20" preserveAspectRatio="none"><circle cx="10" cy="10" r="10" fill="#1a202c"/></symbol>
<symbol id="final-state" viewBox="0 0 24 24" preserveAspectRatio="none"><circle cx="12" cy="12" r="12" fill="none" stroke="#2d3748" stroke-width="2"/><circle cx="12" cy="12" r="8" fill="#1a202c"/></symbol>
</defs>
<rect x="299" y="50" width="339" height="120" stroke-width="2" filter="url(#drop-shadow)" fill="#fafbfc" stroke="#2d3748"/>
<text x="468" y="77" font-style="italic" text-anchor="middle" fill="#4a5568">&lt;&lt;component&gt;&gt;</text>
<text x="468" y="97" fill="#1a202c" font-weight="bold" text-anchor="middle">Logger</text>
<line x1="299" y1="112" x2="638" y2="112" stroke="#cbd5e0"/>
<text x="309" y="127" fill="#1a202c">+ Log(level: string, message: string): bool</text>
<text x="309" y="147" fill="#1a202c">+ SetLevel(level: string): bool</text>
<rect x="239" y="230" width="281" height="100" fill="#fafbfc" stroke="#2d3748" stroke-width="2" filter="url(#drop-shadow)"/>
<text x="379" y="257" text-anchor="middle" fill="#4a5568" font-style="italic">&lt;&lt;component&gt;&gt;</text>
<text x="379" y="277" text-anchor="middle" fill="#1a202c" font-weight="bold">ConsoleLogger</text>
<line x1="239" y1="292" x2="520" y2="292" stroke="#cbd5e0"/>
<text x="249" y="307" fill="#1a202c">+ EnableColors(enabled: bool): bool</text>
<rect x="50" y="50" width="209" height="100" fill="#fafbfc" stroke="#2d3748" stroke-width="2" filter="url(#drop-shadow)"/>
<text x="154" y="77" text-anchor="middle" fill="#1a202c" font-weight="bold">ConsoleConfig</text>
<line x1="50" y1="92" x2="259" y2="92" stroke="#cbd5e0"/>
<text x="60" y="107" fill="#1a202c">+ colorEnabled: bool</text>
<text x="60" y="127" fill="#1a202c">+ timestampFormat: string</text>
<rect x="560" y="230" width="145" height="100" fill="#fafbfc" stroke="#2d3748" stroke-width="2" filter="url(#drop-shadow)"/>
<text x="632" y="257" text-anchor="middle" fill="#4a5568" font-style="italic">&lt;&lt;component&gt;&gt;</text>
<text x="632" y="277" font-weight="bold" text-anchor="middle" fill="#1a202c">FileLogger</text>
<line x1="560" y1="292" x2="705" y2="292" stroke="#cbd5e0"/>
<text x="570" y="307" fill="#1a202c">+ Rotate(): bool</text>
<rect x="678" y="50" width="174" height="120" fill="#fafbfc" stroke="#2d3748" stroke-width="2" filter="url(#drop-shadow)"/>
<text x="765" y="77" text-anchor="middle" fill="#1a202c" font-weight="bold">FileConfig</text>
<line x1="678" y1="92" x2="852" y2="92" stroke="#cbd5e0"/>
<text x="688" y="107" fill="#1a202c">+ filePath: string</text>
<text x="688" y="127" fill="#1a202c">+ maxFileSize: int</text>
<text x="688" y="147" fill="#1a202c">+ rotationCount: int</text>
<rect x="745" y="230" width="166" height="120" fill="#fafbfc" stroke="#2d3748" stroke-width="2" filter="url(#drop-shadow)"/>
<text x="828" y="257" font-style="italic" text-anchor="middle" fill="#4a5568">&lt;&lt;component&gt;&gt;</text>
<text x="828" y="277" text-anchor="middle" fill="#1a202c" font-weight="bold">NetworkLogger</text>
<line x1="745" y1="292" x2="911" y2="292" stroke="#cbd5e0"/>
<text x="755" y="307" fill="#1a202c">+ Connect(): bool</text>
<text x="755" y="327" fill="#1a202c">+ Reconnect(): bool</text>
<rect x="892" y="50" width="166" height="120" stroke-width="2" filter="url(#drop-shadow)" fill="#fafbfc" stroke="#2d3748"/>
<text x="975" y="77" font-weight="bold" text-anchor="middle" fill="#1a202c">NetworkConfig</text>
<line x1="892" y1="92" x2="1058" y2="92" stroke="#cbd5e0"/>
<text x="902" y="107" fill="#1a202c">+ serverUrl: string</text>
<text x="902" y="127" fill="#1a202c">+ port: int</text>
<text x="902" y="147" fill="#1a202c">+ protocol: string</text>
<rect x="951" y="230" width="174" height="120" fill="#fafbfc" stroke="#2d3748" stroke-width="2" filter="url(#drop-shadow)"/>
<text x="1038" y="257" text-anchor="middle" fill="#4a5568" font-style="italic">&lt;&lt;component&gt;&gt;</text>
<text x="1038" y="277" text-anchor="middle" fill="#1a202c" font-weight="bold">DatabaseLogger</text>
<line x1="951" y1="292" x2="1125" y2="292" stroke="#cbd5e0"/>
<text x="961" y="307" fill="#1a202c">+ Flush(): bool</text>
<text x="961" y="327" fill="#1a202c">+ GetLogCount(): int</text>
<rect x="1098" y="50" width="217" height="120" fill="#fafbfc" stroke="#2d3748" stroke-width="2" filter="url(#drop-shadow)"/>
<text x="1206" y="77" text-anchor="middle" fill="#1a202c" font-weight="bold">DatabaseConfig</text>
<line x1="1098" y1="92" x2="1315" y2="92" stroke="#cbd5e0"/>
<text x="1108" y="107" fill="#1a202c">+ connectionString: string</text>
<text x="1108" y="127" fill="#1a202c">+ tableName: string</text>
<text x="1108" y="147" fill="#1a202c">+ batchSize: int</text>
<line x1="379" y1="230" x2="379" y2="200" stroke="#2d3748" stroke-dasharray="5,5"/>
<line x1="379" y1="200" x2="384" y2="200" stroke="#2d3748" stroke-dasharray="5,5"/>
<line x1="384" y1="200" x2="384" y2="170" stroke="#2d3748" stroke-dasharray="5,5"/>
<polygon points="384,170 389,180 379,180" fill="#fafbfc" stroke="#2d3748"/>
<line x1="632" y1="230" x2="632" y2="200" stroke="#2d3748" stroke-dasharray="5,5"/>
<line x1="632" y1="200" x2="440" y2="200" stroke="#2d3748" stroke-dasharray="5,5"/>
<line x1="440" y1="200" x2="440" y2="170" stroke="#2d3748" stroke-dasharray="5,5"/>
<polygon points="440,170 445,180 435,180" fill="#fafbfc" stroke="#2d3748"/>
<line x1="828" y1="230" x2="828" y2="200" stroke="#2d3748" stroke-dasharray="5,5"/>
<line x1="828" y1="200" x2="496" y2="200" stroke="#2d3748" stroke-dasharray="5,5"/>
<line x1="496" y1="200" x2="496" y2="170" stroke="#2d3748" stroke-dasharray="5,5"/>
<polygon points="496,170 501,180 491,180" fill="#fafbfc" stroke="#2d3748"/>
<line x1="1038" y1="230" x2="1038" y2="200" stroke="#2d3748" stroke-dasharray="5,5"/>
<line x1="1038" y1="200" x2="552" y2="200" stroke="#2d3748" stroke-dasharray="5,5"/>
<line x1="552" y1="200" x2="552" y2="170" stroke="#2d3748" stroke-dasharray="5,5"/>
<polygon points="552,170 557,180 547,180" fill="#fafbfc" stroke="#2d3748"/>
</svg>