<svg xmlns="http://www.w3.org/2000/svg" viewBox="0 0 800 1460" width="800" height="1460">
<defs>
<style>text { font-family: -apple-system, "Segoe UI", "Helvetica Neue", Arial, sans-serif; }</style>
<filter id="drop-shadow" x="-5%" y="-5%" width="115%" height="115%"><feGaussianBlur in="SourceAlpha" stdDeviation="2" result="blur"/><feOffset in="blur" dx="1" dy="2" result="offsetBlur"/><feComponentTransfer in="offsetBlur" result="shadow"><feFuncA type="linear" slope="0.12"/></feComponentTransfer><feMerge><feMergeNode in="shadow"/><feMergeNode in="SourceGraphic"/></feMerge></filter>
<symbol id="actor" viewBox="0 0 40 70" preserveAspectRatio="none"><circle cx="20" cy="10" r="10" fill="#fafbfc" stroke="#2d3748" stroke-width="1.5"/><line x1="20" y1="20" x2="20" y2="45" stroke="#2d3748" stroke-width="1.5"/><line x1="5" y1="30" x2="35" y2="30" stroke="#2d3748" stroke-width="1.5"/><line x1="20" y1="45" x2="5" y2="65" stroke="#2d3748" stroke-width="1.5"/><line x1="20" y1="45" x2="35" y2="65" stroke="#2d3748" stroke-width="1.5"/></symbol>
<symbol id="initial-state" viewBox="0 0 20 20" preserveAspectRatio="none"><circle cx="10" cy="10" r="10" fill="#1a202c"/></symbol>
<symbol id="final-state" viewBox="0 0 24 24" preserveAspectRatio="none"><circle cx="12" cy="12" r="12" fill="none" stroke="#2d3748" stroke-width="2"/><circle cx="12" cy="12" r="8" fill="#1a202c"/></symbol>
</defs>
<rect x="350" y="50" width="100" height="40" rx="20" ry="20" filter="url(#drop-shadow)" fill="#fafbfc" stroke="#2d3748" stroke-width="2"/>
<text x="400" y="75" text-anchor="middle" fill="#1a202c">Start</text>
<rect x="241" y="130" width="318" height="40" fill="#fafbfc" stroke="#2d3748" stroke-width="2" filter="url(#drop-shadow)"/>
<text x="400" y="155" text-anchor="middle" fill="#1a202c">basePrice = self.getBasePrice(productId)</text>
<rect x="245" y="210" width="310" height="40" fill="#fafbfc" stroke="#2d3748" stroke-width="2" filter="url(#drop-shadow)"/>
<text x="400" y="235" text-anchor="middle" fill="#1a202c">customer = self.getCustomer(customerId)</text>
<rect x="195" y="290" width="411" height="40" stroke-width="2" filter="url(#drop-shadow)" fill="#fafbfc" stroke="#2d3748"/>
<text x="400" y="315" text-anchor="middle" fill="#1a202c">purchaseHistory = self.getPurchaseHistory(customerId)</text>
<polygon points="400,370 451,390 400,410 349,390" fill="#fafbfc" stroke="#2d3748" stroke-width="2" filter="url(#drop-shadow)"/>
<text x="400" y="395" text-anchor="middle" fill="#1a202c">condition?</text>
<rect x="213" y="450" width="375" height="40" fill="#fafbfc" stroke="#2d3748" stroke-width="2" filter="url(#drop-shadow)"/>
<text x="400" y="475" text-anchor="middle" fill="#1a202c">discount = self.applyPlatinumDiscount(basePrice)</text>
<polygon points="400,530 451,550 400,570 349,550" stroke="#2d3748" stroke-width="2" filter="url(#drop-shadow)" fill="#fafbfc"/>
<text x="400" y="555" text-anchor="middle" fill="#1a202c">condition?</text>
<rect x="227" y="610" width="346" height="40" fill="#fafbfc" stroke="#2d3748" stroke-width="2" filter="url(#drop-shadow)"/>
<text x="400" y="635" text-anchor="middle" fill="#1a202c">discount = self.applyGoldDiscount(basePrice)</text>
<polygon points="400,690 451,710 400,730 349,710" stroke="#2d3748" stroke-width="2" filter="url(#drop-shadow)" fill="#fafbfc"/>
<text x="400" y="715" text-anchor="middle" fill="#1a202c">condition?</text>
<rect x="220" y="770" width="361" height="40" fill="#fafbfc" stroke="#2d3748" stroke-width="2" filter="url(#drop-shadow)"/>
<text x="400" y="795" text-anchor="middle" fill="#1a202c">discount = self.applySilverDiscount(basePrice)</text>
<rect x="363" y="850" width="375" height="40" filter="url(#drop-shadow)" fill="#fafbfc" stroke="#2d3748" stroke-width="2"/>
<text x="550" y="875" text-anchor="middle" fill="#1a202c">discount = self.applyStandardDiscount(basePrice)</text>
<rect x="350" y="930" width="100" height="40" fill="#fafbfc" stroke="#2d3748" stroke-width="2" filter="url(#drop-shadow)"/>
<rect x="350" y="1010" width="100" height="40" fill="#fafbfc" stroke="#2d3748" stroke-width="2" filter="url(#drop-shadow)"/>
<rect x="350" y="1090" width="100" height="40" stroke="#2d3748" stroke-width="2" filter="url(#drop-shadow)" fill="#fafbfc"/>
<rect x="177" y="1170" width="447" height="40" filter="url(#drop-shadow)" fill="#fafbfc" stroke="#2d3748" stroke-width="2"/>
<text x="400" y="1195" text-anchor="middle" fill="#1a202c">finalPrice = self.calculateFinalPrice(basePrice, discount)</text>
<rect x="350" y="1250" width="100" height="40" rx="20" ry="20" stroke-width="2" filter="url(#drop-shadow)" fill="#fafbfc" stroke="#2d3748"/>
<text x="400" y="1275" text-anchor="middle" fill="#1a202c">return</text>
<rect x="350" y="1330" width="100" height="40" rx="20" ry="20" stroke-width="2" filter="url(#drop-shadow)" fill="#fafbfc" stroke="#2d3748"/>
<text x="400" y="1355" text-anchor="middle" fill="#1a202c">End</text>
<line x1="400" y1="90" x2="400" y2="130" stroke="#2d3748"/>
<polygon points="400,130 396,122 404,122" fill="#000"/>
<line x1="400" y1="170" x2="400" y2="210" stroke="#2d3748"/>
<polygon points="400,210 396,202 404,202" fill="#000"/>
<line x1="400" y1="250" x2="400" y2="290" stroke="#2d3748"/>
<polygon points="400,290 396,282 404,282" fill="#000"/>
<line x1="400" y1="330" x2="400" y2="370" stroke="#2d3748"/>
<polygon points="400,370 396,362 404,362" fill="#000"/>
<line x1="400" y1="410" x2="400" y2="450" stroke="#2d3748"/>
<polygon points="400,450 396,442 404,442" fill="#000"/>
<text x="410" y="430" fill="#4a5568">Yes</text>
<line x1="400" y1="410" x2="400" y2="530" stroke="#2d3748"/>
<polygon points="400,530 396,522 403,522" fill="#000"/>
<line x1="400" y1="570" x2="400" y2="610" stroke="#2d3748"/>
<polygon points="400,610 396,602 404,602" fill="#000"/>
<text x="410" y="590" fill="#4a5568">Yes</text>
<line x1="400" y1="570" x2="400" y2="690" stroke="#2d3748"/>
<polygon points="400,690 396,682 403,682" fill="#000"/>
<line x1="400" y1="730" x2="400" y2="770" stroke="#2d3748"/>
<polygon points="400,770 396,762 404,762" fill="#000"/>
<text x="410" y="750" fill="#4a5568">Yes</text>
<line x1="440" y1="710" x2="550" y2="710" stroke="#2d3748"/>
<line x1="550" y1="710" x2="550" y2="850" stroke="#2d3748"/>
<polygon points="550,850 546,842 553,842" fill="#000"/>
<text x="460" y="705" fill="#4a5568">No</text>
<line x1="400" y1="810" x2="400" y2="930" stroke="#2d3748"/>
<polygon points="400,930 396,922 403,922" fill="#000"/>
<line x1="550" y1="890" x2="550" y2="910" stroke="#2d3748"/>
<line x1="550" y1="910" x2="400" y2="910" stroke="#2d3748"/>
<line x1="400" y1="910" x2="400" y2="930" stroke="#2d3748"/>
<polygon points="400,930 396,922 404,922" fill="#000"/>
<line x1="400" y1="650" x2="400" y2="1010" stroke="#2d3748"/>
<polygon points="400,1010 396,1002 403,1002" fill="#000"/>
<line x1="400" y1="970" x2="400" y2="1010" stroke="#2d3748"/>
<polygon points="400,1010 396,1002 404,1002" fill="#000"/>
<line x1="400" y1="490" x2="400" y2="1090" stroke="#2d3748"/>
<polygon points="400,1090 396,1082 403,1082" fill="#000"/>
<line x1="400" y1="1050" x2="400" y2="1090" stroke="#2d3748"/>
<polygon points="400,1090 396,1082 404,1082" fill="#000"/>
<line x1="400" y1="1130" x2="400" y2="1170" stroke="#2d3748"/>
<polygon points="400,1170 396,1162 404,1162" fill="#000"/>
<line x1="400" y1="1210" x2="400" y2="1250" stroke="#2d3748"/>
<polygon points="400,1250 396,1242 404,1242" fill="#000"/>
<line x1="400" y1="1290" x2="400" y2="1330" stroke="#2d3748"/>
<polygon points="400,1330 396,1322 404,1322" fill="#000"/>
</svg>