<svg xmlns="http://www.w3.org/2000/svg" viewBox="0 0 800 1380" width="800" height="1380">
<defs>
<style>text { font-family: -apple-system, "Segoe UI", "Helvetica Neue", Arial, sans-serif; }</style>
<filter id="drop-shadow" x="-5%" y="-5%" width="115%" height="115%"><feGaussianBlur in="SourceAlpha" stdDeviation="2" result="blur"/><feOffset in="blur" dx="1" dy="2" result="offsetBlur"/><feComponentTransfer in="offsetBlur" result="shadow"><feFuncA type="linear" slope="0.12"/></feComponentTransfer><feMerge><feMergeNode in="shadow"/><feMergeNode in="SourceGraphic"/></feMerge></filter>
<symbol id="actor" viewBox="0 0 40 70" preserveAspectRatio="none"><circle cx="20" cy="10" r="10" fill="#fafbfc" stroke="#2d3748" stroke-width="1.5"/><line x1="20" y1="20" x2="20" y2="45" stroke="#2d3748" stroke-width="1.5"/><line x1="5" y1="30" x2="35" y2="30" stroke="#2d3748" stroke-width="1.5"/><line x1="20" y1="45" x2="5" y2="65" stroke="#2d3748" stroke-width="1.5"/><line x1="20" y1="45" x2="35" y2="65" stroke="#2d3748" stroke-width="1.5"/></symbol>
<symbol id="initial-state" viewBox="0 0 20 20" preserveAspectRatio="none"><circle cx="10" cy="10" r="10" fill="#1a202c"/></symbol>
<symbol id="final-state" viewBox="0 0 24 24" preserveAspectRatio="none"><circle cx="12" cy="12" r="12" fill="none" stroke="#2d3748" stroke-width="2"/><circle cx="12" cy="12" r="8" fill="#1a202c"/></symbol>
</defs>
<rect x="350" y="50" width="100" height="40" rx="20" ry="20" stroke-width="2" filter="url(#drop-shadow)" fill="#fafbfc" stroke="#2d3748"/>
<text x="400" y="75" text-anchor="middle" fill="#1a202c">Start</text>
<rect x="281" y="130" width="238" height="40" fill="#fafbfc" stroke="#2d3748" stroke-width="2" filter="url(#drop-shadow)"/>
<text x="400" y="155" text-anchor="middle" fill="#1a202c">items = self.getQueuedItems()</text>
<rect x="339" y="210" width="123" height="40" fill="#fafbfc" stroke="#2d3748" stroke-width="2" filter="url(#drop-shadow)"/>
<text x="400" y="235" fill="#1a202c" text-anchor="middle">processed = 0</text>
<rect x="349" y="290" width="102" height="40" stroke="#2d3748" stroke-width="2" filter="url(#drop-shadow)" fill="#fafbfc"/>
<text x="400" y="315" text-anchor="middle" fill="#1a202c">failed = 0</text>
<polygon points="400,370 450,390 400,410 350,390" fill="#fafbfc" stroke="#2d3748" stroke-width="2" filter="url(#drop-shadow)"/>
<text x="400" y="395" text-anchor="middle" fill="#1a202c">while?</text>
<rect x="324" y="450" width="152" height="40" fill="#fafbfc" stroke="#2d3748" stroke-width="2" filter="url(#drop-shadow)"/>
<text x="400" y="475" text-anchor="middle" fill="#1a202c">item = items.next</text>
<rect x="274" y="530" width="253" height="40" fill="#fafbfc" stroke="#2d3748" stroke-width="2" filter="url(#drop-shadow)"/>
<text x="400" y="555" fill="#1a202c" text-anchor="middle">result = self.processItem(item)</text>
<polygon points="400,610 451,630 400,650 349,630" fill="#fafbfc" stroke="#2d3748" stroke-width="2" filter="url(#drop-shadow)"/>
<text x="400" y="635" text-anchor="middle" fill="#1a202c">condition?</text>
<rect x="220" y="690" width="361" height="40" fill="#fafbfc" stroke="#2d3748" stroke-width="2" filter="url(#drop-shadow)"/>
<text x="400" y="715" text-anchor="middle" fill="#1a202c">processed = self.incrementProcessed(processed)</text>
<rect x="335" y="770" width="130" height="40" fill="#fafbfc" stroke="#2d3748" stroke-width="2" filter="url(#drop-shadow)"/>
<text x="400" y="795" text-anchor="middle" fill="#1a202c">markComplete()</text>
<rect x="402" y="850" width="296" height="40" fill="#fafbfc" stroke="#2d3748" stroke-width="2" filter="url(#drop-shadow)"/>
<text x="550" y="875" fill="#1a202c" text-anchor="middle">failed = self.incrementFailed(failed)</text>
<rect x="342" y="930" width="116" height="40" fill="#fafbfc" stroke="#2d3748" stroke-width="2" filter="url(#drop-shadow)"/>
<text x="400" y="955" fill="#1a202c" text-anchor="middle">markFailed()</text>
<rect x="350" y="1010" width="100" height="40" stroke="#2d3748" stroke-width="2" filter="url(#drop-shadow)" fill="#fafbfc"/>
<rect x="260" y="1090" width="281" height="40" fill="#fafbfc" stroke="#2d3748" stroke-width="2" filter="url(#drop-shadow)"/>
<text x="400" y="1115" text-anchor="middle" fill="#1a202c">duration = self.calculateDuration()</text>
<rect x="350" y="1170" width="100" height="40" rx="20" ry="20" stroke="#2d3748" stroke-width="2" filter="url(#drop-shadow)" fill="#fafbfc"/>
<text x="400" y="1195" text-anchor="middle" fill="#1a202c">return</text>
<rect x="350" y="1250" width="100" height="40" rx="20" ry="20" fill="#fafbfc" stroke="#2d3748" stroke-width="2" filter="url(#drop-shadow)"/>
<text x="400" y="1275" fill="#1a202c" text-anchor="middle">End</text>
<line x1="400" y1="90" x2="400" y2="130" stroke="#2d3748"/>
<polygon points="400,130 396,122 404,122" fill="#000"/>
<line x1="400" y1="170" x2="400" y2="210" stroke="#2d3748"/>
<polygon points="400,210 396,202 404,202" fill="#000"/>
<line x1="400" y1="250" x2="400" y2="290" stroke="#2d3748"/>
<polygon points="400,290 396,282 404,282" fill="#000"/>
<line x1="400" y1="330" x2="400" y2="370" stroke="#2d3748"/>
<polygon points="400,370 396,362 404,362" fill="#000"/>
<line x1="400" y1="410" x2="400" y2="450" stroke="#2d3748"/>
<polygon points="400,450 396,442 404,442" fill="#000"/>
<line x1="400" y1="490" x2="400" y2="530" stroke="#2d3748"/>
<polygon points="400,530 396,522 404,522" fill="#000"/>
<line x1="400" y1="570" x2="400" y2="610" stroke="#2d3748"/>
<polygon points="400,610 396,602 404,602" fill="#000"/>
<line x1="400" y1="650" x2="400" y2="690" stroke="#2d3748"/>
<polygon points="400,690 396,682 404,682" fill="#000"/>
<text x="410" y="670" fill="#4a5568">Yes</text>
<line x1="400" y1="730" x2="400" y2="770" stroke="#2d3748"/>
<polygon points="400,770 396,762 404,762" fill="#000"/>
<line x1="440" y1="630" x2="550" y2="630" stroke="#2d3748"/>
<line x1="550" y1="630" x2="550" y2="850" stroke="#2d3748"/>
<polygon points="550,850 546,842 553,842" fill="#000"/>
<text x="460" y="625" fill="#4a5568">No</text>
<line x1="550" y1="890" x2="550" y2="910" stroke="#2d3748"/>
<line x1="550" y1="910" x2="400" y2="910" stroke="#2d3748"/>
<line x1="400" y1="910" x2="400" y2="930" stroke="#2d3748"/>
<polygon points="400,930 396,922 404,922" fill="#000"/>
<line x1="400" y1="810" x2="400" y2="1010" stroke="#2d3748"/>
<polygon points="400,1010 396,1002 403,1002" fill="#000"/>
<line x1="400" y1="970" x2="400" y2="1010" stroke="#2d3748"/>
<polygon points="400,1010 396,1002 404,1002" fill="#000"/>
<line x1="400" y1="1050" x2="400" y2="370" stroke="#2d3748"/>
<polygon points="400,370 403,377 396,377" fill="#000"/>
<line x1="400" y1="410" x2="400" y2="1090" stroke="#2d3748"/>
<polygon points="400,1090 396,1082 403,1082" fill="#000"/>
<line x1="400" y1="1130" x2="400" y2="1170" stroke="#2d3748"/>
<polygon points="400,1170 396,1162 404,1162" fill="#000"/>
<line x1="400" y1="1210" x2="400" y2="1250" stroke="#2d3748"/>
<polygon points="400,1250 396,1242 404,1242" fill="#000"/>
</svg>