<svg xmlns="http://www.w3.org/2000/svg" viewBox="0 0 800 600" width="800" height="600">
<rect x="50" y="50" width="200" height="60" fill="#fff" stroke="#000" stroke-width="1"/>
<text x="150" y="70">&lt;&lt;component&gt;&gt;</text>
<text x="150" y="90">ClassDiagram</text>
<rect x="300" y="50" width="200" height="60" fill="#fff" stroke="#000" stroke-width="1"/>
<text x="400" y="70">&lt;&lt;enum&gt;&gt;</text>
<text x="400" y="90">Visibility</text>
<rect x="550" y="50" width="200" height="60" fill="#fff" stroke="#000" stroke-width="1"/>
<text x="650" y="70">&lt;&lt;enum&gt;&gt;</text>
<text x="650" y="90">EdgeType</text>
<rect x="50" y="250" width="200" height="60" fill="#fff" stroke="#000" stroke-width="1"/>
<text x="150" y="270">&lt;&lt;enum&gt;&gt;</text>
<text x="150" y="290">Decoration</text>
<rect x="300" y="250" width="200" height="60" fill="#fff" stroke="#000" stroke-width="1"/>
<text x="400" y="270">&lt;&lt;enum&gt;&gt;</text>
<text x="400" y="290">LineStyle</text>
<rect x="550" y="250" width="200" height="100" fill="#fff" stroke="#000" stroke-width="1"/>
<text x="650" y="270">Param</text>
<line x1="550" y1="285" x2="750" y2="285" stroke="#000"/>
<text x="560" y="295">+ name: string</text>
<text x="560" y="315">+ paramType: string</text>
<rect x="50" y="450" width="200" height="120" fill="#fff" stroke="#000" stroke-width="1"/>
<text x="150" y="470">Attribute</text>
<line x1="50" y1="485" x2="250" y2="485" stroke="#000"/>
<text x="60" y="495">+ name: string</text>
<text x="60" y="515">+ attrType: string</text>
<text x="60" y="535">+ visibility: Visibility</text>
<rect x="300" y="450" width="200" height="160" stroke-width="1" fill="#fff" stroke="#000"/>
<text x="400" y="470">Method</text>
<line x1="300" y1="485" x2="500" y2="485" stroke="#000"/>
<text x="310" y="495">+ name: string</text>
<text x="310" y="515">+ params: Param</text>
<text x="310" y="535">+ returnType: string</text>
<text x="310" y="555">+ visibility: Visibility</text>
<text x="310" y="575">+ isAsync: bool</text>
<rect x="550" y="450" width="200" height="160" fill="#fff" stroke="#000" stroke-width="1"/>
<text x="650" y="470">Node</text>
<line x1="550" y1="485" x2="750" y2="485" stroke="#000"/>
<text x="560" y="495">+ id: string</text>
<text x="560" y="515">+ name: string</text>
<text x="560" y="535">+ stereotype: string</text>
<text x="560" y="555">+ attributes: Attribute</text>
<text x="560" y="575">+ methods: Method</text>
<rect x="50" y="650" width="200" height="180" fill="#fff" stroke="#000" stroke-width="1"/>
<text x="150" y="670">Edge</text>
<line x1="50" y1="685" x2="250" y2="685" stroke="#000"/>
<text x="60" y="695">+ fromNode: string</text>
<text x="60" y="715">+ toNode: string</text>
<text x="60" y="735">+ edgeType: EdgeType</text>
<text x="60" y="755">+ label: string</text>
<text x="60" y="775">+ decoration: Decoration</text>
<text x="60" y="795">+ lineStyle: LineStyle</text>
<rect x="300" y="650" width="200" height="100" fill="#fff" stroke="#000" stroke-width="1"/>
<text x="400" y="670">Diagram</text>
<line x1="300" y1="685" x2="500" y2="685" stroke="#000"/>
<text x="310" y="695">+ nodes: Node</text>
<text x="310" y="715">+ edges: Edge</text>
</svg>