<svg xmlns="http://www.w3.org/2000/svg" viewBox="0 0 977 600" width="977" height="600">
<defs>
<style>text { font-family: -apple-system, "Segoe UI", "Helvetica Neue", Arial, sans-serif; }</style>
<filter id="drop-shadow" x="-5%" y="-5%" width="115%" height="115%"><feGaussianBlur in="SourceAlpha" stdDeviation="2" result="blur"/><feOffset in="blur" dx="1" dy="2" result="offsetBlur"/><feComponentTransfer in="offsetBlur" result="shadow"><feFuncA type="linear" slope="0.12"/></feComponentTransfer><feMerge><feMergeNode in="shadow"/><feMergeNode in="SourceGraphic"/></feMerge></filter>
<symbol id="actor" viewBox="0 0 40 70" preserveAspectRatio="none"><circle cx="20" cy="10" r="10" fill="#fafbfc" stroke="#2d3748" stroke-width="1.5"/><line x1="20" y1="20" x2="20" y2="45" stroke="#2d3748" stroke-width="1.5"/><line x1="5" y1="30" x2="35" y2="30" stroke="#2d3748" stroke-width="1.5"/><line x1="20" y1="45" x2="5" y2="65" stroke="#2d3748" stroke-width="1.5"/><line x1="20" y1="45" x2="35" y2="65" stroke="#2d3748" stroke-width="1.5"/></symbol>
<symbol id="initial-state" viewBox="0 0 20 20" preserveAspectRatio="none"><circle cx="10" cy="10" r="10" fill="#1a202c"/></symbol>
<symbol id="final-state" viewBox="0 0 24 24" preserveAspectRatio="none"><circle cx="12" cy="12" r="12" fill="none" stroke="#2d3748" stroke-width="2"/><circle cx="12" cy="12" r="8" fill="#1a202c"/></symbol>
</defs>
<rect x="391" y="230" width="195" height="120" fill="#fafbfc" stroke="#2d3748" stroke-width="2" filter="url(#drop-shadow)"/>
<text x="488" y="257" text-anchor="middle" fill="#4a5568" font-style="italic">&lt;&lt;component&gt;&gt;</text>
<text x="488" y="277" text-anchor="middle" fill="#1a202c" font-weight="bold">Animal</text>
<line x1="391" y1="292" x2="586" y2="292" stroke="#cbd5e0"/>
<text x="401" y="307" fill="#1a202c">+ GetInfo(): AnimalData</text>
<text x="401" y="327" fill="#1a202c">+ MakeSound(): string</text>
<rect x="50" y="50" width="130" height="100" fill="#fafbfc" stroke="#2d3748" stroke-width="2" filter="url(#drop-shadow)"/>
<text x="115" y="77" fill="#1a202c" font-weight="bold" text-anchor="middle">AnimalData</text>
<line x1="50" y1="92" x2="180" y2="92" stroke="#cbd5e0"/>
<text x="60" y="107" fill="#1a202c">+ name: string</text>
<text x="60" y="127" fill="#1a202c">+ age: int</text>
<rect x="220" y="50" width="145" height="120" fill="#fafbfc" stroke="#2d3748" stroke-width="2" filter="url(#drop-shadow)"/>
<text x="292" y="77" text-anchor="middle" fill="#4a5568" font-style="italic">&lt;&lt;component&gt;&gt;</text>
<text x="292" y="97" text-anchor="middle" fill="#1a202c" font-weight="bold">Dog</text>
<line x1="220" y1="112" x2="365" y2="112" stroke="#cbd5e0"/>
<text x="230" y="127" fill="#1a202c">+ Bark(): string</text>
<text x="230" y="147" fill="#1a202c">+ Fetch(): bool</text>
<rect x="590" y="50" width="152" height="100" fill="#fafbfc" stroke="#2d3748" stroke-width="2" filter="url(#drop-shadow)"/>
<text x="666" y="77" text-anchor="middle" fill="#1a202c" font-weight="bold">DogData</text>
<line x1="590" y1="92" x2="742" y2="92" stroke="#cbd5e0"/>
<text x="600" y="107" fill="#1a202c">+ breed: string</text>
<text x="600" y="127" fill="#1a202c">+ isGoodBoy: bool</text>
<rect x="405" y="50" width="145" height="120" fill="#fafbfc" stroke="#2d3748" stroke-width="2" filter="url(#drop-shadow)"/>
<text x="477" y="77" text-anchor="middle" fill="#4a5568" font-style="italic">&lt;&lt;component&gt;&gt;</text>
<text x="477" y="97" fill="#1a202c" font-weight="bold" text-anchor="middle">Cat</text>
<line x1="405" y1="112" x2="550" y2="112" stroke="#cbd5e0"/>
<text x="415" y="127" fill="#1a202c">+ Meow(): string</text>
<text x="415" y="147" fill="#1a202c">+ Purr(): bool</text>
<rect x="782" y="50" width="145" height="100" fill="#fafbfc" stroke="#2d3748" stroke-width="2" filter="url(#drop-shadow)"/>
<text x="854" y="77" text-anchor="middle" fill="#1a202c" font-weight="bold">CatData</text>
<line x1="782" y1="92" x2="927" y2="92" stroke="#cbd5e0"/>
<text x="792" y="107" fill="#1a202c">+ color: string</text>
<text x="792" y="127" fill="#1a202c">+ isIndoor: bool</text>
<line x1="365" y1="110" x2="365" y2="218" stroke="#2d3748"/>
<line x1="365" y1="218" x2="391" y2="218" stroke="#2d3748"/>
<polygon points="391,218 381,223 381,213" fill="#fafbfc" stroke="#2d3748"/>
<line x1="477" y1="170" x2="477" y2="230" stroke="#2d3748"/>
<line x1="477" y1="230" x2="488" y2="230" stroke="#2d3748"/>
<polygon points="488,230 478,235 478,225" fill="#fafbfc" stroke="#2d3748"/>
</svg>