<svg xmlns="http://www.w3.org/2000/svg" viewBox="0 0 1137 600" width="1137" height="600">
<defs>
<style>text { font-family: -apple-system, "Segoe UI", "Helvetica Neue", Arial, sans-serif; }</style>
<filter id="drop-shadow" x="-5%" y="-5%" width="115%" height="115%"><feGaussianBlur in="SourceAlpha" stdDeviation="2" result="blur"/><feOffset in="blur" dx="1" dy="2" result="offsetBlur"/><feComponentTransfer in="offsetBlur" result="shadow"><feFuncA type="linear" slope="0.12"/></feComponentTransfer><feMerge><feMergeNode in="shadow"/><feMergeNode in="SourceGraphic"/></feMerge></filter>
<symbol id="actor" viewBox="0 0 40 70" preserveAspectRatio="none"><circle cx="20" cy="10" r="10" fill="#fafbfc" stroke="#2d3748" stroke-width="1.5"/><line x1="20" y1="20" x2="20" y2="45" stroke="#2d3748" stroke-width="1.5"/><line x1="5" y1="30" x2="35" y2="30" stroke="#2d3748" stroke-width="1.5"/><line x1="20" y1="45" x2="5" y2="65" stroke="#2d3748" stroke-width="1.5"/><line x1="20" y1="45" x2="35" y2="65" stroke="#2d3748" stroke-width="1.5"/></symbol>
<symbol id="initial-state" viewBox="0 0 20 20" preserveAspectRatio="none"><circle cx="10" cy="10" r="10" fill="#1a202c"/></symbol>
<symbol id="final-state" viewBox="0 0 24 24" preserveAspectRatio="none"><circle cx="12" cy="12" r="12" fill="none" stroke="#2d3748" stroke-width="2"/><circle cx="12" cy="12" r="8" fill="#1a202c"/></symbol>
</defs>
<rect x="428" y="210" width="281" height="120" fill="#fafbfc" stroke="#2d3748" stroke-width="2" filter="url(#drop-shadow)"/>
<text x="568" y="237" text-anchor="middle" fill="#4a5568" font-style="italic">&lt;&lt;component&gt;&gt;</text>
<text x="568" y="257" text-anchor="middle" fill="#1a202c" font-weight="bold">Serializer</text>
<line x1="428" y1="272" x2="709" y2="272" stroke="#cbd5e0"/>
<text x="438" y="287" fill="#1a202c">+ Serialize(data: string): string</text>
<text x="438" y="307" fill="#1a202c">+ Deserialize(data: string): string</text>
<rect x="50" y="50" width="267" height="100" fill="#fafbfc" stroke="#2d3748" stroke-width="2" filter="url(#drop-shadow)"/>
<text x="183" y="77" text-anchor="middle" fill="#4a5568" font-style="italic">&lt;&lt;component&gt;&gt;</text>
<text x="183" y="97" text-anchor="middle" fill="#1a202c" font-weight="bold">JSONSerializer</text>
<line x1="50" y1="112" x2="317" y2="112" stroke="#cbd5e0"/>
<text x="60" y="127" fill="#1a202c">+ SetConfig(config: string): bool</text>
<rect x="664" y="50" width="166" height="100" fill="#fafbfc" stroke="#2d3748" stroke-width="2" filter="url(#drop-shadow)"/>
<text x="747" y="77" text-anchor="middle" fill="#1a202c" font-weight="bold">JSONConfig</text>
<line x1="664" y1="92" x2="830" y2="92" stroke="#cbd5e0"/>
<text x="674" y="107" fill="#1a202c">+ prettyPrint: bool</text>
<text x="674" y="127" fill="#1a202c">+ indent: int</text>
<rect x="357" y="50" width="267" height="100" stroke="#2d3748" stroke-width="2" filter="url(#drop-shadow)" fill="#fafbfc"/>
<text x="490" y="77" text-anchor="middle" fill="#4a5568" font-style="italic">&lt;&lt;component&gt;&gt;</text>
<text x="490" y="97" text-anchor="middle" fill="#1a202c" font-weight="bold">XMLSerializer</text>
<line x1="357" y1="112" x2="624" y2="112" stroke="#cbd5e0"/>
<text x="367" y="127" fill="#1a202c">+ SetConfig(config: string): bool</text>
<rect x="870" y="50" width="217" height="100" fill="#fafbfc" stroke="#2d3748" stroke-width="2" filter="url(#drop-shadow)"/>
<text x="978" y="77" font-weight="bold" text-anchor="middle" fill="#1a202c">XMLConfig</text>
<line x1="870" y1="92" x2="1087" y2="92" stroke="#cbd5e0"/>
<text x="880" y="107" fill="#1a202c">+ includeDeclaration: bool</text>
<text x="880" y="127" fill="#1a202c">+ encoding: string</text>
<line x1="317" y1="100" x2="317" y2="198" stroke="#2d3748" stroke-dasharray="5,5"/>
<line x1="317" y1="198" x2="428" y2="198" stroke="#2d3748" stroke-dasharray="5,5"/>
<polygon points="428,198 418,202 418,193" fill="#fafbfc" stroke="#2d3748"/>
<line x1="490" y1="150" x2="490" y2="210" stroke="#2d3748" stroke-dasharray="5,5"/>
<line x1="490" y1="210" x2="568" y2="210" stroke="#2d3748" stroke-dasharray="5,5"/>
<polygon points="568,210 558,214 558,205" fill="#fafbfc" stroke="#2d3748"/>
</svg>