<svg xmlns="http://www.w3.org/2000/svg" viewBox="0 0 914 600" width="914" height="600">
<defs>
<style>text { font-family: -apple-system, "Segoe UI", "Helvetica Neue", Arial, sans-serif; }</style>
<filter id="drop-shadow" x="-5%" y="-5%" width="115%" height="115%"><feGaussianBlur in="SourceAlpha" stdDeviation="2" result="blur"/><feOffset in="blur" dx="1" dy="2" result="offsetBlur"/><feComponentTransfer in="offsetBlur" result="shadow"><feFuncA type="linear" slope="0.12"/></feComponentTransfer><feMerge><feMergeNode in="shadow"/><feMergeNode in="SourceGraphic"/></feMerge></filter>
<symbol id="actor" viewBox="0 0 40 70" preserveAspectRatio="none"><circle cx="20" cy="10" r="10" fill="#fafbfc" stroke="#2d3748" stroke-width="1.5"/><line x1="20" y1="20" x2="20" y2="45" stroke="#2d3748" stroke-width="1.5"/><line x1="5" y1="30" x2="35" y2="30" stroke="#2d3748" stroke-width="1.5"/><line x1="20" y1="45" x2="5" y2="65" stroke="#2d3748" stroke-width="1.5"/><line x1="20" y1="45" x2="35" y2="65" stroke="#2d3748" stroke-width="1.5"/></symbol>
<symbol id="initial-state" viewBox="0 0 20 20" preserveAspectRatio="none"><circle cx="10" cy="10" r="10" fill="#1a202c"/></symbol>
<symbol id="final-state" viewBox="0 0 24 24" preserveAspectRatio="none"><circle cx="12" cy="12" r="12" fill="none" stroke="#2d3748" stroke-width="2"/><circle cx="12" cy="12" r="8" fill="#1a202c"/></symbol>
</defs>
<rect x="50" y="50" width="217" height="140" fill="#fafbfc" stroke="#2d3748" stroke-width="2" filter="url(#drop-shadow)"/>
<text x="158" y="77" text-anchor="middle" fill="#4a5568" font-style="italic">&lt;&lt;component&gt;&gt;</text>
<text x="158" y="97" text-anchor="middle" fill="#1a202c" font-weight="bold">Computer</text>
<line x1="50" y1="112" x2="267" y2="112" stroke="#cbd5e0"/>
<text x="60" y="127" fill="#1a202c">+ Boot(): bool</text>
<text x="60" y="147" fill="#1a202c">+ Shutdown(): bool</text>
<text x="60" y="167" fill="#1a202c">+ GetSpecs(): ComputerData</text>
<rect x="307" y="50" width="137" height="120" fill="#fafbfc" stroke="#2d3748" stroke-width="2" filter="url(#drop-shadow)"/>
<text x="375" y="77" text-anchor="middle" fill="#1a202c" font-weight="bold">ComputerData</text>
<line x1="307" y1="92" x2="444" y2="92" stroke="#cbd5e0"/>
<text x="317" y="107" fill="#1a202c">+ id: string</text>
<text x="317" y="127" fill="#1a202c">+ brand: string</text>
<text x="317" y="147" fill="#1a202c">+ model: string</text>
<rect x="260" y="250" width="166" height="120" fill="#fafbfc" stroke="#2d3748" stroke-width="2" filter="url(#drop-shadow)"/>
<text x="343" y="277" text-anchor="middle" fill="#4a5568" font-style="italic">&lt;&lt;component&gt;&gt;</text>
<text x="343" y="297" text-anchor="middle" fill="#1a202c" font-weight="bold">CPU</text>
<line x1="260" y1="312" x2="426" y2="312" stroke="#cbd5e0"/>
<text x="270" y="327" fill="#1a202c">+ GetCores(): int</text>
<text x="270" y="347" fill="#1a202c">+ GetSpeed(): float</text>
<rect x="484" y="50" width="188" height="120" fill="#fafbfc" stroke="#2d3748" stroke-width="2" filter="url(#drop-shadow)"/>
<text x="578" y="77" text-anchor="middle" fill="#1a202c" font-weight="bold">CPUData</text>
<line x1="484" y1="92" x2="672" y2="92" stroke="#cbd5e0"/>
<text x="494" y="107" fill="#1a202c">+ cores: int</text>
<text x="494" y="127" fill="#1a202c">+ clockSpeed: float</text>
<text x="494" y="147" fill="#1a202c">+ architecture: string</text>
<rect x="466" y="250" width="188" height="120" fill="#fafbfc" stroke="#2d3748" stroke-width="2" filter="url(#drop-shadow)"/>
<text x="560" y="277" text-anchor="middle" fill="#4a5568" font-style="italic">&lt;&lt;component&gt;&gt;</text>
<text x="560" y="297" fill="#1a202c" font-weight="bold" text-anchor="middle">Memory</text>
<line x1="466" y1="312" x2="654" y2="312" stroke="#cbd5e0"/>
<text x="476" y="327" fill="#1a202c">+ GetSize(): int</text>
<text x="476" y="347" fill="#1a202c">+ GetMemType(): string</text>
<rect x="712" y="50" width="152" height="120" fill="#fafbfc" stroke="#2d3748" stroke-width="2" filter="url(#drop-shadow)"/>
<text x="788" y="77" fill="#1a202c" font-weight="bold" text-anchor="middle">MemoryData</text>
<line x1="712" y1="92" x2="864" y2="92" stroke="#cbd5e0"/>
<text x="722" y="107" fill="#1a202c">+ size: int</text>
<text x="722" y="127" fill="#1a202c">+ memType: string</text>
<text x="722" y="147" fill="#1a202c">+ speed: int</text>
<line x1="-15" y1="190" x2="-15" y2="250" stroke="#2d3748"/>
<line x1="-15" y1="250" x2="343" y2="250" stroke="#2d3748"/>
<polygon points="-15,250 -5,255 5,250 -5,245" fill="#2d3748"/>
<line x1="267" y1="120" x2="366" y2="120" stroke="#2d3748"/>
<line x1="366" y1="120" x2="366" y2="310" stroke="#2d3748"/>
<line x1="366" y1="310" x2="466" y2="310" stroke="#2d3748"/>
<polygon points="366,310 376,315 386,310 376,305" fill="#2d3748"/>
</svg>