<svg xmlns="http://www.w3.org/2000/svg" viewBox="0 0 1070 640" width="1070" height="640">
<defs>
<style>text { font-family: -apple-system, "Segoe UI", "Helvetica Neue", Arial, sans-serif; }</style>
<filter id="drop-shadow" x="-5%" y="-5%" width="115%" height="115%"><feGaussianBlur in="SourceAlpha" stdDeviation="2" result="blur"/><feOffset in="blur" dx="1" dy="2" result="offsetBlur"/><feComponentTransfer in="offsetBlur" result="shadow"><feFuncA type="linear" slope="0.12"/></feComponentTransfer><feMerge><feMergeNode in="shadow"/><feMergeNode in="SourceGraphic"/></feMerge></filter>
<symbol id="actor" viewBox="0 0 40 70" preserveAspectRatio="none"><circle cx="20" cy="10" r="10" fill="#fafbfc" stroke="#2d3748" stroke-width="1.5"/><line x1="20" y1="20" x2="20" y2="45" stroke="#2d3748" stroke-width="1.5"/><line x1="5" y1="30" x2="35" y2="30" stroke="#2d3748" stroke-width="1.5"/><line x1="20" y1="45" x2="5" y2="65" stroke="#2d3748" stroke-width="1.5"/><line x1="20" y1="45" x2="35" y2="65" stroke="#2d3748" stroke-width="1.5"/></symbol>
<symbol id="initial-state" viewBox="0 0 20 20" preserveAspectRatio="none"><circle cx="10" cy="10" r="10" fill="#1a202c"/></symbol>
<symbol id="final-state" viewBox="0 0 24 24" preserveAspectRatio="none"><circle cx="12" cy="12" r="12" fill="none" stroke="#2d3748" stroke-width="2"/><circle cx="12" cy="12" r="8" fill="#1a202c"/></symbol>
</defs>
<rect x="50" y="50" width="188" height="120" fill="#fafbfc" stroke="#2d3748" stroke-width="2" filter="url(#drop-shadow)"/>
<text x="144" y="77" text-anchor="middle" fill="#4a5568" font-style="italic">&lt;&lt;component&gt;&gt;</text>
<text x="144" y="97" font-weight="bold" text-anchor="middle" fill="#1a202c">Application</text>
<line x1="50" y1="112" x2="238" y2="112" stroke="#cbd5e0"/>
<text x="60" y="127" fill="#1a202c">+ Run(): bool</text>
<text x="60" y="147" fill="#1a202c">+ GetVersion(): string</text>
<rect x="278" y="50" width="152" height="100" filter="url(#drop-shadow)" fill="#fafbfc" stroke="#2d3748" stroke-width="2"/>
<text x="354" y="77" text-anchor="middle" fill="#1a202c" font-weight="bold">AppData</text>
<line x1="278" y1="92" x2="430" y2="92" stroke="#cbd5e0"/>
<text x="288" y="107" fill="#1a202c">+ name: string</text>
<text x="288" y="127" fill="#1a202c">+ version: string</text>
<rect x="341" y="230" width="174" height="100" fill="#fafbfc" stroke="#2d3748" stroke-width="2" filter="url(#drop-shadow)"/>
<text x="428" y="257" text-anchor="middle" fill="#4a5568" font-style="italic">&lt;&lt;component&gt;&gt;</text>
<text x="428" y="277" text-anchor="middle" fill="#1a202c" font-weight="bold">ServiceA</text>
<line x1="341" y1="292" x2="515" y2="292" stroke="#cbd5e0"/>
<text x="351" y="307" fill="#1a202c">+ ProcessA(): string</text>
<rect x="470" y="50" width="152" height="80" stroke-width="2" filter="url(#drop-shadow)" fill="#fafbfc" stroke="#2d3748"/>
<text x="546" y="77" text-anchor="middle" fill="#1a202c" font-weight="bold">ServiceAData</text>
<line x1="470" y1="92" x2="622" y2="92" stroke="#cbd5e0"/>
<text x="480" y="107" fill="#1a202c">+ configA: string</text>
<rect x="555" y="230" width="174" height="100" fill="#fafbfc" stroke="#2d3748" stroke-width="2" filter="url(#drop-shadow)"/>
<text x="642" y="257" fill="#4a5568" font-style="italic" text-anchor="middle">&lt;&lt;component&gt;&gt;</text>
<text x="642" y="277" text-anchor="middle" fill="#1a202c" font-weight="bold">ServiceB</text>
<line x1="555" y1="292" x2="729" y2="292" stroke="#cbd5e0"/>
<text x="565" y="307" fill="#1a202c">+ ProcessB(): string</text>
<rect x="662" y="50" width="152" height="80" fill="#fafbfc" stroke="#2d3748" stroke-width="2" filter="url(#drop-shadow)"/>
<text x="738" y="77" text-anchor="middle" fill="#1a202c" font-weight="bold">ServiceBData</text>
<line x1="662" y1="92" x2="814" y2="92" stroke="#cbd5e0"/>
<text x="672" y="107" fill="#1a202c">+ configB: string</text>
<rect x="441" y="390" width="188" height="140" filter="url(#drop-shadow)" fill="#fafbfc" stroke="#2d3748" stroke-width="2"/>
<text x="535" y="417" text-anchor="middle" fill="#4a5568" font-style="italic">&lt;&lt;component&gt;&gt;</text>
<text x="535" y="437" fill="#1a202c" font-weight="bold" text-anchor="middle">CoreLibrary</text>
<line x1="441" y1="452" x2="629" y2="452" stroke="#cbd5e0"/>
<text x="451" y="467" fill="#1a202c">+ Initialize(): bool</text>
<text x="451" y="487" fill="#1a202c">+ GetVersion(): string</text>
<text x="451" y="507" fill="#1a202c">+ Cleanup(): bool</text>
<rect x="854" y="50" width="166" height="100" stroke-width="2" filter="url(#drop-shadow)" fill="#fafbfc" stroke="#2d3748"/>
<text x="937" y="77" font-weight="bold" text-anchor="middle" fill="#1a202c">CoreData</text>
<line x1="854" y1="92" x2="1020" y2="92" stroke="#cbd5e0"/>
<text x="864" y="107" fill="#1a202c">+ version: string</text>
<text x="864" y="127" fill="#1a202c">+ initialized: bool</text>
<line x1="238" y1="38" x2="238" y2="280" stroke="#2d3748" stroke-dasharray="5,5"/>
<line x1="238" y1="280" x2="341" y2="280" stroke="#2d3748" stroke-dasharray="5,5"/>
<polygon points="341,280 331,284 331,275" fill="#2d3748"/>
<line x1="238" y1="110" x2="238" y2="550" stroke="#2d3748" stroke-dasharray="5,5"/>
<line x1="238" y1="550" x2="555" y2="550" stroke="#2d3748" stroke-dasharray="5,5"/>
<line x1="555" y1="550" x2="555" y2="280" stroke="#2d3748" stroke-dasharray="5,5"/>
<polygon points="555,280 559,289 550,289" fill="#2d3748"/>
<line x1="428" y1="330" x2="428" y2="390" stroke="#2d3748" stroke-dasharray="5,5"/>
<line x1="428" y1="390" x2="385" y2="390" stroke="#2d3748" stroke-dasharray="5,5"/>
<polygon points="385,390 395,385 395,395" fill="#2d3748"/>
<line x1="642" y1="330" x2="642" y2="390" stroke="#2d3748" stroke-dasharray="5,5"/>
<line x1="642" y1="390" x2="535" y2="390" stroke="#2d3748" stroke-dasharray="5,5"/>
<polygon points="535,390 544,385 544,394" fill="#2d3748"/>
</svg>