<svg xmlns="http://www.w3.org/2000/svg" viewBox="0 0 800 600" width="800" height="600">
<rect x="50" y="50" width="200" height="60" fill="#fff" stroke="#000" stroke-width="1"/>
<text x="150" y="70">&lt;&lt;component&gt;&gt;</text>
<text x="150" y="90">Alpha</text>
<rect x="300" y="50" width="200" height="80" fill="#fff" stroke="#000" stroke-width="1"/>
<text x="400" y="70">AlphaData</text>
<line x1="300" y1="85" x2="500" y2="85" stroke="#000"/>
<text x="310" y="95">+ id: string</text>
<rect x="550" y="50" width="200" height="60" stroke="#000" stroke-width="1" fill="#fff"/>
<text x="650" y="70">&lt;&lt;component&gt;&gt;</text>
<text x="650" y="90">Beta</text>
<rect x="50" y="250" width="200" height="80" stroke="#000" stroke-width="1" fill="#fff"/>
<text x="150" y="270">BetaData</text>
<line x1="50" y1="285" x2="250" y2="285" stroke="#000"/>
<text x="60" y="295">+ name: string</text>
<rect x="300" y="250" width="200" height="60" stroke="#000" stroke-width="1" fill="#fff"/>
<text x="400" y="270">&lt;&lt;component&gt;&gt;</text>
<text x="400" y="290">Gamma</text>
<rect x="550" y="250" width="200" height="80" fill="#fff" stroke="#000" stroke-width="1"/>
<text x="650" y="270">GammaData</text>
<line x1="550" y1="285" x2="750" y2="285" stroke="#000"/>
<text x="560" y="295">+ count: int</text>
<rect x="50" y="450" width="200" height="60" fill="#fff" stroke="#000" stroke-width="1"/>
<text x="150" y="470">&lt;&lt;component&gt;&gt;</text>
<text x="150" y="490">Delta</text>
<rect x="300" y="450" width="200" height="80" fill="#fff" stroke="#000" stroke-width="1"/>
<text x="400" y="470">DeltaData</text>
<line x1="300" y1="485" x2="500" y2="485" stroke="#000"/>
<text x="310" y="495">+ value: float</text>
<rect x="550" y="450" width="200" height="60" fill="#fff" stroke="#000" stroke-width="1"/>
<text x="650" y="470">&lt;&lt;component&gt;&gt;</text>
<text x="650" y="490">Epsilon</text>
<rect x="50" y="650" width="200" height="80" stroke="#000" stroke-width="1" fill="#fff"/>
<text x="150" y="670">EpsilonData</text>
<line x1="50" y1="685" x2="250" y2="685" stroke="#000"/>
<text x="60" y="695">+ flag: bool</text>
<rect x="300" y="650" width="200" height="60" fill="#fff" stroke="#000" stroke-width="1"/>
<text x="400" y="670">&lt;&lt;component&gt;&gt;</text>
<text x="400" y="690">Zeta</text>
<rect x="550" y="650" width="200" height="80" fill="#fff" stroke="#000" stroke-width="1"/>
<text x="650" y="670">ZetaData</text>
<line x1="550" y1="685" x2="750" y2="685" stroke="#000"/>
<text x="560" y="695">+ description: string</text>
</svg>