<svg xmlns="http://www.w3.org/2000/svg" viewBox="0 0 800 600" width="800" height="600">
<rect x="50" y="50" width="200" height="60" stroke="#000" stroke-width="1" fill="#fff"/>
<text x="150" y="70">&lt;&lt;component&gt;&gt;</text>
<text x="150" y="90">Library</text>
<rect x="300" y="50" width="200" height="100" fill="#fff" stroke="#000" stroke-width="1"/>
<text x="400" y="70">LibraryData</text>
<line x1="300" y1="85" x2="500" y2="85" stroke="#000"/>
<text x="310" y="95">+ name: string</text>
<text x="310" y="115">+ location: string</text>
<rect x="550" y="50" width="200" height="60" fill="#fff" stroke="#000" stroke-width="1"/>
<text x="650" y="70">&lt;&lt;component&gt;&gt;</text>
<text x="650" y="90">Book</text>
<rect x="50" y="250" width="200" height="120" fill="#fff" stroke="#000" stroke-width="1"/>
<text x="150" y="270">BookData</text>
<line x1="50" y1="285" x2="250" y2="285" stroke="#000"/>
<text x="60" y="295">+ isbn: string</text>
<text x="60" y="315">+ title: string</text>
<text x="60" y="335">+ author: string</text>
<rect x="300" y="250" width="200" height="60" fill="#fff" stroke="#000" stroke-width="1"/>
<text x="400" y="270">&lt;&lt;component&gt;&gt;</text>
<text x="400" y="290">Member</text>
<rect x="550" y="250" width="200" height="100" fill="#fff" stroke="#000" stroke-width="1"/>
<text x="650" y="270">MemberData</text>
<line x1="550" y1="285" x2="750" y2="285" stroke="#000"/>
<text x="560" y="295">+ memberId: string</text>
<text x="560" y="315">+ name: string</text>
<line x1="150" y1="100" x2="550" y2="100" stroke="#000"/>
<polygon points="" fill="#fff" stroke="#000"/>
<line x1="150" y1="100" x2="300" y2="300" stroke="#000"/>
<polygon points="" fill="#fff" stroke="#000"/>
</svg>