<svg xmlns="http://www.w3.org/2000/svg" viewBox="0 0 800 600" width="800" height="600">
<rect x="50" y="50" width="200" height="60" stroke-width="1" fill="#fff" stroke="#000"/>
<text x="150" y="70">&lt;&lt;component&gt;&gt;</text>
<text x="150" y="90">BaseService</text>
<rect x="300" y="50" width="200" height="80" fill="#fff" stroke="#000" stroke-width="1"/>
<text x="400" y="70">BaseConfig</text>
<line x1="300" y1="85" x2="500" y2="85" stroke="#000"/>
<text x="310" y="95">+ name: string</text>
<rect x="550" y="50" width="200" height="60" fill="#fff" stroke="#000" stroke-width="1"/>
<text x="650" y="70">&lt;&lt;component&gt;&gt;</text>
<text x="650" y="90">Logger</text>
<rect x="50" y="250" width="200" height="80" fill="#fff" stroke="#000" stroke-width="1"/>
<text x="150" y="270">LogEntry</text>
<line x1="50" y1="285" x2="250" y2="285" stroke="#000"/>
<text x="60" y="295">+ message: string</text>
<rect x="300" y="250" width="200" height="60" stroke-width="1" fill="#fff" stroke="#000"/>
<text x="400" y="270">&lt;&lt;component&gt;&gt;</text>
<text x="400" y="290">Cache</text>
<rect x="550" y="250" width="200" height="100" fill="#fff" stroke="#000" stroke-width="1"/>
<text x="650" y="270">CacheEntry</text>
<line x1="550" y1="285" x2="750" y2="285" stroke="#000"/>
<text x="560" y="295">+ key: string</text>
<text x="560" y="315">+ value: string</text>
<rect x="50" y="450" width="200" height="60" stroke="#000" stroke-width="1" fill="#fff"/>
<text x="150" y="470">&lt;&lt;component&gt;&gt;</text>
<text x="150" y="490">AdvancedService</text>
<rect x="300" y="450" width="200" height="100" fill="#fff" stroke="#000" stroke-width="1"/>
<text x="400" y="470">ServiceData</text>
<line x1="300" y1="485" x2="500" y2="485" stroke="#000"/>
<text x="310" y="495">+ id: string</text>
<text x="310" y="515">+ status: string</text>
<line x1="150" y1="500" x2="50" y2="100" stroke="#000"/>
<polygon points="" fill="#fff" stroke="#000"/>
<line x1="150" y1="500" x2="0" y2="50" class="dashed" stroke="#000"/>
<polygon points="" fill="#fff" stroke="#000"/>
<line x1="150" y1="500" x2="0" y2="50" stroke="#000" class="dashed"/>
<polygon points="" fill="#fff" stroke="#000"/>
<line x1="150" y1="500" x2="550" y2="100" stroke="#000" class="dashed"/>
<line x1="150" y1="500" x2="300" y2="300" stroke="#000" class="dashed"/>
</svg>