<svg xmlns="http://www.w3.org/2000/svg" viewBox="0 0 800 600" width="800" height="600">
<rect x="50" y="50" width="200" height="220" fill="#fff" stroke="#000" stroke-width="1"/>
<text x="150" y="70">&lt;&lt;component&gt;&gt;</text>
<text x="150" y="90">OrderManagement</text>
<line x1="50" y1="105" x2="250" y2="105" stroke="#000"/>
<text x="60" y="115">+ GetOrder()</text>
<text x="60" y="135">+ CreateOrder()</text>
<text x="60" y="155">+ UpdateOrder()</text>
<text x="60" y="175">+ CancelOrder()</text>
<text x="60" y="195">+ ListOrders()</text>
<text x="60" y="215">+ GetOrderStatus()</text>
<text x="60" y="235">+ ForceComplete()</text>
<text x="60" y="255">+ RefundOrder()</text>
<rect x="300" y="50" width="200" height="100" fill="#fff" stroke="#000" stroke-width="1"/>
<text x="400" y="70">Money</text>
<line x1="300" y1="85" x2="500" y2="85" stroke="#000"/>
<text x="310" y="95">+ amount: float</text>
<text x="310" y="115">+ currency: string</text>
<rect x="550" y="50" width="200" height="160" fill="#fff" stroke="#000" stroke-width="1"/>
<text x="650" y="70">Address</text>
<line x1="550" y1="85" x2="750" y2="85" stroke="#000"/>
<text x="560" y="95">+ street: string</text>
<text x="560" y="115">+ city: string</text>
<text x="560" y="135">+ stateProvince: string</text>
<text x="560" y="155">+ zipCode: string</text>
<text x="560" y="175">+ country: string</text>
<rect x="50" y="250" width="200" height="160" fill="#fff" stroke="#000" stroke-width="1"/>
<text x="150" y="270">OrderItem</text>
<line x1="50" y1="285" x2="250" y2="285" stroke="#000"/>
<text x="60" y="295">+ productId: string</text>
<text x="60" y="315">+ productName: string</text>
<text x="60" y="335">+ quantity: int</text>
<text x="60" y="355">+ unitPrice: Money</text>
<text x="60" y="375">+ discount: float</text>
<rect x="300" y="250" width="200" height="240" fill="#fff" stroke="#000" stroke-width="1"/>
<text x="400" y="270">Order</text>
<line x1="300" y1="285" x2="500" y2="285" stroke="#000"/>
<text x="310" y="295">+ id: string</text>
<text x="310" y="315">+ customerId: string</text>
<text x="310" y="335">+ items: OrderItem</text>
<text x="310" y="355">+ shippingAddress: Address</text>
<text x="310" y="375">+ billingAddress: Address</text>
<text x="310" y="395">+ subtotal: Money</text>
<text x="310" y="415">+ tax: Money</text>
<text x="310" y="435">+ total: Money</text>
<text x="310" y="455">+ notes: string</text>
<rect x="550" y="250" width="200" height="60" stroke="#000" stroke-width="1" fill="#fff"/>
<text x="650" y="270">&lt;&lt;enum&gt;&gt;</text>
<text x="650" y="290">OrderStatus</text>
<rect x="50" y="450" width="200" height="100" fill="#fff" stroke="#000" stroke-width="1"/>
<text x="150" y="470">&lt;&lt;interface&gt;&gt;</text>
<text x="150" y="490">PaymentGateway</text>
<line x1="50" y1="505" x2="250" y2="505" stroke="#000"/>
<text x="60" y="515">+ ProcessPayment()</text>
<text x="60" y="535">+ RefundPayment()</text>
<rect x="300" y="450" width="200" height="100" fill="#fff" stroke="#000" stroke-width="1"/>
<text x="400" y="470">&lt;&lt;interface&gt;&gt;</text>
<text x="400" y="490">ShippingProvider</text>
<line x1="300" y1="505" x2="500" y2="505" stroke="#000"/>
<text x="310" y="515">+ CreateShipment()</text>
<text x="310" y="535">+ TrackShipment()</text>
<rect x="550" y="450" width="200" height="60" fill="#fff" stroke="#000" stroke-width="1"/>
<text x="650" y="470">&lt;&lt;component&gt;&gt;</text>
<text x="650" y="490">CustomerService</text>
<rect x="50" y="650" width="200" height="100" fill="#fff" stroke="#000" stroke-width="1"/>
<text x="150" y="670">Customer</text>
<line x1="50" y1="685" x2="250" y2="685" stroke="#000"/>
<text x="60" y="695">+ id: string</text>
<text x="60" y="715">+ name: string</text>
<rect x="300" y="650" width="200" height="60" stroke="#000" stroke-width="1" fill="#fff"/>
<text x="400" y="670">&lt;&lt;component&gt;&gt;</text>
<text x="400" y="690">InventoryService</text>
<rect x="550" y="650" width="200" height="100" fill="#fff" stroke="#000" stroke-width="1"/>
<text x="650" y="670">Stock</text>
<line x1="550" y1="685" x2="750" y2="685" stroke="#000"/>
<text x="560" y="695">+ productId: string</text>
<text x="560" y="715">+ quantity: int</text>
<rect x="50" y="850" width="200" height="60" fill="#fff" stroke="#000" stroke-width="1"/>
<text x="150" y="870">&lt;&lt;component&gt;&gt;</text>
<text x="150" y="890">PaymentService</text>
<rect x="300" y="850" width="200" height="100" fill="#fff" stroke="#000" stroke-width="1"/>
<text x="400" y="870">Payment</text>
<line x1="300" y1="885" x2="500" y2="885" stroke="#000"/>
<text x="310" y="895">+ id: string</text>
<text x="310" y="915">+ amount: float</text>
<rect x="550" y="850" width="200" height="60" fill="#fff" stroke="#000" stroke-width="1"/>
<text x="650" y="870">&lt;&lt;component&gt;&gt;</text>
<text x="650" y="890">NotificationService</text>
<rect x="50" y="1050" width="200" height="80" fill="#fff" stroke="#000" stroke-width="1"/>
<text x="150" y="1070">Notification</text>
<line x1="50" y1="1085" x2="250" y2="1085" stroke="#000"/>
<text x="60" y="1095">+ message: string</text>
<rect x="300" y="1050" width="200" height="60" fill="#fff" stroke="#000" stroke-width="1"/>
<text x="400" y="1070">&lt;&lt;component&gt;&gt;</text>
<text x="400" y="1090">OrderItemProcessor</text>
<rect x="550" y="1050" width="200" height="100" stroke-width="1" fill="#fff" stroke="#000"/>
<text x="650" y="1070">ProcessedItem</text>
<line x1="550" y1="1085" x2="750" y2="1085" stroke="#000"/>
<text x="560" y="1095">+ itemId: string</text>
<text x="560" y="1115">+ status: string</text>
<rect x="50" y="1250" width="200" height="60" fill="#fff" stroke="#000" stroke-width="1"/>
<text x="150" y="1270">&lt;&lt;component&gt;&gt;</text>
<text x="150" y="1290">ShippingHandler</text>
<rect x="300" y="1250" width="200" height="80" stroke="#000" stroke-width="1" fill="#fff"/>
<text x="400" y="1270">Shipment</text>
<line x1="300" y1="1285" x2="500" y2="1285" stroke="#000"/>
<text x="310" y="1295">+ trackingId: string</text>
<rect x="550" y="1250" width="200" height="60" stroke-width="1" fill="#fff" stroke="#000"/>
<text x="650" y="1270">&lt;&lt;component&gt;&gt;</text>
<text x="650" y="1290">BaseEntity</text>
<rect x="50" y="1450" width="200" height="100" fill="#fff" stroke="#000" stroke-width="1"/>
<text x="150" y="1470">BaseData</text>
<line x1="50" y1="1485" x2="250" y2="1485" stroke="#000"/>
<text x="60" y="1495">+ createdAt: string</text>
<text x="60" y="1515">+ updatedAt: string</text>
<line x1="150" y1="100" x2="550" y2="1300" stroke="#000"/>
<polygon points="" stroke="#000" fill="#fff"/>
<line x1="150" y1="100" x2="0" y2="50" class="dashed" stroke="#000"/>
<polygon points="" fill="#fff" stroke="#000"/>
<line x1="150" y1="100" x2="0" y2="50" stroke="#000" class="dashed"/>
<polygon points="" fill="#fff" stroke="#000"/>
<line x1="150" y1="100" x2="550" y2="500" stroke="#000" class="dashed"/>
<line x1="150" y1="100" x2="300" y2="700" stroke="#000" class="dashed"/>
<line x1="150" y1="100" x2="50" y2="900" stroke="#000" class="dashed"/>
<line x1="150" y1="100" x2="550" y2="900" stroke="#000" class="dashed"/>
<line x1="150" y1="100" x2="300" y2="1100" stroke="#000"/>
<polygon points="" fill="#000"/>
<line x1="150" y1="100" x2="50" y2="1300" stroke="#000"/>
<polygon points="" fill="#fff" stroke="#000"/>
</svg>