<svg xmlns="http://www.w3.org/2000/svg" viewBox="0 0 800 600" width="800" height="600">
<rect x="50" y="50" width="200" height="100" fill="#fff" stroke="#000" stroke-width="1"/>
<text x="150" y="70">&lt;&lt;component&gt;&gt;</text>
<text x="150" y="90">ServiceA</text>
<line x1="50" y1="105" x2="250" y2="105" stroke="#000"/>
<text x="60" y="115">+ GetFromA()</text>
<text x="60" y="135">+ ProcessWithB()</text>
<rect x="300" y="50" width="200" height="100" fill="#fff" stroke="#000" stroke-width="1"/>
<text x="400" y="70">ServiceAData</text>
<line x1="300" y1="85" x2="500" y2="85" stroke="#000"/>
<text x="310" y="95">+ id: string</text>
<text x="310" y="115">+ name: string</text>
<rect x="550" y="50" width="200" height="100" fill="#fff" stroke="#000" stroke-width="1"/>
<text x="650" y="70">&lt;&lt;component&gt;&gt;</text>
<text x="650" y="90">ServiceB</text>
<line x1="550" y1="105" x2="750" y2="105" stroke="#000"/>
<text x="560" y="115">+ GetFromB()</text>
<text x="560" y="135">+ ProcessWithA()</text>
<rect x="50" y="250" width="200" height="100" fill="#fff" stroke="#000" stroke-width="1"/>
<text x="150" y="270">ServiceBData</text>
<line x1="50" y1="285" x2="250" y2="285" stroke="#000"/>
<text x="60" y="295">+ id: string</text>
<text x="60" y="315">+ value: int</text>
<line x1="150" y1="100" x2="550" y2="100" stroke="#000" class="dashed"/>
<line x1="650" y1="100" x2="50" y2="100" stroke="#000" class="dashed"/>
</svg>