<svg xmlns="http://www.w3.org/2000/svg" viewBox="0 0 800 600" width="800" height="600">
<rect x="50" y="50" width="200" height="80" stroke="#000" stroke-width="1" fill="#fff"/>
<text x="150" y="70">&lt;&lt;component&gt;&gt;</text>
<text x="150" y="90">TopService</text>
<line x1="50" y1="105" x2="250" y2="105" stroke="#000"/>
<text x="60" y="115">+ ExecuteAll()</text>
<rect x="300" y="50" width="200" height="100" fill="#fff" stroke="#000" stroke-width="1"/>
<text x="400" y="70">TopData</text>
<line x1="300" y1="85" x2="500" y2="85" stroke="#000"/>
<text x="310" y="95">+ id: string</text>
<text x="310" y="115">+ status: string</text>
<rect x="550" y="50" width="200" height="80" fill="#fff" stroke="#000" stroke-width="1"/>
<text x="650" y="70">&lt;&lt;component&gt;&gt;</text>
<text x="650" y="90">LeftService</text>
<line x1="550" y1="105" x2="750" y2="105" stroke="#000"/>
<text x="560" y="115">+ ProcessLeft()</text>
<rect x="50" y="250" width="200" height="100" stroke="#000" stroke-width="1" fill="#fff"/>
<text x="150" y="270">LeftData</text>
<line x1="50" y1="285" x2="250" y2="285" stroke="#000"/>
<text x="60" y="295">+ leftId: string</text>
<text x="60" y="315">+ leftValue: int</text>
<rect x="300" y="250" width="200" height="80" stroke-width="1" fill="#fff" stroke="#000"/>
<text x="400" y="270">&lt;&lt;component&gt;&gt;</text>
<text x="400" y="290">RightService</text>
<line x1="300" y1="305" x2="500" y2="305" stroke="#000"/>
<text x="310" y="315">+ ProcessRight()</text>
<rect x="550" y="250" width="200" height="100" fill="#fff" stroke="#000" stroke-width="1"/>
<text x="650" y="270">RightData</text>
<line x1="550" y1="285" x2="750" y2="285" stroke="#000"/>
<text x="560" y="295">+ rightId: string</text>
<text x="560" y="315">+ rightValue: int</text>
<rect x="50" y="450" width="200" height="100" stroke="#000" stroke-width="1" fill="#fff"/>
<text x="150" y="470">&lt;&lt;component&gt;&gt;</text>
<text x="150" y="490">BaseService</text>
<line x1="50" y1="505" x2="250" y2="505" stroke="#000"/>
<text x="60" y="515">+ GetBase()</text>
<text x="60" y="535">+ Initialize()</text>
<rect x="300" y="450" width="200" height="100" fill="#fff" stroke="#000" stroke-width="1"/>
<text x="400" y="470">BaseData</text>
<line x1="300" y1="485" x2="500" y2="485" stroke="#000"/>
<text x="310" y="495">+ baseId: string</text>
<text x="310" y="515">+ timestamp: string</text>
<line x1="150" y1="100" x2="550" y2="100" stroke="#000" class="dashed"/>
<line x1="150" y1="100" x2="300" y2="300" stroke="#000" class="dashed"/>
<line x1="650" y1="100" x2="50" y2="500" stroke="#000" class="dashed"/>
<line x1="400" y1="300" x2="50" y2="500" stroke="#000" class="dashed"/>
</svg>