<svg xmlns="http://www.w3.org/2000/svg" viewBox="0 0 800 600" width="800" height="600">
<rect x="50" y="50" width="200" height="120" stroke-width="1" fill="#fff" stroke="#000"/>
<text x="150" y="70">&lt;&lt;component&gt;&gt;</text>
<text x="150" y="90">MultiTypeService</text>
<line x1="50" y1="105" x2="250" y2="105" stroke="#000"/>
<text x="60" y="115">+ GetUser()</text>
<text x="60" y="135">+ GetProduct()</text>
<text x="60" y="155">+ GetOrder()</text>
<rect x="300" y="50" width="200" height="120" fill="#fff" stroke="#000" stroke-width="1"/>
<text x="400" y="70">User</text>
<line x1="300" y1="85" x2="500" y2="85" stroke="#000"/>
<text x="310" y="95">+ id: string</text>
<text x="310" y="115">+ name: string</text>
<text x="310" y="135">+ email: string</text>
<rect x="550" y="50" width="200" height="120" fill="#fff" stroke="#000" stroke-width="1"/>
<text x="650" y="70">Product</text>
<line x1="550" y1="85" x2="750" y2="85" stroke="#000"/>
<text x="560" y="95">+ productId: string</text>
<text x="560" y="115">+ title: string</text>
<text x="560" y="135">+ price: float</text>
<rect x="50" y="250" width="200" height="120" fill="#fff" stroke="#000" stroke-width="1"/>
<text x="150" y="270">Order</text>
<line x1="50" y1="285" x2="250" y2="285" stroke="#000"/>
<text x="60" y="295">+ orderId: string</text>
<text x="60" y="315">+ userId: string</text>
<text x="60" y="335">+ total: float</text>
<rect x="300" y="250" width="200" height="120" fill="#fff" stroke="#000" stroke-width="1"/>
<text x="400" y="270">Payment</text>
<line x1="300" y1="285" x2="500" y2="285" stroke="#000"/>
<text x="310" y="295">+ paymentId: string</text>
<text x="310" y="315">+ amount: float</text>
<text x="310" y="335">+ currency: string</text>
<rect x="550" y="250" width="200" height="120" fill="#fff" stroke="#000" stroke-width="1"/>
<text x="650" y="270">Address</text>
<line x1="550" y1="285" x2="750" y2="285" stroke="#000"/>
<text x="560" y="295">+ street: string</text>
<text x="560" y="315">+ city: string</text>
<text x="560" y="335">+ country: string</text>
<rect x="50" y="450" width="200" height="120" fill="#fff" stroke="#000" stroke-width="1"/>
<text x="150" y="470">Shipping</text>
<line x1="50" y1="485" x2="250" y2="485" stroke="#000"/>
<text x="60" y="495">+ trackingId: string</text>
<text x="60" y="515">+ carrier: string</text>
<text x="60" y="535">+ status: string</text>
<rect x="300" y="450" width="200" height="120" stroke-width="1" fill="#fff" stroke="#000"/>
<text x="400" y="470">Review</text>
<line x1="300" y1="485" x2="500" y2="485" stroke="#000"/>
<text x="310" y="495">+ reviewId: string</text>
<text x="310" y="515">+ rating: int</text>
<text x="310" y="535">+ comment: string</text>
<rect x="550" y="450" width="200" height="120" fill="#fff" stroke="#000" stroke-width="1"/>
<text x="650" y="470">Category</text>
<line x1="550" y1="485" x2="750" y2="485" stroke="#000"/>
<text x="560" y="495">+ categoryId: string</text>
<text x="560" y="515">+ name: string</text>
<text x="560" y="535">+ parentId: string</text>
<rect x="50" y="650" width="200" height="120" fill="#fff" stroke="#000" stroke-width="1"/>
<text x="150" y="670">Inventory</text>
<line x1="50" y1="685" x2="250" y2="685" stroke="#000"/>
<text x="60" y="695">+ sku: string</text>
<text x="60" y="715">+ quantity: int</text>
<text x="60" y="735">+ location: string</text>
<rect x="300" y="650" width="200" height="120" fill="#fff" stroke="#000" stroke-width="1"/>
<text x="400" y="670">Notification</text>
<line x1="300" y1="685" x2="500" y2="685" stroke="#000"/>
<text x="310" y="695">+ notificationId: string</text>
<text x="310" y="715">+ message: string</text>
<text x="310" y="735">+ read: bool</text>
</svg>