<svg xmlns="http://www.w3.org/2000/svg" viewBox="0 0 800 600" width="800" height="600">
<rect x="50" y="50" width="200" height="200" stroke-width="1" fill="#fff" stroke="#000"/>
<text x="150" y="70">&lt;&lt;component&gt;&gt;</text>
<text x="150" y="90">DataProcessor</text>
<line x1="50" y1="105" x2="250" y2="105" stroke="#000"/>
<text x="60" y="115">+ ProcessSingle()</text>
<text x="60" y="135">+ ProcessPair()</text>
<text x="60" y="155">+ ProcessTriple()</text>
<text x="60" y="175">+ TransformData()</text>
<text x="60" y="195">+ ComplexProcess()</text>
<text x="60" y="215">+ BatchOperation()</text>
<text x="60" y="235">+ SearchWithPagination()</text>
<rect x="300" y="50" width="200" height="120" fill="#fff" stroke="#000" stroke-width="1"/>
<text x="400" y="70">ProcessResult</text>
<line x1="300" y1="85" x2="500" y2="85" stroke="#000"/>
<text x="310" y="95">+ success: bool</text>
<text x="310" y="115">+ message: string</text>
<text x="310" y="135">+ processedCount: int</text>
<rect x="550" y="50" width="200" height="120" fill="#fff" stroke="#000" stroke-width="1"/>
<text x="650" y="70">FilterCriteria</text>
<line x1="550" y1="85" x2="750" y2="85" stroke="#000"/>
<text x="560" y="95">+ field: string</text>
<text x="560" y="115">+ operator: string</text>
<text x="560" y="135">+ value: string</text>
<rect x="50" y="250" width="200" height="100" fill="#fff" stroke="#000" stroke-width="1"/>
<text x="150" y="270">SortOptions</text>
<line x1="50" y1="285" x2="250" y2="285" stroke="#000"/>
<text x="60" y="295">+ field: string</text>
<text x="60" y="315">+ ascending: bool</text>
<rect x="300" y="250" width="200" height="140" fill="#fff" stroke="#000" stroke-width="1"/>
<text x="400" y="270">PageInfo</text>
<line x1="300" y1="285" x2="500" y2="285" stroke="#000"/>
<text x="310" y="295">+ page: int</text>
<text x="310" y="315">+ pageSize: int</text>
<text x="310" y="335">+ totalPages: int</text>
<text x="310" y="355">+ totalItems: int</text>
</svg>