<svg xmlns="http://www.w3.org/2000/svg" viewBox="0 0 800 600" width="800" height="600">
<rect x="50" y="50" width="200" height="60" fill="#fff" stroke="#000" stroke-width="1"/>
<text x="150" y="70">&lt;&lt;component&gt;&gt;</text>
<text x="150" y="90">BaseEntity</text>
<rect x="300" y="50" width="200" height="80" fill="#fff" stroke="#000" stroke-width="1"/>
<text x="400" y="70">EntityId</text>
<line x1="300" y1="85" x2="500" y2="85" stroke="#000"/>
<text x="310" y="95">+ value: string</text>
<rect x="550" y="50" width="200" height="120" stroke-width="1" fill="#fff" stroke="#000"/>
<text x="650" y="70">&lt;&lt;component&gt;&gt;</text>
<text x="650" y="90">Repository</text>
<line x1="550" y1="105" x2="750" y2="105" stroke="#000"/>
<text x="560" y="115">+ findById()</text>
<text x="560" y="135">+ save()</text>
<text x="560" y="155">+ delete()</text>
<rect x="50" y="250" width="200" height="100" fill="#fff" stroke="#000" stroke-width="1"/>
<text x="150" y="270">&lt;&lt;component&gt;&gt;</text>
<text x="150" y="290">Logger</text>
<line x1="50" y1="305" x2="250" y2="305" stroke="#000"/>
<text x="60" y="315">+ log()</text>
<text x="60" y="335">+ error()</text>
<rect x="300" y="250" width="200" height="60" stroke-width="1" fill="#fff" stroke="#000"/>
<text x="400" y="270">&lt;&lt;component&gt;&gt;</text>
<text x="400" y="290">Cache</text>
<rect x="550" y="250" width="200" height="120" fill="#fff" stroke="#000" stroke-width="1"/>
<text x="650" y="270">CacheEntry</text>
<line x1="550" y1="285" x2="750" y2="285" stroke="#000"/>
<text x="560" y="295">+ key: string</text>
<text x="560" y="315">+ value: string</text>
<text x="560" y="335">+ ttl: int</text>
<rect x="50" y="450" width="200" height="140" stroke="#000" stroke-width="1" fill="#fff"/>
<text x="150" y="470">&lt;&lt;component&gt;&gt;</text>
<text x="150" y="490">UserService</text>
<line x1="50" y1="505" x2="250" y2="505" stroke="#000"/>
<text x="60" y="515">+ createUser()</text>
<text x="60" y="535">+ getUser()</text>
<text x="60" y="555">+ updateUser()</text>
<text x="60" y="575">+ deleteUser()</text>
<rect x="300" y="450" width="200" height="120" fill="#fff" stroke="#000" stroke-width="1"/>
<text x="400" y="470">User</text>
<line x1="300" y1="485" x2="500" y2="485" stroke="#000"/>
<text x="310" y="495">+ id: string</text>
<text x="310" y="515">+ name: string</text>
<text x="310" y="535">+ email: string</text>
<rect x="550" y="450" width="200" height="60" fill="#fff" stroke="#000" stroke-width="1"/>
<text x="650" y="470">&lt;&lt;component&gt;&gt;</text>
<text x="650" y="490">AdvancedService</text>
<line x1="150" y1="500" x2="50" y2="100" stroke="#000"/>
<polygon points="" fill="#fff" stroke="#000"/>
<line x1="150" y1="500" x2="550" y2="100" stroke="#000" class="dashed"/>
<polygon points="" fill="#fff" stroke="#000"/>
<line x1="150" y1="500" x2="0" y2="50" class="dashed" stroke="#000"/>
<line x1="150" y1="500" x2="50" y2="300" stroke="#000" class="dashed"/>
<line x1="150" y1="500" x2="0" y2="50" stroke="#000"/>
<polygon points="" fill="#000"/>
<line x1="150" y1="500" x2="0" y2="50" stroke="#000"/>
<polygon points="" fill="#000"/>
<line x1="150" y1="500" x2="300" y2="300" stroke="#000"/>
<polygon points="" fill="#fff" stroke="#000"/>
<line x1="150" y1="500" x2="0" y2="50" stroke="#000"/>
<polygon points="" fill="#fff" stroke="#000"/>
<line x1="650" y1="500" x2="50" y2="100" stroke="#000"/>
<polygon points="" fill="#fff" stroke="#000"/>
<line x1="650" y1="500" x2="550" y2="100" stroke="#000" class="dashed"/>
<polygon points="" fill="#fff" stroke="#000"/>
<line x1="650" y1="500" x2="50" y2="300" stroke="#000" class="dashed"/>
<polygon points="" fill="#fff" stroke="#000"/>
<line x1="650" y1="500" x2="0" y2="50" stroke="#000" class="dashed"/>
<line x1="650" y1="500" x2="0" y2="50" stroke="#000" class="dashed"/>
<line x1="650" y1="500" x2="0" y2="50" stroke="#000"/>
<polygon points="" fill="#000"/>
<line x1="650" y1="500" x2="0" y2="50" stroke="#000"/>
<polygon points="" fill="#000"/>
<line x1="650" y1="500" x2="0" y2="50" stroke="#000"/>
<polygon points="" stroke="#000" fill="#fff"/>
<line x1="650" y1="500" x2="0" y2="50" stroke="#000"/>
<polygon points="" fill="#fff" stroke="#000"/>
</svg>