<svg xmlns="http://www.w3.org/2000/svg" viewBox="0 0 800 600" width="800" height="600">
<rect x="50" y="50" width="200" height="140" fill="#fff" stroke="#000" stroke-width="1"/>
<text x="150" y="70">&lt;&lt;component&gt;&gt;</text>
<text x="150" y="90">AnnotatedService</text>
<line x1="50" y1="105" x2="250" y2="105" stroke="#000"/>
<text x="60" y="115">+ getUser()</text>
<text x="60" y="135">+ createUser()</text>
<text x="60" y="155">+ updateUser()</text>
<text x="60" y="175">+ deleteUser()</text>
<rect x="300" y="50" width="200" height="160" fill="#fff" stroke="#000" stroke-width="1"/>
<text x="400" y="70">UserDTO</text>
<line x1="300" y1="85" x2="500" y2="85" stroke="#000"/>
<text x="310" y="95">+ id: string</text>
<text x="310" y="115">+ email: string</text>
<text x="310" y="135">+ displayName: string</text>
<text x="310" y="155">+ age: int</text>
<text x="310" y="175">+ countryCode: string</text>
<rect x="550" y="50" width="200" height="140" fill="#fff" stroke="#000" stroke-width="1"/>
<text x="650" y="70">UserEntity</text>
<line x1="550" y1="85" x2="750" y2="85" stroke="#000"/>
<text x="560" y="95">+ id: string</text>
<text x="560" y="115">+ email: string</text>
<text x="560" y="135">+ createdAt: string</text>
<text x="560" y="155">+ orders: Order</text>
<rect x="50" y="250" width="200" height="60" stroke="#000" stroke-width="1" fill="#fff"/>
<text x="150" y="270">&lt;&lt;enum&gt;&gt;</text>
<text x="150" y="290">UserStatus</text>
<rect x="300" y="250" width="200" height="60" fill="#fff" stroke="#000" stroke-width="1"/>
<text x="400" y="270">&lt;&lt;component&gt;&gt;</text>
<text x="400" y="290">SingletonService</text>
<rect x="550" y="250" width="200" height="100" stroke="#000" stroke-width="1" fill="#fff"/>
<text x="650" y="270">Config</text>
<line x1="550" y1="285" x2="750" y2="285" stroke="#000"/>
<text x="560" y="295">+ timeout: int</text>
<text x="560" y="315">+ retries: int</text>
<line x1="400" y1="300" x2="0" y2="50" stroke="#000" class="dashed"/>
<line x1="400" y1="300" x2="0" y2="50" stroke="#000" class="dashed"/>
</svg>