<svg xmlns="http://www.w3.org/2000/svg" viewBox="0 0 800 600" width="800" height="600">
<rect x="50" y="50" width="200" height="220" fill="#fff" stroke="#000" stroke-width="1"/>
<text x="150" y="70">&lt;&lt;component&gt;&gt;</text>
<text x="150" y="90">VisibilityDemo</text>
<line x1="50" y1="105" x2="250" y2="105" stroke="#000"/>
<text x="60" y="115">+ getPublicData()</text>
<text x="60" y="135">+ setPublicData()</text>
<text x="60" y="155">+ getProtectedData()</text>
<text x="60" y="175">+ setProtectedData()</text>
<text x="60" y="195">+ getPrivateData()</text>
<text x="60" y="215">+ setPrivateData()</text>
<text x="60" y="235">+ getPackageData()</text>
<text x="60" y="255">+ setPackageData()</text>
<rect x="300" y="50" width="200" height="100" stroke="#000" stroke-width="1" fill="#fff"/>
<text x="400" y="70">PublicType</text>
<line x1="300" y1="85" x2="500" y2="85" stroke="#000"/>
<text x="310" y="95">+ publicField: string</text>
<text x="310" y="115">+ anotherPublic: int</text>
<rect x="550" y="50" width="200" height="120" fill="#fff" stroke="#000" stroke-width="1"/>
<text x="650" y="70">PrivateType</text>
<line x1="550" y1="85" x2="750" y2="85" stroke="#000"/>
<text x="560" y="95">- privateField: string</text>
<text x="560" y="115">- secretKey: string</text>
<text x="560" y="135">- internalId: int</text>
<rect x="50" y="250" width="200" height="100" stroke="#000" stroke-width="1" fill="#fff"/>
<text x="150" y="270">ProtectedType</text>
<line x1="50" y1="285" x2="250" y2="285" stroke="#000"/>
<text x="60" y="295"># protectedField: string</text>
<text x="60" y="315"># inheritableValue: int</text>
<rect x="300" y="250" width="200" height="100" fill="#fff" stroke="#000" stroke-width="1"/>
<text x="400" y="270">PackageType</text>
<line x1="300" y1="285" x2="500" y2="285" stroke="#000"/>
<text x="310" y="295">~ packageField: string</text>
<text x="310" y="315">~ internalOnly: bool</text>
<rect x="550" y="250" width="200" height="180" fill="#fff" stroke="#000" stroke-width="1"/>
<text x="650" y="270">MixedVisibility</text>
<line x1="550" y1="285" x2="750" y2="285" stroke="#000"/>
<text x="560" y="295">+ id: string</text>
<text x="560" y="315">+ name: string</text>
<text x="560" y="335">- password: string</text>
<text x="560" y="355">- apiKey: string</text>
<text x="560" y="375"># baseUrl: string</text>
<text x="560" y="395">~ internalData: string</text>
<rect x="50" y="450" width="200" height="260" fill="#fff" stroke="#000" stroke-width="1"/>
<text x="150" y="470">FullyAnnotated</text>
<line x1="50" y1="485" x2="250" y2="485" stroke="#000"/>
<text x="60" y="495">+ publicId: string</text>
<text x="60" y="515">+ publicName: string</text>
<text x="60" y="535">+ publicItems: Item</text>
<text x="60" y="555">- privateSecret: string</text>
<text x="60" y="575">- privateConfig: Config</text>
<text x="60" y="595">- privateList: string</text>
<text x="60" y="615"># protectedBase: Base</text>
<text x="60" y="635"># protectedArray: Base</text>
<text x="60" y="655">~ packageInternal: Internal</text>
<text x="60" y="675">~ packageData: Data</text>
</svg>