<svg xmlns="http://www.w3.org/2000/svg" viewBox="0 0 875 600" width="875" height="600">
<rect x="50" y="50" width="224" height="120" fill="#fff" stroke="#000" stroke-width="1"/>
<text x="162" y="77" text-anchor="middle">&lt;&lt;component&gt;&gt;</text>
<text x="162" y="97" text-anchor="middle">BasicClassExample</text>
<line x1="50" y1="112" x2="274" y2="112" stroke="#000"/>
<text x="60" y="127">+ GetUser(id: string): User</text>
<text x="60" y="147">+ ListUsers(): User[]</text>
<rect x="314" y="50" width="159" height="160" fill="#fff" stroke="#000" stroke-width="1"/>
<text x="393" y="77" text-anchor="middle">User</text>
<line x1="314" y1="92" x2="473" y2="92" stroke="#000"/>
<text x="324" y="107">+ id: string</text>
<text x="324" y="127">+ name: string</text>
<text x="324" y="147">- password: string</text>
<text x="324" y="167"># role: string</text>
<text x="324" y="187">~ internal: int</text>
<rect x="513" y="50" width="152" height="140" fill="#fff" stroke="#000" stroke-width="1"/>
<text x="589" y="77" text-anchor="middle">Address</text>
<line x1="513" y1="92" x2="665" y2="92" stroke="#000"/>
<text x="523" y="107">+ street: string</text>
<text x="523" y="127">+ city: string</text>
<text x="523" y="147">+ zip: string</text>
<text x="523" y="167">+ country: string</text>
<rect x="705" y="50" width="120" height="70" fill="#fff" stroke="#000" stroke-width="1"/>
<text x="765" y="77" text-anchor="middle">&lt;&lt;enum&gt;&gt;</text>
<text x="765" y="97" text-anchor="middle">UserRole</text>
</svg>