<svg xmlns="http://www.w3.org/2000/svg" viewBox="0 0 1228 600" width="1228" height="600">
<rect x="50" y="50" width="533" height="180" stroke="#000" stroke-width="1" fill="#fff"/>
<text x="316" y="77" text-anchor="middle">&lt;&lt;component&gt;&gt;</text>
<text x="316" y="97" text-anchor="middle">AnnotatedService</text>
<line x1="50" y1="112" x2="583" y2="112" stroke="#000"/>
<text x="60" y="127">+ ListUsers(): User[]</text>
<text x="60" y="147">+ GetUser(id: string): User</text>
<text x="60" y="167">+ CreateUser(name: string, email: string): User throws ValidationError</text>
<text x="60" y="187">+ UpdateUser(id: string, data: string): User</text>
<text x="60" y="207">+ DeleteUser(id: string): bool</text>
<rect x="623" y="50" width="181" height="140" fill="#fff" stroke="#000" stroke-width="1"/>
<text x="713" y="77" text-anchor="middle">User</text>
<line x1="623" y1="92" x2="804" y2="92" stroke="#000"/>
<text x="633" y="107">+ id: string</text>
<text x="633" y="127">+ email: string</text>
<text x="633" y="147">+ name: string</text>
<text x="633" y="167">+ displayName: string</text>
<rect x="844" y="50" width="174" height="120" fill="#fff" stroke="#000" stroke-width="1"/>
<text x="931" y="77" text-anchor="middle">Config</text>
<line x1="844" y1="92" x2="1018" y2="92" stroke="#000"/>
<text x="854" y="107">+ dbHost: string</text>
<text x="854" y="127">+ dbPort: int</text>
<text x="854" y="147">+ cacheEnabled: bool</text>
<rect x="1058" y="50" width="120" height="70" fill="#fff" stroke="#000" stroke-width="1"/>
<text x="1118" y="77" text-anchor="middle">&lt;&lt;enum&gt;&gt;</text>
<text x="1118" y="97" text-anchor="middle">Priority</text>
<rect x="370" y="290" width="231" height="100" fill="#fff" stroke="#000" stroke-width="1"/>
<text x="485" y="317" text-anchor="middle">&lt;&lt;component&gt;&gt;</text>
<text x="485" y="337" text-anchor="middle">Database</text>
<line x1="370" y1="352" x2="601" y2="352" stroke="#000"/>
<text x="380" y="367">+ Query(sql: string): string</text>
<rect x="641" y="290" width="217" height="100" stroke="#000" stroke-width="1" fill="#fff"/>
<text x="749" y="317" text-anchor="middle">&lt;&lt;component&gt;&gt;</text>
<text x="749" y="337" text-anchor="middle">CacheService</text>
<line x1="641" y1="352" x2="858" y2="352" stroke="#000"/>
<text x="651" y="367">+ Get(key: string): string</text>
<line x1="-110" y1="230" x2="-110" y2="290" stroke="#000" stroke-dasharray="5,5"/>
<line x1="-110" y1="290" x2="485" y2="290" stroke="#000" stroke-dasharray="5,5"/>
<polygon points="485,290 475,294 475,285" fill="#000"/>
<line x1="583" y1="140" x2="583" y2="340" stroke="#000" stroke-dasharray="5,5"/>
<line x1="583" y1="340" x2="641" y2="340" stroke-dasharray="5,5" stroke="#000"/>
<polygon points="641,340 631,345 631,335" fill="#000"/>
<line x1="110" y1="70" x2="170" y2="70" stroke="#000" stroke-dasharray="5,5"/>
<path d="M170,50 L260,50 L270,60 L270,90 L170,90 L170,50 Z" fill="#ffffcc" stroke="#000"/>
<path d="M260,50 L260,60 L270,60" stroke="#000" fill="none"/>
<text x="175" y="65">Annotated service example</text>
</svg>