<svg xmlns="http://www.w3.org/2000/svg" viewBox="0 0 800 600" width="800" height="600">
<rect x="50" y="50" width="135" height="40" fill="#fff" stroke="#000"/>
<text x="117" y="75" text-anchor="middle">PaymentProcessor</text>
<line x1="117" y1="100" x2="117" y2="500" stroke-dasharray="5,5" stroke="#000"/>
<rect x="215" y="50" width="80" height="40" fill="#fff" stroke="#000"/>
<text x="255" y="75" text-anchor="middle">BankAPI</text>
<line x1="255" y1="100" x2="255" y2="500" stroke="#000" stroke-dasharray="5,5"/>
<rect x="325" y="50" width="113" height="40" stroke="#000" fill="#fff"/>
<text x="381" y="75" text-anchor="middle">FraudDetector</text>
<line x1="381" y1="100" x2="381" y2="500" stroke="#000" stroke-dasharray="5,5"/>
<rect x="468" y="50" width="80" height="40" fill="#fff" stroke="#000"/>
<text x="508" y="75" text-anchor="middle">self</text>
<line x1="508" y1="100" x2="508" y2="500" stroke="#000" stroke-dasharray="5,5"/>
<line x1="117" y1="120" x2="508" y2="120" stroke="#000"/>
<polygon points="508,120 500,123 500,116" fill="#000"/>
<text x="312" y="115" text-anchor="middle">getPayment</text>
<line x1="117" y1="160" x2="255" y2="160" stroke="#000"/>
<polygon points="255,160 247,163 247,156" fill="#000"/>
<text x="186" y="155" text-anchor="middle">refund</text>
<line x1="117" y1="200" x2="508" y2="200" stroke="#000"/>
<polygon points="508,200 500,203 500,196" fill="#000"/>
<text x="312" y="195" text-anchor="middle">updateStatus</text>
<rect x="137" y="230" width="113" height="25" fill="#ccffcc" stroke="#006600"/>
<text x="147" y="245">return refund</text>
<rect x="250" y="160" width="10" height="110" fill="#fff" stroke="#000"/>
<rect x="503" y="200" width="10" height="70" fill="#fff" stroke="#000"/>
<text x="60" y="285">[else]</text>
<rect x="137" y="280" width="192" height="25" stroke="#cc0000" fill="#ffcccc"/>
<text x="147" y="295">throw InvalidRefundError</text>
<rect x="50" y="150" width="700" height="180" stroke="#000" fill="none"/>
<text x="60" y="160">[alt] condition</text>
<line x1="50" y1="275" x2="750" y2="275" stroke="#000" stroke-dasharray="5,5"/>
<rect x="503" y="120" width="10" height="200" fill="#fff" stroke="#000"/>
</svg>