<svg xmlns="http://www.w3.org/2000/svg" viewBox="0 0 800 600" width="800" height="600">
<rect x="228" y="50" width="145" height="70" fill="#fff" stroke="#000" stroke-width="1"/>
<text x="300" y="77" text-anchor="middle">&lt;&lt;component&gt;&gt;</text>
<text x="300" y="97" text-anchor="middle">PaymentProcessor</text>
<rect x="413" y="50" width="159" height="140" fill="#fff" stroke="#000" stroke-width="1"/>
<text x="492" y="77" text-anchor="middle">Payment</text>
<line x1="413" y1="92" x2="572" y2="92" stroke="#000"/>
<text x="423" y="107">+ id: string</text>
<text x="423" y="127">+ amount: float</text>
<text x="423" y="147">+ currency: string</text>
<text x="423" y="167">+ status: string</text>
<rect x="59" y="250" width="382" height="120" stroke-width="1" fill="#fff" stroke="#000"/>
<text x="250" y="277" text-anchor="middle">&lt;&lt;component&gt;&gt;</text>
<text x="250" y="297" text-anchor="middle">BankAPI</text>
<line x1="59" y1="312" x2="441" y2="312" stroke="#000"/>
<text x="69" y="327">+ Charge(amount: float, currency: string): string</text>
<text x="69" y="347">+ Refund(id: string, amount: float): bool</text>
<rect x="481" y="250" width="260" height="100" fill="#fff" stroke="#000" stroke-width="1"/>
<text x="611" y="277" text-anchor="middle">&lt;&lt;component&gt;&gt;</text>
<text x="611" y="297" text-anchor="middle">FraudDetector</text>
<line x1="481" y1="312" x2="741" y2="312" stroke="#000"/>
<text x="491" y="327">+ Check(payment: string): string</text>
<line x1="184" y1="120" x2="184" y2="250" stroke="#000" stroke-dasharray="5,5"/>
<line x1="184" y1="250" x2="250" y2="250" stroke-dasharray="5,5" stroke="#000"/>
<polygon points="250,250 240,254 240,245" fill="#000"/>
<line x1="373" y1="85" x2="373" y2="192" stroke="#000" stroke-dasharray="5,5"/>
<line x1="373" y1="192" x2="481" y2="192" stroke="#000" stroke-dasharray="5,5"/>
<line x1="481" y1="192" x2="481" y2="300" stroke="#000" stroke-dasharray="5,5"/>
<polygon points="481,300 476,290 485,290" fill="#000"/>
</svg>