<svg xmlns="http://www.w3.org/2000/svg" viewBox="0 0 800 1140" width="800" height="1140">
<rect x="350" y="50" width="100" height="40" rx="20" ry="20" fill="#fff" stroke="#000"/>
<text x="400" y="75" text-anchor="middle">Start</text>
<rect x="335" y="130" width="130" height="40" stroke="#000" fill="#fff"/>
<text x="400" y="155" text-anchor="middle">running = true</text>
<rect x="339" y="210" width="123" height="40" stroke="#000" fill="#fff"/>
<text x="400" y="235" text-anchor="middle">processed = 0</text>
<polygon points="400,290 450,310 400,330 350,310" fill="#fff" stroke="#000"/>
<text x="400" y="315" text-anchor="middle">while?</text>
<rect x="270" y="370" width="260" height="40" stroke="#000" fill="#fff"/>
<text x="400" y="395" text-anchor="middle">record = DataSource.nextRecord()</text>
<polygon points="400,450 451,470 400,490 349,470" fill="#fff" stroke="#000"/>
<text x="400" y="475" text-anchor="middle">condition?</text>
<rect x="249" y="530" width="303" height="40" fill="#fff" stroke="#000"/>
<text x="400" y="555" text-anchor="middle">result = Transformer.transform(record)</text>
<rect x="350" y="610" width="100" height="40" fill="#fff" stroke="#000"/>
<text x="400" y="635" text-anchor="middle">write()</text>
<rect x="296" y="690" width="209" height="40" fill="#fff" stroke="#000"/>
<text x="400" y="715" text-anchor="middle">processed = processed + 1</text>
<rect x="482" y="770" width="137" height="40" fill="#fff" stroke="#000"/>
<text x="550" y="795" text-anchor="middle">running = false</text>
<rect x="350" y="850" width="100" height="40" fill="#fff" stroke="#000"/>
<rect x="350" y="930" width="100" height="40" rx="20" ry="20" fill="#fff" stroke="#000"/>
<text x="400" y="955" text-anchor="middle">return</text>
<rect x="350" y="1010" width="100" height="40" rx="20" ry="20" fill="#fff" stroke="#000"/>
<text x="400" y="1035" text-anchor="middle">End</text>
<line x1="400" y1="90" x2="400" y2="130" stroke="#000"/>
<polygon points="400,130 396,122 404,122" fill="#000"/>
<line x1="400" y1="170" x2="400" y2="210" stroke="#000"/>
<polygon points="400,210 396,202 404,202" fill="#000"/>
<line x1="400" y1="250" x2="400" y2="290" stroke="#000"/>
<polygon points="400,290 396,282 404,282" fill="#000"/>
<line x1="400" y1="330" x2="400" y2="370" stroke="#000"/>
<polygon points="400,370 396,362 404,362" fill="#000"/>
<line x1="400" y1="410" x2="400" y2="450" stroke="#000"/>
<polygon points="400,450 396,442 404,442" fill="#000"/>
<line x1="400" y1="490" x2="400" y2="530" stroke="#000"/>
<polygon points="400,530 396,522 404,522" fill="#000"/>
<text x="410" y="510">Yes</text>
<line x1="400" y1="570" x2="400" y2="610" stroke="#000"/>
<polygon points="400,610 396,602 404,602" fill="#000"/>
<line x1="400" y1="650" x2="400" y2="690" stroke="#000"/>
<polygon points="400,690 396,682 404,682" fill="#000"/>
<line x1="440" y1="470" x2="550" y2="470" stroke="#000"/>
<line x1="550" y1="470" x2="550" y2="770" stroke="#000"/>
<polygon points="550,770 546,762 553,762" fill="#000"/>
<text x="460" y="465">No</text>
<line x1="400" y1="730" x2="400" y2="850" stroke="#000"/>
<polygon points="400,850 396,842 403,842" fill="#000"/>
<line x1="550" y1="810" x2="550" y2="830" stroke="#000"/>
<line x1="550" y1="830" x2="400" y2="830" stroke="#000"/>
<line x1="400" y1="830" x2="400" y2="850" stroke="#000"/>
<polygon points="400,850 396,842 404,842" fill="#000"/>
<line x1="400" y1="890" x2="400" y2="290" stroke="#000"/>
<polygon points="400,290 403,297 396,297" fill="#000"/>
<line x1="400" y1="330" x2="400" y2="930" stroke="#000"/>
<polygon points="400,930 396,922 403,922" fill="#000"/>
<line x1="400" y1="970" x2="400" y2="1010" stroke="#000"/>
<polygon points="400,1010 396,1002 404,1002" fill="#000"/>
</svg>