<svg xmlns="http://www.w3.org/2000/svg" viewBox="0 0 1288 600" width="1288" height="600">
<rect x="593" y="50" width="123" height="70" stroke="#000" stroke-width="1" fill="#fff"/>
<text x="654" y="77" text-anchor="middle">&lt;&lt;component&gt;&gt;</text>
<text x="654" y="97" text-anchor="middle">DataPipeline</text>
<rect x="401" y="50" width="152" height="120" fill="#fff" stroke="#000" stroke-width="1"/>
<text x="477" y="77" text-anchor="middle">Record</text>
<line x1="401" y1="92" x2="553" y2="92" stroke="#000"/>
<text x="411" y="107">+ id: string</text>
<text x="411" y="127">+ data: string</text>
<text x="411" y="147">+ processed: bool</text>
<rect x="756" y="50" width="130" height="120" stroke="#000" stroke-width="1" fill="#fff"/>
<text x="821" y="77" text-anchor="middle">BatchResult</text>
<line x1="756" y1="92" x2="886" y2="92" stroke="#000"/>
<text x="766" y="107">+ total: int</text>
<text x="766" y="127">+ success: int</text>
<text x="766" y="147">+ failed: int</text>
<rect x="50" y="230" width="267" height="120" fill="#fff" stroke="#000" stroke-width="1"/>
<text x="183" y="257" text-anchor="middle">&lt;&lt;component&gt;&gt;</text>
<text x="183" y="277" text-anchor="middle">DataSource</text>
<line x1="50" y1="292" x2="317" y2="292" stroke="#000"/>
<text x="60" y="307">+ FetchBatch(size: int): string[]</text>
<text x="60" y="327">+ NextRecord(): string</text>
<rect x="357" y="230" width="281" height="100" fill="#fff" stroke="#000" stroke-width="1"/>
<text x="497" y="257" text-anchor="middle">&lt;&lt;component&gt;&gt;</text>
<text x="497" y="277" text-anchor="middle">Transformer</text>
<line x1="357" y1="292" x2="638" y2="292" stroke="#000"/>
<text x="367" y="307">+ Transform(record: string): string</text>
<rect x="678" y="230" width="267" height="100" fill="#fff" stroke="#000" stroke-width="1"/>
<text x="811" y="257" text-anchor="middle">&lt;&lt;component&gt;&gt;</text>
<text x="811" y="277" text-anchor="middle">DataSink</text>
<line x1="678" y1="292" x2="945" y2="292" stroke="#000"/>
<text x="688" y="307">+ async Write(data: string): bool</text>
<rect x="985" y="230" width="253" height="120" stroke="#000" stroke-width="1" fill="#fff"/>
<text x="1111" y="257" text-anchor="middle">&lt;&lt;component&gt;&gt;</text>
<text x="1111" y="277" text-anchor="middle">Monitor</text>
<line x1="985" y1="292" x2="1238" y2="292" stroke="#000"/>
<text x="995" y="307">+ ReportInvalid(record: string)</text>
<text x="995" y="327">+ ReportBatch(result: string)</text>
<line x1="593" y1="57" x2="317" y2="57" stroke="#000" stroke-dasharray="5,5"/>
<line x1="317" y1="57" x2="317" y2="290" stroke="#000" stroke-dasharray="5,5"/>
<polygon points="317,290 312,280 321,280" fill="#000"/>
<line x1="622" y1="120" x2="622" y2="230" stroke="#000" stroke-dasharray="5,5"/>
<line x1="622" y1="230" x2="497" y2="230" stroke="#000" stroke-dasharray="5,5"/>
<polygon points="497,230 506,225 506,234" fill="#000"/>
<line x1="654" y1="120" x2="654" y2="230" stroke="#000" stroke-dasharray="5,5"/>
<line x1="654" y1="230" x2="811" y2="230" stroke="#000" stroke-dasharray="5,5"/>
<polygon points="811,230 801,234 801,225" fill="#000"/>
<line x1="716" y1="99" x2="716" y2="370" stroke="#000" stroke-dasharray="5,5"/>
<line x1="716" y1="370" x2="985" y2="370" stroke-dasharray="5,5" stroke="#000"/>
<line x1="985" y1="370" x2="985" y2="290" stroke="#000" stroke-dasharray="5,5"/>
<polygon points="985,290 989,299 980,299" fill="#000"/>
</svg>