<svg xmlns="http://www.w3.org/2000/svg" viewBox="0 0 800 600" width="800" height="600">
<circle cx="139" cy="50" r="10" fill="#000"/>
<rect x="65" y="100" width="149" height="75" rx="10" ry="10" stroke="#000" fill="#fff"/>
<text x="139" y="125" text-anchor="middle">Received</text>
<line x1="65" y1="135" x2="213" y2="135" stroke="#000"/>
<text x="70" y="150">entry/ logReceived</text>
<rect x="268" y="100" width="178" height="90" rx="10" ry="10" stroke="#000" fill="#fff"/>
<text x="357" y="125" text-anchor="middle">Validating</text>
<line x1="268" y1="135" x2="446" y2="135" stroke="#000"/>
<text x="273" y="150">entry/ startValidation</text>
<text x="273" y="165">exit/ stopValidation</text>
<rect x="486" y="100" width="171" height="75" rx="10" ry="10" fill="#fff" stroke="#000"/>
<text x="571" y="125" text-anchor="middle">PaymentPending</text>
<line x1="486" y1="135" x2="656" y2="135" stroke="#000"/>
<text x="491" y="150">entry/ requestPayment</text>
<rect x="50" y="220" width="178" height="75" rx="10" ry="10" fill="#fff" stroke="#000"/>
<text x="139" y="245" text-anchor="middle">Processing</text>
<line x1="50" y1="255" x2="228" y2="255" stroke="#000"/>
<text x="55" y="270">entry/ startProcessing</text>
<rect x="272" y="220" width="171" height="105" rx="10" ry="10" fill="#fff" stroke="#000"/>
<text x="357" y="245" text-anchor="middle">Shipping</text>
<line x1="272" y1="255" x2="442" y2="255" stroke="#000"/>
<text x="277" y="270">entry/ createShipment</text>
<text x="277" y="285">entry/ notifyCustomer</text>
<text x="277" y="300">exit/ updateTracking</text>
<circle cx="139" cy="400" r="12" stroke="#000" stroke-width="2"/>
<circle cx="139" cy="400" r="8" fill="#000"/>
<circle cx="289" cy="400" r="12" stroke-width="2" stroke="#000"/>
<circle cx="289" cy="400" r="8" fill="#000"/>
<line x1="139" y1="60" x2="139" y2="83" stroke="#000"/>
<polygon points="139,83 135,75 143,75" fill="#000"/>
<line x1="213" y1="120" x2="268" y2="120" stroke="#000"/>
<polygon points="268,120 260,124 260,116" fill="#000"/>
<text x="240" y="115" text-anchor="middle">process</text>
<line x1="446" y1="120" x2="486" y2="120" stroke="#000"/>
<polygon points="486,120 478,124 478,116" fill="#000"/>
<text x="466" y="85" text-anchor="middle">validated [isValid]</text>
<line x1="357" y1="165" x2="357" y2="10" stroke="#000"/>
<line x1="357" y1="10" x2="289" y2="10" stroke="#000"/>
<line x1="289" y1="10" x2="289" y2="388" stroke="#000"/>
<polygon points="289,388 285,380 292,380" fill="#000"/>
<text x="323" y="5" text-anchor="middle">validated [isInvalid]</text>
<line x1="486" y1="120" x2="486" y2="400" stroke="#000"/>
<line x1="486" y1="400" x2="301" y2="400" stroke="#000"/>
<polygon points="301,400 308,396 308,403" fill="#000"/>
<text x="486" y="255" text-anchor="middle">after 24h</text>
<line x1="486" y1="120" x2="486" y2="180" stroke="#000"/>
<line x1="486" y1="180" x2="228" y2="180" stroke="#000"/>
<line x1="228" y1="180" x2="228" y2="240" stroke="#000"/>
<polygon points="228,240 224,232 232,232" fill="#000"/>
<text x="357" y="145" text-anchor="middle">paymentReceived / updateLedger, sendReceipt</text>
<line x1="228" y1="240" x2="272" y2="240" stroke="#000"/>
<polygon points="272,240 264,244 264,236" fill="#000"/>
<text x="250" y="205" text-anchor="middle">readyToShip</text>
<line x1="272" y1="240" x2="272" y2="400" stroke="#000"/>
<line x1="272" y1="400" x2="151" y2="400" stroke="#000"/>
<polygon points="151,400 158,396 158,403" fill="#000"/>
<text x="272" y="315" text-anchor="middle">delivered</text>
<line x1="228" y1="240" x2="258" y2="240" stroke="#000"/>
<line x1="258" y1="240" x2="258" y2="210" stroke="#000"/>
<line x1="258" y1="210" x2="139" y2="210" stroke="#000"/>
<line x1="139" y1="210" x2="139" y2="193" stroke="#000"/>
<polygon points="139,193 143,201 135,201" fill="#000"/>
<text x="243" y="190" text-anchor="middle">updateProgress</text>
<line x1="139" y1="157" x2="139" y2="10" stroke="#000"/>
<line x1="139" y1="10" x2="289" y2="10" stroke="#000"/>
<line x1="289" y1="10" x2="289" y2="388" stroke="#000"/>
<polygon points="289,388 285,380 292,380" fill="#000"/>
<text x="214" y="5" text-anchor="middle">cancel</text>
<line x1="357" y1="165" x2="357" y2="10" stroke="#000"/>
<line x1="357" y1="10" x2="289" y2="10" stroke="#000"/>
<line x1="289" y1="10" x2="289" y2="388" stroke="#000"/>
<polygon points="289,388 285,380 292,380" fill="#000"/>
<text x="323" y="-10" text-anchor="middle">cancel</text>
<line x1="139" y1="277" x2="139" y2="332" stroke="#000"/>
<line x1="139" y1="332" x2="289" y2="332" stroke="#000"/>
<line x1="289" y1="332" x2="289" y2="388" stroke="#000"/>
<polygon points="289,388 285,380 293,380" fill="#000"/>
<text x="214" y="327" text-anchor="middle">cancel</text>
</svg>