<svg xmlns="http://www.w3.org/2000/svg" viewBox="0 0 800 600" width="800" height="600">
<circle cx="135" cy="50" r="10" fill="#000"/>
<rect x="50" y="100" width="171" height="75" rx="10" ry="10" fill="#fff" stroke="#000"/>
<text x="135" y="125" text-anchor="middle">Idle</text>
<line x1="50" y1="135" x2="220" y2="135" stroke="#000"/>
<text x="55" y="150">entry/ displayWelcome</text>
<rect x="201" y="100" width="220" height="100" rx="10" ry="10" fill="#f8f8f8" stroke="#000"/>
<text x="311" y="120" text-anchor="middle">Active</text>
<line x1="201" y1="130" x2="421" y2="130" stroke="#000"/>
<rect x="216" y="135" width="70" height="30" rx="8" ry="8" fill="#fff" stroke="#000"/>
<text x="251" y="155" text-anchor="middle">Authenticating</text>
<rect x="306" y="135" width="70" height="30" rx="8" ry="8" fill="#fff" stroke="#000"/>
<text x="341" y="155" text-anchor="middle">Processing</text>
<circle cx="135" cy="280" r="12" stroke="#000" stroke-width="2"/>
<circle cx="135" cy="280" r="8" fill="#000"/>
<line x1="135" y1="60" x2="135" y2="83" stroke="#000"/>
<polygon points="135,83 131,75 139,75" fill="#000"/>
<line x1="220" y1="120" x2="271" y2="120" stroke="#000"/>
<polygon points="271,120 263,124 263,116" fill="#000"/>
<text x="275" y="100" text-anchor="middle">cardInserted</text>
<line x1="271" y1="120" x2="220" y2="120" stroke="#000"/>
<polygon points="220,120 228,116 228,124" fill="#000"/>
<text x="275" y="100" text-anchor="middle">ejectCard</text>
<line x1="271" y1="120" x2="220" y2="120" stroke="#000"/>
<polygon points="220,120 228,116 228,124" fill="#000"/>
<text x="245" y="80" text-anchor="middle">after 30s</text>
<line x1="135" y1="157" x2="135" y2="268" stroke="#000"/>
<polygon points="135,268 131,260 138,260" fill="#000"/>
<text x="135" y="207" text-anchor="middle">maintenance</text>
</svg>