<svg xmlns="http://www.w3.org/2000/svg" viewBox="0 0 800 600" width="800" height="600">
<circle cx="132" cy="50" r="10" fill="#000"/>
<rect x="50" y="100" width="164" height="75" rx="10" ry="10" fill="#fff" stroke="#000"/>
<text x="132" y="125" text-anchor="middle">Stopped</text>
<line x1="50" y1="135" x2="214" y2="135" stroke="#000"/>
<text x="55" y="150">entry/ resetPosition</text>
<rect x="264" y="100" width="80" height="40" rx="10" ry="10" fill="#fff" stroke="#000"/>
<text x="304" y="125" text-anchor="middle">Playing</text>
<rect x="284" y="100" width="320" height="100" rx="10" ry="10" fill="#f8f8f8" stroke="#000"/>
<text x="444" y="120" text-anchor="middle">Playing</text>
<line x1="284" y1="130" x2="604" y2="130" stroke="#000"/>
<text x="344" y="150" text-anchor="middle">AudioRegion</text>
<rect x="314" y="165" width="60" height="20" rx="5" ry="5" fill="#fff" stroke="#000"/>
<text x="344" y="180" text-anchor="middle">Decoding</text>
<rect x="314" y="190" width="60" height="20" rx="5" ry="5" fill="#fff" stroke="#000"/>
<text x="344" y="205" text-anchor="middle">Buffering</text>
<text x="344" y="225" text-anchor="middle">...</text>
<line x1="394" y1="130" x2="394" y2="200" stroke="#000" stroke-dasharray="5,5"/>
<text x="444" y="150" text-anchor="middle">DisplayRegion</text>
<rect x="414" y="165" width="60" height="20" rx="5" ry="5" fill="#fff" stroke="#000"/>
<text x="444" y="180" text-anchor="middle">ShowingInfo</text>
<rect x="414" y="190" width="60" height="20" rx="5" ry="5" fill="#fff" stroke="#000"/>
<text x="444" y="205" text-anchor="middle">ShowingLyrics</text>
<text x="444" y="225" text-anchor="middle">...</text>
<line x1="494" y1="130" x2="494" y2="200" stroke="#000" stroke-dasharray="5,5"/>
<text x="544" y="150" text-anchor="middle">VolumeRegion</text>
<rect x="514" y="165" width="60" height="20" rx="5" ry="5" fill="#fff" stroke="#000"/>
<text x="544" y="180" text-anchor="middle">Normal</text>
<rect x="514" y="190" width="60" height="20" rx="5" ry="5" fill="#fff" stroke="#000"/>
<text x="544" y="205" text-anchor="middle">Muted</text>
<circle cx="132" cy="280" r="12" stroke-width="2" stroke="#000"/>
<circle cx="132" cy="280" r="8" fill="#000"/>
<line x1="132" y1="60" x2="132" y2="83" stroke="#000"/>
<polygon points="132,83 128,75 136,75" fill="#000"/>
<line x1="214" y1="120" x2="404" y2="120" stroke="#000"/>
<polygon points="404,120 396,123 396,116" fill="#000"/>
<text x="309" y="115" text-anchor="middle">play</text>
<line x1="404" y1="120" x2="214" y2="120" stroke="#000"/>
<polygon points="214,120 221,116 221,123" fill="#000"/>
<text x="309" y="115" text-anchor="middle">stop</text>
<line x1="132" y1="157" x2="132" y2="268" stroke="#000"/>
<polygon points="132,268 128,260 135,260" fill="#000"/>
<text x="132" y="207" text-anchor="middle">powerOff</text>
</svg>