<svg xmlns="http://www.w3.org/2000/svg" viewBox="0 0 2528 600" width="2528" height="600">
<rect x="1423" y="50" width="137" height="70" fill="#fff" stroke="#000" stroke-width="1"/>
<text x="1491" y="77" text-anchor="middle">&lt;&lt;component&gt;&gt;</text>
<text x="1491" y="97" text-anchor="middle">CheckoutService</text>
<rect x="967" y="50" width="152" height="120" fill="#fff" stroke="#000" stroke-width="1"/>
<text x="1043" y="77" text-anchor="middle">Cart</text>
<line x1="967" y1="92" x2="1119" y2="92" stroke="#000"/>
<text x="977" y="107">+ userId: string</text>
<text x="977" y="127">+ items: string[]</text>
<text x="977" y="147">+ total: float</text>
<rect x="1159" y="50" width="224" height="100" stroke="#000" stroke-width="1" fill="#fff"/>
<text x="1271" y="77" text-anchor="middle">OrderConfirmation</text>
<line x1="1159" y1="92" x2="1383" y2="92" stroke="#000"/>
<text x="1169" y="107">+ orderId: string</text>
<text x="1169" y="127">+ estimatedDelivery: string</text>
<rect x="50" y="230" width="296" height="140" stroke="#000" stroke-width="1" fill="#fff"/>
<text x="198" y="257" text-anchor="middle">&lt;&lt;component&gt;&gt;</text>
<text x="198" y="277" text-anchor="middle">CartService</text>
<line x1="50" y1="292" x2="346" y2="292" stroke="#000"/>
<text x="60" y="307">+ GetCart(userId: string): string</text>
<text x="60" y="327">+ CalculateTotal(cart: string): float</text>
<text x="60" y="347">+ ClearCart(userId: string): bool</text>
<rect x="386" y="230" width="310" height="120" fill="#fff" stroke="#000" stroke-width="1"/>
<text x="541" y="257" text-anchor="middle">&lt;&lt;component&gt;&gt;</text>
<text x="541" y="277" text-anchor="middle">InventoryService</text>
<line x1="386" y1="292" x2="696" y2="292" stroke="#000"/>
<text x="396" y="307">+ CheckAvailability(item: string): bool</text>
<text x="396" y="327">+ ReserveItems(items: string[]): bool</text>
<rect x="736" y="230" width="425" height="100" fill="#fff" stroke="#000" stroke-width="1"/>
<text x="948" y="257" text-anchor="middle">&lt;&lt;component&gt;&gt;</text>
<text x="948" y="277" text-anchor="middle">PaymentService</text>
<line x1="736" y1="292" x2="1161" y2="292" stroke="#000"/>
<text x="746" y="307">+ ProcessPayment(userId: string, amount: float): string</text>
<rect x="1201" y="230" width="418" height="100" fill="#fff" stroke="#000" stroke-width="1"/>
<text x="1410" y="257" text-anchor="middle">&lt;&lt;component&gt;&gt;</text>
<text x="1410" y="277" text-anchor="middle">ShippingService</text>
<line x1="1201" y1="292" x2="1619" y2="292" stroke="#000"/>
<text x="1211" y="307">+ CreateShipment(cart: string, userId: string): string</text>
<rect x="1659" y="230" width="418" height="120" fill="#fff" stroke="#000" stroke-width="1"/>
<text x="1868" y="257" text-anchor="middle">&lt;&lt;component&gt;&gt;</text>
<text x="1868" y="277" text-anchor="middle">NotificationService</text>
<line x1="1659" y1="292" x2="2077" y2="292" stroke="#000"/>
<text x="1669" y="307">+ SendOrderConfirmation(userId: string, order: string)</text>
<text x="1669" y="327">+ SendPaymentFailed(userId: string)</text>
<rect x="2117" y="230" width="361" height="100" fill="#fff" stroke="#000" stroke-width="1"/>
<text x="2297" y="257" text-anchor="middle">&lt;&lt;component&gt;&gt;</text>
<text x="2297" y="277" text-anchor="middle">AnalyticsService</text>
<line x1="2117" y1="292" x2="2478" y2="292" stroke="#000"/>
<text x="2127" y="307">+ TrackPurchase(userId: string, order: string)</text>
<line x1="1423" y1="61" x2="346" y2="61" stroke="#000" stroke-dasharray="5,5"/>
<line x1="346" y1="61" x2="346" y2="300" stroke="#000" stroke-dasharray="5,5"/>
<polygon points="346,300 341,290 350,290" fill="#000"/>
<line x1="1423" y1="69" x2="1423" y2="390" stroke="#000" stroke-dasharray="5,5"/>
<line x1="1423" y1="390" x2="696" y2="390" stroke="#000" stroke-dasharray="5,5"/>
<line x1="696" y1="390" x2="696" y2="290" stroke="#000" stroke-dasharray="5,5"/>
<polygon points="696,290 700,299 691,299" fill="#000"/>
<line x1="1423" y1="77" x2="1423" y2="390" stroke="#000" stroke-dasharray="5,5"/>
<line x1="1423" y1="390" x2="1161" y2="390" stroke="#000" stroke-dasharray="5,5"/>
<line x1="1161" y1="390" x2="1161" y2="280" stroke="#000" stroke-dasharray="5,5"/>
<polygon points="1161,280 1165,289 1156,289" fill="#000"/>
<line x1="1491" y1="120" x2="1491" y2="230" stroke="#000" stroke-dasharray="5,5"/>
<line x1="1491" y1="230" x2="1410" y2="230" stroke="#000" stroke-dasharray="5,5"/>
<polygon points="1410,230 1419,225 1419,234" fill="#000"/>
<line x1="1560" y1="93" x2="1560" y2="290" stroke="#000" stroke-dasharray="5,5"/>
<line x1="1560" y1="290" x2="1659" y2="290" stroke="#000" stroke-dasharray="5,5"/>
<polygon points="1659,290 1649,294 1649,285" fill="#000"/>
<line x1="1560" y1="101" x2="2117" y2="101" stroke="#000" stroke-dasharray="5,5"/>
<line x1="2117" y1="101" x2="2117" y2="280" stroke="#000" stroke-dasharray="5,5"/>
<polygon points="2117,280 2112,270 2121,270" fill="#000"/>
</svg>