<svg xmlns="http://www.w3.org/2000/svg" viewBox="0 0 1319 600" width="1319" height="600">
<rect x="50" y="50" width="127" height="40" fill="#fff" stroke="#000"/>
<text x="113" y="75" text-anchor="middle">CheckoutService</text>
<line x1="113" y1="100" x2="113" y2="500" stroke="#000" stroke-dasharray="5,5"/>
<rect x="207" y="50" width="99" height="40" fill="#fff" stroke="#000"/>
<text x="256" y="75" text-anchor="middle">CartService</text>
<line x1="256" y1="100" x2="256" y2="500" stroke="#000" stroke-dasharray="5,5"/>
<rect x="336" y="50" width="135" height="40" fill="#fff" stroke="#000"/>
<text x="403" y="75" text-anchor="middle">InventoryService</text>
<line x1="403" y1="100" x2="403" y2="500" stroke-dasharray="5,5" stroke="#000"/>
<rect x="501" y="50" width="120" height="40" fill="#fff" stroke="#000"/>
<text x="561" y="75" text-anchor="middle">PaymentService</text>
<line x1="561" y1="100" x2="561" y2="500" stroke="#000" stroke-dasharray="5,5"/>
<rect x="651" y="50" width="127" height="40" fill="#fff" stroke="#000"/>
<text x="714" y="75" text-anchor="middle">ShippingService</text>
<line x1="714" y1="100" x2="714" y2="500" stroke="#000" stroke-dasharray="5,5"/>
<rect x="808" y="50" width="156" height="40" fill="#fff" stroke="#000"/>
<text x="886" y="75" text-anchor="middle">NotificationService</text>
<line x1="886" y1="100" x2="886" y2="500" stroke-dasharray="5,5" stroke="#000"/>
<rect x="994" y="50" width="135" height="40" fill="#fff" stroke="#000"/>
<text x="1061" y="75" text-anchor="middle">AnalyticsService</text>
<line x1="1061" y1="100" x2="1061" y2="500" stroke="#000" stroke-dasharray="5,5"/>
<rect x="1159" y="50" width="80" height="40" fill="#fff" stroke="#000"/>
<text x="1199" y="75" text-anchor="middle">self</text>
<line x1="1199" y1="100" x2="1199" y2="500" stroke="#000" stroke-dasharray="5,5"/>
<line x1="113" y1="120" x2="256" y2="120" stroke="#000"/>
<polygon points="256,120 248,123 248,116" fill="#000"/>
<text x="184" y="115" text-anchor="middle">getCart</text>
<line x1="113" y1="160" x2="403" y2="160" stroke="#000"/>
<polygon points="403,160 395,163 395,156" fill="#000"/>
<text x="258" y="155" text-anchor="middle">checkAvailability</text>
<rect x="133" y="190" width="171" height="25" stroke="#cc0000" fill="#ffcccc"/>
<text x="143" y="205">throw OutOfStockError</text>
<rect x="50" y="190" width="1219" height="50" stroke="#000" fill="none"/>
<text x="60" y="200">[alt] condition</text>
<rect x="398" y="160" width="10" height="70" fill="#fff" stroke="#000"/>
<rect x="50" y="150" width="1219" height="90" fill="none" stroke="#000"/>
<text x="60" y="160">[loop] for item</text>
<line x1="113" y1="230" x2="256" y2="230" stroke="#000"/>
<polygon points="256,230 248,233 248,226" fill="#000"/>
<text x="184" y="225" text-anchor="middle">calculateTotal</text>
<line x1="113" y1="270" x2="561" y2="270" stroke="#000"/>
<polygon points="561,270 553,273 553,266" fill="#000"/>
<text x="337" y="265" text-anchor="middle">processPayment</text>
<line x1="113" y1="310" x2="403" y2="310" stroke="#000"/>
<polygon points="403,310 395,313 395,306" fill="#000"/>
<text x="258" y="305" text-anchor="middle">reserveItems</text>
<line x1="113" y1="350" x2="714" y2="350" stroke="#000"/>
<polygon points="714,350 706,353 706,346" fill="#000"/>
<text x="413" y="345" text-anchor="middle">createShipment</text>
<line x1="113" y1="390" x2="1199" y2="390" stroke="#000"/>
<polygon points="1199,390 1193,392 1193,387" fill="#000"/>
<text x="656" y="385" text-anchor="middle">createOrder</text>
<line x1="113" y1="430" x2="886" y2="430" stroke="#000"/>
<polygon points="886,430 879,433 879,426" fill="#000"/>
<text x="499" y="425" text-anchor="middle">sendOrderConfirmation</text>
<line x1="113" y1="470" x2="1061" y2="470" stroke="#000"/>
<polygon points="1061,470 1054,473 1054,466" fill="#000"/>
<text x="587" y="465" text-anchor="middle">trackPurchase</text>
<line x1="113" y1="510" x2="256" y2="510" stroke="#000"/>
<polygon points="256,510 248,513 248,506" fill="#000"/>
<text x="184" y="505" text-anchor="middle">clearCart</text>
<rect x="133" y="540" width="106" height="25" fill="#ccffcc" stroke="#006600"/>
<text x="143" y="555">return order</text>
<rect x="1194" y="390" width="10" height="190" fill="#fff" stroke="#000"/>
<rect x="881" y="430" width="10" height="150" stroke="#000" fill="#fff"/>
<rect x="1056" y="470" width="10" height="110" fill="#fff" stroke="#000"/>
<rect x="251" y="510" width="10" height="70" fill="#fff" stroke="#000"/>
<rect x="398" y="310" width="10" height="270" fill="#fff" stroke="#000"/>
<rect x="709" y="350" width="10" height="230" fill="#fff" stroke="#000"/>
<text x="60" y="595">[else]</text>
<line x1="113" y1="600" x2="886" y2="600" stroke="#000"/>
<polygon points="886,600 879,603 879,596" fill="#000"/>
<text x="499" y="595" text-anchor="middle">sendPaymentFailed</text>
<rect x="133" y="630" width="192" height="25" fill="#ffcccc" stroke="#cc0000"/>
<text x="143" y="645">throw PaymentFailedError</text>
<rect x="881" y="600" width="10" height="70" fill="#fff" stroke="#000"/>
<rect x="50" y="300" width="1219" height="380" stroke="#000" fill="none"/>
<text x="60" y="310">[alt] condition</text>
<line x1="50" y1="585" x2="1269" y2="585" stroke="#000" stroke-dasharray="5,5"/>
<rect x="251" y="120" width="10" height="550" fill="#fff" stroke="#000"/>
<rect x="556" y="270" width="10" height="400" fill="#fff" stroke="#000"/>
</svg>