<svg xmlns="http://www.w3.org/2000/svg" viewBox="0 0 800 1700" width="800" height="1700">
<rect x="350" y="50" width="100" height="40" rx="20" ry="20" fill="#fff" stroke="#000"/>
<text x="400" y="75" text-anchor="middle">Start</text>
<rect x="263" y="130" width="274" height="40" fill="#fff" stroke="#000"/>
<text x="400" y="155" text-anchor="middle">cart = CartService.getCart(userId)</text>
<polygon points="400,210 450,230 400,250 350,230" fill="#fff" stroke="#000"/>
<text x="400" y="235" text-anchor="middle">for item</text>
<rect x="213" y="290" width="375" height="40" fill="#fff" stroke="#000"/>
<text x="400" y="315" text-anchor="middle">stock = InventoryService.checkAvailability(item)</text>
<polygon points="400,370 451,390 400,410 349,390" fill="#fff" stroke="#000"/>
<text x="400" y="395" text-anchor="middle">condition?</text>
<rect x="310" y="450" width="181" height="40" rx="20" ry="20" fill="#fff" stroke="#000"/>
<text x="400" y="475" text-anchor="middle">throw OutOfStockError</text>
<rect x="241" y="530" width="318" height="40" fill="#fff" stroke="#000"/>
<text x="400" y="555" text-anchor="middle">total = CartService.calculateTotal(cart)</text>
<rect x="191" y="610" width="418" height="40" fill="#fff" stroke="#000"/>
<text x="400" y="635" text-anchor="middle">payment = PaymentService.processPayment(userId, total)</text>
<polygon points="400,690 451,710 400,730 349,710" fill="#fff" stroke="#000"/>
<text x="400" y="715" text-anchor="middle">condition?</text>
<rect x="335" y="770" width="130" height="40" fill="#fff" stroke="#000"/>
<text x="400" y="795" text-anchor="middle">reserveItems()</text>
<rect x="188" y="850" width="425" height="40" stroke="#000" fill="#fff"/>
<text x="400" y="875" text-anchor="middle">shipment = ShippingService.createShipment(cart, userId)</text>
<rect x="209" y="930" width="382" height="40" fill="#fff" stroke="#000"/>
<text x="400" y="955" text-anchor="middle">order = self.createOrder(cart, payment, shipment)</text>
<rect x="303" y="1010" width="195" height="40" fill="#fff" stroke="#000"/>
<text x="400" y="1035" text-anchor="middle">sendOrderConfirmation()</text>
<rect x="332" y="1090" width="137" height="40" fill="#fff" stroke="#000"/>
<text x="400" y="1115" text-anchor="middle">trackPurchase()</text>
<rect x="346" y="1170" width="109" height="40" fill="#fff" stroke="#000"/>
<text x="400" y="1195" text-anchor="middle">clearCart()</text>
<rect x="350" y="1250" width="100" height="40" rx="20" ry="20" fill="#fff" stroke="#000"/>
<text x="400" y="1275" text-anchor="middle">return</text>
<rect x="467" y="1330" width="166" height="40" fill="#fff" stroke="#000"/>
<text x="550" y="1355" text-anchor="middle">sendPaymentFailed()</text>
<rect x="299" y="1410" width="202" height="40" rx="20" ry="20" fill="#fff" stroke="#000"/>
<text x="400" y="1435" text-anchor="middle">throw PaymentFailedError</text>
<rect x="350" y="1490" width="100" height="40" fill="#fff" stroke="#000"/>
<rect x="350" y="1570" width="100" height="40" rx="20" ry="20" fill="#fff" stroke="#000"/>
<text x="400" y="1595" text-anchor="middle">End</text>
<line x1="400" y1="90" x2="400" y2="130" stroke="#000"/>
<polygon points="400,130 396,122 404,122" fill="#000"/>
<line x1="400" y1="170" x2="400" y2="210" stroke="#000"/>
<polygon points="400,210 396,202 404,202" fill="#000"/>
<line x1="400" y1="250" x2="400" y2="290" stroke="#000"/>
<polygon points="400,290 396,282 404,282" fill="#000"/>
<line x1="400" y1="330" x2="400" y2="370" stroke="#000"/>
<polygon points="400,370 396,362 404,362" fill="#000"/>
<line x1="400" y1="410" x2="400" y2="450" stroke="#000"/>
<polygon points="400,450 396,442 404,442" fill="#000"/>
<line x1="400" y1="410" x2="400" y2="210" stroke="#000"/>
<polygon points="400,210 403,217 396,217" fill="#000"/>
<line x1="400" y1="250" x2="400" y2="530" stroke="#000"/>
<polygon points="400,530 396,522 403,522" fill="#000"/>
<line x1="400" y1="570" x2="400" y2="610" stroke="#000"/>
<polygon points="400,610 396,602 404,602" fill="#000"/>
<line x1="400" y1="650" x2="400" y2="690" stroke="#000"/>
<polygon points="400,690 396,682 404,682" fill="#000"/>
<line x1="400" y1="730" x2="400" y2="770" stroke="#000"/>
<polygon points="400,770 396,762 404,762" fill="#000"/>
<text x="410" y="750">Yes</text>
<line x1="400" y1="810" x2="400" y2="850" stroke="#000"/>
<polygon points="400,850 396,842 404,842" fill="#000"/>
<line x1="400" y1="890" x2="400" y2="930" stroke="#000"/>
<polygon points="400,930 396,922 404,922" fill="#000"/>
<line x1="400" y1="970" x2="400" y2="1010" stroke="#000"/>
<polygon points="400,1010 396,1002 404,1002" fill="#000"/>
<line x1="400" y1="1050" x2="400" y2="1090" stroke="#000"/>
<polygon points="400,1090 396,1082 404,1082" fill="#000"/>
<line x1="400" y1="1130" x2="400" y2="1170" stroke="#000"/>
<polygon points="400,1170 396,1162 404,1162" fill="#000"/>
<line x1="400" y1="1210" x2="400" y2="1250" stroke="#000"/>
<polygon points="400,1250 396,1242 404,1242" fill="#000"/>
<line x1="440" y1="710" x2="550" y2="710" stroke="#000"/>
<line x1="550" y1="710" x2="550" y2="1330" stroke="#000"/>
<polygon points="550,1330 546,1322 553,1322" fill="#000"/>
<text x="460" y="705">No</text>
<line x1="550" y1="1370" x2="550" y2="1390" stroke="#000"/>
<line x1="550" y1="1390" x2="400" y2="1390" stroke="#000"/>
<line x1="400" y1="1390" x2="400" y2="1410" stroke="#000"/>
<polygon points="400,1410 396,1402 404,1402" fill="#000"/>
<line x1="400" y1="1290" x2="400" y2="1490" stroke="#000"/>
<polygon points="400,1490 396,1482 403,1482" fill="#000"/>
<line x1="400" y1="1530" x2="400" y2="1570" stroke="#000"/>
<polygon points="400,1570 396,1562 404,1562" fill="#000"/>
</svg>