<svg xmlns="http://www.w3.org/2000/svg" viewBox="0 0 1983 780" width="1983" height="780">
<rect x="815" y="530" width="353" height="140" stroke-width="1" fill="#fff" stroke="#000"/>
<text x="991" y="557" text-anchor="middle">&lt;&lt;component&gt;&gt;</text>
<text x="991" y="577" text-anchor="middle">ProductCatalog</text>
<line x1="815" y1="592" x2="1168" y2="592" stroke="#000"/>
<text x="825" y="607">+ SearchProducts(query: string): Product[]</text>
<text x="825" y="627">+ GetProduct(id: string): Product</text>
<text x="825" y="647">+ ListByCategory(category: string): Product[]</text>
<rect x="50" y="50" width="188" height="200" stroke-width="1" fill="#fff" stroke="#000"/>
<text x="144" y="77" text-anchor="middle">Product</text>
<line x1="50" y1="92" x2="238" y2="92" stroke="#000"/>
<text x="60" y="107">+ id: string</text>
<text x="60" y="127">+ name: string</text>
<text x="60" y="147">+ description: string</text>
<text x="60" y="167">+ price: float</text>
<text x="60" y="187">+ categories: string[]</text>
<text x="60" y="207">+ inStock: bool</text>
<text x="60" y="227">- costPrice: float</text>
<rect x="278" y="50" width="123" height="70" fill="#fff" stroke="#000" stroke-width="1"/>
<text x="339" y="77" text-anchor="middle">&lt;&lt;enum&gt;&gt;</text>
<text x="339" y="97" text-anchor="middle">ProductStatus</text>
<rect x="274" y="310" width="627" height="160" fill="#fff" stroke="#000" stroke-width="1"/>
<text x="587" y="337" text-anchor="middle">&lt;&lt;component&gt;&gt;</text>
<text x="587" y="357" text-anchor="middle">ShoppingCart</text>
<line x1="274" y1="372" x2="901" y2="372" stroke="#000"/>
<text x="284" y="387">+ AddItem(userId: string, productId: string, qty: int): Cart throws OutOfStockError</text>
<text x="284" y="407">+ RemoveItem(userId: string, productId: string): Cart</text>
<text x="284" y="427">+ GetCart(userId: string): Cart</text>
<text x="284" y="447">+ ClearCart(userId: string): bool</text>
<rect x="906" y="50" width="166" height="120" fill="#fff" stroke="#000" stroke-width="1"/>
<text x="989" y="77" text-anchor="middle">CartItem</text>
<line x1="906" y1="92" x2="1072" y2="92" stroke="#000"/>
<text x="916" y="107">+ productId: string</text>
<text x="916" y="127">+ quantity: int</text>
<text x="916" y="147">+ unitPrice: float</text>
<rect x="1112" y="50" width="174" height="120" fill="#fff" stroke="#000" stroke-width="1"/>
<text x="1199" y="77" text-anchor="middle">Cart</text>
<line x1="1112" y1="92" x2="1286" y2="92" stroke="#000"/>
<text x="1122" y="107">+ userId: string</text>
<text x="1122" y="127">+ items: CartItem[]</text>
<text x="1122" y="147">+ totalAmount: float</text>
<rect x="441" y="50" width="425" height="140" fill="#fff" stroke="#000" stroke-width="1"/>
<text x="653" y="77" text-anchor="middle">&lt;&lt;component&gt;&gt;</text>
<text x="653" y="97" text-anchor="middle">OrderManager</text>
<line x1="441" y1="112" x2="866" y2="112" stroke="#000"/>
<text x="451" y="127">+ PlaceOrder(userId: string): Order throws PaymentError</text>
<text x="451" y="147">+ CancelOrder(orderId: string): bool</text>
<text x="451" y="167">+ GetOrderStatus(orderId: string): string</text>
<rect x="1326" y="50" width="166" height="180" fill="#fff" stroke="#000" stroke-width="1"/>
<text x="1409" y="77" text-anchor="middle">Order</text>
<line x1="1326" y1="92" x2="1492" y2="92" stroke="#000"/>
<text x="1336" y="107">+ id: string</text>
<text x="1336" y="127">+ userId: string</text>
<text x="1336" y="147">+ items: string[]</text>
<text x="1336" y="167">+ total: float</text>
<text x="1336" y="187">+ status: string</text>
<text x="1336" y="207">+ createdAt: string</text>
<rect x="941" y="310" width="418" height="120" fill="#fff" stroke="#000" stroke-width="1"/>
<text x="1150" y="337" text-anchor="middle">&lt;&lt;component&gt;&gt;</text>
<text x="1150" y="357" text-anchor="middle">PaymentGateway</text>
<line x1="941" y1="372" x2="1359" y2="372" stroke="#000"/>
<text x="951" y="387">+ Charge(userId: string, amount: float): PaymentResult</text>
<text x="951" y="407">+ Refund(transactionId: string): bool</text>
<rect x="1532" y="50" width="195" height="120" fill="#fff" stroke="#000" stroke-width="1"/>
<text x="1629" y="77" text-anchor="middle">PaymentResult</text>
<line x1="1532" y1="92" x2="1727" y2="92" stroke="#000"/>
<text x="1542" y="107">+ success: bool</text>
<text x="1542" y="127">+ transactionId: string</text>
<text x="1542" y="147">+ errorMessage: string?</text>
<rect x="1399" y="310" width="310" height="140" fill="#fff" stroke="#000" stroke-width="1"/>
<text x="1554" y="337" text-anchor="middle">&lt;&lt;component&gt;&gt;</text>
<text x="1554" y="357" text-anchor="middle">Warehouse</text>
<line x1="1399" y1="372" x2="1709" y2="372" stroke="#000"/>
<text x="1409" y="387">+ AllocateStock(order: string): bool</text>
<text x="1409" y="407">+ ReleaseStock(order: string): bool</text>
<text x="1409" y="427">+ GetStockLevel(productId: string): int</text>
<rect x="1767" y="50" width="166" height="120" stroke="#000" stroke-width="1" fill="#fff"/>
<text x="1850" y="77" text-anchor="middle">StockRecord</text>
<line x1="1767" y1="92" x2="1933" y2="92" stroke="#000"/>
<text x="1777" y="107">+ productId: string</text>
<text x="1777" y="127">+ available: int</text>
<text x="1777" y="147">+ reserved: int</text>
<line x1="901" y1="390" x2="901" y2="600" stroke="#000" stroke-dasharray="5,5"/>
<line x1="901" y1="600" x2="815" y2="600" stroke="#000" stroke-dasharray="5,5"/>
<polygon points="815,600 824,595 824,604" fill="#000"/>
<line x1="483" y1="190" x2="483" y2="310" stroke="#000" stroke-dasharray="5,5"/>
<line x1="483" y1="310" x2="587" y2="310" stroke="#000" stroke-dasharray="5,5"/>
<polygon points="587,310 577,314 577,305" fill="#000"/>
<line x1="866" y1="120" x2="866" y2="370" stroke-dasharray="5,5" stroke="#000"/>
<line x1="866" y1="370" x2="941" y2="370" stroke="#000" stroke-dasharray="5,5"/>
<polygon points="941,370 931,374 931,365" fill="#000"/>
<line x1="866" y1="162" x2="1399" y2="162" stroke-dasharray="5,5" stroke="#000"/>
<line x1="1399" y1="162" x2="1399" y2="380" stroke="#000" stroke-dasharray="5,5"/>
<polygon points="1399,380 1394,370 1403,370" fill="#000"/>
<line x1="875" y1="550" x2="935" y2="550" stroke="#000" stroke-dasharray="5,5"/>
<path d="M935,530 L1025,530 L1035,540 L1035,570 L935,570 L935,530 Z" stroke="#000" fill="#ffffcc"/>
<path d="M1025,530 L1025,540 L1035,540" stroke="#000" fill="none"/>
<text x="940" y="545">Complete e-commerce platform</text>
</svg>