<svg xmlns="http://www.w3.org/2000/svg" viewBox="0 0 804 600" width="804" height="600">
<circle cx="142" cy="50" r="10" fill="#000"/>
<rect x="53" y="100" width="178" height="75" rx="10" ry="10" fill="#fff" stroke="#000"/>
<text x="142" y="125" text-anchor="middle">Pending</text>
<line x1="53" y1="135" x2="231" y2="135" stroke="#000"/>
<text x="58" y="150">entry/ logOrderCreated</text>
<rect x="275" y="100" width="221" height="75" rx="10" ry="10" fill="#fff" stroke="#000"/>
<text x="385" y="125" text-anchor="middle">Confirmed</text>
<line x1="275" y1="135" x2="495" y2="135" stroke="#000"/>
<text x="280" y="150">entry/ sendConfirmationEmail</text>
<rect x="536" y="100" width="178" height="75" rx="10" ry="10" fill="#fff" stroke="#000"/>
<text x="625" y="125" text-anchor="middle">Processing</text>
<line x1="536" y1="135" x2="714" y2="135" stroke="#000"/>
<text x="541" y="150">entry/ notifyWarehouse</text>
<rect x="50" y="220" width="185" height="75" rx="10" ry="10" fill="#fff" stroke="#000"/>
<text x="142" y="245" text-anchor="middle">Shipped</text>
<line x1="50" y1="255" x2="234" y2="255" stroke="#000"/>
<text x="55" y="270">entry/ sendTrackingInfo</text>
<circle cx="142" cy="400" r="12" stroke="#000" stroke-width="2"/>
<circle cx="142" cy="400" r="8" fill="#000"/>
<circle cx="292" cy="400" r="12" stroke="#000" stroke-width="2"/>
<circle cx="292" cy="400" r="8" fill="#000"/>
<circle cx="442" cy="400" r="12" stroke="#000" stroke-width="2"/>
<circle cx="442" cy="400" r="8" fill="#000"/>
<line x1="142" y1="60" x2="142" y2="83" stroke="#000"/>
<polygon points="142,83 138,75 146,75" fill="#000"/>
<line x1="231" y1="120" x2="275" y2="120" stroke="#000"/>
<polygon points="275,120 267,124 267,116" fill="#000"/>
<text x="253" y="85" text-anchor="middle">paymentVerified</text>
<line x1="495" y1="120" x2="536" y2="120" stroke="#000"/>
<polygon points="536,120 528,124 528,116" fill="#000"/>
<text x="515" y="85" text-anchor="middle">startFulfillment</text>
<line x1="536" y1="120" x2="536" y2="240" stroke="#000"/>
<line x1="536" y1="240" x2="234" y2="240" stroke="#000"/>
<polygon points="234,240 241,236 241,243" fill="#000"/>
<text x="536" y="175" text-anchor="middle">dispatched</text>
<line x1="142" y1="277" x2="142" y2="388" stroke="#000"/>
<polygon points="142,388 138,380 145,380" fill="#000"/>
<text x="142" y="327" text-anchor="middle">delivered</text>
<line x1="142" y1="157" x2="142" y2="10" stroke="#000"/>
<line x1="142" y1="10" x2="292" y2="10" stroke="#000"/>
<line x1="292" y1="10" x2="292" y2="388" stroke="#000"/>
<polygon points="292,388 288,380 295,380" fill="#000"/>
<text x="217" y="5" text-anchor="middle">cancel</text>
<line x1="385" y1="157" x2="385" y2="388" stroke="#000"/>
<line x1="385" y1="388" x2="292" y2="388" stroke="#000"/>
<polygon points="292,388 299,384 299,391" fill="#000"/>
<text x="385" y="267" text-anchor="middle">cancel</text>
<line x1="154" y1="400" x2="154" y2="10" stroke="#000"/>
<line x1="154" y1="10" x2="430" y2="10" stroke="#000"/>
<line x1="430" y1="10" x2="430" y2="400" stroke="#000"/>
<polygon points="430,400 426,392 433,392" fill="#000"/>
<text x="292" y="5" text-anchor="middle">refundRequested [withinReturnPeriod]</text>
</svg>