<svg xmlns="http://www.w3.org/2000/svg" viewBox="0 0 800 600" width="800" height="600">
<rect x="50" y="50" width="106" height="40" fill="#fff" stroke="#000"/>
<text x="103" y="75" text-anchor="middle">OrderManager</text>
<line x1="103" y1="100" x2="103" y2="500" stroke="#000" stroke-dasharray="5,5"/>
<rect x="186" y="50" width="106" height="40" fill="#fff" stroke="#000"/>
<text x="239" y="75" text-anchor="middle">ShoppingCart</text>
<line x1="239" y1="100" x2="239" y2="500" stroke="#000" stroke-dasharray="5,5"/>
<rect x="322" y="50" width="120" height="40" fill="#fff" stroke="#000"/>
<text x="382" y="75" text-anchor="middle">PaymentGateway</text>
<line x1="382" y1="100" x2="382" y2="500" stroke="#000" stroke-dasharray="5,5"/>
<rect x="472" y="50" width="84" height="40" fill="#fff" stroke="#000"/>
<text x="514" y="75" text-anchor="middle">Warehouse</text>
<line x1="514" y1="100" x2="514" y2="500" stroke="#000" stroke-dasharray="5,5"/>
<rect x="586" y="50" width="80" height="40" fill="#fff" stroke="#000"/>
<text x="626" y="75" text-anchor="middle">self</text>
<line x1="626" y1="100" x2="626" y2="500" stroke-dasharray="5,5" stroke="#000"/>
<line x1="103" y1="120" x2="239" y2="120" stroke="#000"/>
<polygon points="239,120 231,123 231,116" fill="#000"/>
<text x="171" y="115" text-anchor="middle">GetCart</text>
<line x1="103" y1="160" x2="382" y2="160" stroke="#000"/>
<polygon points="382,160 374,163 374,156" fill="#000"/>
<text x="242" y="155" text-anchor="middle">charge</text>
<line x1="103" y1="200" x2="626" y2="200" stroke="#000"/>
<polygon points="626,200 618,203 618,196" fill="#000"/>
<text x="364" y="195" text-anchor="middle">createOrder</text>
<line x1="103" y1="240" x2="514" y2="240" stroke="#000"/>
<polygon points="514,240 506,243 506,236" fill="#000"/>
<text x="308" y="235" text-anchor="middle">allocateStock</text>
<line x1="103" y1="280" x2="239" y2="280" stroke="#000"/>
<polygon points="239,280 231,283 231,276" fill="#000"/>
<text x="171" y="275" text-anchor="middle">ClearCart</text>
<rect x="123" y="310" width="106" height="25" fill="#ccffcc" stroke="#006600"/>
<text x="133" y="325">return order</text>
<rect x="621" y="200" width="10" height="150" fill="#fff" stroke="#000"/>
<rect x="509" y="240" width="10" height="110" fill="#fff" stroke="#000"/>
<rect x="234" y="280" width="10" height="70" fill="#fff" stroke="#000"/>
<text x="60" y="365">[else]</text>
<rect x="123" y="360" width="149" height="25" fill="#ffcccc" stroke="#cc0000"/>
<text x="133" y="375">throw PaymentError</text>
<rect x="50" y="190" width="700" height="220" stroke="#000" fill="none"/>
<text x="60" y="200">[alt] condition</text>
<line x1="50" y1="355" x2="750" y2="355" stroke-dasharray="5,5" stroke="#000"/>
<rect x="377" y="160" width="10" height="240" fill="#fff" stroke="#000"/>
<text x="60" y="415">[else]</text>
<rect x="123" y="410" width="164" height="25" fill="#ffcccc" stroke="#cc0000"/>
<text x="133" y="425">throw EmptyCartError</text>
<rect x="50" y="150" width="700" height="310" stroke="#000" fill="none"/>
<text x="60" y="160">[alt] condition</text>
<line x1="50" y1="405" x2="750" y2="405" stroke="#000" stroke-dasharray="5,5"/>
<rect x="234" y="120" width="10" height="330" stroke="#000" fill="#fff"/>
</svg>