<svg xmlns="http://www.w3.org/2000/svg" viewBox="0 0 800 600" width="800" height="600">
<rect x="50" y="50" width="106" height="40" fill="#fff" stroke="#000"/>
<text x="103" y="75" text-anchor="middle">ShoppingCart</text>
<line x1="103" y1="100" x2="103" y2="500" stroke="#000" stroke-dasharray="5,5"/>
<rect x="186" y="50" width="120" height="40" stroke="#000" fill="#fff"/>
<text x="246" y="75" text-anchor="middle">ProductCatalog</text>
<line x1="246" y1="100" x2="246" y2="500" stroke="#000" stroke-dasharray="5,5"/>
<rect x="336" y="50" width="80" height="40" fill="#fff" stroke="#000"/>
<text x="376" y="75" text-anchor="middle">self</text>
<line x1="376" y1="100" x2="376" y2="500" stroke="#000" stroke-dasharray="5,5"/>
<line x1="103" y1="120" x2="246" y2="120" stroke="#000"/>
<polygon points="246,120 238,123 238,116" fill="#000"/>
<text x="174" y="115" text-anchor="middle">GetProduct</text>
<line x1="103" y1="160" x2="376" y2="160" stroke="#000"/>
<polygon points="376,160 368,163 368,156" fill="#000"/>
<text x="239" y="155" text-anchor="middle">getOrCreateCart</text>
<line x1="103" y1="200" x2="376" y2="200" stroke="#000"/>
<polygon points="376,200 368,203 368,196" fill="#000"/>
<text x="239" y="195" text-anchor="middle">addItemToCart</text>
<line x1="103" y1="240" x2="376" y2="240" stroke="#000"/>
<polygon points="376,240 368,243 368,236" fill="#000"/>
<text x="239" y="235" text-anchor="middle">recalculateTotal</text>
<rect x="123" y="270" width="99" height="25" fill="#ccffcc" stroke="#006600"/>
<text x="133" y="285">return cart</text>
<rect x="371" y="160" width="10" height="150" fill="#fff" stroke="#000"/>
<text x="60" y="325">[else]</text>
<rect x="123" y="320" width="171" height="25" fill="#ffcccc" stroke="#cc0000"/>
<text x="133" y="335">throw OutOfStockError</text>
<rect x="50" y="150" width="700" height="220" stroke="#000" fill="none"/>
<text x="60" y="160">[alt] condition</text>
<line x1="50" y1="315" x2="750" y2="315" stroke-dasharray="5,5" stroke="#000"/>
<rect x="241" y="120" width="10" height="240" fill="#fff" stroke="#000"/>
</svg>