<svg xmlns="http://www.w3.org/2000/svg" viewBox="0 0 1722 920" width="1722" height="920">
<rect x="50" y="50" width="634" height="100" stroke="#000" stroke-width="1" fill="#fff"/>
<text x="367" y="77" text-anchor="middle">&lt;&lt;component&gt;&gt;</text>
<text x="367" y="97" text-anchor="middle">APIGateway</text>
<line x1="50" y1="112" x2="684" y2="112" stroke="#000"/>
<text x="60" y="127">+ HandleRequest(path: string, method: string, body: string): string throws AuthError</text>
<rect x="724" y="50" width="152" height="120" fill="#fff" stroke="#000" stroke-width="1"/>
<text x="800" y="77" text-anchor="middle">Route</text>
<line x1="724" y1="92" x2="876" y2="92" stroke="#000"/>
<text x="734" y="107">+ path: string</text>
<text x="734" y="127">+ method: string</text>
<text x="734" y="147">+ service: string</text>
<rect x="343" y="270" width="584" height="140" fill="#fff" stroke="#000" stroke-width="1"/>
<text x="635" y="297" text-anchor="middle">&lt;&lt;component&gt;&gt;</text>
<text x="635" y="317" text-anchor="middle">AuthService</text>
<line x1="343" y1="332" x2="927" y2="332" stroke="#000"/>
<text x="353" y="347">+ Validate(token: string): AuthToken</text>
<text x="353" y="367">+ Login(email: string, password: string): AuthToken throws InvalidCredentials</text>
<text x="353" y="387">+ Logout(token: string): bool</text>
<rect x="916" y="50" width="166" height="120" fill="#fff" stroke="#000" stroke-width="1"/>
<text x="999" y="77" text-anchor="middle">AuthToken</text>
<line x1="916" y1="92" x2="1082" y2="92" stroke="#000"/>
<text x="926" y="107">+ userId: string</text>
<text x="926" y="127">+ roles: string[]</text>
<text x="926" y="147">+ expiresAt: string</text>
<rect x="208" y="470" width="425" height="160" fill="#fff" stroke="#000" stroke-width="1"/>
<text x="420" y="497" text-anchor="middle">&lt;&lt;component&gt;&gt;</text>
<text x="420" y="517" text-anchor="middle">UserService</text>
<line x1="208" y1="532" x2="633" y2="532" stroke="#000"/>
<text x="218" y="547">+ GetUser(id: string): User</text>
<text x="218" y="567">+ CreateUser(data: string): User throws ValidationError</text>
<text x="218" y="587">+ UpdateUser(id: string, data: string): User</text>
<text x="218" y="607">+ DeleteUser(id: string): bool</text>
<rect x="1122" y="50" width="188" height="160" fill="#fff" stroke="#000" stroke-width="1"/>
<text x="1216" y="77" text-anchor="middle">User</text>
<line x1="1122" y1="92" x2="1310" y2="92" stroke="#000"/>
<text x="1132" y="107">+ id: string</text>
<text x="1132" y="127">+ email: string</text>
<text x="1132" y="147">+ name: string</text>
<text x="1132" y="167">- passwordHash: string</text>
<text x="1132" y="187">+ roles: string[]</text>
<rect x="673" y="470" width="339" height="120" fill="#fff" stroke="#000" stroke-width="1"/>
<text x="842" y="497" text-anchor="middle">&lt;&lt;component&gt;&gt;</text>
<text x="842" y="517" text-anchor="middle">ProductService</text>
<line x1="673" y1="532" x2="1012" y2="532" stroke="#000"/>
<text x="683" y="547">+ ListProducts(category: string): Product[]</text>
<text x="683" y="567">+ GetProduct(id: string): Product</text>
<rect x="1350" y="50" width="130" height="140" fill="#fff" stroke="#000" stroke-width="1"/>
<text x="1415" y="77" text-anchor="middle">Product</text>
<line x1="1350" y1="92" x2="1480" y2="92" stroke="#000"/>
<text x="1360" y="107">+ id: string</text>
<text x="1360" y="127">+ name: string</text>
<text x="1360" y="147">+ price: float</text>
<text x="1360" y="167">+ stock: int</text>
<rect x="967" y="270" width="411" height="120" fill="#fff" stroke="#000" stroke-width="1"/>
<text x="1172" y="297" text-anchor="middle">&lt;&lt;component&gt;&gt;</text>
<text x="1172" y="317" text-anchor="middle">OrderService</text>
<line x1="967" y1="332" x2="1378" y2="332" stroke="#000"/>
<text x="977" y="347">+ CreateOrder(userId: string, items: string[]): Order</text>
<text x="977" y="367">+ GetOrder(id: string): Order</text>
<rect x="1520" y="50" width="152" height="140" fill="#fff" stroke="#000" stroke-width="1"/>
<text x="1596" y="77" text-anchor="middle">Order</text>
<line x1="1520" y1="92" x2="1672" y2="92" stroke="#000"/>
<text x="1530" y="107">+ id: string</text>
<text x="1530" y="127">+ userId: string</text>
<text x="1530" y="147">+ items: string[]</text>
<text x="1530" y="167">+ total: float</text>
<rect x="1052" y="470" width="461" height="120" fill="#fff" stroke="#000" stroke-width="1"/>
<text x="1282" y="497" text-anchor="middle">&lt;&lt;component&gt;&gt;</text>
<text x="1282" y="517" text-anchor="middle">NotificationService</text>
<line x1="1052" y1="532" x2="1513" y2="532" stroke="#000"/>
<text x="1062" y="547">+ SendEmail(to: string, subject: string, body: string): bool</text>
<text x="1062" y="567">+ SendPush(userId: string, message: string): bool</text>
<rect x="534" y="690" width="231" height="100" fill="#fff" stroke="#000" stroke-width="1"/>
<text x="649" y="717" text-anchor="middle">&lt;&lt;component&gt;&gt;</text>
<text x="649" y="737" text-anchor="middle">Database</text>
<line x1="534" y1="752" x2="765" y2="752" stroke="#000"/>
<text x="544" y="767">+ Query(sql: string): string</text>
<rect x="805" y="690" width="382" height="120" stroke="#000" stroke-width="1" fill="#fff"/>
<text x="996" y="717" text-anchor="middle">&lt;&lt;component&gt;&gt;</text>
<text x="996" y="737" text-anchor="middle">CacheService</text>
<line x1="805" y1="752" x2="1187" y2="752" stroke="#000"/>
<text x="815" y="767">+ Get(key: string): string</text>
<text x="815" y="787">+ Set(key: string, value: string, ttl: int): bool</text>
<line x1="684" y1="70" x2="684" y2="340" stroke="#000" stroke-dasharray="5,5"/>
<line x1="684" y1="340" x2="343" y2="340" stroke="#000" stroke-dasharray="5,5"/>
<polygon points="343,340 352,335 352,344" fill="#000"/>
<line x1="241" y1="150" x2="241" y2="470" stroke="#000" stroke-dasharray="5,5"/>
<line x1="241" y1="470" x2="80" y2="470" stroke="#000" stroke-dasharray="5,5"/>
<polygon points="80,470 89,465 89,474" fill="#000"/>
<line x1="684" y1="100" x2="684" y2="458" stroke="#000" stroke-dasharray="5,5"/>
<line x1="684" y1="458" x2="673" y2="458" stroke="#000" stroke-dasharray="5,5"/>
<polygon points="673,458 683,453 683,463" fill="#000"/>
<line x1="684" y1="115" x2="684" y2="830" stroke="#000" stroke-dasharray="5,5"/>
<line x1="684" y1="830" x2="967" y2="830" stroke="#000" stroke-dasharray="5,5"/>
<line x1="967" y1="830" x2="967" y2="330" stroke-dasharray="5,5" stroke="#000"/>
<polygon points="967,330 971,339 962,339" fill="#000"/>
<line x1="684" y1="130" x2="684" y2="830" stroke="#000" stroke-dasharray="5,5"/>
<line x1="684" y1="830" x2="1052" y2="830" stroke="#000" stroke-dasharray="5,5"/>
<line x1="1052" y1="830" x2="1052" y2="458" stroke="#000" stroke-dasharray="5,5"/>
<polygon points="1052,458 1056,467 1047,467" fill="#000"/>
<line x1="343" y1="340" x2="343" y2="550" stroke="#000" stroke-dasharray="5,5"/>
<line x1="343" y1="550" x2="633" y2="550" stroke="#000" stroke-dasharray="5,5"/>
<polygon points="633,550 623,554 623,545" fill="#000"/>
<line x1="633" y1="550" x2="633" y2="710" stroke="#000" stroke-dasharray="5,5"/>
<line x1="633" y1="710" x2="534" y2="710" stroke="#000" stroke-dasharray="5,5"/>
<polygon points="534,710 543,705 543,714" fill="#000"/>
<line x1="571" y1="590" x2="571" y2="690" stroke="#000" stroke-dasharray="5,5"/>
<line x1="571" y1="690" x2="649" y2="690" stroke="#000" stroke-dasharray="5,5"/>
<polygon points="649,690 639,694 639,685" fill="#000"/>
<line x1="842" y1="590" x2="842" y2="690" stroke="#000" stroke-dasharray="5,5"/>
<line x1="842" y1="690" x2="996" y2="690" stroke="#000" stroke-dasharray="5,5"/>
<polygon points="996,690 986,694 986,685" fill="#000"/>
<line x1="967" y1="294" x2="967" y2="830" stroke="#000" stroke-dasharray="5,5"/>
<line x1="967" y1="830" x2="765" y2="830" stroke="#000" stroke-dasharray="5,5"/>
<line x1="765" y1="830" x2="765" y2="770" stroke="#000" stroke-dasharray="5,5"/>
<polygon points="765,770 770,780 760,780" fill="#000"/>
<line x1="967" y1="330" x2="967" y2="530" stroke="#000" stroke-dasharray="5,5"/>
<line x1="967" y1="530" x2="1012" y2="530" stroke="#000" stroke-dasharray="5,5"/>
<polygon points="1012,530 1002,535 1002,525" fill="#000"/>
<line x1="1336" y1="390" x2="1336" y2="470" stroke-dasharray="5,5" stroke="#000"/>
<line x1="1336" y1="470" x2="1282" y2="470" stroke="#000" stroke-dasharray="5,5"/>
<polygon points="1282,470 1292,465 1292,475" fill="#000"/>
<line x1="110" y1="70" x2="170" y2="70" stroke="#000" stroke-dasharray="5,5"/>
<path d="M170,50 L260,50 L270,60 L270,90 L170,90 L170,50 Z" fill="#ffffcc" stroke="#000"/>
<path d="M260,50 L260,60 L270,60" stroke="#000" fill="none"/>
<text x="175" y="65">Microservices with gateway pattern</text>
</svg>