<svg xmlns="http://www.w3.org/2000/svg" viewBox="0 0 800 600" width="800" height="600">
<circle cx="142" cy="50" r="10" fill="#000"/>
<rect x="71" y="100" width="142" height="75" rx="10" ry="10" fill="#fff" stroke="#000"/>
<text x="142" y="125" text-anchor="middle">Queued</text>
<line x1="71" y1="135" x2="213" y2="135" stroke="#000"/>
<text x="76" y="150">entry/ addToQueue</text>
<rect x="286" y="100" width="185" height="75" rx="10" ry="10" fill="#fff" stroke="#000"/>
<text x="378" y="125" text-anchor="middle">Scheduled</text>
<line x1="286" y1="135" x2="470" y2="135" stroke="#000"/>
<text x="291" y="150">entry/ reserveResources</text>
<rect x="522" y="100" width="171" height="105" rx="10" ry="10" fill="#fff" stroke="#000"/>
<text x="607" y="125" text-anchor="middle">Running</text>
<line x1="522" y1="135" x2="692" y2="135" stroke="#000"/>
<text x="527" y="150">entry/ startExecution</text>
<text x="527" y="165">entry/ startMonitor</text>
<text x="527" y="180">exit/ stopMonitor</text>
<rect x="50" y="220" width="185" height="90" rx="10" ry="10" fill="#fff" stroke="#000"/>
<text x="142" y="245" text-anchor="middle">Paused</text>
<line x1="50" y1="255" x2="234" y2="255" stroke="#000"/>
<text x="55" y="270">entry/ saveCheckpoint</text>
<text x="55" y="285">exit/ restoreCheckpoint</text>
<rect x="275" y="220" width="207" height="75" rx="10" ry="10" fill="#fff" stroke="#000"/>
<text x="378" y="245" text-anchor="middle">Retrying</text>
<line x1="275" y1="255" x2="481" y2="255" stroke="#000"/>
<text x="280" y="270">entry/ incrementRetryCount</text>
<circle cx="142" cy="400" r="12" stroke="#000" stroke-width="2"/>
<circle cx="142" cy="400" r="8" fill="#000"/>
<circle cx="292" cy="400" r="12" stroke="#000" stroke-width="2"/>
<circle cx="292" cy="400" r="8" fill="#000"/>
<circle cx="442" cy="400" r="12" stroke="#000" stroke-width="2"/>
<circle cx="442" cy="400" r="8" fill="#000"/>
<line x1="142" y1="60" x2="142" y2="83" stroke="#000"/>
<polygon points="142,83 138,75 146,75" fill="#000"/>
<line x1="213" y1="120" x2="286" y2="120" stroke="#000"/>
<polygon points="286,120 278,123 278,116" fill="#000"/>
<text x="249" y="115" text-anchor="middle">schedule</text>
<line x1="470" y1="120" x2="522" y2="120" stroke="#000"/>
<polygon points="522,120 514,124 514,116" fill="#000"/>
<text x="496" y="115" text-anchor="middle">execute</text>
<line x1="522" y1="120" x2="522" y2="10" stroke="#000"/>
<line x1="522" y1="10" x2="154" y2="10" stroke="#000"/>
<line x1="154" y1="10" x2="154" y2="400" stroke="#000"/>
<polygon points="154,400 150,392 157,392" fill="#000"/>
<text x="338" y="5" text-anchor="middle">success</text>
<line x1="522" y1="120" x2="522" y2="180" stroke="#000"/>
<line x1="522" y1="180" x2="234" y2="180" stroke="#000"/>
<line x1="234" y1="180" x2="234" y2="240" stroke="#000"/>
<polygon points="234,240 230,232 238,232" fill="#000"/>
<text x="378" y="175" text-anchor="middle">pause</text>
<line x1="234" y1="240" x2="234" y2="180" stroke="#000"/>
<line x1="234" y1="180" x2="522" y2="180" stroke="#000"/>
<line x1="522" y1="180" x2="522" y2="120" stroke="#000"/>
<polygon points="522,120 526,127 518,127" fill="#000"/>
<text x="378" y="175" text-anchor="middle">resume</text>
<line x1="522" y1="120" x2="522" y2="240" stroke="#000"/>
<line x1="522" y1="240" x2="481" y2="240" stroke="#000"/>
<polygon points="481,240 489,236 489,244" fill="#000"/>
<text x="522" y="195" text-anchor="middle">error [retriesRemaining]</text>
<line x1="607" y1="172" x2="607" y2="388" stroke="#000"/>
<line x1="607" y1="388" x2="442" y2="388" stroke="#000"/>
<polygon points="442,388 449,384 449,391" fill="#000"/>
<text x="607" y="275" text-anchor="middle">error [noRetriesLeft]</text>
<line x1="481" y1="240" x2="481" y2="120" stroke="#000"/>
<line x1="481" y1="120" x2="522" y2="120" stroke="#000"/>
<polygon points="522,120 514,124 514,116" fill="#000"/>
<text x="481" y="175" text-anchor="middle">retryReady</text>
<line x1="142" y1="285" x2="292" y2="285" stroke="#000"/>
<line x1="292" y1="285" x2="292" y2="388" stroke="#000"/>
<polygon points="292,388 288,380 295,380" fill="#000"/>
<text x="217" y="300" text-anchor="middle">after 1h</text>
<line x1="522" y1="120" x2="522" y2="10" stroke="#000"/>
<line x1="522" y1="10" x2="304" y2="10" stroke="#000"/>
<line x1="304" y1="10" x2="304" y2="400" stroke="#000"/>
<polygon points="304,400 300,392 307,392" fill="#000"/>
<text x="413" y="5" text-anchor="middle">after 30m</text>
<line x1="142" y1="157" x2="142" y2="10" stroke="#000"/>
<line x1="142" y1="10" x2="292" y2="10" stroke="#000"/>
<line x1="292" y1="10" x2="292" y2="388" stroke="#000"/>
<polygon points="292,388 288,380 295,380" fill="#000"/>
<text x="217" y="5" text-anchor="middle">after 7d</text>
<line x1="286" y1="120" x2="213" y2="120" stroke="#000"/>
<polygon points="213,120 220,116 220,123" fill="#000"/>
<text x="249" y="115" text-anchor="middle">reschedule</text>
</svg>