<svg xmlns="http://www.w3.org/2000/svg" viewBox="0 0 2151 600" width="2151" height="600">
<rect x="978" y="50" width="188" height="70" stroke-width="1" fill="#fff" stroke="#000"/>
<text x="1072" y="77" text-anchor="middle">&lt;&lt;component&gt;&gt;</text>
<text x="1072" y="97" text-anchor="middle">NotificationDispatcher</text>
<rect x="779" y="50" width="159" height="160" fill="#fff" stroke="#000" stroke-width="1"/>
<text x="858" y="77" text-anchor="middle">Notification</text>
<line x1="779" y1="92" x2="938" y2="92" stroke="#000"/>
<text x="789" y="107">+ id: string</text>
<text x="789" y="127">+ userId: string</text>
<text x="789" y="147">+ channel: string</text>
<text x="789" y="167">+ message: string</text>
<text x="789" y="187">+ priority: string</text>
<rect x="1206" y="50" width="166" height="120" fill="#fff" stroke="#000" stroke-width="1"/>
<text x="1289" y="77" text-anchor="middle">DeliveryResult</text>
<line x1="1206" y1="92" x2="1372" y2="92" stroke="#000"/>
<text x="1216" y="107">+ success: bool</text>
<text x="1216" y="127">+ channel: string</text>
<text x="1216" y="147">+ timestamp: string</text>
<rect x="50" y="270" width="397" height="100" fill="#fff" stroke="#000" stroke-width="1"/>
<text x="248" y="297" text-anchor="middle">&lt;&lt;component&gt;&gt;</text>
<text x="248" y="317" text-anchor="middle">EmailProvider</text>
<line x1="50" y1="332" x2="447" y2="332" stroke="#000"/>
<text x="60" y="347">+ async Send(userId: string, message: string): bool</text>
<rect x="487" y="270" width="397" height="100" stroke-width="1" fill="#fff" stroke="#000"/>
<text x="685" y="297" text-anchor="middle">&lt;&lt;component&gt;&gt;</text>
<text x="685" y="317" text-anchor="middle">SMSProvider</text>
<line x1="487" y1="332" x2="884" y2="332" stroke="#000"/>
<text x="497" y="347">+ async Send(userId: string, message: string): bool</text>
<rect x="924" y="270" width="397" height="100" fill="#fff" stroke="#000" stroke-width="1"/>
<text x="1122" y="297" text-anchor="middle">&lt;&lt;component&gt;&gt;</text>
<text x="1122" y="317" text-anchor="middle">PushProvider</text>
<line x1="924" y1="332" x2="1321" y2="332" stroke="#000"/>
<text x="934" y="347">+ async Send(userId: string, message: string): bool</text>
<rect x="1361" y="270" width="318" height="120" fill="#fff" stroke="#000" stroke-width="1"/>
<text x="1520" y="297" text-anchor="middle">&lt;&lt;component&gt;&gt;</text>
<text x="1520" y="317" text-anchor="middle">UserPreferences</text>
<line x1="1361" y1="332" x2="1679" y2="332" stroke="#000"/>
<text x="1371" y="347">+ GetPreferences(userId: string): string</text>
<text x="1371" y="367">+ GetAllActiveUsers(): string[]</text>
<rect x="1719" y="270" width="382" height="100" fill="#fff" stroke="#000" stroke-width="1"/>
<text x="1910" y="297" text-anchor="middle">&lt;&lt;component&gt;&gt;</text>
<text x="1910" y="317" text-anchor="middle">DeliveryLog</text>
<line x1="1719" y1="332" x2="2101" y2="332" stroke="#000"/>
<text x="1729" y="347">+ Record(notificationId: string, results: string)</text>
<line x1="978" y1="65" x2="447" y2="65" stroke-dasharray="5,5" stroke="#000"/>
<line x1="447" y1="65" x2="447" y2="320" stroke="#000" stroke-dasharray="5,5"/>
<polygon points="447,320 442,310 451,310" fill="#000"/>
<line x1="978" y1="75" x2="978" y2="320" stroke="#000" stroke-dasharray="5,5"/>
<line x1="978" y1="320" x2="884" y2="320" stroke="#000" stroke-dasharray="5,5"/>
<polygon points="884,320 893,315 893,324" fill="#000"/>
<line x1="1072" y1="120" x2="1072" y2="270" stroke-dasharray="5,5" stroke="#000"/>
<line x1="1072" y1="270" x2="1122" y2="270" stroke="#000" stroke-dasharray="5,5"/>
<polygon points="1122,270 1112,275 1112,265" fill="#000"/>
<line x1="1166" y1="95" x2="1166" y2="212" stroke="#000" stroke-dasharray="5,5"/>
<line x1="1166" y1="212" x2="1361" y2="212" stroke="#000" stroke-dasharray="5,5"/>
<line x1="1361" y1="212" x2="1361" y2="330" stroke="#000" stroke-dasharray="5,5"/>
<polygon points="1361,330 1356,320 1365,320" fill="#000"/>
<line x1="1166" y1="105" x2="1719" y2="105" stroke="#000" stroke-dasharray="5,5"/>
<line x1="1719" y1="105" x2="1719" y2="320" stroke="#000" stroke-dasharray="5,5"/>
<polygon points="1719,320 1714,310 1723,310" fill="#000"/>
</svg>