<svg xmlns="http://www.w3.org/2000/svg" viewBox="0 0 1112 600" width="1112" height="600">
<rect x="50" y="50" width="178" height="40" stroke="#000" fill="#fff"/>
<text x="139" y="75" text-anchor="middle">NotificationDispatcher</text>
<line x1="139" y1="100" x2="139" y2="500" stroke-dasharray="5,5" stroke="#000"/>
<rect x="258" y="50" width="113" height="40" fill="#fff" stroke="#000"/>
<text x="314" y="75" text-anchor="middle">EmailProvider</text>
<line x1="314" y1="100" x2="314" y2="500" stroke="#000" stroke-dasharray="5,5"/>
<rect x="401" y="50" width="99" height="40" stroke="#000" fill="#fff"/>
<text x="450" y="75" text-anchor="middle">SMSProvider</text>
<line x1="450" y1="100" x2="450" y2="500" stroke="#000" stroke-dasharray="5,5"/>
<rect x="530" y="50" width="106" height="40" fill="#fff" stroke="#000"/>
<text x="583" y="75" text-anchor="middle">PushProvider</text>
<line x1="583" y1="100" x2="583" y2="500" stroke="#000" stroke-dasharray="5,5"/>
<rect x="666" y="50" width="127" height="40" fill="#fff" stroke="#000"/>
<text x="729" y="75" text-anchor="middle">UserPreferences</text>
<line x1="729" y1="100" x2="729" y2="500" stroke-dasharray="5,5" stroke="#000"/>
<rect x="823" y="50" width="99" height="40" fill="#fff" stroke="#000"/>
<text x="872" y="75" text-anchor="middle">DeliveryLog</text>
<line x1="872" y1="100" x2="872" y2="500" stroke-dasharray="5,5" stroke="#000"/>
<rect x="952" y="50" width="80" height="40" fill="#fff" stroke="#000"/>
<text x="992" y="75" text-anchor="middle">self</text>
<line x1="992" y1="100" x2="992" y2="500" stroke="#000" stroke-dasharray="5,5"/>
<line x1="139" y1="120" x2="729" y2="120" stroke="#000"/>
<polygon points="729,120 721,123 721,116" fill="#000"/>
<text x="434" y="115" text-anchor="middle">getPreferences</text>
<line x1="139" y1="160" x2="992" y2="160" stroke="#000"/>
<polygon points="992,160 985,163 985,156" fill="#000"/>
<text x="565" y="155" text-anchor="middle">initResults</text>
<line x1="139" y1="200" x2="314" y2="200" stroke="#000" stroke-dasharray="5,5"/>
<line x1="306" y1="195" x2="314" y2="200" stroke="#000"/>
<line x1="306" y1="205" x2="314" y2="200" stroke="#000"/>
<text x="226" y="195" text-anchor="middle">send</text>
<line x1="139" y1="240" x2="992" y2="240" stroke="#000"/>
<polygon points="992,240 985,243 985,236" fill="#000"/>
<text x="565" y="235" text-anchor="middle">recordResult</text>
<rect x="987" y="240" width="10" height="40" fill="#fff" stroke="#000"/>
<rect x="50" y="190" width="1012" height="100" stroke="#000" fill="none"/>
<text x="60" y="200">[alt] condition</text>
<line x1="139" y1="280" x2="450" y2="280" stroke="#000" stroke-dasharray="5,5"/>
<line x1="442" y1="275" x2="450" y2="280" stroke="#000"/>
<line x1="442" y1="285" x2="450" y2="280" stroke="#000"/>
<text x="294" y="275" text-anchor="middle">send</text>
<line x1="139" y1="320" x2="992" y2="320" stroke="#000"/>
<polygon points="992,320 985,323 985,316" fill="#000"/>
<text x="565" y="315" text-anchor="middle">recordResult</text>
<rect x="987" y="320" width="10" height="40" fill="#fff" stroke="#000"/>
<rect x="50" y="270" width="1012" height="100" stroke="#000" fill="none"/>
<text x="60" y="280">[alt] condition</text>
<line x1="139" y1="360" x2="583" y2="360" stroke="#000" stroke-dasharray="5,5"/>
<line x1="575" y1="355" x2="583" y2="360" stroke="#000"/>
<line x1="575" y1="365" x2="583" y2="360" stroke="#000"/>
<text x="361" y="355" text-anchor="middle">send</text>
<line x1="139" y1="400" x2="992" y2="400" stroke="#000"/>
<polygon points="992,400 985,403 985,396" fill="#000"/>
<text x="565" y="395" text-anchor="middle">recordResult</text>
<rect x="987" y="400" width="10" height="40" fill="#fff" stroke="#000"/>
<rect x="50" y="350" width="1012" height="100" stroke="#000" fill="none"/>
<text x="60" y="360">[alt] condition</text>
<line x1="139" y1="440" x2="872" y2="440" stroke="#000"/>
<polygon points="872,440 864,443 864,436" fill="#000"/>
<text x="505" y="435" text-anchor="middle">record</text>
<rect x="159" y="470" width="120" height="25" fill="#ccffcc" stroke="#006600"/>
<text x="169" y="485">return results</text>
<rect x="724" y="120" width="10" height="390" fill="#fff" stroke="#000"/>
<rect x="987" y="160" width="10" height="350" fill="#fff" stroke="#000"/>
<rect x="867" y="440" width="10" height="70" stroke="#000" fill="#fff"/>
</svg>