<svg xmlns="http://www.w3.org/2000/svg" viewBox="0 0 1163 1150" width="1163" height="1150">
<rect x="448" y="920" width="267" height="120" fill="#fff" stroke="#000" stroke-width="1"/>
<text x="581" y="947" text-anchor="middle">&lt;&lt;component&gt;&gt;</text>
<text x="581" y="967" text-anchor="middle">Serializable</text>
<line x1="448" y1="982" x2="715" y2="982" stroke="#000"/>
<text x="458" y="997">+ Serialize(): string</text>
<text x="458" y="1017">+ Deserialize(data: string): bool</text>
<rect x="395" y="560" width="195" height="120" fill="#fff" stroke="#000" stroke-width="1"/>
<text x="492" y="587" text-anchor="middle">&lt;&lt;component&gt;&gt;</text>
<text x="492" y="607" text-anchor="middle">Cacheable</text>
<line x1="395" y1="622" x2="590" y2="622" stroke="#000"/>
<text x="405" y="637">+ GetCacheKey(): string</text>
<text x="405" y="657">+ GetTTL(): int</text>
<rect x="374" y="740" width="209" height="100" fill="#fff" stroke="#000" stroke-width="1"/>
<text x="478" y="767" text-anchor="middle">&lt;&lt;component&gt;&gt;</text>
<text x="478" y="787" text-anchor="middle">Auditable</text>
<line x1="374" y1="802" x2="583" y2="802" stroke="#000"/>
<text x="384" y="817">+ GetAuditLog(): string[]</text>
<rect x="623" y="740" width="166" height="120" stroke-width="1" fill="#fff" stroke="#000"/>
<text x="706" y="767" text-anchor="middle">&lt;&lt;component&gt;&gt;</text>
<text x="706" y="787" text-anchor="middle">BaseEntity</text>
<line x1="623" y1="802" x2="789" y2="802" stroke="#000"/>
<text x="633" y="817">+ GetId(): string</text>
<text x="633" y="837">+ GetVersion(): int</text>
<rect x="50" y="50" width="166" height="140" fill="#fff" stroke="#000" stroke-width="1"/>
<text x="133" y="77" text-anchor="middle">EntityBase</text>
<line x1="50" y1="92" x2="216" y2="92" stroke="#000"/>
<text x="60" y="107">+ id: string</text>
<text x="60" y="127">+ createdAt: string</text>
<text x="60" y="147">+ updatedAt: string</text>
<text x="60" y="167"># version: int</text>
<rect x="630" y="560" width="137" height="70" fill="#fff" stroke="#000" stroke-width="1"/>
<text x="698" y="587" text-anchor="middle">&lt;&lt;component&gt;&gt;</text>
<text x="698" y="607" text-anchor="middle">VersionedEntity</text>
<rect x="585" y="50" width="174" height="120" fill="#fff" stroke="#000" stroke-width="1"/>
<text x="672" y="77" text-anchor="middle">VersionInfo</text>
<line x1="585" y1="92" x2="759" y2="92" stroke="#000"/>
<text x="595" y="107">+ version: int</text>
<text x="595" y="127">+ modifiedBy: string</text>
<text x="595" y="147">+ modifiedAt: string</text>
<rect x="520" y="430" width="123" height="70" fill="#fff" stroke="#000" stroke-width="1"/>
<text x="581" y="457" text-anchor="middle">&lt;&lt;component&gt;&gt;</text>
<text x="581" y="477" text-anchor="middle">CachedEntity</text>
<rect x="494" y="250" width="174" height="120" fill="#fff" stroke="#000" stroke-width="1"/>
<text x="581" y="277" text-anchor="middle">&lt;&lt;component&gt;&gt;</text>
<text x="581" y="297" text-anchor="middle">UserEntity</text>
<line x1="494" y1="312" x2="668" y2="312" stroke="#000"/>
<text x="504" y="327">+ GetName(): string</text>
<text x="504" y="347">+ GetEmail(): string</text>
<rect x="799" y="50" width="137" height="140" fill="#fff" stroke="#000" stroke-width="1"/>
<text x="867" y="77" text-anchor="middle">User</text>
<line x1="799" y1="92" x2="936" y2="92" stroke="#000"/>
<text x="809" y="107">+ id: string</text>
<text x="809" y="127">+ name: string</text>
<text x="809" y="147">+ email: string</text>
<text x="809" y="167">+ role: string</text>
<rect x="256" y="50" width="289" height="120" fill="#fff" stroke="#000" stroke-width="1"/>
<text x="400" y="77" text-anchor="middle">&lt;&lt;component&gt;&gt;</text>
<text x="400" y="97" text-anchor="middle">AdminEntity</text>
<line x1="256" y1="112" x2="545" y2="112" stroke="#000"/>
<text x="266" y="127">+ GetPrivileges(): AdminPrivilege[]</text>
<text x="266" y="147">+ HasPermission(scope: string): bool</text>
<rect x="976" y="50" width="137" height="100" fill="#fff" stroke="#000" stroke-width="1"/>
<text x="1044" y="77" text-anchor="middle">AdminPrivilege</text>
<line x1="976" y1="92" x2="1113" y2="92" stroke="#000"/>
<text x="986" y="107">+ scope: string</text>
<text x="986" y="127">+ level: int</text>
<line x1="706" y1="860" x2="706" y2="920" stroke="#000" stroke-dasharray="5,5"/>
<line x1="706" y1="920" x2="581" y2="920" stroke="#000" stroke-dasharray="5,5"/>
<polygon points="581,920 590,915 590,924" fill="#fff" stroke="#000"/>
<line x1="589" y1="630" x2="589" y2="740" stroke="#000"/>
<line x1="589" y1="740" x2="706" y2="740" stroke="#000"/>
<polygon points="706,740 696,744 696,735" fill="#fff" stroke="#000"/>
<line x1="630" y1="595" x2="630" y2="790" stroke="#000" stroke-dasharray="5,5"/>
<line x1="630" y1="790" x2="583" y2="790" stroke="#000" stroke-dasharray="5,5"/>
<polygon points="583,790 593,785 593,795" fill="#fff" stroke="#000"/>
<line x1="483" y1="500" x2="483" y2="560" stroke="#000"/>
<line x1="483" y1="560" x2="698" y2="560" stroke="#000"/>
<polygon points="698,560 688,564 688,555" fill="#fff" stroke="#000"/>
<line x1="581" y1="500" x2="581" y2="560" stroke="#000" stroke-dasharray="5,5"/>
<line x1="581" y1="560" x2="492" y2="560" stroke="#000" stroke-dasharray="5,5"/>
<polygon points="492,560 501,555 501,564" fill="#fff" stroke="#000"/>
<line x1="581" y1="370" x2="581" y2="430" stroke="#000"/>
<polygon points="581,430 576,420 586,420" fill="#fff" stroke="#000"/>
<line x1="400" y1="170" x2="400" y2="250" stroke="#000"/>
<line x1="400" y1="250" x2="581" y2="250" stroke="#000"/>
<polygon points="581,250 571,254 571,245" fill="#fff" stroke="#000"/>
</svg>