<svg xmlns="http://www.w3.org/2000/svg" viewBox="0 0 2055 610" width="2055" height="610">
<rect x="448" y="50" width="181" height="140" fill="#fff" stroke="#000" stroke-width="1"/>
<text x="538" y="77" text-anchor="middle">&lt;&lt;component&gt;&gt;</text>
<text x="538" y="97" text-anchor="middle">Car</text>
<line x1="448" y1="112" x2="629" y2="112" stroke="#000"/>
<text x="458" y="127">+ Start(): bool</text>
<text x="458" y="147">+ Stop(): bool</text>
<text x="458" y="167">+ GetStatus(): string</text>
<rect x="50" y="50" width="137" height="140" fill="#fff" stroke="#000" stroke-width="1"/>
<text x="118" y="77" text-anchor="middle">CarSpec</text>
<line x1="50" y1="92" x2="187" y2="92" stroke="#000"/>
<text x="60" y="107">+ make: string</text>
<text x="60" y="127">+ model: string</text>
<text x="60" y="147">+ year: int</text>
<text x="60" y="167">+ vin: string</text>
<rect x="371" y="250" width="145" height="120" stroke="#000" stroke-width="1" fill="#fff"/>
<text x="443" y="277" text-anchor="middle">&lt;&lt;component&gt;&gt;</text>
<text x="443" y="297" text-anchor="middle">Engine</text>
<line x1="371" y1="312" x2="516" y2="312" stroke="#000"/>
<text x="381" y="327">+ Ignite(): bool</text>
<text x="381" y="347">+ GetRPM(): int</text>
<rect x="227" y="50" width="181" height="120" stroke-width="1" fill="#fff" stroke="#000"/>
<text x="317" y="77" text-anchor="middle">EngineSpec</text>
<line x1="227" y1="92" x2="408" y2="92" stroke="#000"/>
<text x="237" y="107">+ displacement: float</text>
<text x="237" y="127">+ horsepower: int</text>
<text x="237" y="147">+ fuelType: string</text>
<rect x="884" y="430" width="123" height="70" stroke="#000" stroke-width="1" fill="#fff"/>
<text x="945" y="457" text-anchor="middle">&lt;&lt;component&gt;&gt;</text>
<text x="945" y="477" text-anchor="middle">FuelInjector</text>
<rect x="669" y="50" width="166" height="100" fill="#fff" stroke="#000" stroke-width="1"/>
<text x="752" y="77" text-anchor="middle">InjectorConfig</text>
<line x1="669" y1="92" x2="835" y2="92" stroke="#000"/>
<text x="679" y="107">+ nozzleSize: float</text>
<text x="679" y="127">+ pressure: float</text>
<rect x="1047" y="430" width="123" height="70" stroke-width="1" fill="#fff" stroke="#000"/>
<text x="1108" y="457" text-anchor="middle">&lt;&lt;component&gt;&gt;</text>
<text x="1108" y="477" text-anchor="middle">Turbocharger</text>
<rect x="875" y="50" width="188" height="100" fill="#fff" stroke="#000" stroke-width="1"/>
<text x="969" y="77" text-anchor="middle">TurboSpec</text>
<line x1="875" y1="92" x2="1063" y2="92" stroke="#000"/>
<text x="885" y="107">+ maxBoost: float</text>
<text x="885" y="127">+ wastegateSize: float</text>
<rect x="556" y="250" width="123" height="70" fill="#fff" stroke="#000" stroke-width="1"/>
<text x="617" y="277" text-anchor="middle">&lt;&lt;component&gt;&gt;</text>
<text x="617" y="297" text-anchor="middle">Transmission</text>
<rect x="1103" y="50" width="130" height="100" fill="#fff" stroke="#000" stroke-width="1"/>
<text x="1168" y="77" text-anchor="middle">GearRatio</text>
<line x1="1103" y1="92" x2="1233" y2="92" stroke="#000"/>
<text x="1113" y="107">+ gear: int</text>
<text x="1113" y="127">+ ratio: float</text>
<rect x="1273" y="50" width="145" height="70" fill="#fff" stroke="#000" stroke-width="1"/>
<text x="1345" y="77" text-anchor="middle">&lt;&lt;enum&gt;&gt;</text>
<text x="1345" y="97" text-anchor="middle">TransmissionType</text>
<rect x="719" y="250" width="123" height="70" fill="#fff" stroke="#000" stroke-width="1"/>
<text x="780" y="277" text-anchor="middle">&lt;&lt;component&gt;&gt;</text>
<text x="780" y="297" text-anchor="middle">Chassis</text>
<rect x="1458" y="50" width="159" height="100" fill="#fff" stroke="#000" stroke-width="1"/>
<text x="1537" y="77" text-anchor="middle">ChassisSpec</text>
<line x1="1458" y1="92" x2="1617" y2="92" stroke="#000"/>
<text x="1468" y="107">+ material: string</text>
<text x="1468" y="127">+ weight: float</text>
<rect x="882" y="250" width="325" height="120" fill="#fff" stroke="#000" stroke-width="1"/>
<text x="1044" y="277" text-anchor="middle">&lt;&lt;component&gt;&gt;</text>
<text x="1044" y="297" text-anchor="middle">GPS</text>
<line x1="882" y1="312" x2="1207" y2="312" stroke="#000"/>
<text x="892" y="327">+ GetCurrentLocation(): Location</text>
<text x="892" y="347">+ Navigate(destination: string): string[]</text>
<rect x="1657" y="50" width="120" height="100" stroke="#000" stroke-width="1" fill="#fff"/>
<text x="1717" y="77" text-anchor="middle">Location</text>
<line x1="1657" y1="92" x2="1777" y2="92" stroke="#000"/>
<text x="1667" y="107">+ lat: float</text>
<text x="1667" y="127">+ lng: float</text>
<rect x="1247" y="250" width="260" height="120" stroke="#000" stroke-width="1" fill="#fff"/>
<text x="1377" y="277" text-anchor="middle">&lt;&lt;component&gt;&gt;</text>
<text x="1377" y="297" text-anchor="middle">EntertainmentSystem</text>
<line x1="1247" y1="312" x2="1507" y2="312" stroke="#000"/>
<text x="1257" y="327">+ PlayMusic(track: string): bool</text>
<text x="1257" y="347">+ SetVolume(level: int): bool</text>
<rect x="1547" y="250" width="137" height="70" fill="#fff" stroke="#000" stroke-width="1"/>
<text x="1615" y="277" text-anchor="middle">&lt;&lt;component&gt;&gt;</text>
<text x="1615" y="297" text-anchor="middle">InsurancePolicy</text>
<rect x="1817" y="50" width="188" height="120" stroke-width="1" fill="#fff" stroke="#000"/>
<text x="1911" y="77" text-anchor="middle">Policy</text>
<line x1="1817" y1="92" x2="2005" y2="92" stroke="#000"/>
<text x="1827" y="107">+ provider: string</text>
<text x="1827" y="127">+ policyNumber: string</text>
<text x="1827" y="147">+ expiresAt: string</text>
<line x1="454" y1="190" x2="454" y2="250" stroke="#000"/>
<line x1="454" y1="250" x2="443" y2="250" stroke="#000"/>
<polygon points="454,250 444,245 434,250 444,255" fill="#000"/>
<line x1="482" y1="190" x2="482" y2="250" stroke="#000"/>
<line x1="482" y1="250" x2="617" y2="250" stroke="#000"/>
<polygon points="482,250 492,255 502,250 492,245" fill="#000"/>
<line x1="629" y1="104" x2="629" y2="285" stroke="#000"/>
<line x1="629" y1="285" x2="719" y2="285" stroke="#000"/>
<polygon points="629,285 639,290 649,285 639,280" fill="#000"/>
<line x1="629" y1="120" x2="629" y2="310" stroke="#000"/>
<line x1="629" y1="310" x2="882" y2="310" stroke="#000"/>
<polygon points="629,310 639,315 649,310 639,305" fill="#fff" stroke="#000"/>
<line x1="629" y1="136" x2="629" y2="520" stroke="#000"/>
<line x1="629" y1="520" x2="1247" y2="520" stroke="#000"/>
<line x1="1247" y1="520" x2="1247" y2="310" stroke="#000"/>
<polygon points="1247,520 1252,510 1247,500 1242,510" fill="#fff" stroke="#000"/>
<line x1="629" y1="152" x2="1547" y2="152" stroke="#000"/>
<line x1="1547" y1="152" x2="1547" y2="285" stroke="#000"/>
<polygon points="1547,152 1542,162 1547,172 1552,162" stroke="#000" fill="#fff"/>
<line x1="516" y1="238" x2="516" y2="465" stroke="#000"/>
<line x1="516" y1="465" x2="884" y2="465" stroke="#000"/>
<polygon points="516,465 526,470 536,465 526,460" fill="#000"/>
<line x1="516" y1="310" x2="516" y2="465" stroke="#000"/>
<line x1="516" y1="465" x2="1047" y2="465" stroke="#000"/>
<polygon points="516,465 526,470 535,465 526,460" fill="#000"/>
</svg>