<svg xmlns="http://www.w3.org/2000/svg" viewBox="0 0 800 600" width="800" height="600">
<rect x="50" y="50" width="92" height="40" fill="#fff" stroke="#000"/>
<text x="96" y="75" text-anchor="middle">Calculator</text>
<line x1="96" y1="100" x2="96" y2="500" stroke="#000" stroke-dasharray="5,5"/>
<rect x="172" y="50" width="92" height="40" fill="#fff" stroke="#000"/>
<text x="218" y="75" text-anchor="middle">MathEngine</text>
<line x1="218" y1="100" x2="218" y2="500" stroke-dasharray="5,5" stroke="#000"/>
<rect x="294" y="50" width="80" height="40" fill="#fff" stroke="#000"/>
<text x="334" y="75" text-anchor="middle">Logger</text>
<line x1="334" y1="100" x2="334" y2="500" stroke="#000" stroke-dasharray="5,5"/>
<rect x="404" y="50" width="80" height="40" stroke="#000" fill="#fff"/>
<text x="444" y="75" text-anchor="middle">self</text>
<line x1="444" y1="100" x2="444" y2="500" stroke="#000" stroke-dasharray="5,5"/>
<line x1="96" y1="120" x2="444" y2="120" stroke="#000"/>
<polygon points="444,120 436,123 436,116" fill="#000"/>
<text x="270" y="115" text-anchor="middle">getBasePrice</text>
<line x1="96" y1="160" x2="444" y2="160" stroke="#000"/>
<polygon points="444,160 436,163 436,156" fill="#000"/>
<text x="270" y="155" text-anchor="middle">getMemberDiscount</text>
<line x1="96" y1="200" x2="334" y2="200" stroke="#000"/>
<polygon points="334,200 326,203 326,196" fill="#000"/>
<text x="215" y="195" text-anchor="middle">Error</text>
<rect x="116" y="230" width="178" height="25" fill="#ffcccc" stroke="#cc0000"/>
<text x="126" y="245">throw CalculationError</text>
<rect x="329" y="200" width="10" height="70" fill="#fff" stroke="#000"/>
<rect x="50" y="190" width="700" height="90" stroke="#000" fill="none"/>
<text x="60" y="200">[alt] condition</text>
<rect x="116" y="260" width="106" height="25" fill="#ccffcc" stroke="#006600"/>
<text x="126" y="275">return total</text>
<rect x="439" y="120" width="10" height="180" fill="#fff" stroke="#000"/>
</svg>