<svg xmlns="http://www.w3.org/2000/svg" viewBox="0 0 800 600" width="800" height="600">
<rect x="246" y="50" width="123" height="70" stroke="#000" stroke-width="1" fill="#fff"/>
<text x="307" y="77" text-anchor="middle">&lt;&lt;component&gt;&gt;</text>
<text x="307" y="97" text-anchor="middle">Calculator</text>
<rect x="409" y="50" width="145" height="100" fill="#fff" stroke="#000" stroke-width="1"/>
<text x="481" y="77" text-anchor="middle">Result</text>
<line x1="409" y1="92" x2="554" y2="92" stroke="#000"/>
<text x="419" y="107">+ value: float</text>
<text x="419" y="127">+ error: string?</text>
<rect x="148" y="210" width="289" height="160" fill="#fff" stroke="#000" stroke-width="1"/>
<text x="292" y="237" text-anchor="middle">&lt;&lt;component&gt;&gt;</text>
<text x="292" y="257" text-anchor="middle">MathEngine</text>
<line x1="148" y1="272" x2="437" y2="272" stroke="#000"/>
<text x="158" y="287">+ FetchData(sourceId: string): float</text>
<text x="158" y="307">+ ProcessLarge(value: float): float</text>
<text x="158" y="327">+ ProcessSmall(value: float): float</text>
<text x="158" y="347">+ ProcessZero(): float</text>
<rect x="477" y="210" width="174" height="120" fill="#fff" stroke="#000" stroke-width="1"/>
<text x="564" y="237" text-anchor="middle">&lt;&lt;component&gt;&gt;</text>
<text x="564" y="257" text-anchor="middle">Logger</text>
<line x1="477" y1="272" x2="651" y2="272" stroke="#000"/>
<text x="487" y="287">+ Info(msg: string)</text>
<text x="487" y="307">+ Error(msg: string)</text>
<line x1="209" y1="120" x2="209" y2="210" stroke="#000" stroke-dasharray="5,5"/>
<line x1="209" y1="210" x2="292" y2="210" stroke="#000" stroke-dasharray="5,5"/>
<polygon points="292,210 282,214 282,205" fill="#000"/>
<line x1="369" y1="85" x2="369" y2="177" stroke="#000" stroke-dasharray="5,5"/>
<line x1="369" y1="177" x2="477" y2="177" stroke="#000" stroke-dasharray="5,5"/>
<line x1="477" y1="177" x2="477" y2="270" stroke-dasharray="5,5" stroke="#000"/>
<polygon points="477,270 472,260 481,260" fill="#000"/>
</svg>