<svg xmlns="http://www.w3.org/2000/svg" viewBox="0 0 800 1060" width="800" height="1060">
<rect x="350" y="50" width="100" height="40" rx="20" ry="20" fill="#fff" stroke="#000"/>
<text x="400" y="75" text-anchor="middle">Start</text>
<rect x="241" y="130" width="318" height="40" stroke="#000" fill="#fff"/>
<text x="400" y="155" text-anchor="middle">basePrice = self.getBasePrice(productId)</text>
<rect x="216" y="210" width="368" height="40" fill="#fff" stroke="#000"/>
<text x="400" y="235" text-anchor="middle">memberDiscount = self.getMemberDiscount(userId)</text>
<rect x="198" y="290" width="404" height="40" fill="#fff" stroke="#000"/>
<text x="400" y="315" text-anchor="middle">discount = memberDiscount &gt; 20 ? 20 : memberDiscount</text>
<rect x="184" y="370" width="433" height="40" fill="#fff" stroke="#000"/>
<text x="400" y="395" text-anchor="middle">discountedPrice = basePrice - basePrice * discount / 100</text>
<rect x="285" y="450" width="231" height="40" fill="#fff" stroke="#000"/>
<text x="400" y="475" text-anchor="middle">tax = discountedPrice * 0.08</text>
<rect x="281" y="530" width="238" height="40" fill="#fff" stroke="#000"/>
<text x="400" y="555" text-anchor="middle">total = discountedPrice + tax</text>
<polygon points="400,610 451,630 400,650 349,630" fill="#fff" stroke="#000"/>
<text x="400" y="635" text-anchor="middle">condition?</text>
<rect x="350" y="690" width="100" height="40" fill="#fff" stroke="#000"/>
<text x="400" y="715" text-anchor="middle">Error()</text>
<rect x="306" y="770" width="188" height="40" rx="20" ry="20" fill="#fff" stroke="#000"/>
<text x="400" y="795" text-anchor="middle">throw CalculationError</text>
<rect x="500" y="850" width="100" height="40" rx="20" ry="20" fill="#fff" stroke="#000"/>
<text x="550" y="875" text-anchor="middle">return</text>
<rect x="350" y="930" width="100" height="40" rx="20" ry="20" fill="#fff" stroke="#000"/>
<text x="400" y="955" text-anchor="middle">End</text>
<line x1="400" y1="90" x2="400" y2="130" stroke="#000"/>
<polygon points="400,130 396,122 404,122" fill="#000"/>
<line x1="400" y1="170" x2="400" y2="210" stroke="#000"/>
<polygon points="400,210 396,202 404,202" fill="#000"/>
<line x1="400" y1="250" x2="400" y2="290" stroke="#000"/>
<polygon points="400,290 396,282 404,282" fill="#000"/>
<line x1="400" y1="330" x2="400" y2="370" stroke="#000"/>
<polygon points="400,370 396,362 404,362" fill="#000"/>
<line x1="400" y1="410" x2="400" y2="450" stroke="#000"/>
<polygon points="400,450 396,442 404,442" fill="#000"/>
<line x1="400" y1="490" x2="400" y2="530" stroke="#000"/>
<polygon points="400,530 396,522 404,522" fill="#000"/>
<line x1="400" y1="570" x2="400" y2="610" stroke="#000"/>
<polygon points="400,610 396,602 404,602" fill="#000"/>
<line x1="400" y1="650" x2="400" y2="690" stroke="#000"/>
<polygon points="400,690 396,682 404,682" fill="#000"/>
<text x="410" y="670">Yes</text>
<line x1="400" y1="730" x2="400" y2="770" stroke="#000"/>
<polygon points="400,770 396,762 404,762" fill="#000"/>
<line x1="440" y1="630" x2="550" y2="630" stroke="#000"/>
<line x1="550" y1="630" x2="550" y2="850" stroke="#000"/>
<polygon points="550,850 546,842 553,842" fill="#000"/>
<text x="460" y="625">No</text>
<line x1="550" y1="890" x2="550" y2="910" stroke="#000"/>
<line x1="550" y1="910" x2="400" y2="910" stroke="#000"/>
<line x1="400" y1="910" x2="400" y2="930" stroke="#000"/>
<polygon points="400,930 396,922 404,922" fill="#000"/>
</svg>