<svg xmlns="http://www.w3.org/2000/svg" viewBox="0 0 1123 600" width="1123" height="600">
<rect x="50" y="50" width="469" height="140" fill="#fff" stroke="#000" stroke-width="1"/>
<text x="284" y="77" text-anchor="middle">&lt;&lt;component&gt;&gt;</text>
<text x="284" y="97" text-anchor="middle">ApprovalWorkflow</text>
<line x1="50" y1="112" x2="519" y2="112" stroke="#000"/>
<text x="60" y="127">+ SubmitRequest(req: Request): Request throws ValidationError</text>
<text x="60" y="147">+ ApproveRequest(reqId: string, approverId: string): Request</text>
<text x="60" y="167">+ RejectRequest(reqId: string, reason: string): Request</text>
<rect x="559" y="50" width="166" height="160" fill="#fff" stroke="#000" stroke-width="1"/>
<text x="642" y="77" text-anchor="middle">Request</text>
<line x1="559" y1="92" x2="725" y2="92" stroke="#000"/>
<text x="569" y="107">+ id: string</text>
<text x="569" y="127">+ requester: string</text>
<text x="569" y="147">+ title: string</text>
<text x="569" y="167">+ amount: float</text>
<text x="569" y="187">+ status: string</text>
<rect x="765" y="50" width="123" height="70" fill="#fff" stroke="#000" stroke-width="1"/>
<text x="826" y="77" text-anchor="middle">&lt;&lt;enum&gt;&gt;</text>
<text x="826" y="97" text-anchor="middle">ApprovalLevel</text>
<rect x="94" y="270" width="490" height="120" fill="#fff" stroke="#000" stroke-width="1"/>
<text x="339" y="297" text-anchor="middle">&lt;&lt;component&gt;&gt;</text>
<text x="339" y="317" text-anchor="middle">NotificationHub</text>
<line x1="94" y1="332" x2="584" y2="332" stroke="#000"/>
<text x="104" y="347">+ SendApprovalRequest(approverId: string, request: string): bool</text>
<text x="104" y="367">+ SendApproved(requesterId: string, request: string): bool</text>
<rect x="624" y="270" width="404" height="120" stroke-width="1" fill="#fff" stroke="#000"/>
<text x="826" y="297" text-anchor="middle">&lt;&lt;component&gt;&gt;</text>
<text x="826" y="317" text-anchor="middle">AuditTrail</text>
<line x1="624" y1="332" x2="1028" y2="332" stroke="#000"/>
<text x="634" y="347">+ Log(actor: string, action: string, target: string)</text>
<text x="634" y="367">+ GetHistory(targetId: string): AuditLog[]</text>
<rect x="928" y="50" width="145" height="120" fill="#fff" stroke="#000" stroke-width="1"/>
<text x="1000" y="77" text-anchor="middle">AuditLog</text>
<line x1="928" y1="92" x2="1073" y2="92" stroke="#000"/>
<text x="938" y="107">+ actor: string</text>
<text x="938" y="127">+ action: string</text>
<text x="938" y="147">+ target: string</text>
<line x1="-91" y1="190" x2="-91" y2="270" stroke="#000" stroke-dasharray="5,5"/>
<line x1="-91" y1="270" x2="339" y2="270" stroke-dasharray="5,5" stroke="#000"/>
<polygon points="339,270 329,274 329,265" fill="#000"/>
<line x1="519" y1="120" x2="519" y2="225" stroke="#000" stroke-dasharray="5,5"/>
<line x1="519" y1="225" x2="624" y2="225" stroke="#000" stroke-dasharray="5,5"/>
<line x1="624" y1="225" x2="624" y2="330" stroke="#000" stroke-dasharray="5,5"/>
<polygon points="624,330 619,320 628,320" fill="#000"/>
<line x1="110" y1="70" x2="170" y2="70" stroke="#000" stroke-dasharray="5,5"/>
<path d="M170,50 L260,50 L270,60 L270,90 L170,90 L170,50 Z" fill="#ffffcc" stroke="#000"/>
<path d="M260,50 L260,60 L270,60" stroke="#000" fill="none"/>
<text x="175" y="65">Approval workflow system</text>
</svg>