<svg xmlns="http://www.w3.org/2000/svg" viewBox="0 0 800 600" width="800" height="600">
<rect x="50" y="50" width="135" height="40" fill="#fff" stroke="#000"/>
<text x="117" y="75" text-anchor="middle">ApprovalWorkflow</text>
<line x1="117" y1="100" x2="117" y2="500" stroke-dasharray="5,5" stroke="#000"/>
<rect x="215" y="50" width="127" height="40" fill="#fff" stroke="#000"/>
<text x="278" y="75" text-anchor="middle">NotificationHub</text>
<line x1="278" y1="100" x2="278" y2="500" stroke="#000" stroke-dasharray="5,5"/>
<rect x="372" y="50" width="92" height="40" fill="#fff" stroke="#000"/>
<text x="418" y="75" text-anchor="middle">AuditTrail</text>
<line x1="418" y1="100" x2="418" y2="500" stroke="#000" stroke-dasharray="5,5"/>
<rect x="494" y="50" width="80" height="40" fill="#fff" stroke="#000"/>
<text x="534" y="75" text-anchor="middle">self</text>
<line x1="534" y1="100" x2="534" y2="500" stroke="#000" stroke-dasharray="5,5"/>
<line x1="117" y1="120" x2="534" y2="120" stroke="#000"/>
<polygon points="534,120 526,123 526,116" fill="#000"/>
<text x="325" y="115" text-anchor="middle">getRequest</text>
<line x1="117" y1="160" x2="534" y2="160" stroke="#000"/>
<polygon points="534,160 526,163 526,156" fill="#000"/>
<text x="325" y="155" text-anchor="middle">recordApproval</text>
<line x1="117" y1="200" x2="278" y2="200" stroke="#000"/>
<polygon points="278,200 270,203 270,196" fill="#000"/>
<text x="197" y="195" text-anchor="middle">sendApproved</text>
<line x1="117" y1="240" x2="418" y2="240" stroke="#000"/>
<polygon points="418,240 410,243 410,236" fill="#000"/>
<text x="267" y="235" text-anchor="middle">log</text>
<rect x="137" y="270" width="120" height="25" fill="#ccffcc" stroke="#006600"/>
<text x="147" y="285">return request</text>
<rect x="529" y="160" width="10" height="150" fill="#fff" stroke="#000"/>
<rect x="273" y="200" width="10" height="110" fill="#fff" stroke="#000"/>
<rect x="413" y="240" width="10" height="70" fill="#fff" stroke="#000"/>
<text x="60" y="325">[else]</text>
<rect x="137" y="320" width="185" height="25" fill="#ffcccc" stroke="#cc0000"/>
<text x="147" y="335">throw UnauthorizedError</text>
<rect x="50" y="150" width="700" height="220" stroke="#000" fill="none"/>
<text x="60" y="160">[alt] condition</text>
<line x1="50" y1="315" x2="750" y2="315" stroke="#000" stroke-dasharray="5,5"/>
<rect x="529" y="120" width="10" height="240" fill="#fff" stroke="#000"/>
</svg>