<svg xmlns="http://www.w3.org/2000/svg" viewBox="0 0 800 600" width="800" height="600">
<rect x="50" y="50" width="135" height="40" fill="#fff" stroke="#000"/>
<text x="117" y="75" text-anchor="middle">ApprovalWorkflow</text>
<line x1="117" y1="100" x2="117" y2="500" stroke="#000" stroke-dasharray="5,5"/>
<rect x="215" y="50" width="127" height="40" fill="#fff" stroke="#000"/>
<text x="278" y="75" text-anchor="middle">NotificationHub</text>
<line x1="278" y1="100" x2="278" y2="500" stroke-dasharray="5,5" stroke="#000"/>
<rect x="372" y="50" width="92" height="40" fill="#fff" stroke="#000"/>
<text x="418" y="75" text-anchor="middle">AuditTrail</text>
<line x1="418" y1="100" x2="418" y2="500" stroke="#000" stroke-dasharray="5,5"/>
<rect x="494" y="50" width="80" height="40" fill="#fff" stroke="#000"/>
<text x="534" y="75" text-anchor="middle">self</text>
<line x1="534" y1="100" x2="534" y2="500" stroke="#000" stroke-dasharray="5,5"/>
<line x1="117" y1="120" x2="534" y2="120" stroke="#000"/>
<polygon points="534,120 526,123 526,116" fill="#000"/>
<text x="325" y="115" text-anchor="middle">validateRequest</text>
<rect x="137" y="150" width="171" height="25" stroke="#cc0000" fill="#ffcccc"/>
<text x="147" y="165">throw ValidationError</text>
<rect x="50" y="150" width="700" height="50" stroke="#000" fill="none"/>
<text x="60" y="160">[alt] condition</text>
<line x1="117" y1="190" x2="534" y2="190" stroke="#000"/>
<polygon points="534,190 526,193 526,186" fill="#000"/>
<text x="325" y="185" text-anchor="middle">determineApproverChain</text>
<line x1="117" y1="230" x2="278" y2="230" stroke="#000"/>
<polygon points="278,230 270,233 270,226" fill="#000"/>
<text x="197" y="225" text-anchor="middle">sendApprovalRequest</text>
<rect x="273" y="230" width="10" height="40" fill="#fff" stroke="#000"/>
<rect x="50" y="220" width="700" height="60" stroke="#000" fill="none"/>
<text x="60" y="230">[loop] for approver</text>
<line x1="117" y1="270" x2="418" y2="270" stroke="#000"/>
<polygon points="418,270 410,273 410,266" fill="#000"/>
<text x="267" y="265" text-anchor="middle">log</text>
<rect x="137" y="300" width="120" height="25" fill="#ccffcc" stroke="#006600"/>
<text x="147" y="315">return request</text>
<rect x="529" y="120" width="10" height="220" fill="#fff" stroke="#000"/>
<rect x="413" y="270" width="10" height="70" fill="#fff" stroke="#000"/>
</svg>