<svg xmlns="http://www.w3.org/2000/svg" viewBox="0 0 800 600" width="800" height="600">
<rect x="50" y="50" width="200" height="280" fill="#fff" stroke="#000" stroke-width="1"/>
<text x="150" y="70">&lt;&lt;component&gt;&gt;</text>
<text x="150" y="90">Client</text>
<line x1="50" y1="105" x2="250" y2="105" stroke="#000"/>
<text x="60" y="115">+ New()</text>
<text x="60" y="135">+ ParseFile()</text>
<text x="60" y="155">+ ParseString()</text>
<text x="60" y="175">+ ToClassDiagram()</text>
<text x="60" y="195">+ ToSequenceDiagram()</text>
<text x="60" y="215">+ ToStateDiagram()</text>
<text x="60" y="235">+ ToFlowchart()</text>
<text x="60" y="255">+ RenderClassDiagram()</text>
<text x="60" y="275">+ RenderSequenceDiagram()</text>
<text x="60" y="295">+ RenderStateDiagram()</text>
<text x="60" y="315">+ RenderFlowchart()</text>
<rect x="300" y="50" width="200" height="140" fill="#fff" stroke="#000" stroke-width="1"/>
<text x="400" y="70">SpecFile</text>
<line x1="300" y1="85" x2="500" y2="85" stroke="#000"/>
<text x="310" y="95">+ imports: ImportDecl</text>
<text x="310" y="115">+ mainComponent: ComponentDecl</text>
<text x="310" y="135">+ components: ComponentDecl</text>
<text x="310" y="155">+ annotations: AnnotationDecl</text>
<rect x="550" y="50" width="200" height="120" fill="#fff" stroke="#000" stroke-width="1"/>
<text x="650" y="70">ComponentDecl</text>
<line x1="550" y1="85" x2="750" y2="85" stroke="#000"/>
<text x="560" y="95">+ name: string</text>
<text x="560" y="115">+ body: ComponentBody</text>
<text x="560" y="135">+ annotations: AnnotationDecl</text>
<rect x="50" y="250" width="200" height="160" stroke="#000" stroke-width="1" fill="#fff"/>
<text x="150" y="270">ComponentBody</text>
<line x1="50" y1="285" x2="250" y2="285" stroke="#000"/>
<text x="60" y="295">+ types: TypeDecl</text>
<text x="60" y="315">+ relations: RelationDecl</text>
<text x="60" y="335">+ interfaces: InterfaceDecl</text>
<text x="60" y="355">+ flows: FlowDecl</text>
<text x="60" y="375">+ stateBlocks: StatesDecl</text>
<rect x="300" y="250" width="200" height="140" fill="#fff" stroke="#000" stroke-width="1"/>
<text x="400" y="270">RelationDecl</text>
<line x1="300" y1="285" x2="500" y2="285" stroke="#000"/>
<text x="310" y="295">+ kind: string</text>
<text x="310" y="315">+ target: string</text>
<text x="310" y="335">+ interfaceType: string</text>
<text x="310" y="355">+ alias: string</text>
<rect x="550" y="250" width="200" height="100" fill="#fff" stroke="#000" stroke-width="1"/>
<text x="650" y="270">FlowDecl</text>
<line x1="550" y1="285" x2="750" y2="285" stroke="#000"/>
<text x="560" y="295">+ name: string</text>
<text x="560" y="315">+ steps: Step</text>
<rect x="50" y="450" width="200" height="120" stroke-width="1" fill="#fff" stroke="#000"/>
<text x="150" y="470">StatesDecl</text>
<line x1="50" y1="485" x2="250" y2="485" stroke="#000"/>
<text x="60" y="495">+ name: string</text>
<text x="60" y="515">+ initialState: string</text>
<text x="60" y="535">+ finalStates: string</text>
<line x1="150" y1="100" x2="0" y2="50" stroke="#000" class="dashed"/>
<line x1="150" y1="100" x2="0" y2="50" stroke="#000" class="dashed"/>
<line x1="150" y1="100" x2="0" y2="50" stroke="#000" class="dashed"/>
<line x1="150" y1="100" x2="0" y2="50" stroke="#000" class="dashed"/>
<line x1="150" y1="100" x2="0" y2="50" class="dashed" stroke="#000"/>
<line x1="150" y1="100" x2="0" y2="50" stroke="#000" class="dashed"/>
<line x1="150" y1="100" x2="0" y2="50" stroke="#000" class="dashed"/>
<line x1="150" y1="100" x2="0" y2="50" stroke="#000" class="dashed"/>
<line x1="150" y1="100" x2="0" y2="50" stroke="#000" class="dashed"/>
</svg>