<svg xmlns="http://www.w3.org/2000/svg" viewBox="0 0 850 700" width="850" height="700">
<rect x="50" y="50" width="200" height="260" fill="#fff" stroke="#000" stroke-width="1"/>
<text x="150" y="70" text-anchor="middle">&lt;&lt;component&gt;&gt;</text>
<text x="150" y="90" text-anchor="middle">Client</text>
<line x1="50" y1="105" x2="250" y2="105" stroke="#000"/>
<text x="60" y="115">+ ParseFile()</text>
<text x="60" y="135">+ ParseString()</text>
<text x="60" y="155">+ ToClassDiagram()</text>
<text x="60" y="175">+ ToSequenceDiagram()</text>
<text x="60" y="195">+ ToStateDiagram()</text>
<text x="60" y="215">+ ToFlowchart()</text>
<text x="60" y="235">+ RenderClassDiagram()</text>
<text x="60" y="255">+ RenderSequenceDiagram()</text>
<text x="60" y="275">+ RenderStateDiagram()</text>
<text x="60" y="295">+ RenderFlowchart()</text>
<rect x="300" y="50" width="200" height="140" fill="#fff" stroke="#000" stroke-width="1"/>
<text x="400" y="70" text-anchor="middle">SpecFile</text>
<line x1="300" y1="85" x2="500" y2="85" stroke="#000"/>
<text x="310" y="95">+ path: string</text>
<text x="310" y="115">+ imports: Import</text>
<text x="310" y="135">+ singleComponent: ComponentDecl</text>
<text x="310" y="155">+ components: ComponentDecl</text>
<rect x="550" y="50" width="200" height="100" fill="#fff" stroke="#000" stroke-width="1"/>
<text x="650" y="70" text-anchor="middle">ComponentDecl</text>
<line x1="550" y1="85" x2="750" y2="85" stroke="#000"/>
<text x="560" y="95">+ name: string</text>
<text x="560" y="115">+ body: ComponentBody</text>
<rect x="50" y="250" width="200" height="160" fill="#fff" stroke="#000" stroke-width="1"/>
<text x="150" y="270" text-anchor="middle">ComponentBody</text>
<line x1="50" y1="285" x2="250" y2="285" stroke="#000"/>
<text x="60" y="295">+ types: TypeDecl</text>
<text x="60" y="315">+ relations: RelationDecl</text>
<text x="60" y="335">+ interfaces: InterfaceDecl</text>
<text x="60" y="355">+ statesBlocks: StatesDecl</text>
<text x="60" y="375">+ flows: FlowDecl</text>
<rect x="300" y="250" width="200" height="100" stroke="#000" stroke-width="1" fill="#fff"/>
<text x="400" y="270" text-anchor="middle">RelationDecl</text>
<line x1="300" y1="285" x2="500" y2="285" stroke="#000"/>
<text x="310" y="295">+ kind: string</text>
<text x="310" y="315">+ target: string</text>
<rect x="550" y="250" width="200" height="100" stroke-width="1" fill="#fff" stroke="#000"/>
<text x="650" y="270" text-anchor="middle">FlowDecl</text>
<line x1="550" y1="285" x2="750" y2="285" stroke="#000"/>
<text x="560" y="295">+ name: string</text>
<text x="560" y="315">+ statements: Statement</text>
<rect x="50" y="450" width="200" height="120" fill="#fff" stroke="#000" stroke-width="1"/>
<text x="150" y="470" text-anchor="middle">StatesDecl</text>
<line x1="50" y1="485" x2="250" y2="485" stroke="#000"/>
<text x="60" y="495">+ name: string</text>
<text x="60" y="515">+ statesBlocks: StateDecl</text>
<text x="60" y="535">+ transitions: TransitionDecl</text>
</svg>