<svg xmlns="http://www.w3.org/2000/svg" viewBox="0 0 855 700" width="855" height="700">
<rect x="50" y="50" width="548" height="260" fill="#fff" stroke="#000" stroke-width="1"/>
<text x="324" y="70" text-anchor="middle">&lt;&lt;component&gt;&gt;</text>
<text x="324" y="90" text-anchor="middle">Client</text>
<line x1="50" y1="105" x2="598" y2="105" stroke="#000"/>
<text x="60" y="115">+ ParseFile(filePath: string): SpecFile</text>
<text x="60" y="135">+ ParseString(content: string): SpecFile</text>
<text x="60" y="155">+ ToClassDiagram(spec: SpecFile): ClassDiagram</text>
<text x="60" y="175">+ ToSequenceDiagram(spec: SpecFile, flowName: string): SequenceDiagram</text>
<text x="60" y="195">+ ToStateDiagram(spec: SpecFile, statesName: string): StateDiagram</text>
<text x="60" y="215">+ ToFlowchart(spec: SpecFile, flowName: string): FlowDiagram</text>
<text x="60" y="235">+ RenderClassDiagram(diagram: ClassDiagram, writer: Writer): error</text>
<text x="60" y="255">+ RenderSequenceDiagram(diagram: SequenceDiagram, writer: Writer): error</text>
<text x="60" y="275">+ RenderStateDiagram(diagram: StateDiagram, writer: Writer): error</text>
<text x="60" y="295">+ RenderFlowchart(diagram: FlowDiagram, writer: Writer): error</text>
<rect x="50" y="340" width="260" height="140" fill="#fff" stroke="#000" stroke-width="1"/>
<text x="180" y="360" text-anchor="middle">SpecFile</text>
<line x1="50" y1="375" x2="310" y2="375" stroke="#000"/>
<text x="60" y="385">+ path: string</text>
<text x="60" y="405">+ imports: Import</text>
<text x="60" y="425">+ singleComponent: ComponentDecl</text>
<text x="60" y="445">+ components: ComponentDecl</text>
<rect x="340" y="340" width="181" height="100" stroke="#000" stroke-width="1" fill="#fff"/>
<text x="430" y="360" text-anchor="middle">ComponentDecl</text>
<line x1="340" y1="375" x2="521" y2="375" stroke="#000"/>
<text x="350" y="385">+ name: string</text>
<text x="350" y="405">+ body: ComponentBody</text>
<rect x="551" y="340" width="224" height="160" fill="#fff" stroke="#000" stroke-width="1"/>
<text x="663" y="360" text-anchor="middle">ComponentBody</text>
<line x1="551" y1="375" x2="775" y2="375" stroke="#000"/>
<text x="561" y="385">+ types: TypeDecl</text>
<text x="561" y="405">+ relations: RelationDecl</text>
<text x="561" y="425">+ interfaces: InterfaceDecl</text>
<text x="561" y="445">+ statesBlocks: StatesDecl</text>
<text x="561" y="465">+ flows: FlowDecl</text>
<rect x="50" y="530" width="145" height="100" fill="#fff" stroke="#000" stroke-width="1"/>
<text x="122" y="550" text-anchor="middle">RelationDecl</text>
<line x1="50" y1="565" x2="195" y2="565" stroke="#000"/>
<text x="60" y="575">+ kind: string</text>
<text x="60" y="595">+ target: string</text>
<rect x="225" y="530" width="195" height="100" fill="#fff" stroke="#000" stroke-width="1"/>
<text x="322" y="550" text-anchor="middle">FlowDecl</text>
<line x1="225" y1="565" x2="420" y2="565" stroke="#000"/>
<text x="235" y="575">+ name: string</text>
<text x="235" y="595">+ statements: Statement</text>
<rect x="450" y="530" width="238" height="120" fill="#fff" stroke="#000" stroke-width="1"/>
<text x="569" y="550" text-anchor="middle">StatesDecl</text>
<line x1="450" y1="565" x2="688" y2="565" stroke="#000"/>
<text x="460" y="575">+ name: string</text>
<text x="460" y="595">+ statesBlocks: StateDecl</text>
<text x="460" y="615">+ transitions: TransitionDecl</text>
</svg>