<svg xmlns="http://www.w3.org/2000/svg" viewBox="0 0 850 600" width="850" height="600">
<rect x="50" y="50" width="159" height="400" stroke-width="1" fill="#fff" stroke="#000"/>
<text x="129" y="70" text-anchor="middle">&lt;&lt;component&gt;&gt;</text>
<text x="129" y="90" text-anchor="middle">Canvas</text>
<line x1="50" y1="105" x2="209" y2="105" stroke="#000"/>
<text x="60" y="115">+ New(): Canvas</text>
<text x="60" y="135">+ SetSize(width: int, height: int)</text>
<text x="60" y="155">+ Rect(x: int, y: int, width: int, height: int, opts: Option)</text>
<text x="60" y="175">+ RoundRect(x: int, y: int, width: int, height: int, rx: int, ry: int, opts: Option)</text>
<text x="60" y="195">+ Circle(cx: int, cy: int, r: int, opts: Option)</text>
<text x="60" y="215">+ Ellipse(cx: int, cy: int, rx: int, ry: int, opts: Option)</text>
<text x="60" y="235">+ Line(x1: int, y1: int, x2: int, y2: int, opts: Option)</text>
<text x="60" y="255">+ Path(d: string, opts: Option)</text>
<text x="60" y="275">+ Polygon(points: string, opts: Option)</text>
<text x="60" y="295">+ Text(x: int, y: int, text: string, opts: Option)</text>
<text x="60" y="315">+ AddDef(def: string)</text>
<text x="60" y="335">+ WriteTo(w: Writer): int64</text>
<text x="60" y="355">+ String(): string</text>
<text x="60" y="375">+ Fill(color: string): Option</text>
<text x="60" y="395">+ Stroke(color: string): Option</text>
<text x="60" y="415">+ StrokeWidth(width: int): Option</text>
<text x="60" y="435">+ Class(className: string): Option</text>
<rect x="239" y="50" width="159" height="140" fill="#fff" stroke="#000" stroke-width="1"/>
<text x="318" y="70" text-anchor="middle">Canvas</text>
<line x1="239" y1="85" x2="398" y2="85" stroke="#000"/>
<text x="249" y="95">+ width: int</text>
<text x="249" y="115">+ height: int</text>
<text x="249" y="135">+ elements: string</text>
<text x="249" y="155">+ defs: string</text>
<rect x="428" y="50" width="120" height="60" stroke="#000" stroke-width="1" fill="#fff"/>
<text x="488" y="70" text-anchor="middle">Option</text>
</svg>