<svg xmlns="http://www.w3.org/2000/svg" viewBox="0 0 800 600" width="800" height="600">
<rect x="50" y="50" width="200" height="200" fill="#fff" stroke="#000" stroke-width="1"/>
<text x="150" y="70">&lt;&lt;component&gt;&gt;</text>
<text x="150" y="90">PactCLI</text>
<line x1="50" y1="105" x2="250" y2="105" stroke="#000"/>
<text x="60" y="115">+ Init()</text>
<text x="60" y="135">+ Generate()</text>
<text x="60" y="155">+ Validate()</text>
<text x="60" y="175">+ Check()</text>
<text x="60" y="195">+ Watch()</text>
<text x="60" y="215">+ Version()</text>
<text x="60" y="235">+ Help()</text>
<rect x="300" y="50" width="200" height="120" fill="#fff" stroke="#000" stroke-width="1"/>
<text x="400" y="70">GenerateOptions</text>
<line x1="300" y1="85" x2="500" y2="85" stroke="#000"/>
<text x="310" y="95">+ output: string</text>
<text x="310" y="115">+ types: string</text>
<text x="310" y="135">+ files: string</text>
<rect x="550" y="50" width="200" height="100" fill="#fff" stroke="#000" stroke-width="1"/>
<text x="650" y="70">CheckOptions</text>
<line x1="550" y1="85" x2="750" y2="85" stroke="#000"/>
<text x="560" y="95">+ showMissing: bool</text>
<text x="560" y="115">+ files: string</text>
<rect x="50" y="250" width="200" height="120" fill="#fff" stroke="#000" stroke-width="1"/>
<text x="150" y="270">CommandResult</text>
<line x1="50" y1="285" x2="250" y2="285" stroke="#000"/>
<text x="60" y="295">+ success: bool</text>
<text x="60" y="315">+ message: string</text>
<text x="60" y="335">+ errorMessage: string</text>
<rect x="300" y="250" width="200" height="120" fill="#fff" stroke="#000" stroke-width="1"/>
<text x="400" y="270">PactConfig</text>
<line x1="300" y1="285" x2="500" y2="285" stroke="#000"/>
<text x="310" y="295">+ src: string</text>
<text x="310" y="315">+ output: string</text>
<text x="310" y="335">+ types: string</text>
<rect x="550" y="250" width="200" height="120" fill="#fff" stroke="#000" stroke-width="1"/>
<text x="650" y="270">DiagramOutput</text>
<line x1="550" y1="285" x2="750" y2="285" stroke="#000"/>
<text x="560" y="295">+ filename: string</text>
<text x="560" y="315">+ diagramType: string</text>
<text x="560" y="335">+ baseName: string</text>
<rect x="50" y="450" width="200" height="100" fill="#fff" stroke="#000" stroke-width="1"/>
<text x="150" y="470">ComponentInfo</text>
<line x1="50" y1="485" x2="250" y2="485" stroke="#000"/>
<text x="60" y="495">+ name: string</text>
<text x="60" y="515">+ dependencies: string</text>
<rect x="300" y="450" width="200" height="120" fill="#fff" stroke="#000" stroke-width="1"/>
<text x="400" y="470">ValidationResult</text>
<line x1="300" y1="485" x2="500" y2="485" stroke="#000"/>
<text x="310" y="495">+ file: string</text>
<text x="310" y="515">+ valid: bool</text>
<text x="310" y="535">+ errorMessage: string</text>
<rect x="550" y="450" width="200" height="240" stroke-width="1" fill="#fff" stroke="#000"/>
<text x="650" y="470">&lt;&lt;component&gt;&gt;</text>
<text x="650" y="490">PactClient</text>
<line x1="550" y1="505" x2="750" y2="505" stroke="#000"/>
<text x="560" y="515">+ ParseFile()</text>
<text x="560" y="535">+ ToClassDiagram()</text>
<text x="560" y="555">+ ToSequenceDiagram()</text>
<text x="560" y="575">+ ToStateDiagram()</text>
<text x="560" y="595">+ ToFlowchart()</text>
<text x="560" y="615">+ RenderClassDiagram()</text>
<text x="560" y="635">+ RenderSequenceDiagram()</text>
<text x="560" y="655">+ RenderStateDiagram()</text>
<text x="560" y="675">+ RenderFlowchart()</text>
<rect x="50" y="650" width="200" height="100" stroke-width="1" fill="#fff" stroke="#000"/>
<text x="150" y="670">SpecFile</text>
<line x1="50" y1="685" x2="250" y2="685" stroke="#000"/>
<text x="60" y="695">+ hasComponent: bool</text>
<text x="60" y="715">+ componentCount: int</text>
<rect x="300" y="650" width="200" height="160" stroke-width="1" fill="#fff" stroke="#000"/>
<text x="400" y="670">ComponentData</text>
<line x1="300" y1="685" x2="500" y2="685" stroke="#000"/>
<text x="310" y="695">+ name: string</text>
<text x="310" y="715">+ typeCount: int</text>
<text x="310" y="735">+ relationCount: int</text>
<text x="310" y="755">+ flowCount: int</text>
<text x="310" y="775">+ stateCount: int</text>
<rect x="550" y="650" width="200" height="100" fill="#fff" stroke="#000" stroke-width="1"/>
<text x="650" y="670">TypeDef</text>
<line x1="550" y1="685" x2="750" y2="685" stroke="#000"/>
<text x="560" y="695">+ name: string</text>
<text x="560" y="715">+ fieldCount: int</text>
<rect x="50" y="850" width="200" height="120" fill="#fff" stroke="#000" stroke-width="1"/>
<text x="150" y="870">FieldDef</text>
<line x1="50" y1="885" x2="250" y2="885" stroke="#000"/>
<text x="60" y="895">+ name: string</text>
<text x="60" y="915">+ fieldType: string</text>
<text x="60" y="935">+ optional: bool</text>
<rect x="300" y="850" width="200" height="100" stroke-width="1" fill="#fff" stroke="#000"/>
<text x="400" y="870">RelationDef</text>
<line x1="300" y1="885" x2="500" y2="885" stroke="#000"/>
<text x="310" y="895">+ kind: string</text>
<text x="310" y="915">+ target: string</text>
<rect x="550" y="850" width="200" height="100" fill="#fff" stroke="#000" stroke-width="1"/>
<text x="650" y="870">FlowDef</text>
<line x1="550" y1="885" x2="750" y2="885" stroke="#000"/>
<text x="560" y="895">+ name: string</text>
<text x="560" y="915">+ stepCount: int</text>
<rect x="50" y="1050" width="200" height="120" stroke="#000" stroke-width="1" fill="#fff"/>
<text x="150" y="1070">StatesDef</text>
<line x1="50" y1="1085" x2="250" y2="1085" stroke="#000"/>
<text x="60" y="1095">+ name: string</text>
<text x="60" y="1115">+ stateCount: int</text>
<text x="60" y="1135">+ transitionCount: int</text>
<rect x="300" y="1050" width="200" height="160" fill="#fff" stroke="#000" stroke-width="1"/>
<text x="400" y="1070">StateDef</text>
<line x1="300" y1="1085" x2="500" y2="1085" stroke="#000"/>
<text x="310" y="1095">+ name: string</text>
<text x="310" y="1115">+ isInitial: bool</text>
<text x="310" y="1135">+ isFinal: bool</text>
<text x="310" y="1155">+ entryActions: string</text>
<text x="310" y="1175">+ exitActions: string</text>
<rect x="550" y="1050" width="200" height="120" stroke-width="1" fill="#fff" stroke="#000"/>
<text x="650" y="1070">TransitionDef</text>
<line x1="550" y1="1085" x2="750" y2="1085" stroke="#000"/>
<text x="560" y="1095">+ fromState: string</text>
<text x="560" y="1115">+ toState: string</text>
<text x="560" y="1135">+ trigger: string</text>
<rect x="50" y="1250" width="200" height="100" fill="#fff" stroke="#000" stroke-width="1"/>
<text x="150" y="1270">InterfaceDef</text>
<line x1="50" y1="1285" x2="250" y2="1285" stroke="#000"/>
<text x="60" y="1295">+ name: string</text>
<text x="60" y="1315">+ methodCount: int</text>
<rect x="300" y="1250" width="200" height="120" fill="#fff" stroke="#000" stroke-width="1"/>
<text x="400" y="1270">MethodDef</text>
<line x1="300" y1="1285" x2="500" y2="1285" stroke="#000"/>
<text x="310" y="1295">+ name: string</text>
<text x="310" y="1315">+ paramCount: int</text>
<text x="310" y="1335">+ hasReturn: bool</text>
<rect x="550" y="1250" width="200" height="100" fill="#fff" stroke="#000" stroke-width="1"/>
<text x="650" y="1270">ParamDef</text>
<line x1="550" y1="1285" x2="750" y2="1285" stroke="#000"/>
<text x="560" y="1295">+ name: string</text>
<text x="560" y="1315">+ paramType: string</text>
<rect x="50" y="1450" width="200" height="220" stroke="#000" stroke-width="1" fill="#fff"/>
<text x="150" y="1470">&lt;&lt;component&gt;&gt;</text>
<text x="150" y="1490">FileSystem</text>
<line x1="50" y1="1505" x2="250" y2="1505" stroke="#000"/>
<text x="60" y="1515">+ Exists()</text>
<text x="60" y="1535">+ Stat()</text>
<text x="60" y="1555">+ Create()</text>
<text x="60" y="1575">+ Close()</text>
<text x="60" y="1595">+ WriteFile()</text>
<text x="60" y="1615">+ ReadFile()</text>
<text x="60" y="1635">+ MkdirAll()</text>
<text x="60" y="1655">+ Glob()</text>
<rect x="300" y="1450" width="200" height="120" stroke-width="1" fill="#fff" stroke="#000"/>
<text x="400" y="1470">FileInfo</text>
<line x1="300" y1="1485" x2="500" y2="1485" stroke="#000"/>
<text x="310" y="1495">+ name: string</text>
<text x="310" y="1515">+ isDir: bool</text>
<text x="310" y="1535">+ size: int</text>
<rect x="550" y="1450" width="200" height="100" fill="#fff" stroke="#000" stroke-width="1"/>
<text x="650" y="1470">FileHandle</text>
<line x1="550" y1="1485" x2="750" y2="1485" stroke="#000"/>
<text x="560" y="1495">+ path: string</text>
<text x="560" y="1515">+ handle: int</text>
<line x1="150" y1="100" x2="550" y2="500" stroke="#000" class="dashed"/>
<line x1="150" y1="100" x2="50" y2="1500" stroke="#000" class="dashed"/>
<line x1="650" y1="500" x2="50" y2="1500" stroke="#000" class="dashed"/>
</svg>