<svg xmlns="http://www.w3.org/2000/svg" viewBox="0 0 1913 600" width="1913" height="600">
<rect x="50" y="50" width="397" height="200" fill="#fff" stroke="#000" stroke-width="1"/>
<text x="248" y="70" text-anchor="middle">&lt;&lt;component&gt;&gt;</text>
<text x="248" y="90" text-anchor="middle">Errors</text>
<line x1="50" y1="105" x2="447" y2="105" stroke="#000"/>
<text x="60" y="115">+ FormatParseError(err: ParseError): string</text>
<text x="60" y="135">+ FormatSemanticError(err: SemanticError): string</text>
<text x="60" y="155">+ FormatImportError(err: ImportError): string</text>
<text x="60" y="175">+ FormatCycleError(err: CycleError): string</text>
<text x="60" y="195">+ FormatTransformError(err: TransformError): string</text>
<text x="60" y="215">+ FormatConfigError(err: ConfigError): string</text>
<text x="60" y="235">+ UnwrapImportError(err: ImportError): error</text>
<rect x="487" y="50" width="159" height="120" stroke="#000" stroke-width="1" fill="#fff"/>
<text x="566" y="70" text-anchor="middle">Position</text>
<line x1="487" y1="85" x2="646" y2="85" stroke="#000"/>
<text x="497" y="95">+ line: int</text>
<text x="497" y="115">+ column: int</text>
<text x="497" y="135">+ fileName: string</text>
<rect x="686" y="50" width="152" height="100" fill="#fff" stroke="#000" stroke-width="1"/>
<text x="762" y="70" text-anchor="middle">ParseError</text>
<line x1="686" y1="85" x2="838" y2="85" stroke="#000"/>
<text x="696" y="95">+ pos: Position</text>
<text x="696" y="115">+ message: string</text>
<rect x="878" y="50" width="152" height="100" fill="#fff" stroke="#000" stroke-width="1"/>
<text x="954" y="70" text-anchor="middle">SemanticError</text>
<line x1="878" y1="85" x2="1030" y2="85" stroke="#000"/>
<text x="888" y="95">+ pos: Position</text>
<text x="888" y="115">+ message: string</text>
<rect x="1070" y="50" width="174" height="140" fill="#fff" stroke="#000" stroke-width="1"/>
<text x="1157" y="70" text-anchor="middle">ImportError</text>
<line x1="1070" y1="85" x2="1244" y2="85" stroke="#000"/>
<text x="1080" y="95">+ pos: Position</text>
<text x="1080" y="115">+ importPath: string</text>
<text x="1080" y="135">+ message: string</text>
<text x="1080" y="155">+ cause: error</text>
<rect x="1284" y="50" width="166" height="80" fill="#fff" stroke="#000" stroke-width="1"/>
<text x="1367" y="70" text-anchor="middle">CycleError</text>
<line x1="1284" y1="85" x2="1450" y2="85" stroke="#000"/>
<text x="1294" y="95">+ cyclePath: string</text>
<rect x="1490" y="50" width="174" height="120" fill="#fff" stroke="#000" stroke-width="1"/>
<text x="1577" y="70" text-anchor="middle">TransformError</text>
<line x1="1490" y1="85" x2="1664" y2="85" stroke="#000"/>
<text x="1500" y="95">+ sourceType: string</text>
<text x="1500" y="115">+ targetType: string</text>
<text x="1500" y="135">+ message: string</text>
<rect x="1704" y="50" width="159" height="100" fill="#fff" stroke="#000" stroke-width="1"/>
<text x="1783" y="70" text-anchor="middle">ConfigError</text>
<line x1="1704" y1="85" x2="1863" y2="85" stroke="#000"/>
<text x="1714" y="95">+ filePath: string</text>
<text x="1714" y="115">+ message: string</text>
</svg>