<svg xmlns="http://www.w3.org/2000/svg" viewBox="0 0 800 740" width="800" height="740">
<rect x="350" y="50" width="100" height="40" rx="20" ry="20" fill="#fff" stroke="#000"/>
<text x="400" y="75" text-anchor="middle">Start</text>
<rect x="350" y="130" width="100" height="40" fill="#fff" stroke="#000"/>
<text x="400" y="155" text-anchor="middle">msg = ...</text>
<rect x="350" y="210" width="100" height="40" fill="#fff" stroke="#000"/>
<text x="400" y="235" text-anchor="middle">msg = ...</text>
<polygon points="400,290 440,310 400,330 360,310" fill="#fff" stroke="#000"/>
<text x="400" y="315" text-anchor="middle">condition?</text>
<rect x="350" y="370" width="100" height="40" fill="#fff" stroke="#000"/>
<text x="400" y="395" text-anchor="middle">msg = ...</text>
<rect x="500" y="450" width="100" height="40" fill="#fff" stroke="#000"/>
<rect x="350" y="530" width="100" height="40" rx="20" ry="20" stroke="#000" fill="#fff"/>
<text x="400" y="555" text-anchor="middle">return</text>
<rect x="350" y="610" width="100" height="40" rx="20" ry="20" fill="#fff" stroke="#000"/>
<text x="400" y="635" text-anchor="middle">End</text>
<line x1="400" y1="90" x2="400" y2="130" stroke="#000"/>
<polygon points="400,130 396,122 404,122" fill="#000"/>
<line x1="400" y1="170" x2="400" y2="210" stroke="#000"/>
<polygon points="400,210 396,202 404,202" fill="#000"/>
<line x1="400" y1="250" x2="400" y2="290" stroke="#000"/>
<polygon points="400,290 396,282 404,282" fill="#000"/>
<line x1="400" y1="330" x2="400" y2="370" stroke="#000"/>
<polygon points="400,370 396,362 404,362" fill="#000"/>
<text x="410" y="350">Yes</text>
<line x1="400" y1="410" x2="550" y2="450" stroke="#000"/>
<polygon points="550,450 541,451 543,444" fill="#000"/>
<line x1="440" y1="310" x2="550" y2="310" stroke="#000"/>
<line x1="550" y1="310" x2="550" y2="450" stroke="#000"/>
<polygon points="550,450 546,442 553,442" fill="#000"/>
<text x="460" y="305">No</text>
<line x1="550" y1="490" x2="400" y2="530" stroke="#000"/>
<polygon points="400,530 406,524 408,531" fill="#000"/>
<line x1="400" y1="570" x2="400" y2="610" stroke="#000"/>
<polygon points="400,610 396,602 404,602" fill="#000"/>
</svg>