<svg xmlns="http://www.w3.org/2000/svg" viewBox="0 0 936 600" width="936" height="600">
<rect x="50" y="50" width="130" height="60" fill="#fff" stroke="#000" stroke-width="1"/>
<text x="115" y="70" text-anchor="middle">&lt;&lt;component&gt;&gt;</text>
<text x="115" y="90" text-anchor="middle">ASTExpressions</text>
<rect x="210" y="50" width="137" height="100" fill="#fff" stroke="#000" stroke-width="1"/>
<text x="278" y="70" text-anchor="middle">LiteralExpr</text>
<line x1="210" y1="85" x2="347" y2="85" stroke="#000"/>
<text x="220" y="95">+ pos: Position</text>
<text x="220" y="115">+ value: Any</text>
<rect x="377" y="50" width="137" height="100" fill="#fff" stroke="#000" stroke-width="1"/>
<text x="445" y="70" text-anchor="middle">VariableExpr</text>
<line x1="377" y1="85" x2="514" y2="85" stroke="#000"/>
<text x="387" y="95">+ pos: Position</text>
<text x="387" y="115">+ name: String</text>
<rect x="544" y="50" width="137" height="120" fill="#fff" stroke="#000" stroke-width="1"/>
<text x="612" y="70" text-anchor="middle">FieldExpr</text>
<line x1="544" y1="85" x2="681" y2="85" stroke="#000"/>
<text x="554" y="95">+ pos: Position</text>
<text x="554" y="115">+ object: Expr</text>
<text x="554" y="135">+ field: String</text>
<rect x="711" y="50" width="145" height="140" stroke="#000" stroke-width="1" fill="#fff"/>
<text x="783" y="70" text-anchor="middle">CallExpr</text>
<line x1="711" y1="85" x2="856" y2="85" stroke="#000"/>
<text x="721" y="95">+ pos: Position</text>
<text x="721" y="115">+ object: Expr</text>
<text x="721" y="135">+ method: String</text>
<text x="721" y="155">+ args: Expr</text>
<rect x="50" y="220" width="137" height="140" fill="#fff" stroke="#000" stroke-width="1"/>
<text x="118" y="240" text-anchor="middle">BinaryExpr</text>
<line x1="50" y1="255" x2="187" y2="255" stroke="#000"/>
<text x="60" y="265">+ pos: Position</text>
<text x="60" y="285">+ left: Expr</text>
<text x="60" y="305">+ op: String</text>
<text x="60" y="325">+ right: Expr</text>
<rect x="217" y="220" width="137" height="120" stroke="#000" stroke-width="1" fill="#fff"/>
<text x="285" y="240" text-anchor="middle">UnaryExpr</text>
<line x1="217" y1="255" x2="354" y2="255" stroke="#000"/>
<text x="227" y="265">+ pos: Position</text>
<text x="227" y="285">+ op: String</text>
<text x="227" y="305">+ operand: Expr</text>
<rect x="384" y="220" width="152" height="140" fill="#fff" stroke="#000" stroke-width="1"/>
<text x="460" y="240" text-anchor="middle">TernaryExpr</text>
<line x1="384" y1="255" x2="536" y2="255" stroke="#000"/>
<text x="394" y="265">+ pos: Position</text>
<text x="394" y="285">+ condition: Expr</text>
<text x="394" y="305">+ thenExpr: Expr</text>
<text x="394" y="325">+ elseExpr: Expr</text>
<rect x="566" y="220" width="159" height="140" fill="#fff" stroke="#000" stroke-width="1"/>
<text x="645" y="240" text-anchor="middle">NullishExpr</text>
<line x1="566" y1="255" x2="725" y2="255" stroke="#000"/>
<text x="576" y="265">+ pos: Position</text>
<text x="576" y="285">+ left: Expr</text>
<text x="576" y="305">+ right: Expr</text>
<text x="576" y="325">+ throwErr: String</text>
</svg>