<svg xmlns="http://www.w3.org/2000/svg" viewBox="0 0 1691 600" width="1691" height="600">
<rect x="50" y="50" width="130" height="60" stroke="#000" stroke-width="1" fill="#fff"/>
<text x="115" y="70" text-anchor="middle">&lt;&lt;component&gt;&gt;</text>
<text x="115" y="90" text-anchor="middle">ASTExpressions</text>
<rect x="220" y="50" width="137" height="100" fill="#fff" stroke="#000" stroke-width="1"/>
<text x="288" y="70" text-anchor="middle">LiteralExpr</text>
<line x1="220" y1="85" x2="357" y2="85" stroke="#000"/>
<text x="230" y="95">+ pos: Position</text>
<text x="230" y="115">+ value: Any</text>
<rect x="397" y="50" width="137" height="100" fill="#fff" stroke="#000" stroke-width="1"/>
<text x="465" y="70" text-anchor="middle">VariableExpr</text>
<line x1="397" y1="85" x2="534" y2="85" stroke="#000"/>
<text x="407" y="95">+ pos: Position</text>
<text x="407" y="115">+ name: String</text>
<rect x="574" y="50" width="137" height="120" fill="#fff" stroke="#000" stroke-width="1"/>
<text x="642" y="70" text-anchor="middle">FieldExpr</text>
<line x1="574" y1="85" x2="711" y2="85" stroke="#000"/>
<text x="584" y="95">+ pos: Position</text>
<text x="584" y="115">+ object: Expr</text>
<text x="584" y="135">+ field: String</text>
<rect x="751" y="50" width="145" height="140" fill="#fff" stroke="#000" stroke-width="1"/>
<text x="823" y="70" text-anchor="middle">CallExpr</text>
<line x1="751" y1="85" x2="896" y2="85" stroke="#000"/>
<text x="761" y="95">+ pos: Position</text>
<text x="761" y="115">+ object: Expr</text>
<text x="761" y="135">+ method: String</text>
<text x="761" y="155">+ args: Expr</text>
<rect x="936" y="50" width="137" height="140" fill="#fff" stroke="#000" stroke-width="1"/>
<text x="1004" y="70" text-anchor="middle">BinaryExpr</text>
<line x1="936" y1="85" x2="1073" y2="85" stroke="#000"/>
<text x="946" y="95">+ pos: Position</text>
<text x="946" y="115">+ left: Expr</text>
<text x="946" y="135">+ op: String</text>
<text x="946" y="155">+ right: Expr</text>
<rect x="1113" y="50" width="137" height="120" fill="#fff" stroke="#000" stroke-width="1"/>
<text x="1181" y="70" text-anchor="middle">UnaryExpr</text>
<line x1="1113" y1="85" x2="1250" y2="85" stroke="#000"/>
<text x="1123" y="95">+ pos: Position</text>
<text x="1123" y="115">+ op: String</text>
<text x="1123" y="135">+ operand: Expr</text>
<rect x="1290" y="50" width="152" height="140" fill="#fff" stroke="#000" stroke-width="1"/>
<text x="1366" y="70" text-anchor="middle">TernaryExpr</text>
<line x1="1290" y1="85" x2="1442" y2="85" stroke="#000"/>
<text x="1300" y="95">+ pos: Position</text>
<text x="1300" y="115">+ condition: Expr</text>
<text x="1300" y="135">+ thenExpr: Expr</text>
<text x="1300" y="155">+ elseExpr: Expr</text>
<rect x="1482" y="50" width="159" height="140" stroke-width="1" fill="#fff" stroke="#000"/>
<text x="1561" y="70" text-anchor="middle">NullishExpr</text>
<line x1="1482" y1="85" x2="1641" y2="85" stroke="#000"/>
<text x="1492" y="95">+ pos: Position</text>
<text x="1492" y="115">+ left: Expr</text>
<text x="1492" y="135">+ right: Expr</text>
<text x="1492" y="155">+ throwErr: String</text>
</svg>