<svg xmlns="http://www.w3.org/2000/svg" viewBox="0 0 800 1460" width="800" height="1460">
<rect x="350" y="50" width="100" height="40" rx="20" ry="20" fill="#fff" stroke="#000"/>
<text x="400" y="75" text-anchor="middle">Start</text>
<rect x="350" y="130" width="100" height="40" fill="#fff" stroke="#000"/>
<text x="400" y="155" text-anchor="middle">hasCycle = ...</text>
<polygon points="400,210 440,230 400,250 360,230" fill="#fff" stroke="#000"/>
<text x="400" y="235" text-anchor="middle">condition?</text>
<rect x="350" y="290" width="100" height="40" rx="20" ry="20" fill="#fff" stroke="#000"/>
<text x="400" y="315" text-anchor="middle">throw CycleError</text>
<rect x="350" y="370" width="100" height="40" fill="#fff" stroke="#000"/>
<text x="400" y="395" text-anchor="middle">isVisited = ...</text>
<polygon points="400,450 440,470 400,490 360,470" fill="#fff" stroke="#000"/>
<text x="400" y="475" text-anchor="middle">condition?</text>
<rect x="350" y="530" width="100" height="40" rx="20" ry="20" fill="#fff" stroke="#000"/>
<text x="400" y="555" text-anchor="middle">return</text>
<rect x="350" y="610" width="100" height="40" fill="#fff" stroke="#000"/>
<text x="400" y="635" text-anchor="middle">markInProgress()</text>
<rect x="350" y="690" width="100" height="40" fill="#fff" stroke="#000"/>
<text x="400" y="715" text-anchor="middle">content = ...</text>
<polygon points="400,770 440,790 400,810 360,790" fill="#fff" stroke="#000"/>
<text x="400" y="795" text-anchor="middle">condition?</text>
<rect x="350" y="850" width="100" height="40" rx="20" ry="20" fill="#fff" stroke="#000"/>
<text x="400" y="875" text-anchor="middle">throw ImportError</text>
<rect x="350" y="930" width="100" height="40" stroke="#000" fill="#fff"/>
<text x="400" y="955" text-anchor="middle">spec = ...</text>
<rect x="350" y="1010" width="100" height="40" fill="#fff" stroke="#000"/>
<text x="400" y="1035" text-anchor="middle">processImports()</text>
<rect x="350" y="1090" width="100" height="40" fill="#fff" stroke="#000"/>
<text x="400" y="1115" text-anchor="middle">markVisited()</text>
<rect x="350" y="1170" width="100" height="40" stroke="#000" fill="#fff"/>
<text x="400" y="1195" text-anchor="middle">addToResult()</text>
<rect x="350" y="1250" width="100" height="40" rx="20" ry="20" fill="#fff" stroke="#000"/>
<text x="400" y="1275" text-anchor="middle">return</text>
<rect x="350" y="1330" width="100" height="40" rx="20" ry="20" fill="#fff" stroke="#000"/>
<text x="400" y="1355" text-anchor="middle">End</text>
<line x1="400" y1="90" x2="400" y2="130" stroke="#000"/>
<polygon points="400,130 396,122 404,122" fill="#000"/>
<line x1="400" y1="170" x2="400" y2="210" stroke="#000"/>
<polygon points="400,210 396,202 404,202" fill="#000"/>
<line x1="400" y1="250" x2="400" y2="290" stroke="#000"/>
<polygon points="400,290 396,282 404,282" fill="#000"/>
<line x1="400" y1="250" x2="400" y2="370" stroke="#000"/>
<polygon points="400,370 396,362 403,362" fill="#000"/>
<line x1="400" y1="410" x2="400" y2="450" stroke="#000"/>
<polygon points="400,450 396,442 404,442" fill="#000"/>
<line x1="400" y1="490" x2="400" y2="530" stroke="#000"/>
<polygon points="400,530 396,522 404,522" fill="#000"/>
<line x1="400" y1="490" x2="400" y2="610" stroke="#000"/>
<polygon points="400,610 396,602 403,602" fill="#000"/>
<line x1="400" y1="650" x2="400" y2="690" stroke="#000"/>
<polygon points="400,690 396,682 404,682" fill="#000"/>
<line x1="400" y1="730" x2="400" y2="770" stroke="#000"/>
<polygon points="400,770 396,762 404,762" fill="#000"/>
<line x1="400" y1="810" x2="400" y2="850" stroke="#000"/>
<polygon points="400,850 396,842 404,842" fill="#000"/>
<line x1="400" y1="810" x2="400" y2="930" stroke="#000"/>
<polygon points="400,930 396,922 403,922" fill="#000"/>
<line x1="400" y1="970" x2="400" y2="1010" stroke="#000"/>
<polygon points="400,1010 396,1002 404,1002" fill="#000"/>
<line x1="400" y1="1050" x2="400" y2="1090" stroke="#000"/>
<polygon points="400,1090 396,1082 404,1082" fill="#000"/>
<line x1="400" y1="1130" x2="400" y2="1170" stroke="#000"/>
<polygon points="400,1170 396,1162 404,1162" fill="#000"/>
<line x1="400" y1="1210" x2="400" y2="1250" stroke="#000"/>
<polygon points="400,1250 396,1242 404,1242" fill="#000"/>
</svg>