<svg xmlns="http://www.w3.org/2000/svg" viewBox="0 0 800 600" width="800" height="600">
<circle cx="100" cy="50" r="10" fill="#000"/>
<circle cx="300" cy="50" r="12" stroke="#000" stroke-width="2"/>
<circle cx="300" cy="50" r="8" fill="#000"/>
<circle cx="500" cy="50" r="12" stroke="#000" stroke-width="2"/>
<circle cx="500" cy="50" r="8" fill="#000"/>
<rect x="60" y="180" width="80" height="40" rx="10" ry="10" fill="#fff" stroke="#000"/>
<text x="100" y="205">Pending</text>
<rect x="260" y="180" width="80" height="40" rx="10" ry="10" fill="#fff" stroke="#000"/>
<text x="300" y="205">InProgress</text>
<rect x="460" y="180" width="80" height="40" rx="10" ry="10" stroke="#000" fill="#fff"/>
<text x="500" y="205">Resolved</text>
<rect x="60" y="330" width="80" height="40" rx="10" ry="10" stroke="#000" fill="#fff"/>
<text x="100" y="355">Failed</text>
<line x1="100" y1="200" x2="300" y2="200" stroke="#000"/>
<polygon points="300,200 292,203 292,196" fill="#000"/>
<text x="200" y="195">startResolve</text>
<line x1="300" y1="200" x2="500" y2="200" stroke="#000"/>
<polygon points="500,200 492,203 492,196" fill="#000"/>
<text x="400" y="195">resolveSuccess</text>
<line x1="300" y1="200" x2="100" y2="350" stroke="#000"/>
<polygon points="100,350 103,342 108,348" fill="#000"/>
<text x="200" y="270">cycleDetected</text>
<line x1="300" y1="200" x2="100" y2="350" stroke="#000"/>
<polygon points="100,350 103,342 108,348" fill="#000"/>
<text x="200" y="270">fileNotFound</text>
<line x1="300" y1="200" x2="100" y2="350" stroke="#000"/>
<polygon points="100,350 103,342 108,348" fill="#000"/>
<text x="200" y="270">parseError</text>
</svg>