<svg xmlns="http://www.w3.org/2000/svg" viewBox="0 0 800 600" width="800" height="600">
<circle cx="100" cy="50" r="10" fill="#000"/>
<rect x="60" y="100" width="80" height="40" rx="10" ry="10" fill="#fff" stroke="#000"/>
<text x="100" y="125" text-anchor="middle">Pending</text>
<rect x="260" y="100" width="80" height="40" rx="10" ry="10" fill="#fff" stroke="#000"/>
<text x="300" y="125" text-anchor="middle">InProgress</text>
<rect x="460" y="100" width="80" height="40" rx="10" ry="10" fill="#fff" stroke="#000"/>
<text x="500" y="125" text-anchor="middle">Resolved</text>
<rect x="60" y="220" width="80" height="40" rx="10" ry="10" fill="#fff" stroke="#000"/>
<text x="100" y="245" text-anchor="middle">Failed</text>
<circle cx="100" cy="400" r="12" stroke="#000" stroke-width="2"/>
<circle cx="100" cy="400" r="8" fill="#000"/>
<circle cx="250" cy="400" r="12" stroke="#000" stroke-width="2"/>
<circle cx="250" cy="400" r="8" fill="#000"/>
<line x1="100" y1="120" x2="300" y2="120" stroke="#000"/>
<polygon points="300,120 292,123 292,116" fill="#000"/>
<text x="200" y="110" text-anchor="middle">startResolve</text>
<line x1="300" y1="120" x2="100" y2="400" stroke="#000"/>
<polygon points="100,400 101,391 107,395" fill="#000"/>
<text x="200" y="250" text-anchor="middle">resolveSuccess</text>
<line x1="300" y1="120" x2="250" y2="400" stroke="#000"/>
<polygon points="250,400 247,391 255,392" fill="#000"/>
<text x="275" y="250" text-anchor="middle">cycleDetected</text>
<line x1="300" y1="120" x2="250" y2="400" stroke="#000"/>
<polygon points="250,400 247,391 255,392" fill="#000"/>
<text x="275" y="235" text-anchor="middle">fileNotFound</text>
<line x1="300" y1="120" x2="250" y2="400" stroke="#000"/>
<polygon points="250,400 247,391 255,392" fill="#000"/>
<text x="275" y="220" text-anchor="middle">parseError</text>
</svg>