<svg xmlns="http://www.w3.org/2000/svg" viewBox="0 0 880 600" width="880" height="600">
<rect x="50" y="50" width="310" height="220" fill="#fff" stroke="#000" stroke-width="1"/>
<text x="205" y="70" text-anchor="middle">&lt;&lt;component&gt;&gt;</text>
<text x="205" y="90" text-anchor="middle">Lexer</text>
<line x1="50" y1="105" x2="360" y2="105" stroke="#000"/>
<text x="60" y="115">+ NewLexer(input: string): Lexer</text>
<text x="60" y="135">+ NextToken(): Token</text>
<text x="60" y="155">+ ReadChar()</text>
<text x="60" y="175">+ SkipWhitespace()</text>
<text x="60" y="195">+ ReadIdentifier(): string</text>
<text x="60" y="215">+ ReadNumber(): Token</text>
<text x="60" y="235">+ ReadString(): string</text>
<text x="60" y="255">+ LookupIdent(ident: string): TokenType</text>
<rect x="400" y="50" width="202" height="220" fill="#fff" stroke="#000" stroke-width="1"/>
<text x="501" y="70" text-anchor="middle">LexerState</text>
<line x1="400" y1="85" x2="602" y2="85" stroke="#000"/>
<text x="410" y="95">+ input: string</text>
<text x="410" y="115">+ pos: int</text>
<text x="410" y="135">+ readPos: int</text>
<text x="410" y="155">+ currentChar: int</text>
<text x="410" y="175">+ lineNumber: int</text>
<text x="410" y="195">+ columnNumber: int</text>
<text x="410" y="215">+ tokenLineNumber: int</text>
<text x="410" y="235">+ tokenColumnNumber: int</text>
<rect x="642" y="50" width="188" height="100" stroke="#000" stroke-width="1" fill="#fff"/>
<text x="736" y="70" text-anchor="middle">KeywordEntry</text>
<line x1="642" y1="85" x2="830" y2="85" stroke="#000"/>
<text x="652" y="95">+ keyword: string</text>
<text x="652" y="115">+ tokenType: TokenType</text>
</svg>