<svg xmlns="http://www.w3.org/2000/svg" viewBox="0 0 800 600" width="800" height="600">
<rect x="50" y="50" width="200" height="220" stroke="#000" stroke-width="1" fill="#fff"/>
<text x="150" y="70">&lt;&lt;component&gt;&gt;</text>
<text x="150" y="90">Lexer</text>
<line x1="50" y1="105" x2="250" y2="105" stroke="#000"/>
<text x="60" y="115">+ NewLexer()</text>
<text x="60" y="135">+ NextToken()</text>
<text x="60" y="155">+ ReadChar()</text>
<text x="60" y="175">+ SkipWhitespace()</text>
<text x="60" y="195">+ ReadIdentifier()</text>
<text x="60" y="215">+ ReadNumber()</text>
<text x="60" y="235">+ ReadString()</text>
<text x="60" y="255">+ LookupIdent()</text>
<rect x="300" y="50" width="200" height="220" fill="#fff" stroke="#000" stroke-width="1"/>
<text x="400" y="70">LexerState</text>
<line x1="300" y1="85" x2="500" y2="85" stroke="#000"/>
<text x="310" y="95">+ input: string</text>
<text x="310" y="115">+ pos: int</text>
<text x="310" y="135">+ readPos: int</text>
<text x="310" y="155">+ currentChar: int</text>
<text x="310" y="175">+ lineNumber: int</text>
<text x="310" y="195">+ columnNumber: int</text>
<text x="310" y="215">+ tokenLineNumber: int</text>
<text x="310" y="235">+ tokenColumnNumber: int</text>
<rect x="550" y="50" width="200" height="100" fill="#fff" stroke="#000" stroke-width="1"/>
<text x="650" y="70">KeywordEntry</text>
<line x1="550" y1="85" x2="750" y2="85" stroke="#000"/>
<text x="560" y="95">+ keyword: string</text>
<text x="560" y="115">+ tokenType: TokenType</text>
<line x1="150" y1="100" x2="0" y2="50" stroke="#000" class="dashed"/>
</svg>