<svg xmlns="http://www.w3.org/2000/svg" viewBox="0 0 800 1060" width="800" height="1060">
<rect x="350" y="50" width="100" height="40" rx="20" ry="20" fill="#fff" stroke="#000"/>
<text x="400" y="75" text-anchor="middle">Start</text>
<rect x="350" y="130" width="100" height="40" fill="#fff" stroke="#000"/>
<text x="400" y="155" text-anchor="middle">fileData = ...</text>
<polygon points="400,210 440,230 400,250 360,230" fill="#fff" stroke="#000"/>
<text x="400" y="235" text-anchor="middle">condition?</text>
<rect x="350" y="290" width="100" height="40" fill="#fff" stroke="#000"/>
<text x="400" y="315" text-anchor="middle">defaultCfg = ...</text>
<rect x="350" y="370" width="100" height="40" rx="20" ry="20" fill="#fff" stroke="#000"/>
<text x="400" y="395" text-anchor="middle">return</text>
<rect x="500" y="450" width="100" height="40" fill="#fff" stroke="#000"/>
<rect x="350" y="530" width="100" height="40" fill="#fff" stroke="#000"/>
<text x="400" y="555" text-anchor="middle">cfg = ...</text>
<rect x="350" y="610" width="100" height="40" fill="#fff" stroke="#000"/>
<text x="400" y="635" text-anchor="middle">parseResult = ...</text>
<polygon points="400,690 440,710 400,730 360,710" fill="#fff" stroke="#000"/>
<text x="400" y="715" text-anchor="middle">condition?</text>
<rect x="350" y="770" width="100" height="40" rx="20" ry="20" fill="#fff" stroke="#000"/>
<text x="400" y="795" text-anchor="middle">throw ConfigError</text>
<rect x="500" y="850" width="100" height="40" rx="20" ry="20" fill="#fff" stroke="#000"/>
<text x="550" y="875" text-anchor="middle">return</text>
<rect x="350" y="930" width="100" height="40" rx="20" ry="20" fill="#fff" stroke="#000"/>
<text x="400" y="955" text-anchor="middle">End</text>
<line x1="400" y1="90" x2="400" y2="130" stroke="#000"/>
<polygon points="400,130 396,122 404,122" fill="#000"/>
<line x1="400" y1="170" x2="400" y2="210" stroke="#000"/>
<polygon points="400,210 396,202 404,202" fill="#000"/>
<line x1="400" y1="250" x2="400" y2="290" stroke="#000"/>
<polygon points="400,290 396,282 404,282" fill="#000"/>
<text x="410" y="270">Yes</text>
<line x1="400" y1="330" x2="400" y2="370" stroke="#000"/>
<polygon points="400,370 396,362 404,362" fill="#000"/>
<line x1="400" y1="410" x2="550" y2="450" stroke="#000"/>
<polygon points="550,450 541,451 543,444" fill="#000"/>
<line x1="440" y1="230" x2="550" y2="230" stroke="#000"/>
<line x1="550" y1="230" x2="550" y2="450" stroke="#000"/>
<polygon points="550,450 546,442 553,442" fill="#000"/>
<text x="460" y="225">No</text>
<line x1="550" y1="490" x2="400" y2="530" stroke="#000"/>
<polygon points="400,530 406,524 408,531" fill="#000"/>
<line x1="400" y1="570" x2="400" y2="610" stroke="#000"/>
<polygon points="400,610 396,602 404,602" fill="#000"/>
<line x1="400" y1="650" x2="400" y2="690" stroke="#000"/>
<polygon points="400,690 396,682 404,682" fill="#000"/>
<line x1="400" y1="730" x2="400" y2="770" stroke="#000"/>
<polygon points="400,770 396,762 404,762" fill="#000"/>
<line x1="440" y1="710" x2="550" y2="710" stroke="#000"/>
<line x1="550" y1="710" x2="550" y2="850" stroke="#000"/>
<polygon points="550,850 546,842 553,842" fill="#000"/>
<text x="460" y="705">No</text>
<line x1="550" y1="890" x2="400" y2="930" stroke="#000"/>
<polygon points="400,930 406,924 408,931" fill="#000"/>
</svg>