<svg xmlns="http://www.w3.org/2000/svg" viewBox="0 0 850 600" width="850" height="600">
<rect x="50" y="50" width="200" height="360" fill="#fff" stroke="#000" stroke-width="1"/>
<text x="150" y="70" text-anchor="middle">&lt;&lt;component&gt;&gt;</text>
<text x="150" y="90" text-anchor="middle">PactCLI</text>
<line x1="50" y1="105" x2="250" y2="105" stroke="#000"/>
<text x="60" y="115">+ Main(args: string)</text>
<text x="60" y="135">+ Init(args: string): error</text>
<text x="60" y="155">+ Generate(args: string): error</text>
<text x="60" y="175">+ Validate(args: string): error</text>
<text x="60" y="195">+ Check(args: string): error</text>
<text x="60" y="215">+ Watch(args: string): error</text>
<text x="60" y="235">+ PrintUsage()</text>
<text x="60" y="255">+ ParseGenerateOptions(args: string): GenerateOptions</text>
<text x="60" y="275">+ ShouldGenerate(diagramTypes: string, target: string): bool</text>
<text x="60" y="295">+ GenerateClassDiagram(client: Client, spec: SpecFile, outputDir: string, baseName: string): error</text>
<text x="60" y="315">+ GenerateSequenceDiagrams(client: Client, spec: SpecFile, outputDir: string, baseName: string): error</text>
<text x="60" y="335">+ GenerateStateDiagrams(client: Client, spec: SpecFile, outputDir: string, baseName: string): error</text>
<text x="60" y="355">+ GenerateFlowcharts(client: Client, spec: SpecFile, outputDir: string, baseName: string): error</text>
<text x="60" y="375">+ GetFlowNames(spec: SpecFile): string</text>
<text x="60" y="395">+ GetStateNames(spec: SpecFile): string</text>
<rect x="300" y="50" width="200" height="120" fill="#fff" stroke="#000" stroke-width="1"/>
<text x="400" y="70" text-anchor="middle">GenerateOptions</text>
<line x1="300" y1="85" x2="500" y2="85" stroke="#000"/>
<text x="310" y="95">+ outputDir: string</text>
<text x="310" y="115">+ diagramTypes: string</text>
<text x="310" y="135">+ inputFiles: string</text>
</svg>