<svg xmlns="http://www.w3.org/2000/svg" viewBox="0 0 800 600" width="800" height="600">
<rect x="50" y="50" width="200" height="360" fill="#fff" stroke="#000" stroke-width="1"/>
<text x="150" y="70">&lt;&lt;component&gt;&gt;</text>
<text x="150" y="90">PactCLI</text>
<line x1="50" y1="105" x2="250" y2="105" stroke="#000"/>
<text x="60" y="115">+ Main()</text>
<text x="60" y="135">+ Init()</text>
<text x="60" y="155">+ Generate()</text>
<text x="60" y="175">+ Validate()</text>
<text x="60" y="195">+ Check()</text>
<text x="60" y="215">+ Watch()</text>
<text x="60" y="235">+ PrintUsage()</text>
<text x="60" y="255">+ ParseGenerateOptions()</text>
<text x="60" y="275">+ ShouldGenerate()</text>
<text x="60" y="295">+ GenerateClassDiagram()</text>
<text x="60" y="315">+ GenerateSequenceDiagrams()</text>
<text x="60" y="335">+ GenerateStateDiagrams()</text>
<text x="60" y="355">+ GenerateFlowcharts()</text>
<text x="60" y="375">+ GetFlowNames()</text>
<text x="60" y="395">+ GetStateNames()</text>
<rect x="300" y="50" width="200" height="120" stroke-width="1" fill="#fff" stroke="#000"/>
<text x="400" y="70">GenerateOptions</text>
<line x1="300" y1="85" x2="500" y2="85" stroke="#000"/>
<text x="310" y="95">+ outputDir: string</text>
<text x="310" y="115">+ diagramTypes: string</text>
<text x="310" y="135">+ inputFiles: string</text>
<line x1="150" y1="100" x2="0" y2="50" stroke="#000" class="dashed"/>
</svg>