<svg xmlns="http://www.w3.org/2000/svg" viewBox="0 0 1682 600" width="1682" height="600">
<rect x="50" y="50" width="123" height="60" fill="#fff" stroke="#000" stroke-width="1"/>
<text x="111" y="70" text-anchor="middle">&lt;&lt;component&gt;&gt;</text>
<text x="111" y="90" text-anchor="middle">ASTNodes</text>
<rect x="213" y="50" width="245" height="200" stroke="#000" stroke-width="1" fill="#fff"/>
<text x="335" y="70" text-anchor="middle">SpecFile</text>
<line x1="213" y1="85" x2="458" y2="85" stroke="#000"/>
<text x="223" y="95">+ path: String</text>
<text x="223" y="115">+ imports: ImportDecl</text>
<text x="223" y="135">+ mainComponent: ComponentDecl</text>
<text x="223" y="155">+ components: ComponentDecl</text>
<text x="223" y="175">+ interfaces: InterfaceDecl</text>
<text x="223" y="195">+ types: TypeDecl</text>
<text x="223" y="215">+ annotations: AnnotationDecl</text>
<rect x="498" y="50" width="137" height="120" fill="#fff" stroke="#000" stroke-width="1"/>
<text x="566" y="70" text-anchor="middle">ImportDecl</text>
<line x1="498" y1="85" x2="635" y2="85" stroke="#000"/>
<text x="508" y="95">+ pos: Position</text>
<text x="508" y="115">+ path: String</text>
<text x="508" y="135">+ alias: String</text>
<rect x="675" y="50" width="238" height="140" fill="#fff" stroke="#000" stroke-width="1"/>
<text x="794" y="70" text-anchor="middle">ComponentDecl</text>
<line x1="675" y1="85" x2="913" y2="85" stroke="#000"/>
<text x="685" y="95">+ pos: Position</text>
<text x="685" y="115">+ name: String</text>
<text x="685" y="135">+ annotations: AnnotationDecl</text>
<text x="685" y="155">+ body: ComponentBody</text>
<rect x="953" y="50" width="281" height="180" fill="#fff" stroke="#000" stroke-width="1"/>
<text x="1093" y="70" text-anchor="middle">ComponentBody</text>
<line x1="953" y1="85" x2="1234" y2="85" stroke="#000"/>
<text x="963" y="95">+ types: TypeDecl</text>
<text x="963" y="115">+ relations: RelationDecl</text>
<text x="963" y="135">+ providesInterfaces: InterfaceDecl</text>
<text x="963" y="155">+ requiresInterfaces: InterfaceDecl</text>
<text x="963" y="175">+ flows: FlowDecl</text>
<text x="963" y="195">+ statesBlocks: StatesDecl</text>
<rect x="1274" y="50" width="181" height="120" fill="#fff" stroke="#000" stroke-width="1"/>
<text x="1364" y="70" text-anchor="middle">AnnotationDecl</text>
<line x1="1274" y1="85" x2="1455" y2="85" stroke="#000"/>
<text x="1284" y="95">+ pos: Position</text>
<text x="1284" y="115">+ name: String</text>
<text x="1284" y="135">+ args: AnnotationArg</text>
<rect x="1495" y="50" width="137" height="100" fill="#fff" stroke="#000" stroke-width="1"/>
<text x="1563" y="70" text-anchor="middle">AnnotationArg</text>
<line x1="1495" y1="85" x2="1632" y2="85" stroke="#000"/>
<text x="1505" y="95">+ key: String</text>
<text x="1505" y="115">+ value: String</text>
</svg>