<svg xmlns="http://www.w3.org/2000/svg" viewBox="0 0 800 600" width="800" height="600">
<rect x="50" y="50" width="200" height="400" stroke-width="1" fill="#fff" stroke="#000"/>
<text x="150" y="70">&lt;&lt;component&gt;&gt;</text>
<text x="150" y="90">Parser</text>
<line x1="50" y1="105" x2="250" y2="105" stroke="#000"/>
<text x="60" y="115">+ NewParser()</text>
<text x="60" y="135">+ ParseFile()</text>
<text x="60" y="155">+ parseComponent()</text>
<text x="60" y="175">+ parseImport()</text>
<text x="60" y="195">+ parseTypeDecl()</text>
<text x="60" y="215">+ parseEnumDecl()</text>
<text x="60" y="235">+ parseField()</text>
<text x="60" y="255">+ parseRelation()</text>
<text x="60" y="275">+ parseInterface()</text>
<text x="60" y="295">+ parseMethod()</text>
<text x="60" y="315">+ parseFlow()</text>
<text x="60" y="335">+ parseStep()</text>
<text x="60" y="355">+ parseExpression()</text>
<text x="60" y="375">+ parseStates()</text>
<text x="60" y="395">+ parseStateDecl()</text>
<text x="60" y="415">+ parseTransition()</text>
<text x="60" y="435">+ parseAnnotations()</text>
<rect x="300" y="50" width="200" height="120" fill="#fff" stroke="#000" stroke-width="1"/>
<text x="400" y="70">ParserState</text>
<line x1="300" y1="85" x2="500" y2="85" stroke="#000"/>
<text x="310" y="95">+ curToken: Token</text>
<text x="310" y="115">+ peekToken: Token</text>
<text x="310" y="135">+ errors: ParseError</text>
<rect x="550" y="50" width="200" height="120" fill="#fff" stroke="#000" stroke-width="1"/>
<text x="650" y="70">ParseError</text>
<line x1="550" y1="85" x2="750" y2="85" stroke="#000"/>
<text x="560" y="95">+ line: int</text>
<text x="560" y="115">+ column: int</text>
<text x="560" y="135">+ message: string</text>
<line x1="150" y1="100" x2="0" y2="50" stroke="#000" class="dashed"/>
</svg>