<svg xmlns="http://www.w3.org/2000/svg" viewBox="0 0 909 600" width="909" height="600">
<rect x="50" y="50" width="123" height="200" fill="#fff" stroke="#000" stroke-width="1"/>
<text x="111" y="70" text-anchor="middle">&lt;&lt;component&gt;&gt;</text>
<text x="111" y="90" text-anchor="middle">ClassRenderer</text>
<line x1="50" y1="105" x2="173" y2="105" stroke="#000"/>
<text x="60" y="115">+ NewClassRenderer(): ClassRenderer</text>
<text x="60" y="135">+ Render(diagram: ClassDiagram, w: Writer): error</text>
<text x="60" y="155">+ renderNode(c: Canvas, node: ClassNode, x: int, y: int)</text>
<text x="60" y="175">+ renderEdge(c: Canvas, edge: ClassEdge, x1: int, y1: int, x2: int, y2: int)</text>
<text x="60" y="195">+ visibilitySymbol(v: Visibility): string</text>
<text x="60" y="215">+ trianglePoints(x: int, y: int): string</text>
<text x="60" y="235">+ diamondPoints(x: int, y: int): string</text>
<rect x="203" y="50" width="123" height="60" fill="#fff" stroke="#000" stroke-width="1"/>
<text x="264" y="70" text-anchor="middle">ClassRenderer</text>
<rect x="356" y="50" width="145" height="140" fill="#fff" stroke="#000" stroke-width="1"/>
<text x="428" y="70" text-anchor="middle">&lt;&lt;component&gt;&gt;</text>
<text x="428" y="90" text-anchor="middle">SequenceRenderer</text>
<line x1="356" y1="105" x2="501" y2="105" stroke="#000"/>
<text x="366" y="115">+ NewSequenceRenderer(): SequenceRenderer</text>
<text x="366" y="135">+ Render(diagram: SequenceDiagram, w: Writer): error</text>
<text x="366" y="155">+ renderEvents(c: Canvas, events: Event, participantX: map, y: int)</text>
<text x="366" y="175">+ renderParticipant(c: Canvas, p: Participant, x: int, y: int)</text>
<rect x="531" y="50" width="145" height="60" fill="#fff" stroke="#000" stroke-width="1"/>
<text x="603" y="70" text-anchor="middle">SequenceRenderer</text>
<rect x="706" y="50" width="123" height="140" stroke-width="1" fill="#fff" stroke="#000"/>
<text x="767" y="70" text-anchor="middle">&lt;&lt;component&gt;&gt;</text>
<text x="767" y="90" text-anchor="middle">StateRenderer</text>
<line x1="706" y1="105" x2="829" y2="105" stroke="#000"/>
<text x="716" y="115">+ NewStateRenderer(): StateRenderer</text>
<text x="716" y="135">+ Render(diagram: StateDiagram, w: Writer): error</text>
<text x="716" y="155">+ renderState(c: Canvas, s: State, x: int, y: int)</text>
<text x="716" y="175">+ renderTransition(c: Canvas, t: Transition, x1: int, y1: int, x2: int, y2: int)</text>
<rect x="50" y="140" width="123" height="60" fill="#fff" stroke="#000" stroke-width="1"/>
<text x="111" y="160" text-anchor="middle">StateRenderer</text>
<rect x="203" y="140" width="120" height="140" fill="#fff" stroke="#000" stroke-width="1"/>
<text x="263" y="160" text-anchor="middle">&lt;&lt;component&gt;&gt;</text>
<text x="263" y="180" text-anchor="middle">FlowRenderer</text>
<line x1="203" y1="195" x2="323" y2="195" stroke="#000"/>
<text x="213" y="205">+ NewFlowRenderer(): FlowRenderer</text>
<text x="213" y="225">+ Render(diagram: FlowDiagram, w: Writer): error</text>
<text x="213" y="245">+ renderFlowNode(c: Canvas, node: FlowNode, x: int, y: int)</text>
<text x="213" y="265">+ renderFlowEdge(c: Canvas, edge: FlowEdge, x1: int, y1: int, x2: int, y2: int)</text>
<rect x="353" y="140" width="120" height="60" fill="#fff" stroke="#000" stroke-width="1"/>
<text x="413" y="160" text-anchor="middle">FlowRenderer</text>
</svg>