<svg xmlns="http://www.w3.org/2000/svg" viewBox="0 0 800 600" width="800" height="600">
<rect x="50" y="50" width="200" height="460" fill="#fff" stroke="#000" stroke-width="1"/>
<text x="150" y="70">&lt;&lt;component&gt;&gt;</text>
<text x="150" y="90">Canvas</text>
<line x1="50" y1="105" x2="250" y2="105" stroke="#000"/>
<text x="60" y="115">+ New()</text>
<text x="60" y="135">+ SetSize()</text>
<text x="60" y="155">+ Rect()</text>
<text x="60" y="175">+ RoundRect()</text>
<text x="60" y="195">+ Circle()</text>
<text x="60" y="215">+ Ellipse()</text>
<text x="60" y="235">+ Line()</text>
<text x="60" y="255">+ Path()</text>
<text x="60" y="275">+ Polygon()</text>
<text x="60" y="295">+ Text()</text>
<text x="60" y="315">+ Diamond()</text>
<text x="60" y="335">+ Arrow()</text>
<text x="60" y="355">+ Stadium()</text>
<text x="60" y="375">+ Cylinder()</text>
<text x="60" y="395">+ Parallelogram()</text>
<text x="60" y="415">+ AddDef()</text>
<text x="60" y="435">+ WriteTo()</text>
<text x="60" y="455">+ String()</text>
<text x="60" y="475">+ MeasureText()</text>
<text x="60" y="495">+ WrapText()</text>
<rect x="300" y="50" width="200" height="140" fill="#fff" stroke="#000" stroke-width="1"/>
<text x="400" y="70">CanvasState</text>
<line x1="300" y1="85" x2="500" y2="85" stroke="#000"/>
<text x="310" y="95">+ width: int</text>
<text x="310" y="115">+ height: int</text>
<text x="310" y="135">+ elements: string</text>
<text x="310" y="155">+ defs: string</text>
<rect x="550" y="50" width="200" height="140" stroke-width="1" fill="#fff" stroke="#000"/>
<text x="650" y="70">StyleOption</text>
<line x1="550" y1="85" x2="750" y2="85" stroke="#000"/>
<text x="560" y="95">+ fill: string</text>
<text x="560" y="115">+ stroke: string</text>
<text x="560" y="135">+ strokeWidth: int</text>
<text x="560" y="155">+ className: string</text>
<rect x="50" y="250" width="200" height="100" fill="#fff" stroke="#000" stroke-width="1"/>
<text x="150" y="270">TextMetrics</text>
<line x1="50" y1="285" x2="250" y2="285" stroke="#000"/>
<text x="60" y="295">+ width: int</text>
<text x="60" y="315">+ height: int</text>
<rect x="300" y="250" width="200" height="100" fill="#fff" stroke="#000" stroke-width="1"/>
<text x="400" y="270">&lt;&lt;component&gt;&gt;</text>
<text x="400" y="290">ClassRenderer</text>
<line x1="300" y1="305" x2="500" y2="305" stroke="#000"/>
<text x="310" y="315">+ NewClassRenderer()</text>
<text x="310" y="335">+ Render()</text>
<rect x="550" y="250" width="200" height="100" stroke-width="1" fill="#fff" stroke="#000"/>
<text x="650" y="270">&lt;&lt;component&gt;&gt;</text>
<text x="650" y="290">SequenceRenderer</text>
<line x1="550" y1="305" x2="750" y2="305" stroke="#000"/>
<text x="560" y="315">+ NewSequenceRenderer()</text>
<text x="560" y="335">+ Render()</text>
<rect x="50" y="450" width="200" height="100" fill="#fff" stroke="#000" stroke-width="1"/>
<text x="150" y="470">&lt;&lt;component&gt;&gt;</text>
<text x="150" y="490">StateRenderer</text>
<line x1="50" y1="505" x2="250" y2="505" stroke="#000"/>
<text x="60" y="515">+ NewStateRenderer()</text>
<text x="60" y="535">+ Render()</text>
<rect x="300" y="450" width="200" height="100" stroke="#000" stroke-width="1" fill="#fff"/>
<text x="400" y="470">&lt;&lt;component&gt;&gt;</text>
<text x="400" y="490">FlowRenderer</text>
<line x1="300" y1="505" x2="500" y2="505" stroke="#000"/>
<text x="310" y="515">+ NewFlowRenderer()</text>
<text x="310" y="535">+ Render()</text>
<line x1="400" y1="300" x2="50" y2="100" stroke="#000" class="dashed"/>
<line x1="650" y1="300" x2="50" y2="100" stroke="#000" class="dashed"/>
<line x1="150" y1="500" x2="50" y2="100" stroke="#000" class="dashed"/>
<line x1="400" y1="500" x2="50" y2="100" stroke="#000" class="dashed"/>
</svg>