<svg xmlns="http://www.w3.org/2000/svg" viewBox="0 0 2447 600" width="2447" height="600">
<rect x="50" y="50" width="123" height="60" fill="#fff" stroke="#000" stroke-width="1"/>
<text x="111" y="70" text-anchor="middle">&lt;&lt;component&gt;&gt;</text>
<text x="111" y="90" text-anchor="middle">ASTStatements</text>
<rect x="213" y="50" width="238" height="140" fill="#fff" stroke="#000" stroke-width="1"/>
<text x="332" y="70" text-anchor="middle">FlowDecl</text>
<line x1="213" y1="85" x2="451" y2="85" stroke="#000"/>
<text x="223" y="95">+ pos: Position</text>
<text x="223" y="115">+ name: String</text>
<text x="223" y="135">+ annotations: AnnotationDecl</text>
<text x="223" y="155">+ steps: Step</text>
<rect x="491" y="50" width="238" height="140" fill="#fff" stroke="#000" stroke-width="1"/>
<text x="610" y="70" text-anchor="middle">AssignStep</text>
<line x1="491" y1="85" x2="729" y2="85" stroke="#000"/>
<text x="501" y="95">+ pos: Position</text>
<text x="501" y="115">+ variable: String</text>
<text x="501" y="135">+ value: Expr</text>
<text x="501" y="155">+ annotations: AnnotationDecl</text>
<rect x="769" y="50" width="238" height="140" fill="#fff" stroke="#000" stroke-width="1"/>
<text x="888" y="70" text-anchor="middle">CallStep</text>
<line x1="769" y1="85" x2="1007" y2="85" stroke="#000"/>
<text x="779" y="95">+ pos: Position</text>
<text x="779" y="115">+ expr: Expr</text>
<text x="779" y="135">+ isAwaited: Boolean</text>
<text x="779" y="155">+ annotations: AnnotationDecl</text>
<rect x="1047" y="50" width="238" height="120" fill="#fff" stroke="#000" stroke-width="1"/>
<text x="1166" y="70" text-anchor="middle">ReturnStep</text>
<line x1="1047" y1="85" x2="1285" y2="85" stroke="#000"/>
<text x="1057" y="95">+ pos: Position</text>
<text x="1057" y="115">+ value: Expr</text>
<text x="1057" y="135">+ annotations: AnnotationDecl</text>
<rect x="1325" y="50" width="238" height="120" fill="#fff" stroke="#000" stroke-width="1"/>
<text x="1444" y="70" text-anchor="middle">ThrowStep</text>
<line x1="1325" y1="85" x2="1563" y2="85" stroke="#000"/>
<text x="1335" y="95">+ pos: Position</text>
<text x="1335" y="115">+ error: String</text>
<text x="1335" y="135">+ annotations: AnnotationDecl</text>
<rect x="1603" y="50" width="238" height="160" fill="#fff" stroke="#000" stroke-width="1"/>
<text x="1722" y="70" text-anchor="middle">IfStep</text>
<line x1="1603" y1="85" x2="1841" y2="85" stroke="#000"/>
<text x="1613" y="95">+ pos: Position</text>
<text x="1613" y="115">+ condition: Expr</text>
<text x="1613" y="135">+ thenSteps: Step</text>
<text x="1613" y="155">+ elseSteps: Step</text>
<text x="1613" y="175">+ annotations: AnnotationDecl</text>
<rect x="1881" y="50" width="238" height="160" fill="#fff" stroke="#000" stroke-width="1"/>
<text x="2000" y="70" text-anchor="middle">ForStep</text>
<line x1="1881" y1="85" x2="2119" y2="85" stroke="#000"/>
<text x="1891" y="95">+ pos: Position</text>
<text x="1891" y="115">+ variable: String</text>
<text x="1891" y="135">+ iterable: Expr</text>
<text x="1891" y="155">+ body: Step</text>
<text x="1891" y="175">+ annotations: AnnotationDecl</text>
<rect x="2159" y="50" width="238" height="140" fill="#fff" stroke="#000" stroke-width="1"/>
<text x="2278" y="70" text-anchor="middle">WhileStep</text>
<line x1="2159" y1="85" x2="2397" y2="85" stroke="#000"/>
<text x="2169" y="95">+ pos: Position</text>
<text x="2169" y="115">+ condition: Expr</text>
<text x="2169" y="135">+ body: Step</text>
<text x="2169" y="155">+ annotations: AnnotationDecl</text>
</svg>