<svg xmlns="http://www.w3.org/2000/svg" viewBox="0 0 800 600" width="800" height="600">
<rect x="50" y="50" width="200" height="60" fill="#fff" stroke="#000" stroke-width="1"/>
<text x="150" y="70">&lt;&lt;component&gt;&gt;</text>
<text x="150" y="90">ASTStates</text>
<rect x="300" y="50" width="200" height="220" fill="#fff" stroke="#000" stroke-width="1"/>
<text x="400" y="70">StatesDecl</text>
<line x1="300" y1="85" x2="500" y2="85" stroke="#000"/>
<text x="310" y="95">+ pos: Position</text>
<text x="310" y="115">+ name: String</text>
<text x="310" y="135">+ annotations: AnnotationDecl</text>
<text x="310" y="155">+ initialState: String</text>
<text x="310" y="175">+ finals: String</text>
<text x="310" y="195">+ statesBlocks: StateDecl</text>
<text x="310" y="215">+ transitions: TransitionDecl</text>
<text x="310" y="235">+ parallels: ParallelDecl</text>
<rect x="550" y="50" width="200" height="220" fill="#fff" stroke="#000" stroke-width="1"/>
<text x="650" y="70">StateDecl</text>
<line x1="550" y1="85" x2="750" y2="85" stroke="#000"/>
<text x="560" y="95">+ pos: Position</text>
<text x="560" y="115">+ name: String</text>
<text x="560" y="135">+ annotations: AnnotationDecl</text>
<text x="560" y="155">+ entryActions: String</text>
<text x="560" y="175">+ exitActions: String</text>
<text x="560" y="195">+ initialState: String</text>
<text x="560" y="215">+ statesBlocks: StateDecl</text>
<text x="560" y="235">+ transitions: TransitionDecl</text>
<rect x="50" y="250" width="200" height="180" fill="#fff" stroke="#000" stroke-width="1"/>
<text x="150" y="270">TransitionDecl</text>
<line x1="50" y1="285" x2="250" y2="285" stroke="#000"/>
<text x="60" y="295">+ pos: Position</text>
<text x="60" y="315">+ from: String</text>
<text x="60" y="335">+ to: String</text>
<text x="60" y="355">+ trigger: Trigger</text>
<text x="60" y="375">+ guard: Expr</text>
<text x="60" y="395">+ actions: String</text>
<rect x="300" y="250" width="200" height="100" fill="#fff" stroke="#000" stroke-width="1"/>
<text x="400" y="270">EventTrigger</text>
<line x1="300" y1="285" x2="500" y2="285" stroke="#000"/>
<text x="310" y="295">+ pos: Position</text>
<text x="310" y="315">+ event: String</text>
<rect x="550" y="250" width="200" height="100" stroke-width="1" fill="#fff" stroke="#000"/>
<text x="650" y="270">AfterTrigger</text>
<line x1="550" y1="285" x2="750" y2="285" stroke="#000"/>
<text x="560" y="295">+ pos: Position</text>
<text x="560" y="315">+ duration: Duration</text>
<rect x="50" y="450" width="200" height="100" fill="#fff" stroke="#000" stroke-width="1"/>
<text x="150" y="470">Duration</text>
<line x1="50" y1="485" x2="250" y2="485" stroke="#000"/>
<text x="60" y="495">+ value: Int</text>
<text x="60" y="515">+ unit: String</text>
<rect x="300" y="450" width="200" height="100" fill="#fff" stroke="#000" stroke-width="1"/>
<text x="400" y="470">WhenTrigger</text>
<line x1="300" y1="485" x2="500" y2="485" stroke="#000"/>
<text x="310" y="495">+ pos: Position</text>
<text x="310" y="515">+ condition: Expr</text>
<rect x="550" y="450" width="200" height="140" fill="#fff" stroke="#000" stroke-width="1"/>
<text x="650" y="470">ParallelDecl</text>
<line x1="550" y1="485" x2="750" y2="485" stroke="#000"/>
<text x="560" y="495">+ pos: Position</text>
<text x="560" y="515">+ name: String</text>
<text x="560" y="535">+ annotations: AnnotationDecl</text>
<text x="560" y="555">+ regions: RegionDecl</text>
<rect x="50" y="650" width="200" height="160" stroke-width="1" fill="#fff" stroke="#000"/>
<text x="150" y="670">RegionDecl</text>
<line x1="50" y1="685" x2="250" y2="685" stroke="#000"/>
<text x="60" y="695">+ pos: Position</text>
<text x="60" y="715">+ name: String</text>
<text x="60" y="735">+ initialState: String</text>
<text x="60" y="755">+ statesBlocks: StateDecl</text>
<text x="60" y="775">+ transitions: TransitionDecl</text>
</svg>