<svg xmlns="http://www.w3.org/2000/svg" viewBox="0 0 904 600" width="904" height="600">
<rect x="50" y="50" width="123" height="60" stroke-width="1" fill="#fff" stroke="#000"/>
<text x="111" y="70" text-anchor="middle">&lt;&lt;component&gt;&gt;</text>
<text x="111" y="90" text-anchor="middle">ASTStatements</text>
<rect x="203" y="50" width="238" height="140" fill="#fff" stroke="#000" stroke-width="1"/>
<text x="322" y="70" text-anchor="middle">FlowDecl</text>
<line x1="203" y1="85" x2="441" y2="85" stroke="#000"/>
<text x="213" y="95">+ pos: Position</text>
<text x="213" y="115">+ name: String</text>
<text x="213" y="135">+ annotations: AnnotationDecl</text>
<text x="213" y="155">+ steps: Step</text>
<rect x="471" y="50" width="238" height="140" fill="#fff" stroke="#000" stroke-width="1"/>
<text x="590" y="70" text-anchor="middle">AssignStep</text>
<line x1="471" y1="85" x2="709" y2="85" stroke="#000"/>
<text x="481" y="95">+ pos: Position</text>
<text x="481" y="115">+ variable: String</text>
<text x="481" y="135">+ value: Expr</text>
<text x="481" y="155">+ annotations: AnnotationDecl</text>
<rect x="50" y="220" width="238" height="140" stroke-width="1" fill="#fff" stroke="#000"/>
<text x="169" y="240" text-anchor="middle">CallStep</text>
<line x1="50" y1="255" x2="288" y2="255" stroke="#000"/>
<text x="60" y="265">+ pos: Position</text>
<text x="60" y="285">+ expr: Expr</text>
<text x="60" y="305">+ isAwaited: Boolean</text>
<text x="60" y="325">+ annotations: AnnotationDecl</text>
<rect x="318" y="220" width="238" height="120" fill="#fff" stroke="#000" stroke-width="1"/>
<text x="437" y="240" text-anchor="middle">ReturnStep</text>
<line x1="318" y1="255" x2="556" y2="255" stroke="#000"/>
<text x="328" y="265">+ pos: Position</text>
<text x="328" y="285">+ value: Expr</text>
<text x="328" y="305">+ annotations: AnnotationDecl</text>
<rect x="586" y="220" width="238" height="120" stroke="#000" stroke-width="1" fill="#fff"/>
<text x="705" y="240" text-anchor="middle">ThrowStep</text>
<line x1="586" y1="255" x2="824" y2="255" stroke="#000"/>
<text x="596" y="265">+ pos: Position</text>
<text x="596" y="285">+ error: String</text>
<text x="596" y="305">+ annotations: AnnotationDecl</text>
<rect x="50" y="390" width="238" height="160" fill="#fff" stroke="#000" stroke-width="1"/>
<text x="169" y="410" text-anchor="middle">IfStep</text>
<line x1="50" y1="425" x2="288" y2="425" stroke="#000"/>
<text x="60" y="435">+ pos: Position</text>
<text x="60" y="455">+ condition: Expr</text>
<text x="60" y="475">+ thenSteps: Step</text>
<text x="60" y="495">+ elseSteps: Step</text>
<text x="60" y="515">+ annotations: AnnotationDecl</text>
<rect x="318" y="390" width="238" height="160" fill="#fff" stroke="#000" stroke-width="1"/>
<text x="437" y="410" text-anchor="middle">ForStep</text>
<line x1="318" y1="425" x2="556" y2="425" stroke="#000"/>
<text x="328" y="435">+ pos: Position</text>
<text x="328" y="455">+ variable: String</text>
<text x="328" y="475">+ iterable: Expr</text>
<text x="328" y="495">+ body: Step</text>
<text x="328" y="515">+ annotations: AnnotationDecl</text>
<rect x="586" y="390" width="238" height="140" fill="#fff" stroke="#000" stroke-width="1"/>
<text x="705" y="410" text-anchor="middle">WhileStep</text>
<line x1="586" y1="425" x2="824" y2="425" stroke="#000"/>
<text x="596" y="435">+ pos: Position</text>
<text x="596" y="455">+ condition: Expr</text>
<text x="596" y="475">+ body: Step</text>
<text x="596" y="495">+ annotations: AnnotationDecl</text>
</svg>