<svg xmlns="http://www.w3.org/2000/svg" viewBox="0 0 850 720" width="850" height="720">
<rect x="50" y="50" width="123" height="60" stroke="#000" stroke-width="1" fill="#fff"/>
<text x="111" y="70" text-anchor="middle">&lt;&lt;component&gt;&gt;</text>
<text x="111" y="90" text-anchor="middle">ASTStates</text>
<rect x="203" y="50" width="238" height="220" stroke-width="1" fill="#fff" stroke="#000"/>
<text x="322" y="70" text-anchor="middle">StatesDecl</text>
<line x1="203" y1="85" x2="441" y2="85" stroke="#000"/>
<text x="213" y="95">+ pos: Position</text>
<text x="213" y="115">+ name: String</text>
<text x="213" y="135">+ annotations: AnnotationDecl</text>
<text x="213" y="155">+ initialState: String</text>
<text x="213" y="175">+ finals: String</text>
<text x="213" y="195">+ statesBlocks: StateDecl</text>
<text x="213" y="215">+ transitions: TransitionDecl</text>
<text x="213" y="235">+ parallels: ParallelDecl</text>
<rect x="471" y="50" width="238" height="220" stroke-width="1" fill="#fff" stroke="#000"/>
<text x="590" y="70" text-anchor="middle">StateDecl</text>
<line x1="471" y1="85" x2="709" y2="85" stroke="#000"/>
<text x="481" y="95">+ pos: Position</text>
<text x="481" y="115">+ name: String</text>
<text x="481" y="135">+ annotations: AnnotationDecl</text>
<text x="481" y="155">+ entryActions: String</text>
<text x="481" y="175">+ exitActions: String</text>
<text x="481" y="195">+ initialState: String</text>
<text x="481" y="215">+ statesBlocks: StateDecl</text>
<text x="481" y="235">+ transitions: TransitionDecl</text>
<rect x="50" y="300" width="159" height="180" fill="#fff" stroke="#000" stroke-width="1"/>
<text x="129" y="320" text-anchor="middle">TransitionDecl</text>
<line x1="50" y1="335" x2="209" y2="335" stroke="#000"/>
<text x="60" y="345">+ pos: Position</text>
<text x="60" y="365">+ from: String</text>
<text x="60" y="385">+ to: String</text>
<text x="60" y="405">+ trigger: Trigger</text>
<text x="60" y="425">+ guard: Expr</text>
<text x="60" y="445">+ actions: String</text>
<rect x="239" y="300" width="137" height="100" fill="#fff" stroke="#000" stroke-width="1"/>
<text x="307" y="320" text-anchor="middle">EventTrigger</text>
<line x1="239" y1="335" x2="376" y2="335" stroke="#000"/>
<text x="249" y="345">+ pos: Position</text>
<text x="249" y="365">+ event: String</text>
<rect x="406" y="300" width="174" height="100" fill="#fff" stroke="#000" stroke-width="1"/>
<text x="493" y="320" text-anchor="middle">AfterTrigger</text>
<line x1="406" y1="335" x2="580" y2="335" stroke="#000"/>
<text x="416" y="345">+ pos: Position</text>
<text x="416" y="365">+ duration: Duration</text>
<rect x="610" y="300" width="130" height="100" fill="#fff" stroke="#000" stroke-width="1"/>
<text x="675" y="320" text-anchor="middle">Duration</text>
<line x1="610" y1="335" x2="740" y2="335" stroke="#000"/>
<text x="620" y="345">+ value: Int</text>
<text x="620" y="365">+ unit: String</text>
<rect x="50" y="510" width="152" height="100" stroke="#000" stroke-width="1" fill="#fff"/>
<text x="126" y="530" text-anchor="middle">WhenTrigger</text>
<line x1="50" y1="545" x2="202" y2="545" stroke="#000"/>
<text x="60" y="555">+ pos: Position</text>
<text x="60" y="575">+ condition: Expr</text>
<rect x="232" y="510" width="238" height="140" stroke-width="1" fill="#fff" stroke="#000"/>
<text x="351" y="530" text-anchor="middle">ParallelDecl</text>
<line x1="232" y1="545" x2="470" y2="545" stroke="#000"/>
<text x="242" y="555">+ pos: Position</text>
<text x="242" y="575">+ name: String</text>
<text x="242" y="595">+ annotations: AnnotationDecl</text>
<text x="242" y="615">+ regions: RegionDecl</text>
<rect x="500" y="510" width="238" height="160" fill="#fff" stroke="#000" stroke-width="1"/>
<text x="619" y="530" text-anchor="middle">RegionDecl</text>
<line x1="500" y1="545" x2="738" y2="545" stroke="#000"/>
<text x="510" y="555">+ pos: Position</text>
<text x="510" y="575">+ name: String</text>
<text x="510" y="595">+ initialState: String</text>
<text x="510" y="615">+ statesBlocks: StateDecl</text>
<text x="510" y="635">+ transitions: TransitionDecl</text>
</svg>