<svg xmlns="http://www.w3.org/2000/svg" viewBox="0 0 882 600" width="882" height="600">
<rect x="50" y="50" width="188" height="60" fill="#fff" stroke="#000" stroke-width="1"/>
<text x="144" y="70" text-anchor="middle">&lt;&lt;component&gt;&gt;</text>
<text x="144" y="90" text-anchor="middle">Token</text>
<rect x="268" y="50" width="120" height="60" fill="#fff" stroke="#000" stroke-width="1"/>
<text x="328" y="70" text-anchor="middle">&lt;&lt;enum&gt;&gt;</text>
<text x="328" y="90" text-anchor="middle">TokenType</text>
<rect x="418" y="50" width="188" height="140" stroke-width="1" fill="#fff" stroke="#000"/>
<text x="512" y="70" text-anchor="middle">Token</text>
<line x1="418" y1="85" x2="606" y2="85" stroke="#000"/>
<text x="428" y="95">+ tokenType: TokenType</text>
<text x="428" y="115">+ literal: string</text>
<text x="428" y="135">+ lineNumber: int</text>
<text x="428" y="155">+ columnNumber: int</text>
<rect x="636" y="50" width="166" height="100" fill="#fff" stroke="#000" stroke-width="1"/>
<text x="719" y="70" text-anchor="middle">Position</text>
<line x1="636" y1="85" x2="802" y2="85" stroke="#000"/>
<text x="646" y="95">+ lineNumber: int</text>
<text x="646" y="115">+ columnNumber: int</text>
<rect x="50" y="220" width="130" height="100" stroke="#000" stroke-width="1" fill="#fff"/>
<text x="115" y="240" text-anchor="middle">DurationValue</text>
<line x1="50" y1="255" x2="180" y2="255" stroke="#000"/>
<text x="60" y="265">+ amount: int</text>
<text x="60" y="285">+ unit: string</text>
</svg>