<svg xmlns="http://www.w3.org/2000/svg" viewBox="0 0 800 600" width="800" height="600">
<rect x="50" y="50" width="200" height="100" stroke="#000" stroke-width="1" fill="#fff"/>
<text x="150" y="70">&lt;&lt;component&gt;&gt;</text>
<text x="150" y="90">ClassTransformer</text>
<line x1="50" y1="105" x2="250" y2="105" stroke="#000"/>
<text x="60" y="115">+ NewClassTransformer()</text>
<text x="60" y="135">+ Transform()</text>
<rect x="300" y="50" width="200" height="80" fill="#fff" stroke="#000" stroke-width="1"/>
<text x="400" y="70">TransformOptions</text>
<line x1="300" y1="85" x2="500" y2="85" stroke="#000"/>
<text x="310" y="95">+ filterComponents: string</text>
<rect x="550" y="50" width="200" height="100" fill="#fff" stroke="#000" stroke-width="1"/>
<text x="650" y="70">&lt;&lt;component&gt;&gt;</text>
<text x="650" y="90">SequenceTransformer</text>
<line x1="550" y1="105" x2="750" y2="105" stroke="#000"/>
<text x="560" y="115">+ NewSequenceTransformer()</text>
<text x="560" y="135">+ Transform()</text>
<rect x="50" y="250" width="200" height="100" stroke-width="1" fill="#fff" stroke="#000"/>
<text x="150" y="270">SequenceOptions</text>
<line x1="50" y1="285" x2="250" y2="285" stroke="#000"/>
<text x="60" y="295">+ flowName: string</text>
<text x="60" y="315">+ includeReturn: bool</text>
<rect x="300" y="250" width="200" height="100" fill="#fff" stroke="#000" stroke-width="1"/>
<text x="400" y="270">&lt;&lt;component&gt;&gt;</text>
<text x="400" y="290">StateTransformer</text>
<line x1="300" y1="305" x2="500" y2="305" stroke="#000"/>
<text x="310" y="315">+ NewStateTransformer()</text>
<text x="310" y="335">+ Transform()</text>
<rect x="550" y="250" width="200" height="80" fill="#fff" stroke="#000" stroke-width="1"/>
<text x="650" y="270">StateOptions</text>
<line x1="550" y1="285" x2="750" y2="285" stroke="#000"/>
<text x="560" y="295">+ statesName: string</text>
<rect x="50" y="450" width="200" height="100" fill="#fff" stroke="#000" stroke-width="1"/>
<text x="150" y="470">&lt;&lt;component&gt;&gt;</text>
<text x="150" y="490">FlowTransformer</text>
<line x1="50" y1="505" x2="250" y2="505" stroke="#000"/>
<text x="60" y="515">+ NewFlowTransformer()</text>
<text x="60" y="535">+ Transform()</text>
<rect x="300" y="450" width="200" height="100" stroke="#000" stroke-width="1" fill="#fff"/>
<text x="400" y="470">FlowOptions</text>
<line x1="300" y1="485" x2="500" y2="485" stroke="#000"/>
<text x="310" y="495">+ flowName: string</text>
<text x="310" y="515">+ includeSwimlanes: bool</text>
<line x1="150" y1="100" x2="0" y2="50" stroke="#000" class="dashed"/>
<line x1="150" y1="100" x2="0" y2="50" stroke="#000" class="dashed"/>
<line x1="650" y1="100" x2="0" y2="50" stroke="#000" class="dashed"/>
<line x1="650" y1="100" x2="0" y2="50" stroke="#000" class="dashed"/>
<line x1="400" y1="300" x2="0" y2="50" stroke="#000" class="dashed"/>
<line x1="400" y1="300" x2="0" y2="50" stroke="#000" class="dashed"/>
<line x1="150" y1="500" x2="0" y2="50" stroke="#000" class="dashed"/>
<line x1="150" y1="500" x2="0" y2="50" stroke="#000" class="dashed"/>
</svg>