<svg xmlns="http://www.w3.org/2000/svg" viewBox="0 0 800 600" width="800" height="600">
<rect x="50" y="50" width="200" height="60" fill="#fff" stroke="#000" stroke-width="1"/>
<text x="150" y="70">&lt;&lt;component&gt;&gt;</text>
<text x="150" y="90">ASTTypes</text>
<rect x="300" y="50" width="200" height="180" fill="#fff" stroke="#000" stroke-width="1"/>
<text x="400" y="70">TypeDecl</text>
<line x1="300" y1="85" x2="500" y2="85" stroke="#000"/>
<text x="310" y="95">+ pos: Position</text>
<text x="310" y="115">+ name: String</text>
<text x="310" y="135">+ kind: TypeKind</text>
<text x="310" y="155">+ annotations: AnnotationDecl</text>
<text x="310" y="175">+ fields: FieldDecl</text>
<text x="310" y="195">+ values: String</text>
<rect x="550" y="50" width="200" height="60" fill="#fff" stroke="#000" stroke-width="1"/>
<text x="650" y="70">&lt;&lt;enum&gt;&gt;</text>
<text x="650" y="90">TypeKind</text>
<rect x="50" y="250" width="200" height="160" fill="#fff" stroke="#000" stroke-width="1"/>
<text x="150" y="270">FieldDecl</text>
<line x1="50" y1="285" x2="250" y2="285" stroke="#000"/>
<text x="60" y="295">+ pos: Position</text>
<text x="60" y="315">+ name: String</text>
<text x="60" y="335">+ fieldType: TypeExpr</text>
<text x="60" y="355">+ visibility: Visibility</text>
<text x="60" y="375">+ annotations: AnnotationDecl</text>
<rect x="300" y="250" width="200" height="60" stroke="#000" stroke-width="1" fill="#fff"/>
<text x="400" y="270">&lt;&lt;enum&gt;&gt;</text>
<text x="400" y="290">Visibility</text>
<rect x="550" y="250" width="200" height="140" fill="#fff" stroke="#000" stroke-width="1"/>
<text x="650" y="270">TypeExpr</text>
<line x1="550" y1="285" x2="750" y2="285" stroke="#000"/>
<text x="560" y="295">+ pos: Position</text>
<text x="560" y="315">+ name: String</text>
<text x="560" y="335">+ nullable: Boolean</text>
<text x="560" y="355">+ array: Boolean</text>
<rect x="50" y="450" width="200" height="180" stroke="#000" stroke-width="1" fill="#fff"/>
<text x="150" y="470">RelationDecl</text>
<line x1="50" y1="485" x2="250" y2="485" stroke="#000"/>
<text x="60" y="495">+ pos: Position</text>
<text x="60" y="515">+ kind: RelationKind</text>
<text x="60" y="535">+ target: String</text>
<text x="60" y="555">+ targetType: String</text>
<text x="60" y="575">+ alias: String</text>
<text x="60" y="595">+ annotations: AnnotationDecl</text>
<rect x="300" y="450" width="200" height="60" stroke-width="1" fill="#fff" stroke="#000"/>
<text x="400" y="470">&lt;&lt;enum&gt;&gt;</text>
<text x="400" y="490">RelationKind</text>
<rect x="550" y="450" width="200" height="140" fill="#fff" stroke="#000" stroke-width="1"/>
<text x="650" y="470">InterfaceDecl</text>
<line x1="550" y1="485" x2="750" y2="485" stroke="#000"/>
<text x="560" y="495">+ pos: Position</text>
<text x="560" y="515">+ name: String</text>
<text x="560" y="535">+ annotations: AnnotationDecl</text>
<text x="560" y="555">+ methods: MethodDecl</text>
<rect x="50" y="650" width="200" height="200" stroke="#000" stroke-width="1" fill="#fff"/>
<text x="150" y="670">MethodDecl</text>
<line x1="50" y1="685" x2="250" y2="685" stroke="#000"/>
<text x="60" y="695">+ pos: Position</text>
<text x="60" y="715">+ name: String</text>
<text x="60" y="735">+ params: ParamDecl</text>
<text x="60" y="755">+ returnType: TypeExpr</text>
<text x="60" y="775">+ throwsList: String</text>
<text x="60" y="795">+ isAsync: Boolean</text>
<text x="60" y="815">+ annotations: AnnotationDecl</text>
<rect x="300" y="650" width="200" height="120" stroke="#000" stroke-width="1" fill="#fff"/>
<text x="400" y="670">ParamDecl</text>
<line x1="300" y1="685" x2="500" y2="685" stroke="#000"/>
<text x="310" y="695">+ pos: Position</text>
<text x="310" y="715">+ name: String</text>
<text x="310" y="735">+ paramType: TypeExpr</text>
</svg>