<svg xmlns="http://www.w3.org/2000/svg" viewBox="0 0 917 600" width="917" height="600">
<rect x="50" y="50" width="533" height="140" fill="#fff" stroke="#000" stroke-width="1"/>
<text x="316" y="70" text-anchor="middle">&lt;&lt;component&gt;&gt;</text>
<text x="316" y="90" text-anchor="middle">ASTVisitor</text>
<line x1="50" y1="105" x2="583" y2="105" stroke="#000"/>
<text x="60" y="115">+ Walk(visitor: VisitorCallbacks, node: SpecFile): Error</text>
<text x="60" y="135">+ WalkComponent(visitor: VisitorCallbacks, node: ComponentDecl): Error</text>
<text x="60" y="155">+ WalkFlow(visitor: VisitorCallbacks, node: FlowDecl): Error</text>
<text x="60" y="175">+ WalkStates(visitor: VisitorCallbacks, node: StatesDecl): Error</text>
<rect x="613" y="50" width="224" height="360" stroke="#000" stroke-width="1" fill="#fff"/>
<text x="725" y="70" text-anchor="middle">VisitorCallbacks</text>
<line x1="613" y1="85" x2="837" y2="85" stroke="#000"/>
<text x="623" y="95">+ visitSpecFile: func</text>
<text x="623" y="115">+ visitImportDecl: func</text>
<text x="623" y="135">+ visitComponentDecl: func</text>
<text x="623" y="155">+ visitAnnotationDecl: func</text>
<text x="623" y="175">+ visitTypeDecl: func</text>
<text x="623" y="195">+ visitFieldDecl: func</text>
<text x="623" y="215">+ visitRelationDecl: func</text>
<text x="623" y="235">+ visitInterfaceDecl: func</text>
<text x="623" y="255">+ visitMethodDecl: func</text>
<text x="623" y="275">+ visitFlowDecl: func</text>
<text x="623" y="295">+ visitStep: func</text>
<text x="623" y="315">+ visitExpr: func</text>
<text x="623" y="335">+ visitStatesDecl: func</text>
<text x="623" y="355">+ visitStateDecl: func</text>
<text x="623" y="375">+ visitTransitionDecl: func</text>
<rect x="50" y="440" width="238" height="80" fill="#fff" stroke="#000" stroke-width="1"/>
<text x="169" y="460" text-anchor="middle">BaseVisitor</text>
<line x1="50" y1="475" x2="288" y2="475" stroke="#000"/>
<text x="60" y="485">+ callbacks: VisitorCallbacks</text>
</svg>