<svg xmlns="http://www.w3.org/2000/svg" viewBox="0 0 1912 600" width="1912" height="600">
<defs>
<style>text { font-family: -apple-system, "Segoe UI", "Helvetica Neue", Arial, sans-serif; }</style>
<filter id="drop-shadow" x="-5%" y="-5%" width="115%" height="115%"><feGaussianBlur in="SourceAlpha" stdDeviation="2" result="blur"/><feOffset in="blur" dx="1" dy="2" result="offsetBlur"/><feComponentTransfer in="offsetBlur" result="shadow"><feFuncA type="linear" slope="0.12"/></feComponentTransfer><feMerge><feMergeNode in="shadow"/><feMergeNode in="SourceGraphic"/></feMerge></filter>
<symbol id="actor" viewBox="0 0 40 70" preserveAspectRatio="none"><circle cx="20" cy="10" r="10" fill="#fafbfc" stroke="#2d3748" stroke-width="1.5"/><line x1="20" y1="20" x2="20" y2="45" stroke="#2d3748" stroke-width="1.5"/><line x1="5" y1="30" x2="35" y2="30" stroke="#2d3748" stroke-width="1.5"/><line x1="20" y1="45" x2="5" y2="65" stroke="#2d3748" stroke-width="1.5"/><line x1="20" y1="45" x2="35" y2="65" stroke="#2d3748" stroke-width="1.5"/></symbol>
<symbol id="initial-state" viewBox="0 0 20 20" preserveAspectRatio="none"><circle cx="10" cy="10" r="10" fill="#1a202c"/></symbol>
<symbol id="final-state" viewBox="0 0 24 24" preserveAspectRatio="none"><circle cx="12" cy="12" r="12" fill="none" stroke="#2d3748" stroke-width="2"/><circle cx="12" cy="12" r="8" fill="#1a202c"/></symbol>
</defs>
<rect x="786" y="230" width="339" height="120" fill="#fafbfc" stroke="#2d3748" stroke-width="2" filter="url(#drop-shadow)"/>
<text x="955" y="257" text-anchor="middle" fill="#4a5568" font-style="italic">&lt;&lt;component&gt;&gt;</text>
<text x="955" y="277" text-anchor="middle" fill="#1a202c" font-weight="bold">Logger</text>
<line x1="786" y1="292" x2="1125" y2="292" stroke="#cbd5e0"/>
<text x="796" y="307" fill="#1a202c">+ Log(level: string, message: string): bool</text>
<text x="796" y="327" fill="#1a202c">+ SetLevel(level: string): bool</text>
<rect x="50" y="50" width="281" height="100" stroke-width="2" filter="url(#drop-shadow)" fill="#fafbfc" stroke="#2d3748"/>
<text x="190" y="77" text-anchor="middle" fill="#4a5568" font-style="italic">&lt;&lt;component&gt;&gt;</text>
<text x="190" y="97" font-weight="bold" text-anchor="middle" fill="#1a202c">ConsoleLogger</text>
<line x1="50" y1="112" x2="331" y2="112" stroke="#cbd5e0"/>
<text x="60" y="127" fill="#1a202c">+ EnableColors(enabled: bool): bool</text>
<rect x="976" y="50" width="209" height="100" stroke="#2d3748" stroke-width="2" filter="url(#drop-shadow)" fill="#fafbfc"/>
<text x="1080" y="77" text-anchor="middle" fill="#1a202c" font-weight="bold">ConsoleConfig</text>
<line x1="976" y1="92" x2="1185" y2="92" stroke="#cbd5e0"/>
<text x="986" y="107" fill="#1a202c">+ colorEnabled: bool</text>
<text x="986" y="127" fill="#1a202c">+ timestampFormat: string</text>
<rect x="371" y="50" width="145" height="100" fill="#fafbfc" stroke="#2d3748" stroke-width="2" filter="url(#drop-shadow)"/>
<text x="443" y="77" text-anchor="middle" fill="#4a5568" font-style="italic">&lt;&lt;component&gt;&gt;</text>
<text x="443" y="97" text-anchor="middle" fill="#1a202c" font-weight="bold">FileLogger</text>
<line x1="371" y1="112" x2="516" y2="112" stroke="#cbd5e0"/>
<text x="381" y="127" fill="#1a202c">+ Rotate(): bool</text>
<rect x="1225" y="50" width="174" height="120" fill="#fafbfc" stroke="#2d3748" stroke-width="2" filter="url(#drop-shadow)"/>
<text x="1312" y="77" text-anchor="middle" fill="#1a202c" font-weight="bold">FileConfig</text>
<line x1="1225" y1="92" x2="1399" y2="92" stroke="#cbd5e0"/>
<text x="1235" y="107" fill="#1a202c">+ filePath: string</text>
<text x="1235" y="127" fill="#1a202c">+ maxFileSize: int</text>
<text x="1235" y="147" fill="#1a202c">+ rotationCount: int</text>
<rect x="556" y="50" width="166" height="120" fill="#fafbfc" stroke="#2d3748" stroke-width="2" filter="url(#drop-shadow)"/>
<text x="639" y="77" text-anchor="middle" fill="#4a5568" font-style="italic">&lt;&lt;component&gt;&gt;</text>
<text x="639" y="97" text-anchor="middle" fill="#1a202c" font-weight="bold">NetworkLogger</text>
<line x1="556" y1="112" x2="722" y2="112" stroke="#cbd5e0"/>
<text x="566" y="127" fill="#1a202c">+ Connect(): bool</text>
<text x="566" y="147" fill="#1a202c">+ Reconnect(): bool</text>
<rect x="1439" y="50" width="166" height="120" fill="#fafbfc" stroke="#2d3748" stroke-width="2" filter="url(#drop-shadow)"/>
<text x="1522" y="77" text-anchor="middle" fill="#1a202c" font-weight="bold">NetworkConfig</text>
<line x1="1439" y1="92" x2="1605" y2="92" stroke="#cbd5e0"/>
<text x="1449" y="107" fill="#1a202c">+ serverUrl: string</text>
<text x="1449" y="127" fill="#1a202c">+ port: int</text>
<text x="1449" y="147" fill="#1a202c">+ protocol: string</text>
<rect x="762" y="50" width="174" height="120" stroke-width="2" filter="url(#drop-shadow)" fill="#fafbfc" stroke="#2d3748"/>
<text x="849" y="77" text-anchor="middle" fill="#4a5568" font-style="italic">&lt;&lt;component&gt;&gt;</text>
<text x="849" y="97" fill="#1a202c" font-weight="bold" text-anchor="middle">DatabaseLogger</text>
<line x1="762" y1="112" x2="936" y2="112" stroke="#cbd5e0"/>
<text x="772" y="127" fill="#1a202c">+ Flush(): bool</text>
<text x="772" y="147" fill="#1a202c">+ GetLogCount(): int</text>
<rect x="1645" y="50" width="217" height="120" fill="#fafbfc" stroke="#2d3748" stroke-width="2" filter="url(#drop-shadow)"/>
<text x="1753" y="77" font-weight="bold" text-anchor="middle" fill="#1a202c">DatabaseConfig</text>
<line x1="1645" y1="92" x2="1862" y2="92" stroke="#cbd5e0"/>
<text x="1655" y="107" fill="#1a202c">+ connectionString: string</text>
<text x="1655" y="127" fill="#1a202c">+ tableName: string</text>
<text x="1655" y="147" fill="#1a202c">+ batchSize: int</text>
<line x1="331" y1="100" x2="331" y2="242" stroke="#2d3748" stroke-dasharray="5,5"/>
<line x1="331" y1="242" x2="786" y2="242" stroke="#2d3748" stroke-dasharray="5,5"/>
<polygon points="786,242 776,246 776,237" fill="#fafbfc" stroke="#2d3748"/>
<line x1="516" y1="100" x2="516" y2="266" stroke="#2d3748" stroke-dasharray="5,5"/>
<line x1="516" y1="266" x2="786" y2="266" stroke="#2d3748" stroke-dasharray="5,5"/>
<polygon points="786,266 776,270 776,261" fill="#fafbfc" stroke="#2d3748"/>
<line x1="722" y1="110" x2="722" y2="290" stroke="#2d3748" stroke-dasharray="5,5"/>
<line x1="722" y1="290" x2="786" y2="290" stroke="#2d3748" stroke-dasharray="5,5"/>
<polygon points="786,290 776,294 776,285" fill="#fafbfc" stroke="#2d3748"/>
<line x1="849" y1="170" x2="849" y2="230" stroke="#2d3748" stroke-dasharray="5,5"/>
<line x1="849" y1="230" x2="1045" y2="230" stroke="#2d3748" stroke-dasharray="5,5"/>
<polygon points="1045,230 1035,234 1035,225" fill="#fafbfc" stroke="#2d3748"/>
</svg>