<svg xmlns="http://www.w3.org/2000/svg" viewBox="0 0 844 600" width="844" height="600">
<defs>
<style>text { font-family: -apple-system, "Segoe UI", "Helvetica Neue", Arial, sans-serif; }</style>
<filter id="drop-shadow" x="-5%" y="-5%" width="115%" height="115%"><feGaussianBlur in="SourceAlpha" stdDeviation="2" result="blur"/><feOffset in="blur" dx="1" dy="2" result="offsetBlur"/><feComponentTransfer in="offsetBlur" result="shadow"><feFuncA type="linear" slope="0.12"/></feComponentTransfer><feMerge><feMergeNode in="shadow"/><feMergeNode in="SourceGraphic"/></feMerge></filter>
<symbol id="actor" viewBox="0 0 40 70" preserveAspectRatio="none"><circle cx="20" cy="10" r="10" fill="#fafbfc" stroke="#2d3748" stroke-width="1.5"/><line x1="20" y1="20" x2="20" y2="45" stroke="#2d3748" stroke-width="1.5"/><line x1="5" y1="30" x2="35" y2="30" stroke="#2d3748" stroke-width="1.5"/><line x1="20" y1="45" x2="5" y2="65" stroke="#2d3748" stroke-width="1.5"/><line x1="20" y1="45" x2="35" y2="65" stroke="#2d3748" stroke-width="1.5"/></symbol>
<symbol id="initial-state" viewBox="0 0 20 20" preserveAspectRatio="none"><circle cx="10" cy="10" r="10" fill="#1a202c"/></symbol>
<symbol id="final-state" viewBox="0 0 24 24" preserveAspectRatio="none"><circle cx="12" cy="12" r="12" fill="none" stroke="#2d3748" stroke-width="2"/><circle cx="12" cy="12" r="8" fill="#1a202c"/></symbol>
</defs>
<rect x="50" y="50" width="281" height="120" stroke-width="2" filter="url(#drop-shadow)" fill="#fafbfc" stroke="#2d3748"/>
<text x="190" y="77" text-anchor="middle" fill="#4a5568" font-style="italic">&lt;&lt;component&gt;&gt;</text>
<text x="190" y="97" text-anchor="middle" fill="#1a202c" font-weight="bold">Serializer</text>
<line x1="50" y1="112" x2="331" y2="112" stroke="#cbd5e0"/>
<text x="60" y="127" fill="#1a202c">+ Serialize(data: string): string</text>
<text x="60" y="147" fill="#1a202c">+ Deserialize(data: string): string</text>
<rect x="135" y="230" width="267" height="100" filter="url(#drop-shadow)" fill="#fafbfc" stroke="#2d3748" stroke-width="2"/>
<text x="268" y="257" text-anchor="middle" fill="#4a5568" font-style="italic">&lt;&lt;component&gt;&gt;</text>
<text x="268" y="277" text-anchor="middle" fill="#1a202c" font-weight="bold">JSONSerializer</text>
<line x1="135" y1="292" x2="402" y2="292" stroke="#cbd5e0"/>
<text x="145" y="307" fill="#1a202c">+ SetConfig(config: string): bool</text>
<rect x="371" y="50" width="166" height="100" stroke="#2d3748" stroke-width="2" filter="url(#drop-shadow)" fill="#fafbfc"/>
<text x="454" y="77" text-anchor="middle" fill="#1a202c" font-weight="bold">JSONConfig</text>
<line x1="371" y1="92" x2="537" y2="92" stroke="#cbd5e0"/>
<text x="381" y="107" fill="#1a202c">+ prettyPrint: bool</text>
<text x="381" y="127" fill="#1a202c">+ indent: int</text>
<rect x="442" y="230" width="267" height="100" stroke="#2d3748" stroke-width="2" filter="url(#drop-shadow)" fill="#fafbfc"/>
<text x="575" y="257" fill="#4a5568" font-style="italic" text-anchor="middle">&lt;&lt;component&gt;&gt;</text>
<text x="575" y="277" text-anchor="middle" fill="#1a202c" font-weight="bold">XMLSerializer</text>
<line x1="442" y1="292" x2="709" y2="292" stroke="#cbd5e0"/>
<text x="452" y="307" fill="#1a202c">+ SetConfig(config: string): bool</text>
<rect x="577" y="50" width="217" height="100" fill="#fafbfc" stroke="#2d3748" stroke-width="2" filter="url(#drop-shadow)"/>
<text x="685" y="77" text-anchor="middle" fill="#1a202c" font-weight="bold">XMLConfig</text>
<line x1="577" y1="92" x2="794" y2="92" stroke="#cbd5e0"/>
<text x="587" y="107" fill="#1a202c">+ includeDeclaration: bool</text>
<text x="587" y="127" fill="#1a202c">+ encoding: string</text>
<line x1="268" y1="230" x2="268" y2="200" stroke="#2d3748" stroke-dasharray="5,5"/>
<line x1="268" y1="200" x2="78" y2="200" stroke="#2d3748" stroke-dasharray="5,5"/>
<line x1="78" y1="200" x2="78" y2="170" stroke-dasharray="5,5" stroke="#2d3748"/>
<polygon points="78,170 83,180 73,180" fill="#fafbfc" stroke="#2d3748"/>
<line x1="575" y1="230" x2="575" y2="200" stroke="#2d3748" stroke-dasharray="5,5"/>
<line x1="575" y1="200" x2="302" y2="200" stroke="#2d3748" stroke-dasharray="5,5"/>
<line x1="302" y1="200" x2="302" y2="170" stroke-dasharray="5,5" stroke="#2d3748"/>
<polygon points="302,170 307,180 297,180" fill="#fafbfc" stroke="#2d3748"/>
</svg>