<svg xmlns="http://www.w3.org/2000/svg" viewBox="0 0 1594 620" width="1594" height="620">
<defs>
<style>text { font-family: -apple-system, "Segoe UI", "Helvetica Neue", Arial, sans-serif; }</style>
<filter id="drop-shadow" x="-5%" y="-5%" width="115%" height="115%"><feGaussianBlur in="SourceAlpha" stdDeviation="2" result="blur"/><feOffset in="blur" dx="1" dy="2" result="offsetBlur"/><feComponentTransfer in="offsetBlur" result="shadow"><feFuncA type="linear" slope="0.12"/></feComponentTransfer><feMerge><feMergeNode in="shadow"/><feMergeNode in="SourceGraphic"/></feMerge></filter>
<symbol id="actor" viewBox="0 0 40 70" preserveAspectRatio="none"><circle cx="20" cy="10" r="10" fill="#fafbfc" stroke="#2d3748" stroke-width="1.5"/><line x1="20" y1="20" x2="20" y2="45" stroke="#2d3748" stroke-width="1.5"/><line x1="5" y1="30" x2="35" y2="30" stroke="#2d3748" stroke-width="1.5"/><line x1="20" y1="45" x2="5" y2="65" stroke="#2d3748" stroke-width="1.5"/><line x1="20" y1="45" x2="35" y2="65" stroke="#2d3748" stroke-width="1.5"/></symbol>
<symbol id="initial-state" viewBox="0 0 20 20" preserveAspectRatio="none"><circle cx="10" cy="10" r="10" fill="#1a202c"/></symbol>
<symbol id="final-state" viewBox="0 0 24 24" preserveAspectRatio="none"><circle cx="12" cy="12" r="12" fill="none" stroke="#2d3748" stroke-width="2"/><circle cx="12" cy="12" r="8" fill="#1a202c"/></symbol>
</defs>
<rect x="50" y="50" width="209" height="100" fill="#fafbfc" stroke="#2d3748" stroke-width="2" filter="url(#drop-shadow)"/>
<text x="154" y="77" text-anchor="middle" fill="#4a5568" font-style="italic">&lt;&lt;component&gt;&gt;</text>
<text x="154" y="97" font-weight="bold" text-anchor="middle" fill="#1a202c">WebController</text>
<line x1="50" y1="112" x2="259" y2="112" stroke="#cbd5e0"/>
<text x="60" y="127" fill="#1a202c">+ HandleRequest(): string</text>
<rect x="299" y="50" width="145" height="100" stroke="#2d3748" stroke-width="2" filter="url(#drop-shadow)" fill="#fafbfc"/>
<text x="371" y="77" text-anchor="middle" fill="#1a202c" font-weight="bold">RequestData</text>
<line x1="299" y1="92" x2="444" y2="92" stroke="#cbd5e0"/>
<text x="309" y="107" fill="#1a202c">+ path: string</text>
<text x="309" y="127" fill="#1a202c">+ method: string</text>
<rect x="484" y="50" width="181" height="100" stroke-width="2" filter="url(#drop-shadow)" fill="#fafbfc" stroke="#2d3748"/>
<text x="574" y="77" text-anchor="middle" fill="#4a5568" font-style="italic">&lt;&lt;component&gt;&gt;</text>
<text x="574" y="97" text-anchor="middle" fill="#1a202c" font-weight="bold">APIController</text>
<line x1="484" y1="112" x2="665" y2="112" stroke="#cbd5e0"/>
<text x="494" y="127" fill="#1a202c">+ HandleAPI(): string</text>
<rect x="705" y="50" width="159" height="100" fill="#fafbfc" stroke="#2d3748" stroke-width="2" filter="url(#drop-shadow)"/>
<text x="784" y="77" text-anchor="middle" fill="#1a202c" font-weight="bold">APIRequestData</text>
<line x1="705" y1="92" x2="864" y2="92" stroke="#cbd5e0"/>
<text x="715" y="107" fill="#1a202c">+ endpoint: string</text>
<text x="715" y="127" fill="#1a202c">+ payload: string</text>
<rect x="513" y="210" width="260" height="120" filter="url(#drop-shadow)" fill="#fafbfc" stroke="#2d3748" stroke-width="2"/>
<text x="643" y="237" font-style="italic" text-anchor="middle" fill="#4a5568">&lt;&lt;component&gt;&gt;</text>
<text x="643" y="257" text-anchor="middle" fill="#1a202c" font-weight="bold">UserService</text>
<line x1="513" y1="272" x2="773" y2="272" stroke="#cbd5e0"/>
<text x="523" y="287" fill="#1a202c">+ GetUser(id: string): string</text>
<text x="523" y="307" fill="#1a202c">+ CreateUser(data: string): bool</text>
<rect x="904" y="50" width="130" height="100" fill="#fafbfc" stroke="#2d3748" stroke-width="2" filter="url(#drop-shadow)"/>
<text x="969" y="77" font-weight="bold" text-anchor="middle" fill="#1a202c">UserData</text>
<line x1="904" y1="92" x2="1034" y2="92" stroke="#cbd5e0"/>
<text x="914" y="107" fill="#1a202c">+ id: string</text>
<text x="914" y="127" fill="#1a202c">+ name: string</text>
<rect x="813" y="210" width="267" height="120" filter="url(#drop-shadow)" fill="#fafbfc" stroke="#2d3748" stroke-width="2"/>
<text x="946" y="237" fill="#4a5568" font-style="italic" text-anchor="middle">&lt;&lt;component&gt;&gt;</text>
<text x="946" y="257" text-anchor="middle" fill="#1a202c" font-weight="bold">OrderService</text>
<line x1="813" y1="272" x2="1080" y2="272" stroke="#cbd5e0"/>
<text x="823" y="287" fill="#1a202c">+ GetOrder(id: string): string</text>
<text x="823" y="307" fill="#1a202c">+ CreateOrder(data: string): bool</text>
<rect x="1074" y="50" width="130" height="100" fill="#fafbfc" stroke="#2d3748" stroke-width="2" filter="url(#drop-shadow)"/>
<text x="1139" y="77" text-anchor="middle" fill="#1a202c" font-weight="bold">OrderData</text>
<line x1="1074" y1="92" x2="1204" y2="92" stroke="#cbd5e0"/>
<text x="1084" y="107" fill="#1a202c">+ id: string</text>
<text x="1084" y="127" fill="#1a202c">+ total: float</text>
<rect x="546" y="390" width="231" height="120" fill="#fafbfc" stroke="#2d3748" stroke-width="2" filter="url(#drop-shadow)"/>
<text x="661" y="417" text-anchor="middle" fill="#4a5568" font-style="italic">&lt;&lt;component&gt;&gt;</text>
<text x="661" y="437" text-anchor="middle" fill="#1a202c" font-weight="bold">UserRepository</text>
<line x1="546" y1="452" x2="777" y2="452" stroke="#cbd5e0"/>
<text x="556" y="467" fill="#1a202c">+ Find(id: string): string</text>
<text x="556" y="487" fill="#1a202c">+ Save(entity: string): bool</text>
<rect x="1244" y="50" width="130" height="100" fill="#fafbfc" stroke="#2d3748" stroke-width="2" filter="url(#drop-shadow)"/>
<text x="1309" y="77" text-anchor="middle" fill="#1a202c" font-weight="bold">UserEntity</text>
<line x1="1244" y1="92" x2="1374" y2="92" stroke="#cbd5e0"/>
<text x="1254" y="107" fill="#1a202c">+ id: string</text>
<text x="1254" y="127" fill="#1a202c">+ data: string</text>
<rect x="817" y="390" width="231" height="120" stroke-width="2" filter="url(#drop-shadow)" fill="#fafbfc" stroke="#2d3748"/>
<text x="932" y="417" text-anchor="middle" fill="#4a5568" font-style="italic">&lt;&lt;component&gt;&gt;</text>
<text x="932" y="437" font-weight="bold" text-anchor="middle" fill="#1a202c">OrderRepository</text>
<line x1="817" y1="452" x2="1048" y2="452" stroke="#cbd5e0"/>
<text x="827" y="467" fill="#1a202c">+ Find(id: string): string</text>
<text x="827" y="487" fill="#1a202c">+ Save(entity: string): bool</text>
<rect x="1414" y="50" width="130" height="100" filter="url(#drop-shadow)" fill="#fafbfc" stroke="#2d3748" stroke-width="2"/>
<text x="1479" y="77" text-anchor="middle" fill="#1a202c" font-weight="bold">OrderEntity</text>
<line x1="1414" y1="92" x2="1544" y2="92" stroke="#cbd5e0"/>
<text x="1424" y="107" fill="#1a202c">+ id: string</text>
<text x="1424" y="127" fill="#1a202c">+ data: string</text>
<line x1="259" y1="100" x2="259" y2="270" stroke="#2d3748" stroke-dasharray="5,5"/>
<line x1="259" y1="270" x2="513" y2="270" stroke="#2d3748" stroke-dasharray="5,5"/>
<polygon points="513,270 503,274 503,265" fill="#2d3748"/>
<line x1="665" y1="100" x2="665" y2="185" stroke="#2d3748" stroke-dasharray="5,5"/>
<line x1="665" y1="185" x2="813" y2="185" stroke="#2d3748" stroke-dasharray="5,5"/>
<line x1="813" y1="185" x2="813" y2="270" stroke="#2d3748" stroke-dasharray="5,5"/>
<polygon points="813,270 808,260 817,260" fill="#2d3748"/>
<line x1="643" y1="330" x2="661" y2="330" stroke="#2d3748" stroke-dasharray="5,5"/>
<line x1="661" y1="330" x2="661" y2="390" stroke="#2d3748" stroke-dasharray="5,5"/>
<polygon points="661,390 656,380 666,380" fill="#2d3748"/>
<line x1="946" y1="330" x2="932" y2="330" stroke-dasharray="5,5" stroke="#2d3748"/>
<line x1="932" y1="330" x2="932" y2="390" stroke="#2d3748" stroke-dasharray="5,5"/>
<polygon points="932,390 927,380 937,380" fill="#2d3748"/>
</svg>